<svg width="464" height="181" viewBox="0 0 464 181" fill="none" xmlns="http://www.w3.org/2000/svg">
<rect width="464" height="181" fill="#0A0F0B"/>
<path d="M24.7216 43V25.5455H27.8835V40.3494H35.571V43H24.7216ZM41.946 43.2642C41.1165 43.2642 40.3693 43.1165 39.7045 42.821C39.0455 42.5199 38.5227 42.0767 38.1364 41.4915C37.7557 40.9062 37.5653 40.1847 37.5653 39.3267C37.5653 38.5881 37.7017 37.9773 37.9744 37.4943C38.2472 37.0114 38.6193 36.625 39.0909 36.3352C39.5625 36.0455 40.0938 35.8267 40.6847 35.679C41.2813 35.5256 41.8977 35.4148 42.5341 35.3466C43.3011 35.267 43.9233 35.196 44.4006 35.1335C44.8778 35.0653 45.2244 34.9631 45.4403 34.8267C45.6619 34.6847 45.7727 34.4659 45.7727 34.1705V34.1193C45.7727 33.4773 45.5824 32.9801 45.2017 32.6278C44.821 32.2756 44.2727 32.0994 43.5568 32.0994C42.8011 32.0994 42.2017 32.2642 41.7585 32.5938C41.321 32.9233 41.0256 33.3125 40.8722 33.7614L37.9915 33.3523C38.2188 32.5568 38.5938 31.892 39.1165 31.358C39.6392 30.8182 40.2784 30.4148 41.0341 30.1477C41.7898 29.875 42.625 29.7386 43.5398 29.7386C44.1705 29.7386 44.7983 29.8125 45.4233 29.9602C46.0483 30.108 46.6193 30.3523 47.1364 30.6932C47.6534 31.0284 48.0682 31.4858 48.3807 32.0653C48.6989 32.6449 48.858 33.3693 48.858 34.2386V43H45.892V41.2017H45.7898C45.6023 41.5653 45.3381 41.9062 44.9972 42.2244C44.6619 42.5369 44.2386 42.7898 43.7273 42.983C43.2216 43.1705 42.6278 43.2642 41.946 43.2642ZM42.7472 40.9972C43.3665 40.9972 43.9034 40.875 44.358 40.6307C44.8125 40.3807 45.1619 40.0511 45.4062 39.642C45.6562 39.233 45.7812 38.7869 45.7812 38.304V36.7614C45.6847 36.8409 45.5199 36.9148 45.2869 36.983C45.0597 37.0511 44.804 37.1108 44.5199 37.1619C44.2358 37.2131 43.9545 37.2585 43.6761 37.2983C43.3977 37.3381 43.1563 37.3722 42.9517 37.4006C42.4915 37.4631 42.0795 37.5653 41.7159 37.7074C41.3523 37.8494 41.0653 38.0483 40.8551 38.304C40.6449 38.554 40.5398 38.8778 40.5398 39.2756C40.5398 39.8438 40.7472 40.2727 41.1619 40.5625C41.5767 40.8523 42.1051 40.9972 42.7472 40.9972ZM55.0455 35.3295V43H51.9602V29.9091H54.9091V32.1335H55.0625C55.3636 31.4006 55.8438 30.8182 56.5028 30.3864C57.1676 29.9545 57.9886 29.7386 58.9659 29.7386C59.8693 29.7386 60.6563 29.9318 61.3267 30.3182C62.0028 30.7045 62.5256 31.2642 62.8949 31.9972C63.2699 32.7301 63.4545 33.6193 63.4489 34.6648V43H60.3636V35.142C60.3636 34.267 60.1364 33.5824 59.6818 33.0881C59.233 32.5937 58.6108 32.3466 57.8153 32.3466C57.2756 32.3466 56.7955 32.4659 56.375 32.7045C55.9602 32.9375 55.6335 33.2756 55.3949 33.7188C55.1619 34.1619 55.0455 34.6989 55.0455 35.3295ZM72.2784 48.1818C71.1705 48.1818 70.2188 48.0313 69.4233 47.7301C68.6278 47.4347 67.9886 47.0369 67.5057 46.5369C67.0227 46.0369 66.6875 45.483 66.5 44.875L69.2784 44.2017C69.4034 44.4574 69.5852 44.7102 69.8239 44.9602C70.0625 45.2159 70.3835 45.4261 70.7869 45.5909C71.196 45.7614 71.7102 45.8466 72.3295 45.8466C73.2045 45.8466 73.929 45.6335 74.5028 45.2074C75.0767 44.7869 75.3636 44.0938 75.3636 43.1278V40.6477H75.2102C75.0511 40.9659 74.8182 41.2926 74.5114 41.6278C74.2102 41.9631 73.8097 42.2443 73.3097 42.4716C72.8153 42.6989 72.1932 42.8125 71.4432 42.8125C70.4375 42.8125 69.5256 42.5767 68.7074 42.1051C67.8949 41.6278 67.2472 40.9176 66.7642 39.9744C66.2869 39.0256 66.0483 37.8381 66.0483 36.4119C66.0483 34.9744 66.2869 33.7614 66.7642 32.7727C67.2472 31.7784 67.8977 31.0256 68.7159 30.5142C69.5341 29.9972 70.446 29.7386 71.4517 29.7386C72.2188 29.7386 72.8494 29.8693 73.3438 30.1307C73.8438 30.3864 74.2415 30.696 74.5369 31.0597C74.8324 31.4176 75.0568 31.7557 75.2102 32.0739H75.3807V29.9091H78.4233V43.2131C78.4233 44.3324 78.1563 45.2585 77.6222 45.9915C77.0881 46.7244 76.358 47.2727 75.4318 47.6364C74.5057 48 73.4545 48.1818 72.2784 48.1818ZM72.304 40.392C72.9574 40.392 73.5142 40.233 73.9744 39.9148C74.4347 39.5966 74.7841 39.1392 75.0227 38.5426C75.2614 37.946 75.3807 37.2301 75.3807 36.3949C75.3807 35.571 75.2614 34.8494 75.0227 34.2301C74.7898 33.6108 74.4432 33.1307 73.983 32.7898C73.5284 32.4432 72.9688 32.2699 72.304 32.2699C71.6165 32.2699 71.0426 32.4489 70.5824 32.8068C70.1222 33.1648 69.7756 33.6562 69.5426 34.2812C69.3097 34.9006 69.1932 35.6051 69.1932 36.3949C69.1932 37.196 69.3097 37.8977 69.5426 38.5C69.7813 39.0966 70.1307 39.5625 70.5909 39.8977C71.0568 40.2273 71.6278 40.392 72.304 40.392ZM89.929 37.4943V29.9091H93.0142V43H90.0227V40.6733H89.8864C89.5909 41.4062 89.1051 42.0057 88.429 42.4716C87.7585 42.9375 86.9318 43.1705 85.9489 43.1705C85.0909 43.1705 84.3324 42.9801 83.6733 42.5994C83.0199 42.2131 82.5085 41.6534 82.1392 40.9205C81.7699 40.1818 81.5852 39.2898 81.5852 38.2443V29.9091H84.6705V37.767C84.6705 38.5966 84.8977 39.2557 85.3523 39.7443C85.8068 40.233 86.4034 40.4773 87.142 40.4773C87.5966 40.4773 88.0369 40.3665 88.4631 40.1449C88.8892 39.9233 89.2386 39.5938 89.5114 39.1562C89.7898 38.7131 89.929 38.1591 89.929 37.4943ZM99.9538 43.2642C99.1243 43.2642 98.3771 43.1165 97.7124 42.821C97.0533 42.5199 96.5305 42.0767 96.1442 41.4915C95.7635 40.9062 95.5732 40.1847 95.5732 39.3267C95.5732 38.5881 95.7095 37.9773 95.9822 37.4943C96.255 37.0114 96.6271 36.625 97.0987 36.3352C97.5703 36.0455 98.1016 35.8267 98.6925 35.679C99.2891 35.5256 99.9055 35.4148 100.542 35.3466C101.309 35.267 101.931 35.196 102.408 35.1335C102.886 35.0653 103.232 34.9631 103.448 34.8267C103.67 34.6847 103.781 34.4659 103.781 34.1705V34.1193C103.781 33.4773 103.59 32.9801 103.21 32.6278C102.829 32.2756 102.281 32.0994 101.565 32.0994C100.809 32.0994 100.21 32.2642 99.7663 32.5938C99.3288 32.9233 99.0334 33.3125 98.88 33.7614L95.9993 33.3523C96.2266 32.5568 96.6016 31.892 97.1243 31.358C97.647 30.8182 98.2862 30.4148 99.0419 30.1477C99.7976 29.875 100.633 29.7386 101.548 29.7386C102.178 29.7386 102.806 29.8125 103.431 29.9602C104.056 30.108 104.627 30.3523 105.144 30.6932C105.661 31.0284 106.076 31.4858 106.388 32.0653C106.707 32.6449 106.866 33.3693 106.866 34.2386V43H103.9V41.2017H103.798C103.61 41.5653 103.346 41.9062 103.005 42.2244C102.67 42.5369 102.246 42.7898 101.735 42.983C101.229 43.1705 100.636 43.2642 99.9538 43.2642ZM100.755 40.9972C101.374 40.9972 101.911 40.875 102.366 40.6307C102.82 40.3807 103.17 40.0511 103.414 39.642C103.664 39.233 103.789 38.7869 103.789 38.304V36.7614C103.692 36.8409 103.528 36.9148 103.295 36.983C103.067 37.0511 102.812 37.1108 102.528 37.1619C102.244 37.2131 101.962 37.2585 101.684 37.2983C101.406 37.3381 101.164 37.3722 100.96 37.4006C100.499 37.4631 100.087 37.5653 99.7237 37.7074C99.3601 37.8494 99.0732 38.0483 98.8629 38.304C98.6527 38.554 98.5476 38.8778 98.5476 39.2756C98.5476 39.8438 98.755 40.2727 99.1697 40.5625C99.5845 40.8523 100.113 40.9972 100.755 40.9972ZM115.661 48.1818C114.553 48.1818 113.602 48.0313 112.806 47.7301C112.011 47.4347 111.371 47.0369 110.888 46.5369C110.406 46.0369 110.07 45.483 109.883 44.875L112.661 44.2017C112.786 44.4574 112.968 44.7102 113.207 44.9602C113.445 45.2159 113.766 45.4261 114.17 45.5909C114.579 45.7614 115.093 45.8466 115.712 45.8466C116.587 45.8466 117.312 45.6335 117.886 45.2074C118.46 44.7869 118.746 44.0938 118.746 43.1278V40.6477H118.593C118.434 40.9659 118.201 41.2926 117.894 41.6278C117.593 41.9631 117.192 42.2443 116.692 42.4716C116.198 42.6989 115.576 42.8125 114.826 42.8125C113.82 42.8125 112.908 42.5767 112.09 42.1051C111.278 41.6278 110.63 40.9176 110.147 39.9744C109.67 39.0256 109.431 37.8381 109.431 36.4119C109.431 34.9744 109.67 33.7614 110.147 32.7727C110.63 31.7784 111.281 31.0256 112.099 30.5142C112.917 29.9972 113.829 29.7386 114.835 29.7386C115.602 29.7386 116.232 29.8693 116.727 30.1307C117.227 30.3864 117.624 30.696 117.92 31.0597C118.215 31.4176 118.44 31.7557 118.593 32.0739H118.763V29.9091H121.806V43.2131C121.806 44.3324 121.539 45.2585 121.005 45.9915C120.471 46.7244 119.741 47.2727 118.815 47.6364C117.888 48 116.837 48.1818 115.661 48.1818ZM115.687 40.392C116.34 40.392 116.897 40.233 117.357 39.9148C117.817 39.5966 118.167 39.1392 118.406 38.5426C118.644 37.946 118.763 37.2301 118.763 36.3949C118.763 35.571 118.644 34.8494 118.406 34.2301C118.173 33.6108 117.826 33.1307 117.366 32.7898C116.911 32.4432 116.352 32.2699 115.687 32.2699C114.999 32.2699 114.425 32.4489 113.965 32.8068C113.505 33.1648 113.158 33.6562 112.925 34.2812C112.692 34.9006 112.576 35.6051 112.576 36.3949C112.576 37.196 112.692 37.8977 112.925 38.5C113.164 39.0966 113.513 39.5625 113.974 39.8977C114.44 40.2273 115.011 40.392 115.687 40.392ZM130.763 43.2557C129.451 43.2557 128.317 42.983 127.363 42.4375C126.414 41.8864 125.684 41.108 125.173 40.1023C124.661 39.0909 124.406 37.9006 124.406 36.5312C124.406 35.1847 124.661 34.0028 125.173 32.9858C125.69 31.9631 126.411 31.1676 127.337 30.5994C128.263 30.0256 129.352 29.7386 130.602 29.7386C131.408 29.7386 132.17 29.8693 132.886 30.1307C133.607 30.3864 134.244 30.7841 134.795 31.3239C135.352 31.8636 135.789 32.5511 136.107 33.3864C136.425 34.2159 136.585 35.2045 136.585 36.3523V37.2983H125.854V35.2188H133.627C133.621 34.6278 133.494 34.1023 133.244 33.642C132.994 33.1761 132.644 32.8097 132.195 32.5426C131.752 32.2756 131.235 32.142 130.644 32.142C130.013 32.142 129.46 32.2955 128.982 32.6023C128.505 32.9034 128.133 33.3011 127.866 33.7955C127.604 34.2841 127.471 34.821 127.465 35.4062V37.2216C127.465 37.983 127.604 38.6364 127.883 39.1818C128.161 39.7216 128.55 40.1364 129.05 40.4261C129.55 40.7102 130.136 40.8523 130.806 40.8523C131.255 40.8523 131.661 40.7898 132.025 40.6648C132.388 40.5341 132.704 40.3438 132.971 40.0938C133.238 39.8438 133.44 39.5341 133.576 39.1648L136.457 39.4886C136.275 40.25 135.928 40.9148 135.417 41.483C134.911 42.0455 134.263 42.483 133.474 42.7955C132.684 43.1023 131.781 43.2557 130.763 43.2557ZM145.148 47.9091V29.9091H148.182V32.0739H148.361C148.52 31.7557 148.744 31.4176 149.034 31.0597C149.324 30.696 149.716 30.3864 150.21 30.1307C150.705 29.8693 151.335 29.7386 152.102 29.7386C153.114 29.7386 154.026 29.9972 154.838 30.5142C155.656 31.0256 156.304 31.7841 156.781 32.7898C157.264 33.7898 157.506 35.017 157.506 36.4716C157.506 37.9091 157.27 39.1307 156.798 40.1364C156.327 41.142 155.685 41.9091 154.872 42.4375C154.06 42.9659 153.139 43.2301 152.111 43.2301C151.361 43.2301 150.739 43.1051 150.244 42.8551C149.75 42.6051 149.352 42.304 149.051 41.9517C148.756 41.5937 148.526 41.2557 148.361 40.9375H148.233V47.9091H145.148ZM148.173 36.4545C148.173 37.3011 148.293 38.0426 148.531 38.679C148.776 39.3153 149.125 39.8125 149.58 40.1705C150.04 40.5227 150.597 40.6989 151.25 40.6989C151.932 40.6989 152.503 40.517 152.963 40.1534C153.423 39.7841 153.77 39.2812 154.003 38.6449C154.241 38.0028 154.361 37.2727 154.361 36.4545C154.361 35.642 154.244 34.9205 154.011 34.2898C153.778 33.6591 153.432 33.1648 152.972 32.8068C152.511 32.4489 151.938 32.2699 151.25 32.2699C150.591 32.2699 150.031 32.4432 149.571 32.7898C149.111 33.1364 148.761 33.6222 148.523 34.2472C148.29 34.8722 148.173 35.608 148.173 36.4545ZM160.148 43V29.9091H163.139V32.0909H163.276C163.514 31.3352 163.923 30.7528 164.503 30.3438C165.088 29.929 165.756 29.7216 166.506 29.7216C166.676 29.7216 166.866 29.7301 167.077 29.7472C167.293 29.7585 167.472 29.7784 167.614 29.8068V32.6449C167.483 32.5994 167.276 32.5597 166.991 32.5256C166.713 32.4858 166.443 32.4659 166.182 32.4659C165.619 32.4659 165.114 32.5881 164.665 32.8324C164.222 33.071 163.872 33.4034 163.616 33.8295C163.361 34.2557 163.233 34.7472 163.233 35.304V43H160.148ZM174.835 43.2557C173.556 43.2557 172.448 42.9744 171.511 42.4119C170.573 41.8494 169.846 41.0625 169.329 40.0511C168.817 39.0398 168.562 37.858 168.562 36.5057C168.562 35.1534 168.817 33.9687 169.329 32.9517C169.846 31.9347 170.573 31.1449 171.511 30.5824C172.448 30.0199 173.556 29.7386 174.835 29.7386C176.113 29.7386 177.221 30.0199 178.158 30.5824C179.096 31.1449 179.82 31.9347 180.332 32.9517C180.849 33.9687 181.107 35.1534 181.107 36.5057C181.107 37.858 180.849 39.0398 180.332 40.0511C179.82 41.0625 179.096 41.8494 178.158 42.4119C177.221 42.9744 176.113 43.2557 174.835 43.2557ZM174.852 40.7841C175.545 40.7841 176.124 40.5937 176.59 40.2131C177.056 39.8267 177.403 39.3097 177.63 38.6619C177.863 38.0142 177.979 37.2926 177.979 36.4972C177.979 35.696 177.863 34.9716 177.63 34.3239C177.403 33.6705 177.056 33.1506 176.59 32.7642C176.124 32.3778 175.545 32.1847 174.852 32.1847C174.141 32.1847 173.55 32.3778 173.079 32.7642C172.613 33.1506 172.263 33.6705 172.031 34.3239C171.803 34.9716 171.69 35.696 171.69 36.4972C171.69 37.2926 171.803 38.0142 172.031 38.6619C172.263 39.3097 172.613 39.8267 173.079 40.2131C173.55 40.5937 174.141 40.7841 174.852 40.7841ZM190.357 29.9091V32.2955H182.618V29.9091H190.357ZM184.553 43V28.6733C184.553 27.7926 184.734 27.0597 185.098 26.4744C185.467 25.8892 185.962 25.4517 186.581 25.1619C187.2 24.8722 187.888 24.7273 188.643 24.7273C189.178 24.7273 189.652 24.7699 190.067 24.8551C190.482 24.9403 190.788 25.017 190.987 25.0852L190.374 27.4716C190.243 27.4318 190.078 27.392 189.879 27.3523C189.68 27.3068 189.459 27.2841 189.214 27.2841C188.641 27.2841 188.234 27.4233 187.996 27.7017C187.763 27.9744 187.646 28.3665 187.646 28.8778V43H184.553ZM192.773 43V29.9091H195.858V43H192.773ZM194.324 28.0511C193.835 28.0511 193.415 27.8892 193.062 27.5653C192.71 27.2358 192.534 26.8409 192.534 26.3807C192.534 25.9148 192.71 25.5199 193.062 25.196C193.415 24.8665 193.835 24.7017 194.324 24.7017C194.818 24.7017 195.239 24.8665 195.585 25.196C195.938 25.5199 196.114 25.9148 196.114 26.3807C196.114 26.8409 195.938 27.2358 195.585 27.5653C195.239 27.8892 194.818 28.0511 194.324 28.0511ZM204.741 43.2557C203.434 43.2557 202.312 42.9688 201.374 42.3949C200.442 41.821 199.724 41.0284 199.218 40.017C198.718 39 198.468 37.8295 198.468 36.5057C198.468 35.1761 198.724 34.0028 199.235 32.9858C199.746 31.9631 200.468 31.1676 201.4 30.5994C202.337 30.0256 203.445 29.7386 204.724 29.7386C205.786 29.7386 206.727 29.9347 207.545 30.3267C208.369 30.7131 209.025 31.2614 209.513 31.9716C210.002 32.6761 210.281 33.5 210.349 34.4432H207.4C207.281 33.8125 206.996 33.2869 206.548 32.8665C206.104 32.4403 205.511 32.2273 204.766 32.2273C204.136 32.2273 203.582 32.3977 203.104 32.7386C202.627 33.0739 202.255 33.5568 201.988 34.1875C201.727 34.8182 201.596 35.5739 201.596 36.4545C201.596 37.3466 201.727 38.1136 201.988 38.7557C202.249 39.392 202.616 39.8835 203.087 40.2301C203.565 40.571 204.124 40.7415 204.766 40.7415C205.221 40.7415 205.627 40.6562 205.985 40.4858C206.349 40.3097 206.653 40.0568 206.897 39.7273C207.141 39.3977 207.309 38.9972 207.4 38.5256H210.349C210.275 39.4517 210.002 40.2727 209.531 40.9886C209.059 41.6989 208.417 42.2557 207.604 42.6591C206.792 43.0568 205.837 43.2557 204.741 43.2557ZM212.882 43V29.9091H215.967V43H212.882ZM214.433 28.0511C213.945 28.0511 213.524 27.8892 213.172 27.5653C212.82 27.2358 212.643 26.8409 212.643 26.3807C212.643 25.9148 212.82 25.5199 213.172 25.196C213.524 24.8665 213.945 24.7017 214.433 24.7017C214.928 24.7017 215.348 24.8665 215.695 25.196C216.047 25.5199 216.223 25.9148 216.223 26.3807C216.223 26.8409 216.047 27.2358 215.695 27.5653C215.348 27.8892 214.928 28.0511 214.433 28.0511ZM224.935 43.2557C223.623 43.2557 222.489 42.983 221.535 42.4375C220.586 41.8864 219.856 41.108 219.344 40.1023C218.833 39.0909 218.577 37.9006 218.577 36.5312C218.577 35.1847 218.833 34.0028 219.344 32.9858C219.862 31.9631 220.583 31.1676 221.509 30.5994C222.435 30.0256 223.523 29.7386 224.773 29.7386C225.58 29.7386 226.342 29.8693 227.058 30.1307C227.779 30.3864 228.415 30.7841 228.967 31.3239C229.523 31.8636 229.961 32.5511 230.279 33.3864C230.597 34.2159 230.756 35.2045 230.756 36.3523V37.2983H220.026V35.2188H227.799C227.793 34.6278 227.665 34.1023 227.415 33.642C227.165 33.1761 226.816 32.8097 226.367 32.5426C225.924 32.2756 225.407 32.142 224.816 32.142C224.185 32.142 223.631 32.2955 223.154 32.6023C222.677 32.9034 222.305 33.3011 222.038 33.7955C221.776 34.2841 221.643 34.821 221.637 35.4062V37.2216C221.637 37.983 221.776 38.6364 222.055 39.1818C222.333 39.7216 222.722 40.1364 223.222 40.4261C223.722 40.7102 224.308 40.8523 224.978 40.8523C225.427 40.8523 225.833 40.7898 226.197 40.6648C226.56 40.5341 226.876 40.3438 227.143 40.0938C227.41 39.8438 227.612 39.5341 227.748 39.1648L230.629 39.4886C230.447 40.25 230.1 40.9148 229.589 41.483C229.083 42.0455 228.435 42.483 227.646 42.7955C226.856 43.1023 225.952 43.2557 224.935 43.2557ZM236.452 35.3295V43H233.366V29.9091H236.315V32.1335H236.469C236.77 31.4006 237.25 30.8182 237.909 30.3864C238.574 29.9545 239.395 29.7386 240.372 29.7386C241.276 29.7386 242.063 29.9318 242.733 30.3182C243.409 30.7045 243.932 31.2642 244.301 31.9972C244.676 32.7301 244.861 33.6193 244.855 34.6648V43H241.77V35.142C241.77 34.267 241.543 33.5824 241.088 33.0881C240.639 32.5937 240.017 32.3466 239.222 32.3466C238.682 32.3466 238.202 32.4659 237.781 32.7045C237.366 32.9375 237.04 33.2756 236.801 33.7188C236.568 34.1619 236.452 34.6989 236.452 35.3295ZM253.702 43.2557C252.395 43.2557 251.273 42.9688 250.335 42.3949C249.403 41.821 248.685 41.0284 248.179 40.017C247.679 39 247.429 37.8295 247.429 36.5057C247.429 35.1761 247.685 34.0028 248.196 32.9858C248.707 31.9631 249.429 31.1676 250.361 30.5994C251.298 30.0256 252.406 29.7386 253.685 29.7386C254.747 29.7386 255.688 29.9347 256.506 30.3267C257.33 30.7131 257.986 31.2614 258.474 31.9716C258.963 32.6761 259.241 33.5 259.31 34.4432H256.361C256.241 33.8125 255.957 33.2869 255.509 32.8665C255.065 32.4403 254.472 32.2273 253.727 32.2273C253.097 32.2273 252.543 32.3977 252.065 32.7386C251.588 33.0739 251.216 33.5568 250.949 34.1875C250.688 34.8182 250.557 35.5739 250.557 36.4545C250.557 37.3466 250.688 38.1136 250.949 38.7557C251.21 39.392 251.577 39.8835 252.048 40.2301C252.526 40.571 253.085 40.7415 253.727 40.7415C254.182 40.7415 254.588 40.6562 254.946 40.4858C255.31 40.3097 255.614 40.0568 255.858 39.7273C256.102 39.3977 256.27 38.9972 256.361 38.5256H259.31C259.236 39.4517 258.963 40.2727 258.491 40.9886C258.02 41.6989 257.378 42.2557 256.565 42.6591C255.753 43.0568 254.798 43.2557 253.702 43.2557ZM263.761 47.9091C263.34 47.9091 262.951 47.875 262.593 47.8068C262.241 47.7443 261.96 47.6705 261.749 47.5852L262.465 45.1818C262.914 45.3125 263.315 45.375 263.667 45.3693C264.019 45.3636 264.329 45.2528 264.596 45.0369C264.869 44.8267 265.099 44.4744 265.286 43.9801L265.55 43.2727L260.803 29.9091H264.076L267.093 39.7955H267.229L270.255 29.9091H273.536L268.295 44.5852C268.05 45.2784 267.727 45.8722 267.323 46.3665C266.92 46.8665 266.425 47.2472 265.84 47.5085C265.261 47.7756 264.567 47.9091 263.761 47.9091ZM281.309 31V29.2614C281.309 28.7614 281.403 28.2415 281.59 27.7017C281.783 27.1562 282.045 26.642 282.374 26.1591C282.71 25.6705 283.085 25.2585 283.499 24.9233L284.931 25.8523C284.596 26.358 284.315 26.8864 284.087 27.4375C283.866 27.983 283.758 28.5852 283.763 29.2443V31H281.309ZM285.63 31V29.2614C285.63 28.7614 285.724 28.2415 285.911 27.7017C286.104 27.1562 286.366 26.642 286.695 26.1591C287.031 25.6705 287.406 25.2585 287.82 24.9233L289.252 25.8523C288.917 26.358 288.636 26.8864 288.408 27.4375C288.187 27.983 288.079 28.5852 288.085 29.2443V31H285.63ZM303.251 31.1193C303.109 30.6591 302.913 30.2472 302.663 29.8835C302.418 29.5142 302.123 29.1989 301.776 28.9375C301.435 28.6761 301.043 28.4801 300.6 28.3494C300.157 28.2131 299.674 28.1449 299.151 28.1449C298.214 28.1449 297.379 28.3807 296.646 28.8523C295.913 29.3239 295.336 30.017 294.915 30.9318C294.501 31.8409 294.293 32.9489 294.293 34.2557C294.293 35.5739 294.501 36.6903 294.915 37.6051C295.33 38.5199 295.907 39.2159 296.646 39.6932C297.384 40.1648 298.242 40.4006 299.219 40.4006C300.106 40.4006 300.873 40.2301 301.521 39.8892C302.174 39.5483 302.677 39.0653 303.029 38.4403C303.381 37.8097 303.558 37.071 303.558 36.2244L304.273 36.3352H299.535V33.8636H306.617V35.9602C306.617 37.4545 306.299 38.7472 305.663 39.8381C305.026 40.929 304.151 41.7699 303.038 42.3608C301.924 42.946 300.646 43.2386 299.202 43.2386C297.594 43.2386 296.183 42.8778 294.967 42.1562C293.756 41.429 292.81 40.3977 292.129 39.0625C291.452 37.7216 291.114 36.1307 291.114 34.2898C291.114 32.8807 291.313 31.6222 291.711 30.5142C292.114 29.4062 292.677 28.4659 293.398 27.6932C294.12 26.9148 294.967 26.3239 295.938 25.9205C296.91 25.5114 297.967 25.3068 299.109 25.3068C300.075 25.3068 300.975 25.4489 301.81 25.733C302.646 26.0114 303.387 26.4091 304.035 26.9261C304.688 27.4432 305.225 28.0568 305.646 28.767C306.066 29.4773 306.342 30.2614 306.472 31.1193H303.251ZM320.678 25.5455H323.839V36.9489C323.839 38.1989 323.544 39.2983 322.953 40.2472C322.368 41.196 321.544 41.9375 320.482 42.4716C319.419 43 318.178 43.2642 316.757 43.2642C315.331 43.2642 314.087 43 313.024 42.4716C311.962 41.9375 311.138 41.196 310.553 40.2472C309.967 39.2983 309.675 38.1989 309.675 36.9489V25.5455H312.837V36.6847C312.837 37.4119 312.996 38.0597 313.314 38.6278C313.638 39.196 314.092 39.642 314.678 39.9659C315.263 40.2841 315.956 40.4432 316.757 40.4432C317.558 40.4432 318.251 40.2841 318.837 39.9659C319.428 39.642 319.882 39.196 320.2 38.6278C320.518 38.0597 320.678 37.4119 320.678 36.6847V25.5455ZM327.276 43V25.5455H330.438V40.3494H338.126V43H327.276ZM340.87 43V25.5455H347.415C348.756 25.5455 349.881 25.7955 350.79 26.2955C351.705 26.7955 352.396 27.483 352.862 28.358C353.333 29.2273 353.569 30.2159 353.569 31.3239C353.569 32.4432 353.333 33.4375 352.862 34.3068C352.39 35.1761 351.694 35.8608 350.773 36.3608C349.853 36.8551 348.719 37.1023 347.373 37.1023H343.035V34.5028H346.947C347.731 34.5028 348.373 34.3665 348.873 34.0938C349.373 33.821 349.742 33.446 349.981 32.9688C350.225 32.4915 350.347 31.9432 350.347 31.3239C350.347 30.7045 350.225 30.1591 349.981 29.6875C349.742 29.2159 349.37 28.8494 348.864 28.5881C348.364 28.321 347.719 28.1875 346.93 28.1875H344.032V43H340.87ZM358.795 25.5455V27.2841C358.795 27.7841 358.699 28.304 358.506 28.8438C358.318 29.3778 358.06 29.8892 357.73 30.3778C357.401 30.8608 357.026 31.2756 356.605 31.6222L355.173 30.6932C355.486 30.2216 355.759 29.7131 355.991 29.1676C356.224 28.6165 356.341 27.9943 356.341 27.3011V25.5455H358.795ZM363.099 25.5455V27.2841C363.099 27.7841 363.003 28.304 362.81 28.8438C362.622 29.3778 362.364 29.8892 362.034 30.3778C361.705 30.8608 361.332 31.2756 360.918 31.6222L359.486 30.6932C359.793 30.2216 360.063 29.7131 360.295 29.1676C360.528 28.6165 360.645 27.9943 360.645 27.3011V25.5455H363.099Z" fill="#91B302"/>
<path fill-rule="evenodd" clip-rule="evenodd" d="M32.5591 63.7965L31.2668 60L29.9745 63.7965C29.6986 64.607 28.9374 65.152 28.0812 65.152L24.0019 65.152L27.2209 67.3844C27.9547 67.8933 28.2622 68.827 27.9744 69.6724L26.7262 73.3394L30.1271 70.9808C30.8125 70.5054 31.7211 70.5054 32.4066 70.9808L35.8074 73.3394L34.5592 69.6724C34.2715 68.827 34.579 67.8933 35.3128 67.3844L38.5318 65.152H34.4524C33.5962 65.152 32.835 64.607 32.5591 63.7965ZM32.2135 59.6778C31.9059 58.7741 30.6278 58.7741 30.3202 59.6778L29.0279 63.4742C28.8899 63.8795 28.5093 64.152 28.0812 64.152H24.0019C23.0219 64.152 22.6267 65.4153 23.432 65.9737L26.651 68.2062C27.0179 68.4606 27.1717 68.9274 27.0278 69.3501L25.7796 73.0171C25.4687 73.9303 26.5034 74.7108 27.2961 74.1611L30.6969 71.8025C31.0397 71.5648 31.494 71.5648 31.8367 71.8025L35.2376 74.1611C36.0302 74.7108 37.0649 73.9303 36.7541 73.0171L35.5059 69.3501C35.362 68.9274 35.5158 68.4606 35.8827 68.2062L39.1017 65.9737C39.9069 65.4153 39.5117 64.152 38.5318 64.152H34.4524C34.0243 64.152 33.6437 63.8795 33.5058 63.4742L32.2135 59.6778Z" fill="#68B587"/>
<path d="M68.0455 68.1818C68.0455 69.4356 67.8106 70.5095 67.3409 71.4034C66.875 72.2936 66.2386 72.9754 65.4318 73.4489C64.6288 73.9223 63.7178 74.1591 62.6989 74.1591C61.6799 74.1591 60.767 73.9223 59.9602 73.4489C59.1572 72.9716 58.5208 72.2879 58.0511 71.3977C57.5852 70.5038 57.3523 69.4318 57.3523 68.1818C57.3523 66.928 57.5852 65.8561 58.0511 64.9659C58.5208 64.072 59.1572 63.3883 59.9602 62.9148C60.767 62.4413 61.6799 62.2045 62.6989 62.2045C63.7178 62.2045 64.6288 62.4413 65.4318 62.9148C66.2386 63.3883 66.875 64.072 67.3409 64.9659C67.8106 65.8561 68.0455 66.928 68.0455 68.1818ZM65.9261 68.1818C65.9261 67.2992 65.7879 66.5549 65.5114 65.9489C65.2386 65.339 64.8598 64.8788 64.375 64.5682C63.8902 64.2538 63.3314 64.0966 62.6989 64.0966C62.0663 64.0966 61.5076 64.2538 61.0227 64.5682C60.5379 64.8788 60.1572 65.339 59.8807 65.9489C59.608 66.5549 59.4716 67.2992 59.4716 68.1818C59.4716 69.0644 59.608 69.8106 59.8807 70.4205C60.1572 71.0265 60.5379 71.4867 61.0227 71.8011C61.5076 72.1117 62.0663 72.267 62.6989 72.267C63.3314 72.267 63.8902 72.1117 64.375 71.8011C64.8598 71.4867 65.2386 71.0265 65.5114 70.4205C65.7879 69.8106 65.9261 69.0644 65.9261 68.1818ZM71.7486 74L69.2827 65.2727H71.3793L72.9134 71.4091H72.9929L74.5611 65.2727H76.6349L78.2031 71.375H78.2884L79.7997 65.2727H81.902L79.4304 74H77.2884L75.652 68.1023H75.5327L73.8963 74H71.7486ZM85.3949 68.8864V74H83.3381V65.2727H85.304V66.7557H85.4062C85.607 66.267 85.9271 65.8788 86.3665 65.5909C86.8097 65.303 87.357 65.1591 88.0085 65.1591C88.6108 65.1591 89.1354 65.2879 89.5824 65.5455C90.0331 65.803 90.3816 66.1761 90.6278 66.6648C90.8778 67.1534 91.0009 67.7462 90.9972 68.4432V74H88.9403V68.7614C88.9403 68.178 88.7888 67.7216 88.4858 67.392C88.1866 67.0625 87.7718 66.8977 87.2415 66.8977C86.8816 66.8977 86.5616 66.9773 86.2812 67.1364C86.0047 67.2917 85.7869 67.517 85.6278 67.8125C85.4725 68.108 85.3949 68.4659 85.3949 68.8864ZM99.5682 74.1761C99.0152 74.1761 98.517 74.0777 98.0739 73.8807C97.6345 73.6799 97.286 73.3845 97.0284 72.9943C96.7746 72.6042 96.6477 72.1231 96.6477 71.5511C96.6477 71.0587 96.7386 70.6515 96.9205 70.3295C97.1023 70.0076 97.3504 69.75 97.6648 69.5568C97.9792 69.3636 98.3333 69.2178 98.7273 69.1193C99.125 69.017 99.536 68.9432 99.9602 68.8977C100.472 68.8447 100.886 68.7973 101.205 68.7557C101.523 68.7102 101.754 68.642 101.898 68.5511C102.045 68.4564 102.119 68.3106 102.119 68.1136V68.0795C102.119 67.6515 101.992 67.3201 101.739 67.0852C101.485 66.8504 101.119 66.733 100.642 66.733C100.138 66.733 99.7386 66.8428 99.4432 67.0625C99.1515 67.2822 98.9545 67.5417 98.8523 67.8409L96.9318 67.5682C97.0833 67.0379 97.3333 66.5947 97.6818 66.2386C98.0303 65.8788 98.4564 65.6098 98.9602 65.4318C99.464 65.25 100.021 65.1591 100.631 65.1591C101.051 65.1591 101.47 65.2083 101.886 65.3068C102.303 65.4053 102.684 65.5682 103.028 65.7955C103.373 66.0189 103.65 66.3239 103.858 66.7102C104.07 67.0966 104.176 67.5795 104.176 68.1591V74H102.199V72.8011H102.131C102.006 73.0436 101.83 73.2708 101.602 73.483C101.379 73.6913 101.097 73.8598 100.756 73.9886C100.419 74.1136 100.023 74.1761 99.5682 74.1761ZM100.102 72.6648C100.515 72.6648 100.873 72.5833 101.176 72.4205C101.479 72.2538 101.712 72.0341 101.875 71.7614C102.042 71.4886 102.125 71.1913 102.125 70.8693V69.8409C102.061 69.8939 101.951 69.9432 101.795 69.9886C101.644 70.0341 101.473 70.0739 101.284 70.108C101.095 70.142 100.907 70.1723 100.722 70.1989C100.536 70.2254 100.375 70.2481 100.239 70.267C99.9318 70.3087 99.6572 70.3769 99.4148 70.4716C99.1723 70.5663 98.9811 70.6989 98.8409 70.8693C98.7008 71.036 98.6307 71.2519 98.6307 71.517C98.6307 71.8958 98.7689 72.1818 99.0455 72.375C99.322 72.5682 99.6742 72.6648 100.102 72.6648ZM113.142 67.5795L111.267 67.7841C111.214 67.5947 111.121 67.4167 110.989 67.25C110.86 67.0833 110.686 66.9489 110.466 66.8466C110.246 66.7443 109.977 66.6932 109.659 66.6932C109.231 66.6932 108.871 66.786 108.58 66.9716C108.292 67.1572 108.15 67.3977 108.153 67.6932C108.15 67.947 108.242 68.1534 108.432 68.3125C108.625 68.4716 108.943 68.6023 109.386 68.7045L110.875 69.0227C111.701 69.2008 112.314 69.483 112.716 69.8693C113.121 70.2557 113.326 70.7614 113.33 71.3864C113.326 71.9356 113.165 72.4205 112.847 72.8409C112.532 73.2576 112.095 73.5833 111.534 73.8182C110.973 74.053 110.33 74.1705 109.602 74.1705C108.534 74.1705 107.674 73.947 107.023 73.5C106.371 73.0492 105.983 72.4223 105.858 71.6193L107.864 71.4261C107.955 71.8201 108.148 72.1174 108.443 72.3182C108.739 72.5189 109.123 72.6193 109.597 72.6193C110.085 72.6193 110.477 72.5189 110.773 72.3182C111.072 72.1174 111.222 71.8693 111.222 71.5739C111.222 71.3239 111.125 71.1174 110.932 70.9545C110.742 70.7917 110.447 70.6667 110.045 70.5795L108.557 70.267C107.72 70.0928 107.1 69.7992 106.699 69.3864C106.297 68.9697 106.098 68.4432 106.102 67.8068C106.098 67.2689 106.244 66.803 106.54 66.4091C106.839 66.0114 107.254 65.7045 107.784 65.4886C108.318 65.2689 108.934 65.1591 109.631 65.1591C110.653 65.1591 111.458 65.3769 112.045 65.8125C112.636 66.2481 113.002 66.8371 113.142 67.5795ZM121.923 67.5795L120.048 67.7841C119.995 67.5947 119.902 67.4167 119.77 67.25C119.641 67.0833 119.467 66.9489 119.247 66.8466C119.027 66.7443 118.759 66.6932 118.44 66.6932C118.012 66.6932 117.652 66.786 117.361 66.9716C117.073 67.1572 116.931 67.3977 116.935 67.6932C116.931 67.947 117.024 68.1534 117.213 68.3125C117.406 68.4716 117.724 68.6023 118.168 68.7045L119.656 69.0227C120.482 69.2008 121.096 69.483 121.497 69.8693C121.902 70.2557 122.107 70.7614 122.111 71.3864C122.107 71.9356 121.946 72.4205 121.628 72.8409C121.313 73.2576 120.876 73.5833 120.315 73.8182C119.755 74.053 119.111 74.1705 118.384 74.1705C117.315 74.1705 116.455 73.947 115.804 73.5C115.152 73.0492 114.764 72.4223 114.639 71.6193L116.645 71.4261C116.736 71.8201 116.929 72.1174 117.224 72.3182C117.52 72.5189 117.904 72.6193 118.378 72.6193C118.866 72.6193 119.259 72.5189 119.554 72.3182C119.853 72.1174 120.003 71.8693 120.003 71.5739C120.003 71.3239 119.906 71.1174 119.713 70.9545C119.524 70.7917 119.228 70.6667 118.827 70.5795L117.338 70.267C116.501 70.0928 115.882 69.7992 115.48 69.3864C115.079 68.9697 114.88 68.4432 114.884 67.8068C114.88 67.2689 115.026 66.803 115.321 66.4091C115.62 66.0114 116.035 65.7045 116.565 65.4886C117.099 65.2689 117.715 65.1591 118.412 65.1591C119.435 65.1591 120.24 65.3769 120.827 65.8125C121.418 66.2481 121.783 66.8371 121.923 67.5795ZM127.67 74.1705C126.795 74.1705 126.04 73.9886 125.403 73.625C124.771 73.2576 124.284 72.7386 123.943 72.0682C123.602 71.3939 123.432 70.6004 123.432 69.6875C123.432 68.7898 123.602 68.0019 123.943 67.3239C124.288 66.642 124.769 66.1117 125.386 65.733C126.004 65.3504 126.729 65.1591 127.562 65.1591C128.1 65.1591 128.608 65.2462 129.085 65.4205C129.566 65.5909 129.991 65.8561 130.358 66.2159C130.729 66.5758 131.021 67.0341 131.233 67.5909C131.445 68.1439 131.551 68.803 131.551 69.5682V70.1989H124.398V68.8125H129.58C129.576 68.4186 129.491 68.0682 129.324 67.7614C129.157 67.4508 128.924 67.2064 128.625 67.0284C128.33 66.8504 127.985 66.7614 127.591 66.7614C127.17 66.7614 126.801 66.8636 126.483 67.0682C126.165 67.2689 125.917 67.5341 125.739 67.8636C125.564 68.1894 125.475 68.5473 125.472 68.9375V70.1477C125.472 70.6553 125.564 71.0909 125.75 71.4545C125.936 71.8144 126.195 72.0909 126.528 72.2841C126.862 72.4735 127.252 72.5682 127.699 72.5682C127.998 72.5682 128.269 72.5265 128.511 72.4432C128.754 72.3561 128.964 72.2292 129.142 72.0625C129.32 71.8958 129.455 71.6894 129.545 71.4432L131.466 71.6591C131.345 72.1667 131.114 72.6098 130.773 72.9886C130.436 73.3636 130.004 73.6553 129.477 73.8636C128.951 74.0682 128.348 74.1705 127.67 74.1705ZM133.291 74V65.2727H135.257V66.7557H135.359C135.541 66.2557 135.842 65.8655 136.263 65.5852C136.683 65.3011 137.185 65.1591 137.768 65.1591C138.359 65.1591 138.857 65.303 139.263 65.5909C139.672 65.875 139.96 66.2633 140.126 66.7557H140.217C140.411 66.2708 140.736 65.8845 141.195 65.5966C141.657 65.3049 142.204 65.1591 142.837 65.1591C143.64 65.1591 144.295 65.4129 144.803 65.9205C145.31 66.428 145.564 67.1686 145.564 68.142V74H143.501V68.4602C143.501 67.9186 143.357 67.5227 143.07 67.2727C142.782 67.0189 142.429 66.892 142.013 66.892C141.517 66.892 141.128 67.0473 140.848 67.358C140.571 67.6648 140.433 68.0644 140.433 68.5568V74H138.416V68.375C138.416 67.9242 138.28 67.5644 138.007 67.2955C137.738 67.0265 137.386 66.892 136.95 66.892C136.655 66.892 136.386 66.9678 136.143 67.1193C135.901 67.267 135.708 67.4773 135.564 67.75C135.42 68.0189 135.348 68.3333 135.348 68.6932V74H133.291ZM147.741 74V62.3636H149.798V66.7159H149.884C149.99 66.5038 150.139 66.2784 150.332 66.0398C150.526 65.7973 150.787 65.5909 151.116 65.4205C151.446 65.2462 151.866 65.1591 152.378 65.1591C153.052 65.1591 153.66 65.3314 154.202 65.6761C154.747 66.017 155.179 66.5227 155.497 67.1932C155.819 67.8598 155.98 68.678 155.98 69.6477C155.98 70.6061 155.823 71.4205 155.509 72.0909C155.194 72.7614 154.766 73.2727 154.224 73.625C153.683 73.9773 153.069 74.1534 152.384 74.1534C151.884 74.1534 151.469 74.0701 151.139 73.9034C150.81 73.7367 150.545 73.536 150.344 73.3011C150.147 73.0625 149.993 72.8371 149.884 72.625H149.764V74H147.741ZM149.759 69.6364C149.759 70.2008 149.838 70.6951 149.997 71.1193C150.16 71.5436 150.393 71.875 150.696 72.1136C151.003 72.3485 151.374 72.4659 151.81 72.4659C152.264 72.4659 152.645 72.3447 152.952 72.1023C153.259 71.8561 153.49 71.5208 153.645 71.0966C153.804 70.6686 153.884 70.1818 153.884 69.6364C153.884 69.0947 153.806 68.6136 153.651 68.1932C153.495 67.7727 153.264 67.4432 152.957 67.2045C152.651 66.9659 152.268 66.8466 151.81 66.8466C151.37 66.8466 150.997 66.9621 150.69 67.1932C150.384 67.4242 150.151 67.7481 149.991 68.1648C149.836 68.5814 149.759 69.072 149.759 69.6364ZM159.786 62.3636V74H157.729V62.3636H159.786ZM163.179 77.2727C162.899 77.2727 162.639 77.25 162.401 77.2045C162.166 77.1629 161.978 77.1136 161.838 77.0568L162.315 75.4545C162.615 75.5417 162.882 75.5833 163.116 75.5795C163.351 75.5758 163.558 75.5019 163.736 75.358C163.918 75.2178 164.071 74.983 164.196 74.6534L164.372 74.1818L161.207 65.2727H163.389L165.401 71.8636H165.491L167.509 65.2727H169.696L166.202 75.0568C166.039 75.5189 165.823 75.9148 165.554 76.2443C165.285 76.5777 164.955 76.8314 164.565 77.0057C164.179 77.1837 163.717 77.2727 163.179 77.2727Z" fill="#68B587"/>
<path d="M435.5 102C435.5 125.981 415.845 145.5 391.5 145.5C367.155 145.5 347.5 125.981 347.5 102C347.5 78.0195 367.155 58.5 391.5 58.5C415.845 58.5 435.5 78.0195 435.5 102Z" stroke="#2A3609" stroke-width="9"/>
<mask id="path-6-inside-1_29_82" fill="white">
<path d="M383.227 54.7035C391.667 53.2575 400.343 54.0493 408.373 56.9985C416.404 59.9477 423.502 64.9491 428.945 71.494L422.251 76.948C417.78 71.5733 411.951 67.4661 405.357 65.0442C398.762 62.6222 391.637 61.9719 384.706 63.1594L383.227 54.7035Z"/>
</mask>
<path d="M383.227 54.7035C391.667 53.2575 400.343 54.0493 408.373 56.9985C416.404 59.9477 423.502 64.9491 428.945 71.494L422.251 76.948C417.78 71.5733 411.951 67.4661 405.357 65.0442C398.762 62.6222 391.637 61.9719 384.706 63.1594L383.227 54.7035Z" stroke="#91B302" stroke-width="18" mask="url(#path-6-inside-1_29_82)"/>
<path d="M367.551 111V108.716L373.611 102.776C374.19 102.19 374.673 101.67 375.06 101.216C375.446 100.761 375.736 100.321 375.929 99.8949C376.122 99.4687 376.219 99.0142 376.219 98.5312C376.219 97.9801 376.094 97.5085 375.844 97.1165C375.594 96.7188 375.25 96.4119 374.812 96.196C374.375 95.9801 373.878 95.8722 373.321 95.8722C372.747 95.8722 372.244 95.9915 371.812 96.2301C371.381 96.4631 371.045 96.7955 370.807 97.2273C370.574 97.6591 370.457 98.1733 370.457 98.7699H367.449C367.449 97.6619 367.702 96.6989 368.207 95.8807C368.713 95.0625 369.409 94.429 370.295 93.9801C371.188 93.5312 372.21 93.3068 373.364 93.3068C374.534 93.3068 375.563 93.5256 376.449 93.9631C377.335 94.4006 378.023 95 378.511 95.7614C379.006 96.5227 379.253 97.392 379.253 98.3693C379.253 99.0227 379.128 99.6648 378.878 100.295C378.628 100.926 378.188 101.625 377.557 102.392C376.932 103.159 376.054 104.088 374.923 105.179L371.915 108.239V108.358H379.517V111H367.551ZM388.909 111.332C387.506 111.332 386.301 110.977 385.295 110.267C384.295 109.551 383.526 108.52 382.986 107.173C382.452 105.821 382.185 104.193 382.185 102.29C382.19 100.386 382.46 98.767 382.994 97.4318C383.534 96.0909 384.304 95.0682 385.304 94.3636C386.31 93.6591 387.511 93.3068 388.909 93.3068C390.307 93.3068 391.509 93.6591 392.514 94.3636C393.52 95.0682 394.29 96.0909 394.824 97.4318C395.364 98.7727 395.634 100.392 395.634 102.29C395.634 104.199 395.364 105.83 394.824 107.182C394.29 108.528 393.52 109.557 392.514 110.267C391.514 110.977 390.313 111.332 388.909 111.332ZM388.909 108.665C390 108.665 390.861 108.128 391.491 107.054C392.128 105.974 392.446 104.386 392.446 102.29C392.446 100.903 392.301 99.7386 392.011 98.7955C391.722 97.8523 391.313 97.142 390.784 96.6648C390.256 96.1818 389.631 95.9403 388.909 95.9403C387.824 95.9403 386.966 96.4801 386.335 97.5597C385.705 98.6335 385.386 100.21 385.381 102.29C385.375 103.682 385.514 104.852 385.798 105.801C386.088 106.75 386.497 107.466 387.026 107.949C387.554 108.426 388.182 108.665 388.909 108.665ZM407.798 107.727V106.807C407.798 106.131 407.94 105.509 408.224 104.94C408.513 104.372 408.934 103.915 409.485 103.568C410.036 103.222 410.704 103.048 411.488 103.048C412.295 103.048 412.971 103.222 413.516 103.568C414.062 103.909 414.474 104.364 414.752 104.932C415.036 105.5 415.178 106.125 415.178 106.807V107.727C415.178 108.403 415.036 109.026 414.752 109.594C414.468 110.162 414.05 110.619 413.499 110.966C412.954 111.313 412.283 111.486 411.488 111.486C410.692 111.486 410.019 111.313 409.468 110.966C408.917 110.619 408.499 110.162 408.215 109.594C407.937 109.026 407.798 108.403 407.798 107.727ZM410.022 106.807V107.727C410.022 108.176 410.13 108.588 410.346 108.963C410.562 109.338 410.942 109.526 411.488 109.526C412.039 109.526 412.417 109.341 412.621 108.972C412.832 108.597 412.937 108.182 412.937 107.727V106.807C412.937 106.352 412.837 105.938 412.638 105.562C412.44 105.182 412.056 104.991 411.488 104.991C410.954 104.991 410.576 105.182 410.354 105.562C410.133 105.938 410.022 106.352 410.022 106.807ZM398.925 97.7386V96.8182C398.925 96.1364 399.07 95.5114 399.36 94.9432C399.65 94.375 400.07 93.9205 400.621 93.5795C401.173 93.233 401.84 93.0597 402.624 93.0597C403.425 93.0597 404.099 93.233 404.644 93.5795C405.195 93.9205 405.61 94.375 405.888 94.9432C406.167 95.5114 406.306 96.1364 406.306 96.8182V97.7386C406.306 98.4205 406.164 99.0455 405.88 99.6136C405.602 100.176 405.187 100.628 404.636 100.969C404.085 101.31 403.414 101.48 402.624 101.48C401.823 101.48 401.147 101.31 400.596 100.969C400.05 100.628 399.636 100.173 399.352 99.6051C399.067 99.0369 398.925 98.4148 398.925 97.7386ZM401.167 96.8182V97.7386C401.167 98.1932 401.272 98.608 401.482 98.983C401.698 99.3523 402.079 99.5369 402.624 99.5369C403.17 99.5369 403.545 99.3523 403.749 98.983C403.96 98.608 404.065 98.1932 404.065 97.7386V96.8182C404.065 96.3636 403.965 95.9489 403.766 95.5739C403.567 95.1932 403.187 95.0028 402.624 95.0028C402.085 95.0028 401.707 95.1932 401.491 95.5739C401.275 95.9545 401.167 96.3693 401.167 96.8182ZM399.897 111L411.897 93.5455H414.028L402.028 111H399.897Z" fill="#68B587"/>
<path d="M60.8636 101.17C59.9924 101.17 59.2443 100.979 58.6193 100.597C57.9981 100.214 57.5189 99.6856 57.1818 99.0114C56.8485 98.3333 56.6818 97.553 56.6818 96.6705C56.6818 95.7841 56.8523 95.0019 57.1932 94.3239C57.5341 93.642 58.0152 93.1117 58.6364 92.733C59.2614 92.3504 60 92.1591 60.8523 92.1591C61.5606 92.1591 62.1875 92.2898 62.733 92.5511C63.2822 92.8087 63.7197 93.1742 64.0455 93.6477C64.3712 94.1174 64.5568 94.6667 64.6023 95.2955H62.6364C62.5568 94.875 62.3674 94.5246 62.0682 94.2443C61.7727 93.9602 61.3769 93.8182 60.8807 93.8182C60.4602 93.8182 60.0909 93.9318 59.7727 94.1591C59.4545 94.3826 59.2064 94.7045 59.0284 95.125C58.8542 95.5455 58.767 96.0492 58.767 96.6364C58.767 97.2311 58.8542 97.7424 59.0284 98.1705C59.2027 98.5947 59.447 98.9223 59.7614 99.1534C60.0795 99.3807 60.4527 99.4943 60.8807 99.4943C61.1837 99.4943 61.4545 99.4375 61.6932 99.3239C61.9356 99.2064 62.1383 99.0379 62.3011 98.8182C62.464 98.5985 62.5758 98.3314 62.6364 98.017H64.6023C64.553 98.6345 64.3712 99.1818 64.0568 99.6591C63.7424 100.133 63.3144 100.504 62.7727 100.773C62.2311 101.038 61.5947 101.17 60.8636 101.17ZM70.098 101.17C69.2457 101.17 68.5071 100.983 67.8821 100.608C67.2571 100.233 66.7723 99.7083 66.4276 99.0341C66.0866 98.3598 65.9162 97.572 65.9162 96.6705C65.9162 95.7689 66.0866 94.9792 66.4276 94.3011C66.7723 93.6231 67.2571 93.0966 67.8821 92.7216C68.5071 92.3466 69.2457 92.1591 70.098 92.1591C70.9503 92.1591 71.6889 92.3466 72.3139 92.7216C72.9389 93.0966 73.4219 93.6231 73.7628 94.3011C74.1075 94.9792 74.2798 95.7689 74.2798 96.6705C74.2798 97.572 74.1075 98.3598 73.7628 99.0341C73.4219 99.7083 72.9389 100.233 72.3139 100.608C71.6889 100.983 70.9503 101.17 70.098 101.17ZM70.1094 99.5227C70.5715 99.5227 70.9579 99.3958 71.2685 99.142C71.5791 98.8845 71.8101 98.5398 71.9616 98.108C72.117 97.6761 72.1946 97.1951 72.1946 96.6648C72.1946 96.1307 72.117 95.6477 71.9616 95.2159C71.8101 94.7803 71.5791 94.4337 71.2685 94.1761C70.9579 93.9186 70.5715 93.7898 70.1094 93.7898C69.6359 93.7898 69.242 93.9186 68.9276 94.1761C68.617 94.4337 68.384 94.7803 68.2287 95.2159C68.0772 95.6477 68.0014 96.1307 68.0014 96.6648C68.0014 97.1951 68.0772 97.6761 68.2287 98.108C68.384 98.5398 68.617 98.8845 68.9276 99.142C69.242 99.3958 69.6359 99.5227 70.1094 99.5227ZM79.2642 101.153C78.5786 101.153 77.965 100.977 77.4233 100.625C76.8816 100.273 76.4536 99.7614 76.1392 99.0909C75.8248 98.4205 75.6676 97.6061 75.6676 96.6477C75.6676 95.678 75.8267 94.8598 76.1449 94.1932C76.4669 93.5227 76.9006 93.017 77.446 92.6761C77.9915 92.3314 78.5994 92.1591 79.2699 92.1591C79.7813 92.1591 80.2017 92.2462 80.5312 92.4205C80.8608 92.5909 81.1222 92.7973 81.3153 93.0398C81.5085 93.2784 81.6581 93.5038 81.7642 93.7159H81.8494V89.3636H83.9119V101H81.8892V99.625H81.7642C81.6581 99.8371 81.5047 100.062 81.304 100.301C81.1032 100.536 80.8381 100.737 80.5085 100.903C80.179 101.07 79.7642 101.153 79.2642 101.153ZM79.8381 99.4659C80.2737 99.4659 80.6449 99.3485 80.9517 99.1136C81.2585 98.875 81.4915 98.5436 81.6506 98.1193C81.8097 97.6951 81.8892 97.2008 81.8892 96.6364C81.8892 96.072 81.8097 95.5814 81.6506 95.1648C81.4953 94.7481 81.2642 94.4242 80.9574 94.1932C80.6544 93.9621 80.2813 93.8466 79.8381 93.8466C79.3797 93.8466 78.9972 93.9659 78.6903 94.2045C78.3835 94.4432 78.1525 94.7727 77.9972 95.1932C77.8419 95.6136 77.7642 96.0947 77.7642 96.6364C77.7642 97.1818 77.8419 97.6686 77.9972 98.0966C78.1563 98.5208 78.3892 98.8561 78.696 99.1023C79.0066 99.3447 79.3873 99.4659 79.8381 99.4659ZM89.9673 101.17C89.0923 101.17 88.3366 100.989 87.7003 100.625C87.0677 100.258 86.581 99.7386 86.2401 99.0682C85.8991 98.3939 85.7287 97.6004 85.7287 96.6875C85.7287 95.7898 85.8991 95.0019 86.2401 94.3239C86.5848 93.642 87.0658 93.1117 87.6832 92.733C88.3007 92.3504 89.026 92.1591 89.8594 92.1591C90.3973 92.1591 90.9048 92.2462 91.3821 92.4205C91.8632 92.5909 92.2874 92.8561 92.6548 93.2159C93.026 93.5758 93.3177 94.0341 93.5298 94.5909C93.742 95.1439 93.848 95.803 93.848 96.5682V97.1989H86.6946V95.8125H91.8764C91.8726 95.4186 91.7874 95.0682 91.6207 94.7614C91.4541 94.4508 91.2211 94.2064 90.9219 94.0284C90.6264 93.8504 90.2817 93.7614 89.8878 93.7614C89.4673 93.7614 89.098 93.8636 88.7798 94.0682C88.4616 94.2689 88.2135 94.5341 88.0355 94.8636C87.8613 95.1894 87.7723 95.5473 87.7685 95.9375V97.1477C87.7685 97.6553 87.8613 98.0909 88.0469 98.4545C88.2325 98.8144 88.492 99.0909 88.8253 99.2841C89.1586 99.4735 89.5488 99.5682 89.9957 99.5682C90.295 99.5682 90.5658 99.5265 90.8082 99.4432C91.0507 99.3561 91.2609 99.2292 91.4389 99.0625C91.617 98.8958 91.7514 98.6894 91.8423 98.4432L93.7628 98.6591C93.6416 99.1667 93.4105 99.6098 93.0696 99.9886C92.7325 100.364 92.3007 100.655 91.7741 100.864C91.2476 101.068 90.6454 101.17 89.9673 101.17ZM99.5568 101V92.2727H101.523V93.7557H101.625C101.807 93.2557 102.108 92.8655 102.528 92.5852C102.949 92.3011 103.451 92.1591 104.034 92.1591C104.625 92.1591 105.123 92.303 105.528 92.5909C105.938 92.875 106.225 93.2633 106.392 93.7557H106.483C106.676 93.2708 107.002 92.8845 107.46 92.5966C107.922 92.3049 108.47 92.1591 109.102 92.1591C109.905 92.1591 110.561 92.4129 111.068 92.9205C111.576 93.428 111.83 94.1686 111.83 95.142V101H109.767V95.4602C109.767 94.9186 109.623 94.5227 109.335 94.2727C109.047 94.0189 108.695 93.892 108.278 93.892C107.782 93.892 107.394 94.0473 107.114 94.358C106.837 94.6648 106.699 95.0644 106.699 95.5568V101H104.682V95.375C104.682 94.9242 104.545 94.5644 104.273 94.2955C104.004 94.0265 103.652 93.892 103.216 93.892C102.92 93.892 102.652 93.9678 102.409 94.1193C102.167 94.267 101.973 94.4773 101.83 94.75C101.686 95.0189 101.614 95.3333 101.614 95.6932V101H99.5568ZM113.916 101V92.2727H115.973V101H113.916ZM114.95 91.0341C114.625 91.0341 114.344 90.9261 114.109 90.7102C113.875 90.4905 113.757 90.2273 113.757 89.9205C113.757 89.6098 113.875 89.3466 114.109 89.1307C114.344 88.911 114.625 88.8011 114.95 88.8011C115.28 88.8011 115.56 88.911 115.791 89.1307C116.026 89.3466 116.143 89.6098 116.143 89.9205C116.143 90.2273 116.026 90.4905 115.791 90.7102C115.56 90.9261 115.28 91.0341 114.95 91.0341ZM120.145 95.8864V101H118.088V92.2727H120.054V93.7557H120.156C120.357 93.267 120.677 92.8788 121.116 92.5909C121.56 92.303 122.107 92.1591 122.759 92.1591C123.361 92.1591 123.885 92.2879 124.332 92.5455C124.783 92.803 125.132 93.1761 125.378 93.6648C125.628 94.1534 125.751 94.7462 125.747 95.4432V101H123.69V95.7614C123.69 95.178 123.539 94.7216 123.236 94.392C122.937 94.0625 122.522 93.8977 121.991 93.8977C121.632 93.8977 121.312 93.9773 121.031 94.1364C120.755 94.2917 120.537 94.517 120.378 94.8125C120.223 95.108 120.145 95.4659 120.145 95.8864ZM127.838 101V92.2727H129.895V101H127.838ZM128.872 91.0341C128.546 91.0341 128.266 90.9261 128.031 90.7102C127.796 90.4905 127.679 90.2273 127.679 89.9205C127.679 89.6098 127.796 89.3466 128.031 89.1307C128.266 88.911 128.546 88.8011 128.872 88.8011C129.202 88.8011 129.482 88.911 129.713 89.1307C129.948 89.3466 130.065 89.6098 130.065 89.9205C130.065 90.2273 129.948 90.4905 129.713 90.7102C129.482 90.9261 129.202 91.0341 128.872 91.0341ZM136.43 92.2727V93.8636H131.271V92.2727H136.43ZM132.561 101V91.4489C132.561 90.8617 132.682 90.3731 132.925 89.983C133.171 89.5928 133.5 89.3011 133.913 89.108C134.326 88.9148 134.785 88.8182 135.288 88.8182C135.644 88.8182 135.961 88.8466 136.237 88.9034C136.514 88.9602 136.718 89.0114 136.851 89.0568L136.442 90.6477C136.355 90.6212 136.245 90.5947 136.112 90.5682C135.98 90.5379 135.832 90.5227 135.669 90.5227C135.286 90.5227 135.016 90.6155 134.857 90.8011C134.701 90.983 134.624 91.2443 134.624 91.5852V101H132.561ZM138.041 101V92.2727H140.098V101H138.041ZM139.075 91.0341C138.75 91.0341 138.469 90.9261 138.234 90.7102C138 90.4905 137.882 90.2273 137.882 89.9205C137.882 89.6098 138 89.3466 138.234 89.1307C138.469 88.911 138.75 88.8011 139.075 88.8011C139.405 88.8011 139.685 88.911 139.916 89.1307C140.151 89.3466 140.268 89.6098 140.268 89.9205C140.268 90.2273 140.151 90.4905 139.916 90.7102C139.685 90.9261 139.405 91.0341 139.075 91.0341ZM146.077 101.17C145.202 101.17 144.446 100.989 143.81 100.625C143.177 100.258 142.69 99.7386 142.349 99.0682C142.009 98.3939 141.838 97.6004 141.838 96.6875C141.838 95.7898 142.009 95.0019 142.349 94.3239C142.694 93.642 143.175 93.1117 143.793 92.733C144.41 92.3504 145.135 92.1591 145.969 92.1591C146.507 92.1591 147.014 92.2462 147.491 92.4205C147.973 92.5909 148.397 92.8561 148.764 93.2159C149.135 93.5758 149.427 94.0341 149.639 94.5909C149.851 95.1439 149.957 95.803 149.957 96.5682V97.1989H142.804V95.8125H147.986C147.982 95.4186 147.897 95.0682 147.73 94.7614C147.563 94.4508 147.33 94.2064 147.031 94.0284C146.736 93.8504 146.391 93.7614 145.997 93.7614C145.577 93.7614 145.207 93.8636 144.889 94.0682C144.571 94.2689 144.323 94.5341 144.145 94.8636C143.971 95.1894 143.882 95.5473 143.878 95.9375V97.1477C143.878 97.6553 143.971 98.0909 144.156 98.4545C144.342 98.8144 144.601 99.0909 144.935 99.2841C145.268 99.4735 145.658 99.5682 146.105 99.5682C146.404 99.5682 146.675 99.5265 146.918 99.4432C147.16 99.3561 147.37 99.2292 147.548 99.0625C147.726 98.8958 147.861 98.6894 147.952 98.4432L149.872 98.6591C149.751 99.1667 149.52 99.6098 149.179 99.9886C148.842 100.364 148.41 100.655 147.884 100.864C147.357 101.068 146.755 101.17 146.077 101.17ZM151.697 101V92.2727H153.692V93.7273H153.783C153.942 93.2235 154.214 92.8352 154.601 92.5625C154.991 92.286 155.436 92.1477 155.936 92.1477C156.05 92.1477 156.177 92.1534 156.317 92.1648C156.461 92.1723 156.58 92.1856 156.675 92.2045V94.0966C156.588 94.0663 156.449 94.0398 156.26 94.017C156.074 93.9905 155.894 93.9773 155.72 93.9773C155.345 93.9773 155.008 94.0587 154.709 94.2216C154.413 94.3807 154.18 94.6023 154.01 94.8864C153.839 95.1705 153.754 95.4981 153.754 95.8693V101H151.697Z" fill="#68B587"/>
<path fill-rule="evenodd" clip-rule="evenodd" d="M32.5591 92.7965L31.2668 89L29.9745 92.7965C29.6986 93.607 28.9374 94.152 28.0812 94.152L24.0019 94.152L27.2209 96.3844C27.9547 96.8933 28.2622 97.827 27.9744 98.6724L26.7262 102.339L30.1271 99.9808C30.8125 99.5054 31.7211 99.5054 32.4066 99.9808L35.8074 102.339L34.5592 98.6724C34.2715 97.827 34.579 96.8933 35.3128 96.3844L38.5318 94.152H34.4524C33.5962 94.152 32.835 93.607 32.5591 92.7965ZM32.2135 88.6778C31.9059 87.7741 30.6278 87.7741 30.3202 88.6778L29.0279 92.4742C28.8899 92.8795 28.5093 93.152 28.0812 93.152H24.0019C23.0219 93.152 22.6267 94.4153 23.432 94.9737L26.651 97.2062C27.0179 97.4606 27.1717 97.9274 27.0278 98.3501L25.7796 102.017C25.4687 102.93 26.5034 103.711 27.2961 103.161L30.6969 100.803C31.0397 100.565 31.494 100.565 31.8367 100.803L35.2376 103.161C36.0302 103.711 37.0649 102.93 36.7541 102.017L35.5059 98.3501C35.362 97.9274 35.5158 97.4606 35.8827 97.2062L39.1017 94.9737C39.9069 94.4153 39.5117 93.152 38.5318 93.152H34.4524C34.0243 93.152 33.6437 92.8795 33.5058 92.4742L32.2135 88.6778Z" fill="#68B587"/>
<path d="M57.0568 130V121.273H59.0511V122.727H59.142C59.3011 122.223 59.5739 121.835 59.9602 121.562C60.3504 121.286 60.7955 121.148 61.2955 121.148C61.4091 121.148 61.536 121.153 61.6761 121.165C61.8201 121.172 61.9394 121.186 62.0341 121.205V123.097C61.947 123.066 61.8087 123.04 61.6193 123.017C61.4337 122.991 61.2538 122.977 61.0795 122.977C60.7045 122.977 60.3674 123.059 60.0682 123.222C59.7727 123.381 59.5398 123.602 59.3693 123.886C59.1989 124.17 59.1136 124.498 59.1136 124.869V130H57.0568ZM66.9048 130.17C66.0298 130.17 65.2741 129.989 64.6378 129.625C64.0052 129.258 63.5185 128.739 63.1776 128.068C62.8366 127.394 62.6662 126.6 62.6662 125.688C62.6662 124.79 62.8366 124.002 63.1776 123.324C63.5223 122.642 64.0033 122.112 64.6207 121.733C65.2382 121.35 65.9635 121.159 66.7969 121.159C67.3348 121.159 67.8423 121.246 68.3196 121.42C68.8007 121.591 69.2249 121.856 69.5923 122.216C69.9635 122.576 70.2552 123.034 70.4673 123.591C70.6795 124.144 70.7855 124.803 70.7855 125.568V126.199H63.6321V124.812H68.8139C68.8101 124.419 68.7249 124.068 68.5582 123.761C68.3916 123.451 68.1586 123.206 67.8594 123.028C67.5639 122.85 67.2192 122.761 66.8253 122.761C66.4048 122.761 66.0355 122.864 65.7173 123.068C65.3991 123.269 65.151 123.534 64.973 123.864C64.7988 124.189 64.7098 124.547 64.706 124.938V126.148C64.706 126.655 64.7988 127.091 64.9844 127.455C65.17 127.814 65.4295 128.091 65.7628 128.284C66.0961 128.473 66.4863 128.568 66.9332 128.568C67.2325 128.568 67.5033 128.527 67.7457 128.443C67.9882 128.356 68.1984 128.229 68.3764 128.062C68.5545 127.896 68.6889 127.689 68.7798 127.443L70.7003 127.659C70.5791 128.167 70.348 128.61 70.0071 128.989C69.67 129.364 69.2382 129.655 68.7116 129.864C68.1851 130.068 67.5829 130.17 66.9048 130.17ZM75.0369 130.176C74.4839 130.176 73.9858 130.078 73.5426 129.881C73.1032 129.68 72.7547 129.384 72.4972 128.994C72.2434 128.604 72.1165 128.123 72.1165 127.551C72.1165 127.059 72.2074 126.652 72.3892 126.33C72.571 126.008 72.8191 125.75 73.1335 125.557C73.4479 125.364 73.8021 125.218 74.196 125.119C74.5938 125.017 75.0047 124.943 75.429 124.898C75.9403 124.845 76.3551 124.797 76.6733 124.756C76.9915 124.71 77.2225 124.642 77.3665 124.551C77.5142 124.456 77.5881 124.311 77.5881 124.114V124.08C77.5881 123.652 77.4612 123.32 77.2074 123.085C76.9536 122.85 76.5881 122.733 76.1108 122.733C75.607 122.733 75.2074 122.843 74.9119 123.062C74.6203 123.282 74.4233 123.542 74.321 123.841L72.4006 123.568C72.5521 123.038 72.8021 122.595 73.1506 122.239C73.4991 121.879 73.9252 121.61 74.429 121.432C74.9328 121.25 75.4896 121.159 76.0994 121.159C76.5199 121.159 76.9384 121.208 77.3551 121.307C77.7718 121.405 78.1525 121.568 78.4972 121.795C78.8419 122.019 79.1184 122.324 79.3267 122.71C79.5388 123.097 79.6449 123.58 79.6449 124.159V130H77.6676V128.801H77.5994C77.4744 129.044 77.2983 129.271 77.071 129.483C76.8475 129.691 76.5653 129.86 76.2244 129.989C75.8873 130.114 75.4915 130.176 75.0369 130.176ZM75.571 128.665C75.9839 128.665 76.3419 128.583 76.6449 128.42C76.9479 128.254 77.1809 128.034 77.3438 127.761C77.5104 127.489 77.5938 127.191 77.5938 126.869V125.841C77.5294 125.894 77.4195 125.943 77.2642 125.989C77.1127 126.034 76.9422 126.074 76.7528 126.108C76.5634 126.142 76.3759 126.172 76.1903 126.199C76.0047 126.225 75.8438 126.248 75.7074 126.267C75.4006 126.309 75.1259 126.377 74.8835 126.472C74.6411 126.566 74.4498 126.699 74.3097 126.869C74.1695 127.036 74.0994 127.252 74.0994 127.517C74.0994 127.896 74.2377 128.182 74.5142 128.375C74.7907 128.568 75.143 128.665 75.571 128.665ZM84.9517 130.153C84.2661 130.153 83.6525 129.977 83.1108 129.625C82.5691 129.273 82.1411 128.761 81.8267 128.091C81.5123 127.42 81.3551 126.606 81.3551 125.648C81.3551 124.678 81.5142 123.86 81.8324 123.193C82.1544 122.523 82.5881 122.017 83.1335 121.676C83.679 121.331 84.2869 121.159 84.9574 121.159C85.4688 121.159 85.8892 121.246 86.2188 121.42C86.5483 121.591 86.8097 121.797 87.0028 122.04C87.196 122.278 87.3456 122.504 87.4517 122.716H87.5369V118.364H89.5994V130H87.5767V128.625H87.4517C87.3456 128.837 87.1922 129.062 86.9915 129.301C86.7907 129.536 86.5256 129.737 86.196 129.903C85.8665 130.07 85.4517 130.153 84.9517 130.153ZM85.5256 128.466C85.9612 128.466 86.3324 128.348 86.6392 128.114C86.946 127.875 87.179 127.544 87.3381 127.119C87.4972 126.695 87.5767 126.201 87.5767 125.636C87.5767 125.072 87.4972 124.581 87.3381 124.165C87.1828 123.748 86.9517 123.424 86.6449 123.193C86.3419 122.962 85.9688 122.847 85.5256 122.847C85.0672 122.847 84.6847 122.966 84.3778 123.205C84.071 123.443 83.84 123.773 83.6847 124.193C83.5294 124.614 83.4517 125.095 83.4517 125.636C83.4517 126.182 83.5294 126.669 83.6847 127.097C83.8438 127.521 84.0767 127.856 84.3835 128.102C84.6941 128.345 85.0748 128.466 85.5256 128.466ZM93.0696 133.273C92.7893 133.273 92.5298 133.25 92.2912 133.205C92.0563 133.163 91.8688 133.114 91.7287 133.057L92.206 131.455C92.5052 131.542 92.7723 131.583 93.0071 131.58C93.242 131.576 93.4484 131.502 93.6264 131.358C93.8082 131.218 93.9616 130.983 94.0866 130.653L94.2628 130.182L91.098 121.273H93.2798L95.2912 127.864H95.3821L97.3991 121.273H99.5866L96.0923 131.057C95.9295 131.519 95.7135 131.915 95.4446 132.244C95.1757 132.578 94.8461 132.831 94.456 133.006C94.0696 133.184 93.6075 133.273 93.0696 133.273ZM106.3 124.307V126H101.061V124.307H106.3ZM108.463 130V121.273H110.429V122.756H110.531C110.713 122.256 111.014 121.866 111.435 121.585C111.855 121.301 112.357 121.159 112.94 121.159C113.531 121.159 114.029 121.303 114.435 121.591C114.844 121.875 115.132 122.263 115.298 122.756H115.389C115.582 122.271 115.908 121.884 116.366 121.597C116.829 121.305 117.376 121.159 118.009 121.159C118.812 121.159 119.467 121.413 119.974 121.92C120.482 122.428 120.736 123.169 120.736 124.142V130H118.673V124.46C118.673 123.919 118.529 123.523 118.241 123.273C117.954 123.019 117.601 122.892 117.185 122.892C116.688 122.892 116.3 123.047 116.02 123.358C115.743 123.665 115.605 124.064 115.605 124.557V130H113.588V124.375C113.588 123.924 113.452 123.564 113.179 123.295C112.91 123.027 112.558 122.892 112.122 122.892C111.827 122.892 111.558 122.968 111.315 123.119C111.073 123.267 110.88 123.477 110.736 123.75C110.592 124.019 110.52 124.333 110.52 124.693V130H108.463ZM125.334 130.176C124.781 130.176 124.283 130.078 123.839 129.881C123.4 129.68 123.052 129.384 122.794 128.994C122.54 128.604 122.413 128.123 122.413 127.551C122.413 127.059 122.504 126.652 122.686 126.33C122.868 126.008 123.116 125.75 123.43 125.557C123.745 125.364 124.099 125.218 124.493 125.119C124.891 125.017 125.302 124.943 125.726 124.898C126.237 124.845 126.652 124.797 126.97 124.756C127.288 124.71 127.519 124.642 127.663 124.551C127.811 124.456 127.885 124.311 127.885 124.114V124.08C127.885 123.652 127.758 123.32 127.504 123.085C127.25 122.85 126.885 122.733 126.408 122.733C125.904 122.733 125.504 122.843 125.209 123.062C124.917 123.282 124.72 123.542 124.618 123.841L122.697 123.568C122.849 123.038 123.099 122.595 123.447 122.239C123.796 121.879 124.222 121.61 124.726 121.432C125.23 121.25 125.786 121.159 126.396 121.159C126.817 121.159 127.235 121.208 127.652 121.307C128.069 121.405 128.449 121.568 128.794 121.795C129.139 122.019 129.415 122.324 129.624 122.71C129.836 123.097 129.942 123.58 129.942 124.159V130H127.964V128.801H127.896C127.771 129.044 127.595 129.271 127.368 129.483C127.144 129.691 126.862 129.86 126.521 129.989C126.184 130.114 125.788 130.176 125.334 130.176ZM125.868 128.665C126.281 128.665 126.639 128.583 126.942 128.42C127.245 128.254 127.478 128.034 127.641 127.761C127.807 127.489 127.891 127.191 127.891 126.869V125.841C127.826 125.894 127.716 125.943 127.561 125.989C127.41 126.034 127.239 126.074 127.05 126.108C126.86 126.142 126.673 126.172 126.487 126.199C126.302 126.225 126.141 126.248 126.004 126.267C125.697 126.309 125.423 126.377 125.18 126.472C124.938 126.566 124.747 126.699 124.607 126.869C124.466 127.036 124.396 127.252 124.396 127.517C124.396 127.896 124.535 128.182 124.811 128.375C125.088 128.568 125.44 128.665 125.868 128.665ZM135.249 130.153C134.563 130.153 133.949 129.977 133.408 129.625C132.866 129.273 132.438 128.761 132.124 128.091C131.809 127.42 131.652 126.606 131.652 125.648C131.652 124.678 131.811 123.86 132.129 123.193C132.451 122.523 132.885 122.017 133.43 121.676C133.976 121.331 134.584 121.159 135.254 121.159C135.766 121.159 136.186 121.246 136.516 121.42C136.845 121.591 137.107 121.797 137.3 122.04C137.493 122.278 137.643 122.504 137.749 122.716H137.834V118.364H139.896V130H137.874V128.625H137.749C137.643 128.837 137.489 129.062 137.288 129.301C137.088 129.536 136.822 129.737 136.493 129.903C136.163 130.07 135.749 130.153 135.249 130.153ZM135.822 128.466C136.258 128.466 136.629 128.348 136.936 128.114C137.243 127.875 137.476 127.544 137.635 127.119C137.794 126.695 137.874 126.201 137.874 125.636C137.874 125.072 137.794 124.581 137.635 124.165C137.48 123.748 137.249 123.424 136.942 123.193C136.639 122.962 136.266 122.847 135.822 122.847C135.364 122.847 134.982 122.966 134.675 123.205C134.368 123.443 134.137 123.773 133.982 124.193C133.826 124.614 133.749 125.095 133.749 125.636C133.749 126.182 133.826 126.669 133.982 127.097C134.141 127.521 134.374 127.856 134.68 128.102C134.991 128.345 135.372 128.466 135.822 128.466ZM145.952 130.17C145.077 130.17 144.321 129.989 143.685 129.625C143.052 129.258 142.565 128.739 142.224 128.068C141.884 127.394 141.713 126.6 141.713 125.688C141.713 124.79 141.884 124.002 142.224 123.324C142.569 122.642 143.05 122.112 143.668 121.733C144.285 121.35 145.01 121.159 145.844 121.159C146.382 121.159 146.889 121.246 147.366 121.42C147.848 121.591 148.272 121.856 148.639 122.216C149.01 122.576 149.302 123.034 149.514 123.591C149.726 124.144 149.832 124.803 149.832 125.568V126.199H142.679V124.812H147.861C147.857 124.419 147.772 124.068 147.605 123.761C147.438 123.451 147.205 123.206 146.906 123.028C146.611 122.85 146.266 122.761 145.872 122.761C145.452 122.761 145.082 122.864 144.764 123.068C144.446 123.269 144.198 123.534 144.02 123.864C143.846 124.189 143.757 124.547 143.753 124.938V126.148C143.753 126.655 143.846 127.091 144.031 127.455C144.217 127.814 144.476 128.091 144.81 128.284C145.143 128.473 145.533 128.568 145.98 128.568C146.279 128.568 146.55 128.527 146.793 128.443C147.035 128.356 147.245 128.229 147.423 128.062C147.601 127.896 147.736 127.689 147.827 127.443L149.747 127.659C149.626 128.167 149.395 128.61 149.054 128.989C148.717 129.364 148.285 129.655 147.759 129.864C147.232 130.068 146.63 130.17 145.952 130.17ZM159.899 121.273V122.864H154.882V121.273H159.899ZM156.121 119.182H158.178V127.375C158.178 127.652 158.219 127.864 158.303 128.011C158.39 128.155 158.503 128.254 158.643 128.307C158.784 128.36 158.939 128.386 159.109 128.386C159.238 128.386 159.356 128.377 159.462 128.358C159.571 128.339 159.655 128.322 159.712 128.307L160.058 129.915C159.948 129.953 159.791 129.994 159.587 130.04C159.386 130.085 159.14 130.112 158.848 130.119C158.333 130.134 157.869 130.057 157.456 129.886C157.043 129.712 156.715 129.443 156.473 129.08C156.234 128.716 156.117 128.261 156.121 127.716V119.182ZM165.389 130.17C164.514 130.17 163.759 129.989 163.122 129.625C162.49 129.258 162.003 128.739 161.662 128.068C161.321 127.394 161.151 126.6 161.151 125.688C161.151 124.79 161.321 124.002 161.662 123.324C162.007 122.642 162.488 122.112 163.105 121.733C163.723 121.35 164.448 121.159 165.281 121.159C165.819 121.159 166.327 121.246 166.804 121.42C167.285 121.591 167.709 121.856 168.077 122.216C168.448 122.576 168.74 123.034 168.952 123.591C169.164 124.144 169.27 124.803 169.27 125.568V126.199H162.116V124.812H167.298C167.295 124.419 167.209 124.068 167.043 123.761C166.876 123.451 166.643 123.206 166.344 123.028C166.048 122.85 165.704 122.761 165.31 122.761C164.889 122.761 164.52 122.864 164.202 123.068C163.884 123.269 163.635 123.534 163.457 123.864C163.283 124.189 163.194 124.547 163.19 124.938V126.148C163.19 126.655 163.283 127.091 163.469 127.455C163.654 127.814 163.914 128.091 164.247 128.284C164.58 128.473 164.971 128.568 165.418 128.568C165.717 128.568 165.988 128.527 166.23 128.443C166.473 128.356 166.683 128.229 166.861 128.062C167.039 127.896 167.173 127.689 167.264 127.443L169.185 127.659C169.063 128.167 168.832 128.61 168.491 128.989C168.154 129.364 167.723 129.655 167.196 129.864C166.67 130.068 166.067 130.17 165.389 130.17ZM171.01 130V121.273H172.976V122.756H173.078C173.26 122.256 173.561 121.866 173.982 121.585C174.402 121.301 174.904 121.159 175.487 121.159C176.078 121.159 176.576 121.303 176.982 121.591C177.391 121.875 177.679 122.263 177.845 122.756H177.936C178.129 122.271 178.455 121.884 178.913 121.597C179.375 121.305 179.923 121.159 180.555 121.159C181.358 121.159 182.014 121.413 182.521 121.92C183.029 122.428 183.283 123.169 183.283 124.142V130H181.22V124.46C181.22 123.919 181.076 123.523 180.788 123.273C180.5 123.019 180.148 122.892 179.732 122.892C179.235 122.892 178.847 123.047 178.567 123.358C178.29 123.665 178.152 124.064 178.152 124.557V130H176.135V124.375C176.135 123.924 175.999 123.564 175.726 123.295C175.457 123.027 175.105 122.892 174.669 122.892C174.374 122.892 174.105 122.968 173.862 123.119C173.62 123.267 173.427 123.477 173.283 123.75C173.139 124.019 173.067 124.333 173.067 124.693V130H171.01ZM185.369 133.273V121.273H187.392V122.716H187.511C187.617 122.504 187.767 122.278 187.96 122.04C188.153 121.797 188.415 121.591 188.744 121.42C189.074 121.246 189.494 121.159 190.006 121.159C190.68 121.159 191.288 121.331 191.83 121.676C192.375 122.017 192.807 122.523 193.125 123.193C193.447 123.86 193.608 124.678 193.608 125.648C193.608 126.606 193.451 127.42 193.136 128.091C192.822 128.761 192.394 129.273 191.852 129.625C191.311 129.977 190.697 130.153 190.011 130.153C189.511 130.153 189.097 130.07 188.767 129.903C188.438 129.737 188.172 129.536 187.972 129.301C187.775 129.062 187.621 128.837 187.511 128.625H187.426V133.273H185.369ZM187.386 125.636C187.386 126.201 187.466 126.695 187.625 127.119C187.788 127.544 188.021 127.875 188.324 128.114C188.631 128.348 189.002 128.466 189.438 128.466C189.892 128.466 190.273 128.345 190.58 128.102C190.886 127.856 191.117 127.521 191.273 127.097C191.432 126.669 191.511 126.182 191.511 125.636C191.511 125.095 191.434 124.614 191.278 124.193C191.123 123.773 190.892 123.443 190.585 123.205C190.278 122.966 189.896 122.847 189.438 122.847C188.998 122.847 188.625 122.962 188.318 123.193C188.011 123.424 187.778 123.748 187.619 124.165C187.464 124.581 187.386 125.072 187.386 125.636ZM197.426 118.364V130H195.369V118.364H197.426ZM202.053 130.176C201.5 130.176 201.001 130.078 200.558 129.881C200.119 129.68 199.77 129.384 199.513 128.994C199.259 128.604 199.132 128.123 199.132 127.551C199.132 127.059 199.223 126.652 199.405 126.33C199.587 126.008 199.835 125.75 200.149 125.557C200.464 125.364 200.818 125.218 201.212 125.119C201.609 125.017 202.02 124.943 202.445 124.898C202.956 124.845 203.371 124.797 203.689 124.756C204.007 124.71 204.238 124.642 204.382 124.551C204.53 124.456 204.604 124.311 204.604 124.114V124.08C204.604 123.652 204.477 123.32 204.223 123.085C203.969 122.85 203.604 122.733 203.126 122.733C202.623 122.733 202.223 122.843 201.928 123.062C201.636 123.282 201.439 123.542 201.337 123.841L199.416 123.568C199.568 123.038 199.818 122.595 200.166 122.239C200.515 121.879 200.941 121.61 201.445 121.432C201.948 121.25 202.505 121.159 203.115 121.159C203.536 121.159 203.954 121.208 204.371 121.307C204.787 121.405 205.168 121.568 205.513 121.795C205.857 122.019 206.134 122.324 206.342 122.71C206.554 123.097 206.661 123.58 206.661 124.159V130H204.683V128.801H204.615C204.49 129.044 204.314 129.271 204.087 129.483C203.863 129.691 203.581 129.86 203.24 129.989C202.903 130.114 202.507 130.176 202.053 130.176ZM202.587 128.665C203 128.665 203.357 128.583 203.661 128.42C203.964 128.254 204.196 128.034 204.359 127.761C204.526 127.489 204.609 127.191 204.609 126.869V125.841C204.545 125.894 204.435 125.943 204.28 125.989C204.128 126.034 203.958 126.074 203.768 126.108C203.579 126.142 203.392 126.172 203.206 126.199C203.02 126.225 202.859 126.248 202.723 126.267C202.416 126.309 202.142 126.377 201.899 126.472C201.657 126.566 201.465 126.699 201.325 126.869C201.185 127.036 201.115 127.252 201.115 127.517C201.115 127.896 201.253 128.182 201.53 128.375C201.806 128.568 202.159 128.665 202.587 128.665ZM213.087 121.273V122.864H208.07V121.273H213.087ZM209.308 119.182H211.365V127.375C211.365 127.652 211.407 127.864 211.49 128.011C211.577 128.155 211.691 128.254 211.831 128.307C211.971 128.36 212.126 128.386 212.297 128.386C212.426 128.386 212.543 128.377 212.649 128.358C212.759 128.339 212.842 128.322 212.899 128.307L213.246 129.915C213.136 129.953 212.979 129.994 212.774 130.04C212.573 130.085 212.327 130.112 212.036 130.119C211.52 130.134 211.056 130.057 210.643 129.886C210.231 129.712 209.903 129.443 209.661 129.08C209.422 128.716 209.304 128.261 209.308 127.716V119.182ZM218.577 130.17C217.702 130.17 216.946 129.989 216.31 129.625C215.677 129.258 215.19 128.739 214.849 128.068C214.509 127.394 214.338 126.6 214.338 125.688C214.338 124.79 214.509 124.002 214.849 123.324C215.194 122.642 215.675 122.112 216.293 121.733C216.91 121.35 217.635 121.159 218.469 121.159C219.007 121.159 219.514 121.246 219.991 121.42C220.473 121.591 220.897 121.856 221.264 122.216C221.635 122.576 221.927 123.034 222.139 123.591C222.351 124.144 222.457 124.803 222.457 125.568V126.199H215.304V124.812H220.486C220.482 124.419 220.397 124.068 220.23 123.761C220.063 123.451 219.83 123.206 219.531 123.028C219.236 122.85 218.891 122.761 218.497 122.761C218.077 122.761 217.707 122.864 217.389 123.068C217.071 123.269 216.823 123.534 216.645 123.864C216.471 124.189 216.382 124.547 216.378 124.938V126.148C216.378 126.655 216.471 127.091 216.656 127.455C216.842 127.814 217.101 128.091 217.435 128.284C217.768 128.473 218.158 128.568 218.605 128.568C218.904 128.568 219.175 128.527 219.418 128.443C219.66 128.356 219.87 128.229 220.048 128.062C220.226 127.896 220.361 127.689 220.452 127.443L222.372 127.659C222.251 128.167 222.02 128.61 221.679 128.989C221.342 129.364 220.91 129.655 220.384 129.864C219.857 130.068 219.255 130.17 218.577 130.17ZM231.095 123.58L229.22 123.784C229.167 123.595 229.074 123.417 228.942 123.25C228.813 123.083 228.639 122.949 228.419 122.847C228.199 122.744 227.93 122.693 227.612 122.693C227.184 122.693 226.824 122.786 226.533 122.972C226.245 123.157 226.103 123.398 226.107 123.693C226.103 123.947 226.196 124.153 226.385 124.312C226.578 124.472 226.896 124.602 227.339 124.705L228.828 125.023C229.654 125.201 230.268 125.483 230.669 125.869C231.074 126.256 231.279 126.761 231.283 127.386C231.279 127.936 231.118 128.42 230.8 128.841C230.485 129.258 230.048 129.583 229.487 129.818C228.927 130.053 228.283 130.17 227.555 130.17C226.487 130.17 225.627 129.947 224.976 129.5C224.324 129.049 223.936 128.422 223.811 127.619L225.817 127.426C225.908 127.82 226.101 128.117 226.396 128.318C226.692 128.519 227.076 128.619 227.55 128.619C228.038 128.619 228.43 128.519 228.726 128.318C229.025 128.117 229.175 127.869 229.175 127.574C229.175 127.324 229.078 127.117 228.885 126.955C228.696 126.792 228.4 126.667 227.999 126.58L226.51 126.267C225.673 126.093 225.054 125.799 224.652 125.386C224.25 124.97 224.052 124.443 224.055 123.807C224.052 123.269 224.197 122.803 224.493 122.409C224.792 122.011 225.207 121.705 225.737 121.489C226.271 121.269 226.887 121.159 227.584 121.159C228.607 121.159 229.411 121.377 229.999 121.812C230.589 122.248 230.955 122.837 231.095 123.58Z" fill="#68B587"/>
<path fill-rule="evenodd" clip-rule="evenodd" d="M32.5591 119.796L31.2668 116L29.9745 119.796C29.6986 120.607 28.9374 121.152 28.0812 121.152L24.0019 121.152L27.2209 123.384C27.9547 123.893 28.2622 124.827 27.9744 125.672L26.7262 129.339L30.1271 126.981C30.8125 126.505 31.7211 126.505 32.4066 126.981L35.8074 129.339L34.5592 125.672C34.2715 124.827 34.579 123.893 35.3128 123.384L38.5318 121.152H34.4524C33.5962 121.152 32.835 120.607 32.5591 119.796ZM32.2135 115.678C31.9059 114.774 30.6278 114.774 30.3202 115.678L29.0279 119.474C28.8899 119.879 28.5093 120.152 28.0812 120.152H24.0019C23.0219 120.152 22.6267 121.415 23.432 121.974L26.651 124.206C27.0179 124.461 27.1717 124.927 27.0278 125.35L25.7796 129.017C25.4687 129.93 26.5034 130.711 27.2961 130.161L30.6969 127.803C31.0397 127.565 31.494 127.565 31.8367 127.803L35.2376 130.161C36.0302 130.711 37.0649 129.93 36.7541 129.017L35.5059 125.35C35.362 124.927 35.5158 124.461 35.8827 124.206L39.1017 121.974C39.9069 121.415 39.5117 120.152 38.5318 120.152H34.4524C34.0243 120.152 33.6437 119.879 33.5058 119.474L32.2135 115.678Z" fill="#68B587"/>
<path fill-rule="evenodd" clip-rule="evenodd" d="M32.5591 146.796L31.2668 143L29.9745 146.796C29.6986 147.607 28.9374 148.152 28.0812 148.152L24.0019 148.152L27.2209 150.384C27.9547 150.893 28.2622 151.827 27.9744 152.672L26.7262 156.339L30.1271 153.981C30.8125 153.505 31.7211 153.505 32.4066 153.981L35.8074 156.339L34.5592 152.672C34.2715 151.827 34.579 150.893 35.3128 150.384L38.5318 148.152H34.4524C33.5962 148.152 32.835 147.607 32.5591 146.796ZM32.2135 142.678C31.9059 141.774 30.6278 141.774 30.3202 142.678L29.0279 146.474C28.8899 146.879 28.5093 147.152 28.0812 147.152H24.0019C23.0219 147.152 22.6267 148.415 23.432 148.974L26.651 151.206C27.0179 151.461 27.1717 151.927 27.0278 152.35L25.7796 156.017C25.4687 156.93 26.5034 157.711 27.2961 157.161L30.6969 154.803C31.0397 154.565 31.494 154.565 31.8367 154.803L35.2376 157.161C36.0302 157.711 37.0649 156.93 36.7541 156.017L35.5059 152.35C35.362 151.927 35.5158 151.461 35.8827 151.206L39.1017 148.974C39.9069 148.415 39.5117 147.152 38.5318 147.152H34.4524C34.0243 147.152 33.6437 146.879 33.5058 146.474L32.2135 142.678Z" fill="#68B587"/>
<path d="M57.1477 157V145.364H59.2045V149.716H59.2898C59.3958 149.504 59.5455 149.278 59.7386 149.04C59.9318 148.797 60.1932 148.591 60.5227 148.42C60.8523 148.246 61.2727 148.159 61.7841 148.159C62.4583 148.159 63.0663 148.331 63.608 148.676C64.1534 149.017 64.5852 149.523 64.9034 150.193C65.2254 150.86 65.3864 151.678 65.3864 152.648C65.3864 153.606 65.2292 154.42 64.9148 155.091C64.6004 155.761 64.1723 156.273 63.6307 156.625C63.089 156.977 62.4754 157.153 61.7898 157.153C61.2898 157.153 60.875 157.07 60.5455 156.903C60.2159 156.737 59.9508 156.536 59.75 156.301C59.553 156.062 59.3996 155.837 59.2898 155.625H59.1705V157H57.1477ZM59.1648 152.636C59.1648 153.201 59.2443 153.695 59.4034 154.119C59.5663 154.544 59.7992 154.875 60.1023 155.114C60.4091 155.348 60.7803 155.466 61.2159 155.466C61.6705 155.466 62.0511 155.345 62.358 155.102C62.6648 154.856 62.8958 154.521 63.0511 154.097C63.2102 153.669 63.2898 153.182 63.2898 152.636C63.2898 152.095 63.2121 151.614 63.0568 151.193C62.9015 150.773 62.6705 150.443 62.3636 150.205C62.0568 149.966 61.6742 149.847 61.2159 149.847C60.7765 149.847 60.4034 149.962 60.0966 150.193C59.7898 150.424 59.5568 150.748 59.3977 151.165C59.2424 151.581 59.1648 152.072 59.1648 152.636ZM72.6974 153.33V148.273H74.7543V157H72.7599V155.449H72.669C72.4721 155.937 72.1482 156.337 71.6974 156.648C71.2505 156.958 70.6993 157.114 70.044 157.114C69.4721 157.114 68.9664 156.987 68.527 156.733C68.0914 156.475 67.7505 156.102 67.5043 155.614C67.258 155.121 67.1349 154.527 67.1349 153.83V148.273H69.1918V153.511C69.1918 154.064 69.3433 154.504 69.6463 154.83C69.9493 155.155 70.3471 155.318 70.8395 155.318C71.1425 155.318 71.4361 155.244 71.7202 155.097C72.0043 154.949 72.2372 154.729 72.419 154.438C72.6046 154.142 72.6974 153.773 72.6974 153.33ZM76.8693 157V148.273H78.9261V157H76.8693ZM77.9034 147.034C77.5777 147.034 77.2973 146.926 77.0625 146.71C76.8277 146.491 76.7102 146.227 76.7102 145.92C76.7102 145.61 76.8277 145.347 77.0625 145.131C77.2973 144.911 77.5777 144.801 77.9034 144.801C78.233 144.801 78.5133 144.911 78.7443 145.131C78.9792 145.347 79.0966 145.61 79.0966 145.92C79.0966 146.227 78.9792 146.491 78.7443 146.71C78.5133 146.926 78.233 147.034 77.9034 147.034ZM83.098 145.364V157H81.0412V145.364H83.098ZM88.4517 157.153C87.7661 157.153 87.1525 156.977 86.6108 156.625C86.0691 156.273 85.6411 155.761 85.3267 155.091C85.0123 154.42 84.8551 153.606 84.8551 152.648C84.8551 151.678 85.0142 150.86 85.3324 150.193C85.6544 149.523 86.0881 149.017 86.6335 148.676C87.179 148.331 87.7869 148.159 88.4574 148.159C88.9688 148.159 89.3892 148.246 89.7188 148.42C90.0483 148.591 90.3097 148.797 90.5028 149.04C90.696 149.278 90.8456 149.504 90.9517 149.716H91.0369V145.364H93.0994V157H91.0767V155.625H90.9517C90.8456 155.837 90.6922 156.062 90.4915 156.301C90.2907 156.536 90.0256 156.737 89.696 156.903C89.3665 157.07 88.9517 157.153 88.4517 157.153ZM89.0256 155.466C89.4612 155.466 89.8324 155.348 90.1392 155.114C90.446 154.875 90.679 154.544 90.8381 154.119C90.9972 153.695 91.0767 153.201 91.0767 152.636C91.0767 152.072 90.9972 151.581 90.8381 151.165C90.6828 150.748 90.4517 150.424 90.1449 150.193C89.8419 149.962 89.4688 149.847 89.0256 149.847C88.5672 149.847 88.1847 149.966 87.8778 150.205C87.571 150.443 87.34 150.773 87.1847 151.193C87.0294 151.614 86.9517 152.095 86.9517 152.636C86.9517 153.182 87.0294 153.669 87.1847 154.097C87.3438 154.521 87.5767 154.856 87.8835 155.102C88.1941 155.345 88.5748 155.466 89.0256 155.466ZM99.2599 157V148.273H101.317V157H99.2599ZM100.294 147.034C99.9683 147.034 99.688 146.926 99.4531 146.71C99.2183 146.491 99.1009 146.227 99.1009 145.92C99.1009 145.61 99.2183 145.347 99.4531 145.131C99.688 144.911 99.9683 144.801 100.294 144.801C100.624 144.801 100.904 144.911 101.135 145.131C101.37 145.347 101.487 145.61 101.487 145.92C101.487 146.227 101.37 146.491 101.135 146.71C100.904 146.926 100.624 147.034 100.294 147.034ZM105.489 151.886V157H103.432V148.273H105.398V149.756H105.5C105.701 149.267 106.021 148.879 106.46 148.591C106.903 148.303 107.451 148.159 108.102 148.159C108.705 148.159 109.229 148.288 109.676 148.545C110.127 148.803 110.475 149.176 110.722 149.665C110.972 150.153 111.095 150.746 111.091 151.443V157H109.034V151.761C109.034 151.178 108.883 150.722 108.58 150.392C108.28 150.062 107.866 149.898 107.335 149.898C106.975 149.898 106.655 149.977 106.375 150.136C106.098 150.292 105.881 150.517 105.722 150.812C105.566 151.108 105.489 151.466 105.489 151.886ZM120.389 157.153C119.704 157.153 119.09 156.977 118.548 156.625C118.007 156.273 117.579 155.761 117.264 155.091C116.95 154.42 116.793 153.606 116.793 152.648C116.793 151.678 116.952 150.86 117.27 150.193C117.592 149.523 118.026 149.017 118.571 148.676C119.116 148.331 119.724 148.159 120.395 148.159C120.906 148.159 121.327 148.246 121.656 148.42C121.986 148.591 122.247 148.797 122.44 149.04C122.634 149.278 122.783 149.504 122.889 149.716H122.974V145.364H125.037V157H123.014V155.625H122.889C122.783 155.837 122.63 156.062 122.429 156.301C122.228 156.536 121.963 156.737 121.634 156.903C121.304 157.07 120.889 157.153 120.389 157.153ZM120.963 155.466C121.399 155.466 121.77 155.348 122.077 155.114C122.384 154.875 122.616 154.544 122.776 154.119C122.935 153.695 123.014 153.201 123.014 152.636C123.014 152.072 122.935 151.581 122.776 151.165C122.62 150.748 122.389 150.424 122.082 150.193C121.779 149.962 121.406 149.847 120.963 149.847C120.505 149.847 120.122 149.966 119.815 150.205C119.509 150.443 119.277 150.773 119.122 151.193C118.967 151.614 118.889 152.095 118.889 152.636C118.889 153.182 118.967 153.669 119.122 154.097C119.281 154.521 119.514 154.856 119.821 155.102C120.132 155.345 120.512 155.466 120.963 155.466ZM131.092 157.17C130.217 157.17 129.462 156.989 128.825 156.625C128.193 156.258 127.706 155.739 127.365 155.068C127.024 154.394 126.854 153.6 126.854 152.688C126.854 151.79 127.024 151.002 127.365 150.324C127.71 149.642 128.191 149.112 128.808 148.733C129.426 148.35 130.151 148.159 130.984 148.159C131.522 148.159 132.03 148.246 132.507 148.42C132.988 148.591 133.412 148.856 133.78 149.216C134.151 149.576 134.443 150.034 134.655 150.591C134.867 151.144 134.973 151.803 134.973 152.568V153.199H127.82V151.812H133.001C132.998 151.419 132.912 151.068 132.746 150.761C132.579 150.451 132.346 150.206 132.047 150.028C131.751 149.85 131.407 149.761 131.013 149.761C130.592 149.761 130.223 149.864 129.905 150.068C129.587 150.269 129.339 150.534 129.161 150.864C128.986 151.189 128.897 151.547 128.893 151.938V153.148C128.893 153.655 128.986 154.091 129.172 154.455C129.357 154.814 129.617 155.091 129.95 155.284C130.284 155.473 130.674 155.568 131.121 155.568C131.42 155.568 131.691 155.527 131.933 155.443C132.176 155.356 132.386 155.229 132.564 155.062C132.742 154.896 132.876 154.689 132.967 154.443L134.888 154.659C134.767 155.167 134.536 155.61 134.195 155.989C133.857 156.364 133.426 156.655 132.899 156.864C132.373 157.068 131.77 157.17 131.092 157.17ZM144.259 148.273L141.151 157H138.878L135.77 148.273H137.963L139.969 154.756H140.06L142.071 148.273H144.259ZM149.249 157.17C148.374 157.17 147.618 156.989 146.982 156.625C146.349 156.258 145.862 155.739 145.521 155.068C145.18 154.394 145.01 153.6 145.01 152.688C145.01 151.79 145.18 151.002 145.521 150.324C145.866 149.642 146.347 149.112 146.964 148.733C147.582 148.35 148.307 148.159 149.141 148.159C149.679 148.159 150.186 148.246 150.663 148.42C151.144 148.591 151.569 148.856 151.936 149.216C152.307 149.576 152.599 150.034 152.811 150.591C153.023 151.144 153.129 151.803 153.129 152.568V153.199H145.976V151.812H151.158C151.154 151.419 151.069 151.068 150.902 150.761C150.735 150.451 150.502 150.206 150.203 150.028C149.908 149.85 149.563 149.761 149.169 149.761C148.749 149.761 148.379 149.864 148.061 150.068C147.743 150.269 147.495 150.534 147.317 150.864C147.143 151.189 147.054 151.547 147.05 151.938V153.148C147.05 153.655 147.143 154.091 147.328 154.455C147.514 154.814 147.773 155.091 148.107 155.284C148.44 155.473 148.83 155.568 149.277 155.568C149.576 155.568 149.847 155.527 150.089 155.443C150.332 155.356 150.542 155.229 150.72 155.062C150.898 154.896 151.033 154.689 151.124 154.443L153.044 154.659C152.923 155.167 152.692 155.61 152.351 155.989C152.014 156.364 151.582 156.655 151.055 156.864C150.529 157.068 149.927 157.17 149.249 157.17ZM156.926 145.364V157H154.869V145.364H156.926ZM162.848 157.17C161.996 157.17 161.257 156.983 160.632 156.608C160.007 156.233 159.522 155.708 159.178 155.034C158.837 154.36 158.666 153.572 158.666 152.67C158.666 151.769 158.837 150.979 159.178 150.301C159.522 149.623 160.007 149.097 160.632 148.722C161.257 148.347 161.996 148.159 162.848 148.159C163.7 148.159 164.439 148.347 165.064 148.722C165.689 149.097 166.172 149.623 166.513 150.301C166.857 150.979 167.03 151.769 167.03 152.67C167.03 153.572 166.857 154.36 166.513 155.034C166.172 155.708 165.689 156.233 165.064 156.608C164.439 156.983 163.7 157.17 162.848 157.17ZM162.859 155.523C163.321 155.523 163.708 155.396 164.018 155.142C164.329 154.884 164.56 154.54 164.712 154.108C164.867 153.676 164.945 153.195 164.945 152.665C164.945 152.131 164.867 151.648 164.712 151.216C164.56 150.78 164.329 150.434 164.018 150.176C163.708 149.919 163.321 149.79 162.859 149.79C162.386 149.79 161.992 149.919 161.678 150.176C161.367 150.434 161.134 150.78 160.979 151.216C160.827 151.648 160.751 152.131 160.751 152.665C160.751 153.195 160.827 153.676 160.979 154.108C161.134 154.54 161.367 154.884 161.678 155.142C161.992 155.396 162.386 155.523 162.859 155.523ZM168.776 160.273V148.273H170.798V149.716H170.918C171.024 149.504 171.173 149.278 171.366 149.04C171.56 148.797 171.821 148.591 172.151 148.42C172.48 148.246 172.901 148.159 173.412 148.159C174.086 148.159 174.694 148.331 175.236 148.676C175.781 149.017 176.213 149.523 176.531 150.193C176.853 150.86 177.014 151.678 177.014 152.648C177.014 153.606 176.857 154.42 176.543 155.091C176.228 155.761 175.8 156.273 175.259 156.625C174.717 156.977 174.103 157.153 173.418 157.153C172.918 157.153 172.503 157.07 172.173 156.903C171.844 156.737 171.579 156.536 171.378 156.301C171.181 156.062 171.027 155.837 170.918 155.625H170.832V160.273H168.776ZM170.793 152.636C170.793 153.201 170.872 153.695 171.031 154.119C171.194 154.544 171.427 154.875 171.73 155.114C172.037 155.348 172.408 155.466 172.844 155.466C173.298 155.466 173.679 155.345 173.986 155.102C174.293 154.856 174.524 154.521 174.679 154.097C174.838 153.669 174.918 153.182 174.918 152.636C174.918 152.095 174.84 151.614 174.685 151.193C174.529 150.773 174.298 150.443 173.991 150.205C173.685 149.966 173.302 149.847 172.844 149.847C172.404 149.847 172.031 149.962 171.724 150.193C171.418 150.424 171.185 150.748 171.026 151.165C170.87 151.581 170.793 152.072 170.793 152.636ZM178.776 157V148.273H180.741V149.756H180.844C181.026 149.256 181.327 148.866 181.747 148.585C182.168 148.301 182.67 148.159 183.253 148.159C183.844 148.159 184.342 148.303 184.747 148.591C185.156 148.875 185.444 149.263 185.611 149.756H185.702C185.895 149.271 186.221 148.884 186.679 148.597C187.141 148.305 187.688 148.159 188.321 148.159C189.124 148.159 189.779 148.413 190.287 148.92C190.795 149.428 191.048 150.169 191.048 151.142V157H188.986V151.46C188.986 150.919 188.842 150.523 188.554 150.273C188.266 150.019 187.914 149.892 187.497 149.892C187.001 149.892 186.613 150.047 186.332 150.358C186.056 150.665 185.918 151.064 185.918 151.557V157H183.901V151.375C183.901 150.924 183.764 150.564 183.491 150.295C183.223 150.027 182.87 149.892 182.435 149.892C182.139 149.892 181.87 149.968 181.628 150.119C181.385 150.267 181.192 150.477 181.048 150.75C180.904 151.019 180.832 151.333 180.832 151.693V157H178.776ZM196.999 157.17C196.124 157.17 195.368 156.989 194.732 156.625C194.099 156.258 193.612 155.739 193.271 155.068C192.93 154.394 192.76 153.6 192.76 152.688C192.76 151.79 192.93 151.002 193.271 150.324C193.616 149.642 194.097 149.112 194.714 148.733C195.332 148.35 196.057 148.159 196.891 148.159C197.429 148.159 197.936 148.246 198.413 148.42C198.894 148.591 199.319 148.856 199.686 149.216C200.057 149.576 200.349 150.034 200.561 150.591C200.773 151.144 200.879 151.803 200.879 152.568V153.199H193.726V151.812H198.908C198.904 151.419 198.819 151.068 198.652 150.761C198.485 150.451 198.252 150.206 197.953 150.028C197.658 149.85 197.313 149.761 196.919 149.761C196.499 149.761 196.129 149.864 195.811 150.068C195.493 150.269 195.245 150.534 195.067 150.864C194.893 151.189 194.804 151.547 194.8 151.938V153.148C194.8 153.655 194.893 154.091 195.078 154.455C195.264 154.814 195.523 155.091 195.857 155.284C196.19 155.473 196.58 155.568 197.027 155.568C197.326 155.568 197.597 155.527 197.839 155.443C198.082 155.356 198.292 155.229 198.47 155.062C198.648 154.896 198.783 154.689 198.874 154.443L200.794 154.659C200.673 155.167 200.442 155.61 200.101 155.989C199.764 156.364 199.332 156.655 198.805 156.864C198.279 157.068 197.677 157.17 196.999 157.17ZM204.676 151.886V157H202.619V148.273H204.585V149.756H204.688C204.888 149.267 205.208 148.879 205.648 148.591C206.091 148.303 206.638 148.159 207.29 148.159C207.892 148.159 208.417 148.288 208.864 148.545C209.314 148.803 209.663 149.176 209.909 149.665C210.159 150.153 210.282 150.746 210.278 151.443V157H208.222V151.761C208.222 151.178 208.07 150.722 207.767 150.392C207.468 150.062 207.053 149.898 206.523 149.898C206.163 149.898 205.843 149.977 205.562 150.136C205.286 150.292 205.068 150.517 204.909 150.812C204.754 151.108 204.676 151.466 204.676 151.886ZM216.727 148.273V149.864H211.71V148.273H216.727ZM212.949 146.182H215.006V154.375C215.006 154.652 215.047 154.864 215.131 155.011C215.218 155.155 215.331 155.254 215.472 155.307C215.612 155.36 215.767 155.386 215.938 155.386C216.066 155.386 216.184 155.377 216.29 155.358C216.4 155.339 216.483 155.322 216.54 155.307L216.886 156.915C216.777 156.953 216.619 156.994 216.415 157.04C216.214 157.085 215.968 157.112 215.676 157.119C215.161 157.134 214.697 157.057 214.284 156.886C213.871 156.712 213.544 156.443 213.301 156.08C213.063 155.716 212.945 155.261 212.949 154.716V146.182Z" fill="#68B587"/>
</svg>
