<svg width="464" height="181" viewBox="0 0 464 181" fill="none" xmlns="http://www.w3.org/2000/svg">
<rect width="464" height="181" fill="#0A0F0B"/>
<path d="M21.7216 51V33.5455H24.8835V48.3494H32.571V51H21.7216ZM38.946 51.2642C38.1165 51.2642 37.3693 51.1165 36.7045 50.821C36.0455 50.5199 35.5227 50.0767 35.1364 49.4915C34.7557 48.9062 34.5653 48.1847 34.5653 47.3267C34.5653 46.5881 34.7017 45.9773 34.9744 45.4943C35.2472 45.0114 35.6193 44.625 36.0909 44.3352C36.5625 44.0455 37.0938 43.8267 37.6847 43.679C38.2813 43.5256 38.8977 43.4148 39.5341 43.3466C40.3011 43.267 40.9233 43.196 41.4006 43.1335C41.8778 43.0653 42.2244 42.9631 42.4403 42.8267C42.6619 42.6847 42.7727 42.4659 42.7727 42.1705V42.1193C42.7727 41.4773 42.5824 40.9801 42.2017 40.6278C41.821 40.2756 41.2727 40.0994 40.5568 40.0994C39.8011 40.0994 39.2017 40.2642 38.7585 40.5938C38.321 40.9233 38.0256 41.3125 37.8722 41.7614L34.9915 41.3523C35.2188 40.5568 35.5938 39.892 36.1165 39.358C36.6392 38.8182 37.2784 38.4148 38.0341 38.1477C38.7898 37.875 39.625 37.7386 40.5398 37.7386C41.1705 37.7386 41.7983 37.8125 42.4233 37.9602C43.0483 38.108 43.6193 38.3523 44.1364 38.6932C44.6534 39.0284 45.0682 39.4858 45.3807 40.0653C45.6989 40.6449 45.858 41.3693 45.858 42.2386V51H42.892V49.2017H42.7898C42.6023 49.5653 42.3381 49.9062 41.9972 50.2244C41.6619 50.5369 41.2386 50.7898 40.7273 50.983C40.2216 51.1705 39.6278 51.2642 38.946 51.2642ZM39.7472 48.9972C40.3665 48.9972 40.9034 48.875 41.358 48.6307C41.8125 48.3807 42.1619 48.0511 42.4062 47.642C42.6562 47.233 42.7812 46.7869 42.7812 46.304V44.7614C42.6847 44.8409 42.5199 44.9148 42.2869 44.983C42.0597 45.0511 41.804 45.1108 41.5199 45.1619C41.2358 45.2131 40.9545 45.2585 40.6761 45.2983C40.3977 45.3381 40.1563 45.3722 39.9517 45.4006C39.4915 45.4631 39.0795 45.5653 38.7159 45.7074C38.3523 45.8494 38.0653 46.0483 37.8551 46.304C37.6449 46.554 37.5398 46.8778 37.5398 47.2756C37.5398 47.8438 37.7472 48.2727 38.1619 48.5625C38.5767 48.8523 39.1051 48.9972 39.7472 48.9972ZM52.0455 43.3295V51H48.9602V37.9091H51.9091V40.1335H52.0625C52.3636 39.4006 52.8438 38.8182 53.5028 38.3864C54.1676 37.9545 54.9886 37.7386 55.9659 37.7386C56.8693 37.7386 57.6563 37.9318 58.3267 38.3182C59.0028 38.7045 59.5256 39.2642 59.8949 39.9972C60.2699 40.7301 60.4545 41.6193 60.4489 42.6648V51H57.3636V43.142C57.3636 42.267 57.1364 41.5824 56.6818 41.0881C56.233 40.5937 55.6108 40.3466 54.8153 40.3466C54.2756 40.3466 53.7955 40.4659 53.375 40.7045C52.9602 40.9375 52.6335 41.2756 52.3949 41.7188C52.1619 42.1619 52.0455 42.6989 52.0455 43.3295ZM69.2784 56.1818C68.1705 56.1818 67.2188 56.0313 66.4233 55.7301C65.6278 55.4347 64.9886 55.0369 64.5057 54.5369C64.0227 54.0369 63.6875 53.483 63.5 52.875L66.2784 52.2017C66.4034 52.4574 66.5852 52.7102 66.8239 52.9602C67.0625 53.2159 67.3835 53.4261 67.7869 53.5909C68.196 53.7614 68.7102 53.8466 69.3295 53.8466C70.2045 53.8466 70.929 53.6335 71.5028 53.2074C72.0767 52.7869 72.3636 52.0938 72.3636 51.1278V48.6477H72.2102C72.0511 48.9659 71.8182 49.2926 71.5114 49.6278C71.2102 49.9631 70.8097 50.2443 70.3097 50.4716C69.8153 50.6989 69.1932 50.8125 68.4432 50.8125C67.4375 50.8125 66.5256 50.5767 65.7074 50.1051C64.8949 49.6278 64.2472 48.9176 63.7642 47.9744C63.2869 47.0256 63.0483 45.8381 63.0483 44.4119C63.0483 42.9744 63.2869 41.7614 63.7642 40.7727C64.2472 39.7784 64.8977 39.0256 65.7159 38.5142C66.5341 37.9972 67.446 37.7386 68.4517 37.7386C69.2188 37.7386 69.8494 37.8693 70.3438 38.1307C70.8438 38.3864 71.2415 38.696 71.5369 39.0597C71.8324 39.4176 72.0568 39.7557 72.2102 40.0739H72.3807V37.9091H75.4233V51.2131C75.4233 52.3324 75.1563 53.2585 74.6222 53.9915C74.0881 54.7244 73.358 55.2727 72.4318 55.6364C71.5057 56 70.4545 56.1818 69.2784 56.1818ZM69.304 48.392C69.9574 48.392 70.5142 48.233 70.9744 47.9148C71.4347 47.5966 71.7841 47.1392 72.0227 46.5426C72.2614 45.946 72.3807 45.2301 72.3807 44.3949C72.3807 43.571 72.2614 42.8494 72.0227 42.2301C71.7898 41.6108 71.4432 41.1307 70.983 40.7898C70.5284 40.4432 69.9688 40.2699 69.304 40.2699C68.6165 40.2699 68.0426 40.4489 67.5824 40.8068C67.1222 41.1648 66.7756 41.6562 66.5426 42.2812C66.3097 42.9006 66.1932 43.6051 66.1932 44.3949C66.1932 45.196 66.3097 45.8977 66.5426 46.5C66.7813 47.0966 67.1307 47.5625 67.5909 47.8977C68.0568 48.2273 68.6278 48.392 69.304 48.392ZM86.929 45.4943V37.9091H90.0142V51H87.0227V48.6733H86.8864C86.5909 49.4062 86.1051 50.0057 85.429 50.4716C84.7585 50.9375 83.9318 51.1705 82.9489 51.1705C82.0909 51.1705 81.3324 50.9801 80.6733 50.5994C80.0199 50.2131 79.5085 49.6534 79.1392 48.9205C78.7699 48.1818 78.5852 47.2898 78.5852 46.2443V37.9091H81.6705V45.767C81.6705 46.5966 81.8977 47.2557 82.3523 47.7443C82.8068 48.233 83.4034 48.4773 84.142 48.4773C84.5966 48.4773 85.0369 48.3665 85.4631 48.1449C85.8892 47.9233 86.2386 47.5938 86.5114 47.1562C86.7898 46.7131 86.929 46.1591 86.929 45.4943ZM96.9538 51.2642C96.1243 51.2642 95.3771 51.1165 94.7124 50.821C94.0533 50.5199 93.5305 50.0767 93.1442 49.4915C92.7635 48.9062 92.5732 48.1847 92.5732 47.3267C92.5732 46.5881 92.7095 45.9773 92.9822 45.4943C93.255 45.0114 93.6271 44.625 94.0987 44.3352C94.5703 44.0455 95.1016 43.8267 95.6925 43.679C96.2891 43.5256 96.9055 43.4148 97.5419 43.3466C98.3089 43.267 98.9311 43.196 99.4084 43.1335C99.8857 43.0653 100.232 42.9631 100.448 42.8267C100.67 42.6847 100.781 42.4659 100.781 42.1705V42.1193C100.781 41.4773 100.59 40.9801 100.21 40.6278C99.8288 40.2756 99.2805 40.0994 98.5646 40.0994C97.8089 40.0994 97.2095 40.2642 96.7663 40.5938C96.3288 40.9233 96.0334 41.3125 95.88 41.7614L92.9993 41.3523C93.2266 40.5568 93.6016 39.892 94.1243 39.358C94.647 38.8182 95.2862 38.4148 96.0419 38.1477C96.7976 37.875 97.6328 37.7386 98.5476 37.7386C99.1783 37.7386 99.8061 37.8125 100.431 37.9602C101.056 38.108 101.627 38.3523 102.144 38.6932C102.661 39.0284 103.076 39.4858 103.388 40.0653C103.707 40.6449 103.866 41.3693 103.866 42.2386V51H100.9V49.2017H100.798C100.61 49.5653 100.346 49.9062 100.005 50.2244C99.6697 50.5369 99.2464 50.7898 98.7351 50.983C98.2294 51.1705 97.6357 51.2642 96.9538 51.2642ZM97.755 48.9972C98.3743 48.9972 98.9112 48.875 99.3658 48.6307C99.8203 48.3807 100.17 48.0511 100.414 47.642C100.664 47.233 100.789 46.7869 100.789 46.304V44.7614C100.692 44.8409 100.528 44.9148 100.295 44.983C100.067 45.0511 99.8118 45.1108 99.5277 45.1619C99.2436 45.2131 98.9624 45.2585 98.6839 45.2983C98.4055 45.3381 98.1641 45.3722 97.9595 45.4006C97.4993 45.4631 97.0874 45.5653 96.7237 45.7074C96.3601 45.8494 96.0732 46.0483 95.8629 46.304C95.6527 46.554 95.5476 46.8778 95.5476 47.2756C95.5476 47.8438 95.755 48.2727 96.1697 48.5625C96.5845 48.8523 97.1129 48.9972 97.755 48.9972ZM112.661 56.1818C111.553 56.1818 110.602 56.0313 109.806 55.7301C109.011 55.4347 108.371 55.0369 107.888 54.5369C107.406 54.0369 107.07 53.483 106.883 52.875L109.661 52.2017C109.786 52.4574 109.968 52.7102 110.207 52.9602C110.445 53.2159 110.766 53.4261 111.17 53.5909C111.579 53.7614 112.093 53.8466 112.712 53.8466C113.587 53.8466 114.312 53.6335 114.886 53.2074C115.46 52.7869 115.746 52.0938 115.746 51.1278V48.6477H115.593C115.434 48.9659 115.201 49.2926 114.894 49.6278C114.593 49.9631 114.192 50.2443 113.692 50.4716C113.198 50.6989 112.576 50.8125 111.826 50.8125C110.82 50.8125 109.908 50.5767 109.09 50.1051C108.278 49.6278 107.63 48.9176 107.147 47.9744C106.67 47.0256 106.431 45.8381 106.431 44.4119C106.431 42.9744 106.67 41.7614 107.147 40.7727C107.63 39.7784 108.281 39.0256 109.099 38.5142C109.917 37.9972 110.829 37.7386 111.835 37.7386C112.602 37.7386 113.232 37.8693 113.727 38.1307C114.227 38.3864 114.624 38.696 114.92 39.0597C115.215 39.4176 115.44 39.7557 115.593 40.0739H115.763V37.9091H118.806V51.2131C118.806 52.3324 118.539 53.2585 118.005 53.9915C117.471 54.7244 116.741 55.2727 115.815 55.6364C114.888 56 113.837 56.1818 112.661 56.1818ZM112.687 48.392C113.34 48.392 113.897 48.233 114.357 47.9148C114.817 47.5966 115.167 47.1392 115.406 46.5426C115.644 45.946 115.763 45.2301 115.763 44.3949C115.763 43.571 115.644 42.8494 115.406 42.2301C115.173 41.6108 114.826 41.1307 114.366 40.7898C113.911 40.4432 113.352 40.2699 112.687 40.2699C111.999 40.2699 111.425 40.4489 110.965 40.8068C110.505 41.1648 110.158 41.6562 109.925 42.2812C109.692 42.9006 109.576 43.6051 109.576 44.3949C109.576 45.196 109.692 45.8977 109.925 46.5C110.164 47.0966 110.513 47.5625 110.974 47.8977C111.44 48.2273 112.011 48.392 112.687 48.392ZM127.763 51.2557C126.451 51.2557 125.317 50.983 124.363 50.4375C123.414 49.8864 122.684 49.108 122.173 48.1023C121.661 47.0909 121.406 45.9006 121.406 44.5312C121.406 43.1847 121.661 42.0028 122.173 40.9858C122.69 39.9631 123.411 39.1676 124.337 38.5994C125.263 38.0256 126.352 37.7386 127.602 37.7386C128.408 37.7386 129.17 37.8693 129.886 38.1307C130.607 38.3864 131.244 38.7841 131.795 39.3239C132.352 39.8636 132.789 40.5511 133.107 41.3864C133.425 42.2159 133.585 43.2045 133.585 44.3523V45.2983H122.854V43.2188H130.627C130.621 42.6278 130.494 42.1023 130.244 41.642C129.994 41.1761 129.644 40.8097 129.195 40.5426C128.752 40.2756 128.235 40.142 127.644 40.142C127.013 40.142 126.46 40.2955 125.982 40.6023C125.505 40.9034 125.133 41.3011 124.866 41.7955C124.604 42.2841 124.471 42.821 124.465 43.4062V45.2216C124.465 45.983 124.604 46.6364 124.883 47.1818C125.161 47.7216 125.55 48.1364 126.05 48.4261C126.55 48.7102 127.136 48.8523 127.806 48.8523C128.255 48.8523 128.661 48.7898 129.025 48.6648C129.388 48.5341 129.704 48.3438 129.971 48.0938C130.238 47.8438 130.44 47.5341 130.576 47.1648L133.457 47.4886C133.275 48.25 132.928 48.9148 132.417 49.483C131.911 50.0455 131.263 50.483 130.474 50.7955C129.684 51.1023 128.781 51.2557 127.763 51.2557ZM142.148 55.9091V37.9091H145.182V40.0739H145.361C145.52 39.7557 145.744 39.4176 146.034 39.0597C146.324 38.696 146.716 38.3864 147.21 38.1307C147.705 37.8693 148.335 37.7386 149.102 37.7386C150.114 37.7386 151.026 37.9972 151.838 38.5142C152.656 39.0256 153.304 39.7841 153.781 40.7898C154.264 41.7898 154.506 43.017 154.506 44.4716C154.506 45.9091 154.27 47.1307 153.798 48.1364C153.327 49.142 152.685 49.9091 151.872 50.4375C151.06 50.9659 150.139 51.2301 149.111 51.2301C148.361 51.2301 147.739 51.1051 147.244 50.8551C146.75 50.6051 146.352 50.304 146.051 49.9517C145.756 49.5937 145.526 49.2557 145.361 48.9375H145.233V55.9091H142.148ZM145.173 44.4545C145.173 45.3011 145.293 46.0426 145.531 46.679C145.776 47.3153 146.125 47.8125 146.58 48.1705C147.04 48.5227 147.597 48.6989 148.25 48.6989C148.932 48.6989 149.503 48.517 149.963 48.1534C150.423 47.7841 150.77 47.2812 151.003 46.6449C151.241 46.0028 151.361 45.2727 151.361 44.4545C151.361 43.642 151.244 42.9205 151.011 42.2898C150.778 41.6591 150.432 41.1648 149.972 40.8068C149.511 40.4489 148.938 40.2699 148.25 40.2699C147.591 40.2699 147.031 40.4432 146.571 40.7898C146.111 41.1364 145.761 41.6222 145.523 42.2472C145.29 42.8722 145.173 43.608 145.173 44.4545ZM157.148 51V37.9091H160.139V40.0909H160.276C160.514 39.3352 160.923 38.7528 161.503 38.3438C162.088 37.929 162.756 37.7216 163.506 37.7216C163.676 37.7216 163.866 37.7301 164.077 37.7472C164.293 37.7585 164.472 37.7784 164.614 37.8068V40.6449C164.483 40.5994 164.276 40.5597 163.991 40.5256C163.713 40.4858 163.443 40.4659 163.182 40.4659C162.619 40.4659 162.114 40.5881 161.665 40.8324C161.222 41.071 160.872 41.4034 160.616 41.8295C160.361 42.2557 160.233 42.7472 160.233 43.304V51H157.148ZM171.835 51.2557C170.556 51.2557 169.448 50.9744 168.511 50.4119C167.573 49.8494 166.846 49.0625 166.329 48.0511C165.817 47.0398 165.562 45.858 165.562 44.5057C165.562 43.1534 165.817 41.9687 166.329 40.9517C166.846 39.9347 167.573 39.1449 168.511 38.5824C169.448 38.0199 170.556 37.7386 171.835 37.7386C173.113 37.7386 174.221 38.0199 175.158 38.5824C176.096 39.1449 176.82 39.9347 177.332 40.9517C177.849 41.9687 178.107 43.1534 178.107 44.5057C178.107 45.858 177.849 47.0398 177.332 48.0511C176.82 49.0625 176.096 49.8494 175.158 50.4119C174.221 50.9744 173.113 51.2557 171.835 51.2557ZM171.852 48.7841C172.545 48.7841 173.124 48.5937 173.59 48.2131C174.056 47.8267 174.403 47.3097 174.63 46.6619C174.863 46.0142 174.979 45.2926 174.979 44.4972C174.979 43.696 174.863 42.9716 174.63 42.3239C174.403 41.6705 174.056 41.1506 173.59 40.7642C173.124 40.3778 172.545 40.1847 171.852 40.1847C171.141 40.1847 170.55 40.3778 170.079 40.7642C169.613 41.1506 169.263 41.6705 169.031 42.3239C168.803 42.9716 168.69 43.696 168.69 44.4972C168.69 45.2926 168.803 46.0142 169.031 46.6619C169.263 47.3097 169.613 47.8267 170.079 48.2131C170.55 48.5937 171.141 48.7841 171.852 48.7841ZM187.357 37.9091V40.2955H179.618V37.9091H187.357ZM181.553 51V36.6733C181.553 35.7926 181.734 35.0597 182.098 34.4744C182.467 33.8892 182.962 33.4517 183.581 33.1619C184.2 32.8722 184.888 32.7273 185.643 32.7273C186.178 32.7273 186.652 32.7699 187.067 32.8551C187.482 32.9403 187.788 33.017 187.987 33.0852L187.374 35.4716C187.243 35.4318 187.078 35.392 186.879 35.3523C186.68 35.3068 186.459 35.2841 186.214 35.2841C185.641 35.2841 185.234 35.4233 184.996 35.7017C184.763 35.9744 184.646 36.3665 184.646 36.8778V51H181.553ZM189.773 51V37.9091H192.858V51H189.773ZM191.324 36.0511C190.835 36.0511 190.415 35.8892 190.062 35.5653C189.71 35.2358 189.534 34.8409 189.534 34.3807C189.534 33.9148 189.71 33.5199 190.062 33.196C190.415 32.8665 190.835 32.7017 191.324 32.7017C191.818 32.7017 192.239 32.8665 192.585 33.196C192.938 33.5199 193.114 33.9148 193.114 34.3807C193.114 34.8409 192.938 35.2358 192.585 35.5653C192.239 35.8892 191.818 36.0511 191.324 36.0511ZM201.741 51.2557C200.434 51.2557 199.312 50.9688 198.374 50.3949C197.442 49.821 196.724 49.0284 196.218 48.017C195.718 47 195.468 45.8295 195.468 44.5057C195.468 43.1761 195.724 42.0028 196.235 40.9858C196.746 39.9631 197.468 39.1676 198.4 38.5994C199.337 38.0256 200.445 37.7386 201.724 37.7386C202.786 37.7386 203.727 37.9347 204.545 38.3267C205.369 38.7131 206.025 39.2614 206.513 39.9716C207.002 40.6761 207.281 41.5 207.349 42.4432H204.4C204.281 41.8125 203.996 41.2869 203.548 40.8665C203.104 40.4403 202.511 40.2273 201.766 40.2273C201.136 40.2273 200.582 40.3977 200.104 40.7386C199.627 41.0739 199.255 41.5568 198.988 42.1875C198.727 42.8182 198.596 43.5739 198.596 44.4545C198.596 45.3466 198.727 46.1136 198.988 46.7557C199.249 47.392 199.616 47.8835 200.087 48.2301C200.565 48.571 201.124 48.7415 201.766 48.7415C202.221 48.7415 202.627 48.6562 202.985 48.4858C203.349 48.3097 203.653 48.0568 203.897 47.7273C204.141 47.3977 204.309 46.9972 204.4 46.5256H207.349C207.275 47.4517 207.002 48.2727 206.531 48.9886C206.059 49.6989 205.417 50.2557 204.604 50.6591C203.792 51.0568 202.837 51.2557 201.741 51.2557ZM209.882 51V37.9091H212.967V51H209.882ZM211.433 36.0511C210.945 36.0511 210.524 35.8892 210.172 35.5653C209.82 35.2358 209.643 34.8409 209.643 34.3807C209.643 33.9148 209.82 33.5199 210.172 33.196C210.524 32.8665 210.945 32.7017 211.433 32.7017C211.928 32.7017 212.348 32.8665 212.695 33.196C213.047 33.5199 213.223 33.9148 213.223 34.3807C213.223 34.8409 213.047 35.2358 212.695 35.5653C212.348 35.8892 211.928 36.0511 211.433 36.0511ZM221.935 51.2557C220.623 51.2557 219.489 50.983 218.535 50.4375C217.586 49.8864 216.856 49.108 216.344 48.1023C215.833 47.0909 215.577 45.9006 215.577 44.5312C215.577 43.1847 215.833 42.0028 216.344 40.9858C216.862 39.9631 217.583 39.1676 218.509 38.5994C219.435 38.0256 220.523 37.7386 221.773 37.7386C222.58 37.7386 223.342 37.8693 224.058 38.1307C224.779 38.3864 225.415 38.7841 225.967 39.3239C226.523 39.8636 226.961 40.5511 227.279 41.3864C227.597 42.2159 227.756 43.2045 227.756 44.3523V45.2983H217.026V43.2188H224.799C224.793 42.6278 224.665 42.1023 224.415 41.642C224.165 41.1761 223.816 40.8097 223.367 40.5426C222.924 40.2756 222.407 40.142 221.816 40.142C221.185 40.142 220.631 40.2955 220.154 40.6023C219.677 40.9034 219.305 41.3011 219.038 41.7955C218.776 42.2841 218.643 42.821 218.637 43.4062V45.2216C218.637 45.983 218.776 46.6364 219.055 47.1818C219.333 47.7216 219.722 48.1364 220.222 48.4261C220.722 48.7102 221.308 48.8523 221.978 48.8523C222.427 48.8523 222.833 48.7898 223.197 48.6648C223.56 48.5341 223.876 48.3438 224.143 48.0938C224.41 47.8438 224.612 47.5341 224.748 47.1648L227.629 47.4886C227.447 48.25 227.1 48.9148 226.589 49.483C226.083 50.0455 225.435 50.483 224.646 50.7955C223.856 51.1023 222.952 51.2557 221.935 51.2557ZM233.452 43.3295V51H230.366V37.9091H233.315V40.1335H233.469C233.77 39.4006 234.25 38.8182 234.909 38.3864C235.574 37.9545 236.395 37.7386 237.372 37.7386C238.276 37.7386 239.063 37.9318 239.733 38.3182C240.409 38.7045 240.932 39.2642 241.301 39.9972C241.676 40.7301 241.861 41.6193 241.855 42.6648V51H238.77V43.142C238.77 42.267 238.543 41.5824 238.088 41.0881C237.639 40.5937 237.017 40.3466 236.222 40.3466C235.682 40.3466 235.202 40.4659 234.781 40.7045C234.366 40.9375 234.04 41.2756 233.801 41.7188C233.568 42.1619 233.452 42.6989 233.452 43.3295ZM250.702 51.2557C249.395 51.2557 248.273 50.9688 247.335 50.3949C246.403 49.821 245.685 49.0284 245.179 48.017C244.679 47 244.429 45.8295 244.429 44.5057C244.429 43.1761 244.685 42.0028 245.196 40.9858C245.707 39.9631 246.429 39.1676 247.361 38.5994C248.298 38.0256 249.406 37.7386 250.685 37.7386C251.747 37.7386 252.688 37.9347 253.506 38.3267C254.33 38.7131 254.986 39.2614 255.474 39.9716C255.963 40.6761 256.241 41.5 256.31 42.4432H253.361C253.241 41.8125 252.957 41.2869 252.509 40.8665C252.065 40.4403 251.472 40.2273 250.727 40.2273C250.097 40.2273 249.543 40.3977 249.065 40.7386C248.588 41.0739 248.216 41.5568 247.949 42.1875C247.688 42.8182 247.557 43.5739 247.557 44.4545C247.557 45.3466 247.688 46.1136 247.949 46.7557C248.21 47.392 248.577 47.8835 249.048 48.2301C249.526 48.571 250.085 48.7415 250.727 48.7415C251.182 48.7415 251.588 48.6562 251.946 48.4858C252.31 48.3097 252.614 48.0568 252.858 47.7273C253.102 47.3977 253.27 46.9972 253.361 46.5256H256.31C256.236 47.4517 255.963 48.2727 255.491 48.9886C255.02 49.6989 254.378 50.2557 253.565 50.6591C252.753 51.0568 251.798 51.2557 250.702 51.2557ZM260.761 55.9091C260.34 55.9091 259.951 55.875 259.593 55.8068C259.241 55.7443 258.96 55.6705 258.749 55.5852L259.465 53.1818C259.914 53.3125 260.315 53.375 260.667 53.3693C261.019 53.3636 261.329 53.2528 261.596 53.0369C261.869 52.8267 262.099 52.4744 262.286 51.9801L262.55 51.2727L257.803 37.9091H261.076L264.093 47.7955H264.229L267.255 37.9091H270.536L265.295 52.5852C265.05 53.2784 264.727 53.8722 264.323 54.3665C263.92 54.8665 263.425 55.2472 262.84 55.5085C262.261 55.7756 261.567 55.9091 260.761 55.9091ZM278.309 39V37.2614C278.309 36.7614 278.403 36.2415 278.59 35.7017C278.783 35.1562 279.045 34.642 279.374 34.1591C279.71 33.6705 280.085 33.2585 280.499 32.9233L281.931 33.8523C281.596 34.358 281.315 34.8864 281.087 35.4375C280.866 35.983 280.758 36.5852 280.763 37.2443V39H278.309ZM282.63 39V37.2614C282.63 36.7614 282.724 36.2415 282.911 35.7017C283.104 35.1562 283.366 34.642 283.695 34.1591C284.031 33.6705 284.406 33.2585 284.82 32.9233L286.252 33.8523C285.917 34.358 285.636 34.8864 285.408 35.4375C285.187 35.983 285.079 36.5852 285.085 37.2443V39H282.63ZM288.558 51V33.5455H295.103C296.444 33.5455 297.569 33.7955 298.478 34.2955C299.393 34.7955 300.083 35.483 300.549 36.358C301.021 37.2273 301.256 38.2159 301.256 39.3239C301.256 40.4432 301.021 41.4375 300.549 42.3068C300.077 43.1761 299.381 43.8608 298.461 44.3608C297.54 44.8551 296.407 45.1023 295.06 45.1023H290.722V42.5028H294.634C295.418 42.5028 296.06 42.3665 296.56 42.0938C297.06 41.821 297.43 41.446 297.668 40.9688C297.913 40.4915 298.035 39.9432 298.035 39.3239C298.035 38.7045 297.913 38.1591 297.668 37.6875C297.43 37.2159 297.058 36.8494 296.552 36.5881C296.052 36.321 295.407 36.1875 294.617 36.1875H291.719V51H288.558ZM304.003 51V33.5455H307.165V40.9347H315.253V33.5455H318.423V51H315.253V43.5852H307.165V51H304.003ZM321.862 51V33.5455H328.408C329.749 33.5455 330.874 33.7955 331.783 34.2955C332.697 34.7955 333.388 35.483 333.854 36.358C334.325 37.2273 334.561 38.2159 334.561 39.3239C334.561 40.4432 334.325 41.4375 333.854 42.3068C333.382 43.1761 332.686 43.8608 331.766 44.3608C330.845 44.8551 329.712 45.1023 328.365 45.1023H324.027V42.5028H327.939C328.723 42.5028 329.365 42.3665 329.865 42.0938C330.365 41.821 330.734 41.446 330.973 40.9688C331.217 40.4915 331.339 39.9432 331.339 39.3239C331.339 38.7045 331.217 38.1591 330.973 37.6875C330.734 37.2159 330.362 36.8494 329.857 36.5881C329.357 36.321 328.712 36.1875 327.922 36.1875H325.024V51H321.862ZM339.788 33.5455V35.2841C339.788 35.7841 339.691 36.304 339.498 36.8438C339.31 37.3778 339.052 37.8892 338.722 38.3778C338.393 38.8608 338.018 39.2756 337.597 39.6222L336.165 38.6932C336.478 38.2216 336.751 37.7131 336.984 37.1676C337.217 36.6165 337.333 35.9943 337.333 35.3011V33.5455H339.788ZM344.092 33.5455V35.2841C344.092 35.7841 343.995 36.304 343.802 36.8438C343.614 37.3778 343.356 37.8892 343.026 38.3778C342.697 38.8608 342.325 39.2756 341.91 39.6222L340.478 38.6932C340.785 38.2216 341.055 37.7131 341.288 37.1676C341.521 36.6165 341.637 35.9943 341.637 35.3011V33.5455H344.092Z" fill="#91B302"/>
<path fill-rule="evenodd" clip-rule="evenodd" d="M29.5591 89.7965L28.2668 86L26.9745 89.7965C26.6986 90.607 25.9374 91.152 25.0812 91.152L21.0019 91.152L24.2209 93.3844C24.9547 93.8933 25.2622 94.827 24.9744 95.6724L23.7262 99.3394L27.1271 96.9808C27.8125 96.5054 28.7211 96.5054 29.4066 96.9808L32.8074 99.3394L31.5592 95.6724C31.2715 94.827 31.579 93.8933 32.3128 93.3844L35.5318 91.152H31.4524C30.5962 91.152 29.835 90.607 29.5591 89.7965ZM29.2135 85.6778C28.9059 84.7741 27.6278 84.7741 27.3202 85.6778L26.0279 89.4742C25.8899 89.8795 25.5093 90.152 25.0812 90.152H21.0019C20.0219 90.152 19.6267 91.4153 20.432 91.9737L23.651 94.2062C24.0179 94.4606 24.1717 94.9274 24.0278 95.3501L22.7796 99.0171C22.4687 99.9303 23.5034 100.711 24.2961 100.161L27.6969 97.8025C28.0397 97.5648 28.494 97.5648 28.8367 97.8025L32.2376 100.161C33.0302 100.711 34.0649 99.9303 33.7541 99.0171L32.5059 95.3501C32.362 94.9274 32.5158 94.4606 32.8827 94.2062L36.1017 91.9737C36.9069 91.4153 36.5117 90.152 35.5318 90.152H31.4524C31.0243 90.152 30.6437 89.8795 30.5058 89.4742L29.2135 85.6778Z" fill="#68B587"/>
<path d="M48.2557 84.3636V96H46.1477V84.3636H48.2557ZM56.2173 96L53.7514 87.2727H55.848L57.3821 93.4091H57.4616L59.0298 87.2727H61.1037L62.6719 93.375H62.7571L64.2685 87.2727H66.3707L63.8991 96H61.7571L60.1207 90.1023H60.0014L58.3651 96H56.2173ZM67.8068 96V87.2727H69.8636V96H67.8068ZM68.8409 86.0341C68.5152 86.0341 68.2348 85.9261 68 85.7102C67.7652 85.4905 67.6477 85.2273 67.6477 84.9205C67.6477 84.6098 67.7652 84.3466 68 84.1307C68.2348 83.911 68.5152 83.8011 68.8409 83.8011C69.1705 83.8011 69.4508 83.911 69.6818 84.1307C69.9167 84.3466 70.0341 84.6098 70.0341 84.9205C70.0341 85.2273 69.9167 85.4905 69.6818 85.7102C69.4508 85.9261 69.1705 86.0341 68.8409 86.0341ZM74.0355 84.3636V96H71.9787V84.3636H74.0355ZM78.2074 84.3636V96H76.1506V84.3636H78.2074ZM91.1889 89.5795L89.3139 89.7841C89.2609 89.5947 89.1681 89.4167 89.0355 89.25C88.9067 89.0833 88.7325 88.9489 88.5128 88.8466C88.2931 88.7443 88.0241 88.6932 87.706 88.6932C87.2779 88.6932 86.9181 88.786 86.6264 88.9716C86.3385 89.1572 86.1965 89.3977 86.2003 89.6932C86.1965 89.947 86.2893 90.1534 86.4787 90.3125C86.6719 90.4716 86.9901 90.6023 87.4332 90.7045L88.9219 91.0227C89.7476 91.2008 90.3613 91.483 90.7628 91.8693C91.1681 92.2557 91.3726 92.7614 91.3764 93.3864C91.3726 93.9356 91.2116 94.4205 90.8935 94.8409C90.5791 95.2576 90.1416 95.5833 89.581 95.8182C89.0204 96.053 88.3764 96.1705 87.6491 96.1705C86.581 96.1705 85.7211 95.947 85.0696 95.5C84.4181 95.0492 84.0298 94.4223 83.9048 93.6193L85.9105 93.4261C86.0014 93.8201 86.1946 94.1174 86.4901 94.3182C86.7855 94.5189 87.17 94.6193 87.6435 94.6193C88.1321 94.6193 88.5241 94.5189 88.8196 94.3182C89.1188 94.1174 89.2685 93.8693 89.2685 93.5739C89.2685 93.3239 89.1719 93.1174 88.9787 92.9545C88.7893 92.7917 88.4938 92.6667 88.0923 92.5795L86.6037 92.267C85.7666 92.0928 85.1473 91.7992 84.7457 91.3864C84.3442 90.9697 84.1454 90.4432 84.1491 89.8068C84.1454 89.2689 84.2912 88.803 84.5866 88.4091C84.8859 88.0114 85.3007 87.7045 85.831 87.4886C86.3651 87.2689 86.9806 87.1591 87.6776 87.1591C88.7003 87.1591 89.5052 87.3769 90.0923 87.8125C90.6832 88.2481 91.0488 88.8371 91.1889 89.5795ZM97.4304 87.2727V88.8636H92.4134V87.2727H97.4304ZM93.652 85.1818H95.7088V93.375C95.7088 93.6515 95.7505 93.8636 95.8338 94.0114C95.9209 94.1553 96.0346 94.2538 96.1747 94.3068C96.3149 94.3598 96.4702 94.3864 96.6406 94.3864C96.7694 94.3864 96.8868 94.3769 96.9929 94.358C97.1027 94.339 97.1861 94.322 97.2429 94.3068L97.5895 95.9148C97.4796 95.9527 97.3224 95.9943 97.1179 96.0398C96.9171 96.0852 96.6709 96.1117 96.3793 96.1193C95.8641 96.1345 95.4001 96.0568 94.9872 95.8864C94.5743 95.7121 94.2467 95.4432 94.0043 95.0795C93.7656 94.7159 93.6482 94.2614 93.652 93.7159V85.1818ZM104.713 92.3295V87.2727H106.77V96H104.776V94.4489H104.685C104.488 94.9375 104.164 95.3371 103.713 95.6477C103.266 95.9583 102.715 96.1136 102.06 96.1136C101.488 96.1136 100.982 95.9867 100.543 95.733C100.107 95.4754 99.7661 95.1023 99.5199 94.6136C99.2737 94.1212 99.1506 93.5265 99.1506 92.8295V87.2727H101.207V92.5114C101.207 93.0644 101.359 93.5038 101.662 93.8295C101.965 94.1553 102.363 94.3182 102.855 94.3182C103.158 94.3182 103.452 94.2443 103.736 94.0966C104.02 93.9489 104.253 93.7292 104.435 93.4375C104.62 93.142 104.713 92.7727 104.713 92.3295ZM112.124 96.1534C111.438 96.1534 110.824 95.9773 110.283 95.625C109.741 95.2727 109.313 94.7614 108.999 94.0909C108.684 93.4205 108.527 92.6061 108.527 91.6477C108.527 90.678 108.686 89.8598 109.004 89.1932C109.326 88.5227 109.76 88.017 110.305 87.6761C110.851 87.3314 111.459 87.1591 112.129 87.1591C112.641 87.1591 113.061 87.2462 113.391 87.4205C113.72 87.5909 113.982 87.7973 114.175 88.0398C114.368 88.2784 114.518 88.5038 114.624 88.7159H114.709V84.3636H116.771V96H114.749V94.625H114.624C114.518 94.8371 114.364 95.0625 114.163 95.3011C113.963 95.536 113.697 95.7367 113.368 95.9034C113.038 96.0701 112.624 96.1534 112.124 96.1534ZM112.697 94.4659C113.133 94.4659 113.504 94.3485 113.811 94.1136C114.118 93.875 114.351 93.5436 114.51 93.1193C114.669 92.6951 114.749 92.2008 114.749 91.6364C114.749 91.072 114.669 90.5814 114.51 90.1648C114.355 89.7481 114.124 89.4242 113.817 89.1932C113.514 88.9621 113.141 88.8466 112.697 88.8466C112.239 88.8466 111.857 88.9659 111.55 89.2045C111.243 89.4432 111.012 89.7727 110.857 90.1932C110.701 90.6136 110.624 91.0947 110.624 91.6364C110.624 92.1818 110.701 92.6686 110.857 93.0966C111.016 93.5208 111.249 93.8561 111.555 94.1023C111.866 94.3447 112.247 94.4659 112.697 94.4659ZM120.241 99.2727C119.961 99.2727 119.702 99.25 119.463 99.2045C119.228 99.1629 119.041 99.1136 118.901 99.0568L119.378 97.4545C119.677 97.5417 119.944 97.5833 120.179 97.5795C120.414 97.5758 120.62 97.5019 120.798 97.358C120.98 97.2178 121.134 96.983 121.259 96.6534L121.435 96.1818L118.27 87.2727H120.452L122.463 93.8636H122.554L124.571 87.2727H126.759L123.264 97.0568C123.101 97.5189 122.885 97.9148 122.616 98.2443C122.348 98.5777 122.018 98.8314 121.628 99.0057C121.241 99.1837 120.779 99.2727 120.241 99.2727ZM132.151 96V87.2727H134.207V96H132.151ZM133.185 86.0341C132.859 86.0341 132.579 85.9261 132.344 85.7102C132.109 85.4905 131.991 85.2273 131.991 84.9205C131.991 84.6098 132.109 84.3466 132.344 84.1307C132.579 83.911 132.859 83.8011 133.185 83.8011C133.514 83.8011 133.795 83.911 134.026 84.1307C134.26 84.3466 134.378 84.6098 134.378 84.9205C134.378 85.2273 134.26 85.4905 134.026 85.7102C133.795 85.9261 133.514 86.0341 133.185 86.0341ZM138.379 90.8864V96H136.322V87.2727H138.288V88.7557H138.391C138.591 88.267 138.911 87.8788 139.351 87.5909C139.794 87.303 140.341 87.1591 140.993 87.1591C141.595 87.1591 142.12 87.2879 142.567 87.5455C143.018 87.803 143.366 88.1761 143.612 88.6648C143.862 89.1534 143.985 89.7462 143.982 90.4432V96H141.925V90.7614C141.925 90.178 141.773 89.7216 141.47 89.392C141.171 89.0625 140.756 88.8977 140.226 88.8977C139.866 88.8977 139.546 88.9773 139.266 89.1364C138.989 89.2917 138.771 89.517 138.612 89.8125C138.457 90.108 138.379 90.4659 138.379 90.8864ZM154.399 87.2727V88.8636H149.382V87.2727H154.399ZM150.621 85.1818H152.678V93.375C152.678 93.6515 152.719 93.8636 152.803 94.0114C152.89 94.1553 153.003 94.2538 153.143 94.3068C153.284 94.3598 153.439 94.3864 153.609 94.3864C153.738 94.3864 153.856 94.3769 153.962 94.358C154.071 94.339 154.155 94.322 154.212 94.3068L154.558 95.9148C154.448 95.9527 154.291 95.9943 154.087 96.0398C153.886 96.0852 153.64 96.1117 153.348 96.1193C152.833 96.1345 152.369 96.0568 151.956 95.8864C151.543 95.7121 151.215 95.4432 150.973 95.0795C150.734 94.7159 150.617 94.2614 150.621 93.7159V85.1818ZM158.364 90.8864V96H156.307V84.3636H158.318V88.7557H158.42C158.625 88.2633 158.941 87.875 159.369 87.5909C159.801 87.303 160.35 87.1591 161.017 87.1591C161.623 87.1591 162.152 87.286 162.602 87.5398C163.053 87.7936 163.402 88.1648 163.648 88.6534C163.898 89.142 164.023 89.7386 164.023 90.4432V96H161.966V90.7614C161.966 90.1742 161.814 89.7178 161.511 89.392C161.212 89.0625 160.792 88.8977 160.25 88.8977C159.886 88.8977 159.561 88.9773 159.273 89.1364C158.989 89.2917 158.765 89.517 158.602 89.8125C158.443 90.108 158.364 90.4659 158.364 90.8864ZM169.983 96.1705C169.108 96.1705 168.352 95.9886 167.716 95.625C167.083 95.2576 166.597 94.7386 166.256 94.0682C165.915 93.3939 165.744 92.6004 165.744 91.6875C165.744 90.7898 165.915 90.0019 166.256 89.3239C166.6 88.642 167.081 88.1117 167.699 87.733C168.316 87.3504 169.042 87.1591 169.875 87.1591C170.413 87.1591 170.92 87.2462 171.398 87.4205C171.879 87.5909 172.303 87.8561 172.67 88.2159C173.042 88.5758 173.333 89.0341 173.545 89.5909C173.758 90.1439 173.864 90.803 173.864 91.5682V92.1989H166.71V90.8125H171.892C171.888 90.4186 171.803 90.0682 171.636 89.7614C171.47 89.4508 171.237 89.2064 170.938 89.0284C170.642 88.8504 170.297 88.7614 169.903 88.7614C169.483 88.7614 169.114 88.8636 168.795 89.0682C168.477 89.2689 168.229 89.5341 168.051 89.8636C167.877 90.1894 167.788 90.5473 167.784 90.9375V92.1477C167.784 92.6553 167.877 93.0909 168.062 93.4545C168.248 93.8144 168.508 94.0909 168.841 94.2841C169.174 94.4735 169.564 94.5682 170.011 94.5682C170.311 94.5682 170.581 94.5265 170.824 94.4432C171.066 94.3561 171.277 94.2292 171.455 94.0625C171.633 93.8958 171.767 93.6894 171.858 93.4432L173.778 93.6591C173.657 94.1667 173.426 94.6098 173.085 94.9886C172.748 95.3636 172.316 95.6553 171.79 95.8636C171.263 96.0682 170.661 96.1705 169.983 96.1705ZM179.663 96V84.3636H181.72V88.7159H181.805C181.911 88.5038 182.061 88.2784 182.254 88.0398C182.447 87.7973 182.709 87.5909 183.038 87.4205C183.368 87.2462 183.788 87.1591 184.3 87.1591C184.974 87.1591 185.582 87.3314 186.124 87.6761C186.669 88.017 187.101 88.5227 187.419 89.1932C187.741 89.8598 187.902 90.678 187.902 91.6477C187.902 92.6061 187.745 93.4205 187.43 94.0909C187.116 94.7614 186.688 95.2727 186.146 95.625C185.605 95.9773 184.991 96.1534 184.305 96.1534C183.805 96.1534 183.391 96.0701 183.061 95.9034C182.732 95.7367 182.466 95.536 182.266 95.3011C182.069 95.0625 181.915 94.8371 181.805 94.625H181.686V96H179.663ZM181.68 91.6364C181.68 92.2008 181.76 92.6951 181.919 93.1193C182.082 93.5436 182.315 93.875 182.618 94.1136C182.925 94.3485 183.296 94.4659 183.732 94.4659C184.186 94.4659 184.567 94.3447 184.874 94.1023C185.18 93.8561 185.411 93.5208 185.567 93.0966C185.726 92.6686 185.805 92.1818 185.805 91.6364C185.805 91.0947 185.728 90.6136 185.572 90.1932C185.417 89.7727 185.186 89.4432 184.879 89.2045C184.572 88.9659 184.19 88.8466 183.732 88.8466C183.292 88.8466 182.919 88.9621 182.612 89.1932C182.305 89.4242 182.072 89.7481 181.913 90.1648C181.758 90.5814 181.68 91.072 181.68 91.6364ZM189.651 96V87.2727H191.645V88.7273H191.736C191.895 88.2235 192.168 87.8352 192.554 87.5625C192.944 87.286 193.389 87.1477 193.889 87.1477C194.003 87.1477 194.13 87.1534 194.27 87.1648C194.414 87.1723 194.533 87.1856 194.628 87.2045V89.0966C194.541 89.0663 194.402 89.0398 194.213 89.017C194.027 88.9905 193.848 88.9773 193.673 88.9773C193.298 88.9773 192.961 89.0587 192.662 89.2216C192.366 89.3807 192.134 89.6023 191.963 89.8864C191.793 90.1705 191.707 90.4981 191.707 90.8693V96H189.651ZM195.994 96V87.2727H198.051V96H195.994ZM197.028 86.0341C196.703 86.0341 196.422 85.9261 196.188 85.7102C195.953 85.4905 195.835 85.2273 195.835 84.9205C195.835 84.6098 195.953 84.3466 196.188 84.1307C196.422 83.911 196.703 83.8011 197.028 83.8011C197.358 83.8011 197.638 83.911 197.869 84.1307C198.104 84.3466 198.222 84.6098 198.222 84.9205C198.222 85.2273 198.104 85.4905 197.869 85.7102C197.638 85.9261 197.358 86.0341 197.028 86.0341ZM203.962 99.4545C203.223 99.4545 202.589 99.3542 202.058 99.1534C201.528 98.9564 201.102 98.6913 200.78 98.358C200.458 98.0246 200.234 97.6553 200.109 97.25L201.962 96.8011C202.045 96.9716 202.166 97.1402 202.325 97.3068C202.484 97.4773 202.698 97.6174 202.967 97.7273C203.24 97.8409 203.583 97.8977 203.996 97.8977C204.579 97.8977 205.062 97.7557 205.445 97.4716C205.827 97.1913 206.018 96.7292 206.018 96.0852V94.4318H205.916C205.81 94.6439 205.655 94.8617 205.45 95.0852C205.25 95.3087 204.982 95.4962 204.649 95.6477C204.32 95.7992 203.905 95.875 203.405 95.875C202.734 95.875 202.126 95.7178 201.581 95.4034C201.039 95.0852 200.607 94.6117 200.286 93.983C199.967 93.3504 199.808 92.5587 199.808 91.608C199.808 90.6496 199.967 89.8409 200.286 89.1818C200.607 88.5189 201.041 88.017 201.587 87.6761C202.132 87.3314 202.74 87.1591 203.411 87.1591C203.922 87.1591 204.342 87.2462 204.672 87.4205C205.005 87.5909 205.27 87.7973 205.467 88.0398C205.664 88.2784 205.814 88.5038 205.916 88.7159H206.03V87.2727H208.058V96.142C208.058 96.8883 207.88 97.5057 207.524 97.9943C207.168 98.483 206.681 98.8485 206.064 99.0909C205.446 99.3333 204.746 99.4545 203.962 99.4545ZM203.979 94.2614C204.414 94.2614 204.786 94.1553 205.092 93.9432C205.399 93.7311 205.632 93.4261 205.791 93.0284C205.95 92.6307 206.03 92.1534 206.03 91.5966C206.03 91.0473 205.95 90.5663 205.791 90.1534C205.636 89.7405 205.405 89.4205 205.098 89.1932C204.795 88.9621 204.422 88.8466 203.979 88.8466C203.52 88.8466 203.138 88.9659 202.831 89.2045C202.524 89.4432 202.293 89.7708 202.138 90.1875C201.982 90.6004 201.905 91.0701 201.905 91.5966C201.905 92.1307 201.982 92.5985 202.138 93C202.297 93.3977 202.53 93.7083 202.837 93.9318C203.147 94.1515 203.528 94.2614 203.979 94.2614ZM212.223 90.8864V96H210.166V84.3636H212.178V88.7557H212.28C212.484 88.2633 212.801 87.875 213.229 87.5909C213.661 87.303 214.21 87.1591 214.876 87.1591C215.482 87.1591 216.011 87.286 216.462 87.5398C216.912 87.7936 217.261 88.1648 217.507 88.6534C217.757 89.142 217.882 89.7386 217.882 90.4432V96H215.825V90.7614C215.825 90.1742 215.674 89.7178 215.371 89.392C215.071 89.0625 214.651 88.8977 214.109 88.8977C213.746 88.8977 213.42 88.9773 213.132 89.1364C212.848 89.2917 212.625 89.517 212.462 89.8125C212.303 90.108 212.223 90.4659 212.223 90.8864ZM224.337 87.2727V88.8636H219.32V87.2727H224.337ZM220.558 85.1818H222.615V93.375C222.615 93.6515 222.657 93.8636 222.74 94.0114C222.827 94.1553 222.941 94.2538 223.081 94.3068C223.221 94.3598 223.376 94.3864 223.547 94.3864C223.676 94.3864 223.793 94.3769 223.899 94.358C224.009 94.339 224.092 94.322 224.149 94.3068L224.496 95.9148C224.386 95.9527 224.229 95.9943 224.024 96.0398C223.823 96.0852 223.577 96.1117 223.286 96.1193C222.77 96.1345 222.306 96.0568 221.893 95.8864C221.481 95.7121 221.153 95.4432 220.911 95.0795C220.672 94.7159 220.554 94.2614 220.558 93.7159V85.1818ZM234.446 87.2727V88.8636H229.287V87.2727H234.446ZM230.577 96V86.4489C230.577 85.8617 230.698 85.3731 230.94 84.983C231.187 84.5928 231.516 84.3011 231.929 84.108C232.342 83.9148 232.8 83.8182 233.304 83.8182C233.66 83.8182 233.976 83.8466 234.253 83.9034C234.529 83.9602 234.734 84.0114 234.866 84.0568L234.457 85.6477C234.37 85.6212 234.26 85.5947 234.128 85.5682C233.995 85.5379 233.848 85.5227 233.685 85.5227C233.302 85.5227 233.031 85.6155 232.872 85.8011C232.717 85.983 232.639 86.2443 232.639 86.5852V96H230.577ZM241.619 92.3295V87.2727H243.676V96H241.682V94.4489H241.591C241.394 94.9375 241.07 95.3371 240.619 95.6477C240.172 95.9583 239.621 96.1136 238.966 96.1136C238.394 96.1136 237.888 95.9867 237.449 95.733C237.013 95.4754 236.672 95.1023 236.426 94.6136C236.18 94.1212 236.057 93.5265 236.057 92.8295V87.2727H238.114V92.5114C238.114 93.0644 238.265 93.5038 238.568 93.8295C238.871 94.1553 239.269 94.3182 239.761 94.3182C240.064 94.3182 240.358 94.2443 240.642 94.0966C240.926 93.9489 241.159 93.7292 241.341 93.4375C241.527 93.142 241.619 92.7727 241.619 92.3295ZM250.149 87.2727V88.8636H245.132V87.2727H250.149ZM246.371 85.1818H248.428V93.375C248.428 93.6515 248.469 93.8636 248.553 94.0114C248.64 94.1553 248.753 94.2538 248.893 94.3068C249.034 94.3598 249.189 94.3864 249.359 94.3864C249.488 94.3864 249.606 94.3769 249.712 94.358C249.821 94.339 249.905 94.322 249.962 94.3068L250.308 95.9148C250.198 95.9527 250.041 95.9943 249.837 96.0398C249.636 96.0852 249.39 96.1117 249.098 96.1193C248.583 96.1345 248.119 96.0568 247.706 95.8864C247.293 95.7121 246.965 95.4432 246.723 95.0795C246.484 94.7159 246.367 94.2614 246.371 93.7159V85.1818ZM257.432 92.3295V87.2727H259.489V96H257.494V94.4489H257.403C257.206 94.9375 256.883 95.3371 256.432 95.6477C255.985 95.9583 255.434 96.1136 254.778 96.1136C254.206 96.1136 253.701 95.9867 253.261 95.733C252.826 95.4754 252.485 95.1023 252.239 94.6136C251.992 94.1212 251.869 93.5265 251.869 92.8295V87.2727H253.926V92.5114C253.926 93.0644 254.078 93.5038 254.381 93.8295C254.684 94.1553 255.081 94.3182 255.574 94.3182C255.877 94.3182 256.17 94.2443 256.455 94.0966C256.739 93.9489 256.972 93.7292 257.153 93.4375C257.339 93.142 257.432 92.7727 257.432 92.3295ZM261.604 96V87.2727H263.598V88.7273H263.689C263.848 88.2235 264.121 87.8352 264.507 87.5625C264.897 87.286 265.342 87.1477 265.842 87.1477C265.956 87.1477 266.083 87.1534 266.223 87.1648C266.367 87.1723 266.486 87.1856 266.581 87.2045V89.0966C266.494 89.0663 266.356 89.0398 266.166 89.017C265.981 88.9905 265.801 88.9773 265.626 88.9773C265.251 88.9773 264.914 89.0587 264.615 89.2216C264.32 89.3807 264.087 89.6023 263.916 89.8864C263.746 90.1705 263.661 90.4981 263.661 90.8693V96H261.604ZM271.452 96.1705C270.577 96.1705 269.821 95.9886 269.185 95.625C268.552 95.2576 268.065 94.7386 267.724 94.0682C267.384 93.3939 267.213 92.6004 267.213 91.6875C267.213 90.7898 267.384 90.0019 267.724 89.3239C268.069 88.642 268.55 88.1117 269.168 87.733C269.785 87.3504 270.51 87.1591 271.344 87.1591C271.882 87.1591 272.389 87.2462 272.866 87.4205C273.348 87.5909 273.772 87.8561 274.139 88.2159C274.51 88.5758 274.802 89.0341 275.014 89.5909C275.226 90.1439 275.332 90.803 275.332 91.5682V92.1989H268.179V90.8125H273.361C273.357 90.4186 273.272 90.0682 273.105 89.7614C272.938 89.4508 272.705 89.2064 272.406 89.0284C272.111 88.8504 271.766 88.7614 271.372 88.7614C270.952 88.7614 270.582 88.8636 270.264 89.0682C269.946 89.2689 269.698 89.5341 269.52 89.8636C269.346 90.1894 269.257 90.5473 269.253 90.9375V92.1477C269.253 92.6553 269.346 93.0909 269.531 93.4545C269.717 93.8144 269.976 94.0909 270.31 94.2841C270.643 94.4735 271.033 94.5682 271.48 94.5682C271.779 94.5682 272.05 94.5265 272.293 94.4432C272.535 94.3561 272.745 94.2292 272.923 94.0625C273.101 93.8958 273.236 93.6894 273.327 93.4432L275.247 93.6591C275.126 94.1667 274.895 94.6098 274.554 94.9886C274.217 95.3636 273.785 95.6553 273.259 95.8636C272.732 96.0682 272.13 96.1705 271.452 96.1705ZM282.308 96.125C281.964 96.125 281.668 96.0038 281.422 95.7614C281.176 95.5189 281.054 95.2235 281.058 94.875C281.054 94.5341 281.176 94.2424 281.422 94C281.668 93.7576 281.964 93.6364 282.308 93.6364C282.642 93.6364 282.931 93.7576 283.178 94C283.428 94.2424 283.554 94.5341 283.558 94.875C283.554 95.1061 283.494 95.3163 283.376 95.5057C283.263 95.6951 283.111 95.8466 282.922 95.9602C282.736 96.0701 282.532 96.125 282.308 96.125ZM282.308 89.8977C281.964 89.8977 281.668 89.7765 281.422 89.5341C281.176 89.2879 281.054 88.9924 281.058 88.6477C281.054 88.3068 281.176 88.0152 281.422 87.7727C281.668 87.5265 281.964 87.4034 282.308 87.4034C282.642 87.4034 282.931 87.5265 283.178 87.7727C283.428 88.0152 283.554 88.3068 283.558 88.6477C283.554 88.875 283.494 89.0833 283.376 89.2727C283.263 89.4621 283.111 89.6136 282.922 89.7273C282.736 89.8409 282.532 89.8977 282.308 89.8977ZM289.352 91.2557C289.352 92.6723 289.163 93.9773 288.784 95.1705C288.409 96.3598 287.848 97.4602 287.102 98.4716H285.165C285.456 98.0966 285.725 97.6383 285.972 97.0966C286.222 96.5549 286.438 95.9602 286.619 95.3125C286.805 94.6648 286.949 93.9943 287.051 93.3011C287.157 92.608 287.21 91.9261 287.21 91.2557C287.21 90.358 287.119 89.4489 286.938 88.5284C286.759 87.608 286.515 86.7538 286.205 85.9659C285.898 85.178 285.551 84.5341 285.165 84.0341H287.102C287.848 85.0455 288.409 86.1477 288.784 87.3409C289.163 88.5303 289.352 89.8352 289.352 91.2557Z" fill="#68B587"/>
<path fill-rule="evenodd" clip-rule="evenodd" d="M394.5 66C372.636 66 355 83.5092 355 105C355 126.491 372.636 144 394.5 144C416.364 144 434 126.491 434 105C434 83.5092 416.364 66 394.5 66ZM346 105C346 78.442 367.763 57 394.5 57C421.237 57 443 78.442 443 105C443 131.558 421.237 153 394.5 153C367.763 153 346 131.558 346 105Z" fill="#2A3609"/>
<path d="M384.003 113.332C382.599 113.332 381.395 112.977 380.389 112.267C379.389 111.551 378.619 110.52 378.08 109.173C377.545 107.821 377.278 106.193 377.278 104.29C377.284 102.386 377.554 100.767 378.088 99.4318C378.628 98.0909 379.398 97.0682 380.398 96.3636C381.403 95.6591 382.605 95.3068 384.003 95.3068C385.401 95.3068 386.602 95.6591 387.608 96.3636C388.614 97.0682 389.384 98.0909 389.918 99.4318C390.457 100.773 390.727 102.392 390.727 104.29C390.727 106.199 390.457 107.83 389.918 109.182C389.384 110.528 388.614 111.557 387.608 112.267C386.608 112.977 385.406 113.332 384.003 113.332ZM384.003 110.665C385.094 110.665 385.955 110.128 386.585 109.054C387.222 107.974 387.54 106.386 387.54 104.29C387.54 102.903 387.395 101.739 387.105 100.795C386.815 99.8523 386.406 99.142 385.878 98.6648C385.349 98.1818 384.724 97.9403 384.003 97.9403C382.918 97.9403 382.06 98.4801 381.429 99.5597C380.798 100.634 380.48 102.21 380.474 104.29C380.469 105.682 380.608 106.852 380.892 107.801C381.182 108.75 381.591 109.466 382.119 109.949C382.648 110.426 383.276 110.665 384.003 110.665ZM402.891 109.727V108.807C402.891 108.131 403.033 107.509 403.317 106.94C403.607 106.372 404.028 105.915 404.579 105.568C405.13 105.222 405.798 105.048 406.582 105.048C407.388 105.048 408.065 105.222 408.61 105.568C409.156 105.909 409.567 106.364 409.846 106.932C410.13 107.5 410.272 108.125 410.272 108.807V109.727C410.272 110.403 410.13 111.026 409.846 111.594C409.562 112.162 409.144 112.619 408.593 112.966C408.048 113.313 407.377 113.486 406.582 113.486C405.786 113.486 405.113 113.313 404.562 112.966C404.011 112.619 403.593 112.162 403.309 111.594C403.031 111.026 402.891 110.403 402.891 109.727ZM405.116 108.807V109.727C405.116 110.176 405.224 110.588 405.44 110.963C405.656 111.338 406.036 111.526 406.582 111.526C407.133 111.526 407.511 111.341 407.715 110.972C407.925 110.597 408.031 110.182 408.031 109.727V108.807C408.031 108.352 407.931 107.938 407.732 107.562C407.533 107.182 407.15 106.991 406.582 106.991C406.048 106.991 405.67 107.182 405.448 107.562C405.227 107.938 405.116 108.352 405.116 108.807ZM394.019 99.7386V98.8182C394.019 98.1364 394.164 97.5114 394.454 96.9432C394.744 96.375 395.164 95.9205 395.715 95.5795C396.266 95.233 396.934 95.0597 397.718 95.0597C398.519 95.0597 399.192 95.233 399.738 95.5795C400.289 95.9205 400.704 96.375 400.982 96.9432C401.261 97.5114 401.4 98.1364 401.4 98.8182V99.7386C401.4 100.42 401.258 101.045 400.974 101.614C400.695 102.176 400.281 102.628 399.729 102.969C399.178 103.31 398.508 103.48 397.718 103.48C396.917 103.48 396.241 103.31 395.69 102.969C395.144 102.628 394.729 102.173 394.445 101.605C394.161 101.037 394.019 100.415 394.019 99.7386ZM396.261 98.8182V99.7386C396.261 100.193 396.366 100.608 396.576 100.983C396.792 101.352 397.173 101.537 397.718 101.537C398.263 101.537 398.638 101.352 398.843 100.983C399.053 100.608 399.158 100.193 399.158 99.7386V98.8182C399.158 98.3636 399.059 97.9489 398.86 97.5739C398.661 97.1932 398.281 97.0028 397.718 97.0028C397.178 97.0028 396.8 97.1932 396.585 97.5739C396.369 97.9545 396.261 98.3693 396.261 98.8182ZM394.991 113L406.991 95.5455H409.121L397.121 113H394.991Z" fill="#68B587"/>
</svg>
