<svg width="464" height="181" viewBox="0 0 464 181" fill="none" xmlns="http://www.w3.org/2000/svg">
<g style="mix-blend-mode:luminosity">
<rect width="464" height="181" fill="#0A0F0B"/>
</g>
<path d="M34.7216 45V27.5455H37.8835V42.3494H45.571V45H34.7216ZM51.946 45.2642C51.1165 45.2642 50.3693 45.1165 49.7045 44.821C49.0455 44.5199 48.5227 44.0767 48.1364 43.4915C47.7557 42.9062 47.5653 42.1847 47.5653 41.3267C47.5653 40.5881 47.7017 39.9773 47.9744 39.4943C48.2472 39.0114 48.6193 38.625 49.0909 38.3352C49.5625 38.0455 50.0938 37.8267 50.6847 37.679C51.2813 37.5256 51.8977 37.4148 52.5341 37.3466C53.3011 37.267 53.9233 37.196 54.4006 37.1335C54.8778 37.0653 55.2244 36.9631 55.4403 36.8267C55.6619 36.6847 55.7727 36.4659 55.7727 36.1705V36.1193C55.7727 35.4773 55.5824 34.9801 55.2017 34.6278C54.821 34.2756 54.2727 34.0994 53.5568 34.0994C52.8011 34.0994 52.2017 34.2642 51.7585 34.5938C51.321 34.9233 51.0256 35.3125 50.8722 35.7614L47.9915 35.3523C48.2188 34.5568 48.5938 33.892 49.1165 33.358C49.6392 32.8182 50.2784 32.4148 51.0341 32.1477C51.7898 31.875 52.625 31.7386 53.5398 31.7386C54.1705 31.7386 54.7983 31.8125 55.4233 31.9602C56.0483 32.108 56.6193 32.3523 57.1364 32.6932C57.6534 33.0284 58.0682 33.4858 58.3807 34.0653C58.6989 34.6449 58.858 35.3693 58.858 36.2386V45H55.892V43.2017H55.7898C55.6023 43.5653 55.3381 43.9062 54.9972 44.2244C54.6619 44.5369 54.2386 44.7898 53.7273 44.983C53.2216 45.1705 52.6278 45.2642 51.946 45.2642ZM52.7472 42.9972C53.3665 42.9972 53.9034 42.875 54.358 42.6307C54.8125 42.3807 55.1619 42.0511 55.4062 41.642C55.6562 41.233 55.7812 40.7869 55.7812 40.304V38.7614C55.6847 38.8409 55.5199 38.9148 55.2869 38.983C55.0597 39.0511 54.804 39.1108 54.5199 39.1619C54.2358 39.2131 53.9545 39.2585 53.6761 39.2983C53.3977 39.3381 53.1563 39.3722 52.9517 39.4006C52.4915 39.4631 52.0795 39.5653 51.7159 39.7074C51.3523 39.8494 51.0653 40.0483 50.8551 40.304C50.6449 40.554 50.5398 40.8778 50.5398 41.2756C50.5398 41.8438 50.7472 42.2727 51.1619 42.5625C51.5767 42.8523 52.1051 42.9972 52.7472 42.9972ZM65.0455 37.3295V45H61.9602V31.9091H64.9091V34.1335H65.0625C65.3636 33.4006 65.8438 32.8182 66.5028 32.3864C67.1676 31.9545 67.9886 31.7386 68.9659 31.7386C69.8693 31.7386 70.6563 31.9318 71.3267 32.3182C72.0028 32.7045 72.5256 33.2642 72.8949 33.9972C73.2699 34.7301 73.4545 35.6193 73.4489 36.6648V45H70.3636V37.142C70.3636 36.267 70.1364 35.5824 69.6818 35.0881C69.233 34.5937 68.6108 34.3466 67.8153 34.3466C67.2756 34.3466 66.7955 34.4659 66.375 34.7045C65.9602 34.9375 65.6335 35.2756 65.3949 35.7188C65.1619 36.1619 65.0455 36.6989 65.0455 37.3295ZM82.2784 50.1818C81.1705 50.1818 80.2188 50.0313 79.4233 49.7301C78.6278 49.4347 77.9886 49.0369 77.5057 48.5369C77.0227 48.0369 76.6875 47.483 76.5 46.875L79.2784 46.2017C79.4034 46.4574 79.5852 46.7102 79.8239 46.9602C80.0625 47.2159 80.3835 47.4261 80.7869 47.5909C81.196 47.7614 81.7102 47.8466 82.3295 47.8466C83.2045 47.8466 83.929 47.6335 84.5028 47.2074C85.0767 46.7869 85.3636 46.0938 85.3636 45.1278V42.6477H85.2102C85.0511 42.9659 84.8182 43.2926 84.5114 43.6278C84.2102 43.9631 83.8097 44.2443 83.3097 44.4716C82.8153 44.6989 82.1932 44.8125 81.4432 44.8125C80.4375 44.8125 79.5256 44.5767 78.7074 44.1051C77.8949 43.6278 77.2472 42.9176 76.7642 41.9744C76.2869 41.0256 76.0483 39.8381 76.0483 38.4119C76.0483 36.9744 76.2869 35.7614 76.7642 34.7727C77.2472 33.7784 77.8977 33.0256 78.7159 32.5142C79.5341 31.9972 80.446 31.7386 81.4517 31.7386C82.2188 31.7386 82.8494 31.8693 83.3438 32.1307C83.8438 32.3864 84.2415 32.696 84.5369 33.0597C84.8324 33.4176 85.0568 33.7557 85.2102 34.0739H85.3807V31.9091H88.4233V45.2131C88.4233 46.3324 88.1563 47.2585 87.6222 47.9915C87.0881 48.7244 86.358 49.2727 85.4318 49.6364C84.5057 50 83.4545 50.1818 82.2784 50.1818ZM82.304 42.392C82.9574 42.392 83.5142 42.233 83.9744 41.9148C84.4347 41.5966 84.7841 41.1392 85.0227 40.5426C85.2614 39.946 85.3807 39.2301 85.3807 38.3949C85.3807 37.571 85.2614 36.8494 85.0227 36.2301C84.7898 35.6108 84.4432 35.1307 83.983 34.7898C83.5284 34.4432 82.9688 34.2699 82.304 34.2699C81.6165 34.2699 81.0426 34.4489 80.5824 34.8068C80.1222 35.1648 79.7756 35.6562 79.5426 36.2812C79.3097 36.9006 79.1932 37.6051 79.1932 38.3949C79.1932 39.196 79.3097 39.8977 79.5426 40.5C79.7813 41.0966 80.1307 41.5625 80.5909 41.8977C81.0568 42.2273 81.6278 42.392 82.304 42.392ZM99.929 39.4943V31.9091H103.014V45H100.023V42.6733H99.8864C99.5909 43.4062 99.1051 44.0057 98.429 44.4716C97.7585 44.9375 96.9318 45.1705 95.9489 45.1705C95.0909 45.1705 94.3324 44.9801 93.6733 44.5994C93.0199 44.2131 92.5085 43.6534 92.1392 42.9205C91.7699 42.1818 91.5852 41.2898 91.5852 40.2443V31.9091H94.6705V39.767C94.6705 40.5966 94.8977 41.2557 95.3523 41.7443C95.8068 42.233 96.4034 42.4773 97.142 42.4773C97.5966 42.4773 98.0369 42.3665 98.4631 42.1449C98.8892 41.9233 99.2386 41.5938 99.5114 41.1562C99.7898 40.7131 99.929 40.1591 99.929 39.4943ZM109.954 45.2642C109.124 45.2642 108.377 45.1165 107.712 44.821C107.053 44.5199 106.531 44.0767 106.144 43.4915C105.763 42.9062 105.573 42.1847 105.573 41.3267C105.573 40.5881 105.71 39.9773 105.982 39.4943C106.255 39.0114 106.627 38.625 107.099 38.3352C107.57 38.0455 108.102 37.8267 108.692 37.679C109.289 37.5256 109.906 37.4148 110.542 37.3466C111.309 37.267 111.931 37.196 112.408 37.1335C112.886 37.0653 113.232 36.9631 113.448 36.8267C113.67 36.6847 113.781 36.4659 113.781 36.1705V36.1193C113.781 35.4773 113.59 34.9801 113.21 34.6278C112.829 34.2756 112.281 34.0994 111.565 34.0994C110.809 34.0994 110.21 34.2642 109.766 34.5938C109.329 34.9233 109.033 35.3125 108.88 35.7614L105.999 35.3523C106.227 34.5568 106.602 33.892 107.124 33.358C107.647 32.8182 108.286 32.4148 109.042 32.1477C109.798 31.875 110.633 31.7386 111.548 31.7386C112.178 31.7386 112.806 31.8125 113.431 31.9602C114.056 32.108 114.627 32.3523 115.144 32.6932C115.661 33.0284 116.076 33.4858 116.388 34.0653C116.707 34.6449 116.866 35.3693 116.866 36.2386V45H113.9V43.2017H113.798C113.61 43.5653 113.346 43.9062 113.005 44.2244C112.67 44.5369 112.246 44.7898 111.735 44.983C111.229 45.1705 110.636 45.2642 109.954 45.2642ZM110.755 42.9972C111.374 42.9972 111.911 42.875 112.366 42.6307C112.82 42.3807 113.17 42.0511 113.414 41.642C113.664 41.233 113.789 40.7869 113.789 40.304V38.7614C113.692 38.8409 113.528 38.9148 113.295 38.983C113.067 39.0511 112.812 39.1108 112.528 39.1619C112.244 39.2131 111.962 39.2585 111.684 39.2983C111.406 39.3381 111.164 39.3722 110.96 39.4006C110.499 39.4631 110.087 39.5653 109.724 39.7074C109.36 39.8494 109.073 40.0483 108.863 40.304C108.653 40.554 108.548 40.8778 108.548 41.2756C108.548 41.8438 108.755 42.2727 109.17 42.5625C109.585 42.8523 110.113 42.9972 110.755 42.9972ZM125.661 50.1818C124.553 50.1818 123.602 50.0313 122.806 49.7301C122.011 49.4347 121.371 49.0369 120.888 48.5369C120.406 48.0369 120.07 47.483 119.883 46.875L122.661 46.2017C122.786 46.4574 122.968 46.7102 123.207 46.9602C123.445 47.2159 123.766 47.4261 124.17 47.5909C124.579 47.7614 125.093 47.8466 125.712 47.8466C126.587 47.8466 127.312 47.6335 127.886 47.2074C128.46 46.7869 128.746 46.0938 128.746 45.1278V42.6477H128.593C128.434 42.9659 128.201 43.2926 127.894 43.6278C127.593 43.9631 127.192 44.2443 126.692 44.4716C126.198 44.6989 125.576 44.8125 124.826 44.8125C123.82 44.8125 122.908 44.5767 122.09 44.1051C121.278 43.6278 120.63 42.9176 120.147 41.9744C119.67 41.0256 119.431 39.8381 119.431 38.4119C119.431 36.9744 119.67 35.7614 120.147 34.7727C120.63 33.7784 121.281 33.0256 122.099 32.5142C122.917 31.9972 123.829 31.7386 124.835 31.7386C125.602 31.7386 126.232 31.8693 126.727 32.1307C127.227 32.3864 127.624 32.696 127.92 33.0597C128.215 33.4176 128.44 33.7557 128.593 34.0739H128.763V31.9091H131.806V45.2131C131.806 46.3324 131.539 47.2585 131.005 47.9915C130.471 48.7244 129.741 49.2727 128.815 49.6364C127.888 50 126.837 50.1818 125.661 50.1818ZM125.687 42.392C126.34 42.392 126.897 42.233 127.357 41.9148C127.817 41.5966 128.167 41.1392 128.406 40.5426C128.644 39.946 128.763 39.2301 128.763 38.3949C128.763 37.571 128.644 36.8494 128.406 36.2301C128.173 35.6108 127.826 35.1307 127.366 34.7898C126.911 34.4432 126.352 34.2699 125.687 34.2699C124.999 34.2699 124.425 34.4489 123.965 34.8068C123.505 35.1648 123.158 35.6562 122.925 36.2812C122.692 36.9006 122.576 37.6051 122.576 38.3949C122.576 39.196 122.692 39.8977 122.925 40.5C123.164 41.0966 123.513 41.5625 123.974 41.8977C124.44 42.2273 125.011 42.392 125.687 42.392ZM140.763 45.2557C139.451 45.2557 138.317 44.983 137.363 44.4375C136.414 43.8864 135.684 43.108 135.173 42.1023C134.661 41.0909 134.406 39.9006 134.406 38.5312C134.406 37.1847 134.661 36.0028 135.173 34.9858C135.69 33.9631 136.411 33.1676 137.337 32.5994C138.263 32.0256 139.352 31.7386 140.602 31.7386C141.408 31.7386 142.17 31.8693 142.886 32.1307C143.607 32.3864 144.244 32.7841 144.795 33.3239C145.352 33.8636 145.789 34.5511 146.107 35.3864C146.425 36.2159 146.585 37.2045 146.585 38.3523V39.2983H135.854V37.2188H143.627C143.621 36.6278 143.494 36.1023 143.244 35.642C142.994 35.1761 142.644 34.8097 142.195 34.5426C141.752 34.2756 141.235 34.142 140.644 34.142C140.013 34.142 139.46 34.2955 138.982 34.6023C138.505 34.9034 138.133 35.3011 137.866 35.7955C137.604 36.2841 137.471 36.821 137.465 37.4062V39.2216C137.465 39.983 137.604 40.6364 137.883 41.1818C138.161 41.7216 138.55 42.1364 139.05 42.4261C139.55 42.7102 140.136 42.8523 140.806 42.8523C141.255 42.8523 141.661 42.7898 142.025 42.6648C142.388 42.5341 142.704 42.3438 142.971 42.0938C143.238 41.8438 143.44 41.5341 143.576 41.1648L146.457 41.4886C146.275 42.25 145.928 42.9148 145.417 43.483C144.911 44.0455 144.263 44.483 143.474 44.7955C142.684 45.1023 141.781 45.2557 140.763 45.2557ZM155.148 49.9091V31.9091H158.182V34.0739H158.361C158.52 33.7557 158.744 33.4176 159.034 33.0597C159.324 32.696 159.716 32.3864 160.21 32.1307C160.705 31.8693 161.335 31.7386 162.102 31.7386C163.114 31.7386 164.026 31.9972 164.838 32.5142C165.656 33.0256 166.304 33.7841 166.781 34.7898C167.264 35.7898 167.506 37.017 167.506 38.4716C167.506 39.9091 167.27 41.1307 166.798 42.1364C166.327 43.142 165.685 43.9091 164.872 44.4375C164.06 44.9659 163.139 45.2301 162.111 45.2301C161.361 45.2301 160.739 45.1051 160.244 44.8551C159.75 44.6051 159.352 44.304 159.051 43.9517C158.756 43.5937 158.526 43.2557 158.361 42.9375H158.233V49.9091H155.148ZM158.173 38.4545C158.173 39.3011 158.293 40.0426 158.531 40.679C158.776 41.3153 159.125 41.8125 159.58 42.1705C160.04 42.5227 160.597 42.6989 161.25 42.6989C161.932 42.6989 162.503 42.517 162.963 42.1534C163.423 41.7841 163.77 41.2812 164.003 40.6449C164.241 40.0028 164.361 39.2727 164.361 38.4545C164.361 37.642 164.244 36.9205 164.011 36.2898C163.778 35.6591 163.432 35.1648 162.972 34.8068C162.511 34.4489 161.938 34.2699 161.25 34.2699C160.591 34.2699 160.031 34.4432 159.571 34.7898C159.111 35.1364 158.761 35.6222 158.523 36.2472C158.29 36.8722 158.173 37.608 158.173 38.4545ZM170.148 45V31.9091H173.139V34.0909H173.276C173.514 33.3352 173.923 32.7528 174.503 32.3438C175.088 31.929 175.756 31.7216 176.506 31.7216C176.676 31.7216 176.866 31.7301 177.077 31.7472C177.293 31.7585 177.472 31.7784 177.614 31.8068V34.6449C177.483 34.5994 177.276 34.5597 176.991 34.5256C176.713 34.4858 176.443 34.4659 176.182 34.4659C175.619 34.4659 175.114 34.5881 174.665 34.8324C174.222 35.071 173.872 35.4034 173.616 35.8295C173.361 36.2557 173.233 36.7472 173.233 37.304V45H170.148ZM184.835 45.2557C183.556 45.2557 182.448 44.9744 181.511 44.4119C180.573 43.8494 179.846 43.0625 179.329 42.0511C178.817 41.0398 178.562 39.858 178.562 38.5057C178.562 37.1534 178.817 35.9687 179.329 34.9517C179.846 33.9347 180.573 33.1449 181.511 32.5824C182.448 32.0199 183.556 31.7386 184.835 31.7386C186.113 31.7386 187.221 32.0199 188.158 32.5824C189.096 33.1449 189.82 33.9347 190.332 34.9517C190.849 35.9687 191.107 37.1534 191.107 38.5057C191.107 39.858 190.849 41.0398 190.332 42.0511C189.82 43.0625 189.096 43.8494 188.158 44.4119C187.221 44.9744 186.113 45.2557 184.835 45.2557ZM184.852 42.7841C185.545 42.7841 186.124 42.5937 186.59 42.2131C187.056 41.8267 187.403 41.3097 187.63 40.6619C187.863 40.0142 187.979 39.2926 187.979 38.4972C187.979 37.696 187.863 36.9716 187.63 36.3239C187.403 35.6705 187.056 35.1506 186.59 34.7642C186.124 34.3778 185.545 34.1847 184.852 34.1847C184.141 34.1847 183.55 34.3778 183.079 34.7642C182.613 35.1506 182.263 35.6705 182.031 36.3239C181.803 36.9716 181.69 37.696 181.69 38.4972C181.69 39.2926 181.803 40.0142 182.031 40.6619C182.263 41.3097 182.613 41.8267 183.079 42.2131C183.55 42.5937 184.141 42.7841 184.852 42.7841ZM200.357 31.9091V34.2955H192.618V31.9091H200.357ZM194.553 45V30.6733C194.553 29.7926 194.734 29.0597 195.098 28.4744C195.467 27.8892 195.962 27.4517 196.581 27.1619C197.2 26.8722 197.888 26.7273 198.643 26.7273C199.178 26.7273 199.652 26.7699 200.067 26.8551C200.482 26.9403 200.788 27.017 200.987 27.0852L200.374 29.4716C200.243 29.4318 200.078 29.392 199.879 29.3523C199.68 29.3068 199.459 29.2841 199.214 29.2841C198.641 29.2841 198.234 29.4233 197.996 29.7017C197.763 29.9744 197.646 30.3665 197.646 30.8778V45H194.553ZM202.773 45V31.9091H205.858V45H202.773ZM204.324 30.0511C203.835 30.0511 203.415 29.8892 203.062 29.5653C202.71 29.2358 202.534 28.8409 202.534 28.3807C202.534 27.9148 202.71 27.5199 203.062 27.196C203.415 26.8665 203.835 26.7017 204.324 26.7017C204.818 26.7017 205.239 26.8665 205.585 27.196C205.938 27.5199 206.114 27.9148 206.114 28.3807C206.114 28.8409 205.938 29.2358 205.585 29.5653C205.239 29.8892 204.818 30.0511 204.324 30.0511ZM214.741 45.2557C213.434 45.2557 212.312 44.9688 211.374 44.3949C210.442 43.821 209.724 43.0284 209.218 42.017C208.718 41 208.468 39.8295 208.468 38.5057C208.468 37.1761 208.724 36.0028 209.235 34.9858C209.746 33.9631 210.468 33.1676 211.4 32.5994C212.337 32.0256 213.445 31.7386 214.724 31.7386C215.786 31.7386 216.727 31.9347 217.545 32.3267C218.369 32.7131 219.025 33.2614 219.513 33.9716C220.002 34.6761 220.281 35.5 220.349 36.4432H217.4C217.281 35.8125 216.996 35.2869 216.548 34.8665C216.104 34.4403 215.511 34.2273 214.766 34.2273C214.136 34.2273 213.582 34.3977 213.104 34.7386C212.627 35.0739 212.255 35.5568 211.988 36.1875C211.727 36.8182 211.596 37.5739 211.596 38.4545C211.596 39.3466 211.727 40.1136 211.988 40.7557C212.249 41.392 212.616 41.8835 213.087 42.2301C213.565 42.571 214.124 42.7415 214.766 42.7415C215.221 42.7415 215.627 42.6562 215.985 42.4858C216.349 42.3097 216.653 42.0568 216.897 41.7273C217.141 41.3977 217.309 40.9972 217.4 40.5256H220.349C220.275 41.4517 220.002 42.2727 219.531 42.9886C219.059 43.6989 218.417 44.2557 217.604 44.6591C216.792 45.0568 215.837 45.2557 214.741 45.2557ZM222.882 45V31.9091H225.967V45H222.882ZM224.433 30.0511C223.945 30.0511 223.524 29.8892 223.172 29.5653C222.82 29.2358 222.643 28.8409 222.643 28.3807C222.643 27.9148 222.82 27.5199 223.172 27.196C223.524 26.8665 223.945 26.7017 224.433 26.7017C224.928 26.7017 225.348 26.8665 225.695 27.196C226.047 27.5199 226.223 27.9148 226.223 28.3807C226.223 28.8409 226.047 29.2358 225.695 29.5653C225.348 29.8892 224.928 30.0511 224.433 30.0511ZM234.935 45.2557C233.623 45.2557 232.489 44.983 231.535 44.4375C230.586 43.8864 229.856 43.108 229.344 42.1023C228.833 41.0909 228.577 39.9006 228.577 38.5312C228.577 37.1847 228.833 36.0028 229.344 34.9858C229.862 33.9631 230.583 33.1676 231.509 32.5994C232.435 32.0256 233.523 31.7386 234.773 31.7386C235.58 31.7386 236.342 31.8693 237.058 32.1307C237.779 32.3864 238.415 32.7841 238.967 33.3239C239.523 33.8636 239.961 34.5511 240.279 35.3864C240.597 36.2159 240.756 37.2045 240.756 38.3523V39.2983H230.026V37.2188H237.799C237.793 36.6278 237.665 36.1023 237.415 35.642C237.165 35.1761 236.816 34.8097 236.367 34.5426C235.924 34.2756 235.407 34.142 234.816 34.142C234.185 34.142 233.631 34.2955 233.154 34.6023C232.677 34.9034 232.305 35.3011 232.038 35.7955C231.776 36.2841 231.643 36.821 231.637 37.4062V39.2216C231.637 39.983 231.776 40.6364 232.055 41.1818C232.333 41.7216 232.722 42.1364 233.222 42.4261C233.722 42.7102 234.308 42.8523 234.978 42.8523C235.427 42.8523 235.833 42.7898 236.197 42.6648C236.56 42.5341 236.876 42.3438 237.143 42.0938C237.41 41.8438 237.612 41.5341 237.748 41.1648L240.629 41.4886C240.447 42.25 240.1 42.9148 239.589 43.483C239.083 44.0455 238.435 44.483 237.646 44.7955C236.856 45.1023 235.952 45.2557 234.935 45.2557ZM246.452 37.3295V45H243.366V31.9091H246.315V34.1335H246.469C246.77 33.4006 247.25 32.8182 247.909 32.3864C248.574 31.9545 249.395 31.7386 250.372 31.7386C251.276 31.7386 252.063 31.9318 252.733 32.3182C253.409 32.7045 253.932 33.2642 254.301 33.9972C254.676 34.7301 254.861 35.6193 254.855 36.6648V45H251.77V37.142C251.77 36.267 251.543 35.5824 251.088 35.0881C250.639 34.5937 250.017 34.3466 249.222 34.3466C248.682 34.3466 248.202 34.4659 247.781 34.7045C247.366 34.9375 247.04 35.2756 246.801 35.7188C246.568 36.1619 246.452 36.6989 246.452 37.3295ZM263.702 45.2557C262.395 45.2557 261.273 44.9688 260.335 44.3949C259.403 43.821 258.685 43.0284 258.179 42.017C257.679 41 257.429 39.8295 257.429 38.5057C257.429 37.1761 257.685 36.0028 258.196 34.9858C258.707 33.9631 259.429 33.1676 260.361 32.5994C261.298 32.0256 262.406 31.7386 263.685 31.7386C264.747 31.7386 265.688 31.9347 266.506 32.3267C267.33 32.7131 267.986 33.2614 268.474 33.9716C268.963 34.6761 269.241 35.5 269.31 36.4432H266.361C266.241 35.8125 265.957 35.2869 265.509 34.8665C265.065 34.4403 264.472 34.2273 263.727 34.2273C263.097 34.2273 262.543 34.3977 262.065 34.7386C261.588 35.0739 261.216 35.5568 260.949 36.1875C260.688 36.8182 260.557 37.5739 260.557 38.4545C260.557 39.3466 260.688 40.1136 260.949 40.7557C261.21 41.392 261.577 41.8835 262.048 42.2301C262.526 42.571 263.085 42.7415 263.727 42.7415C264.182 42.7415 264.588 42.6562 264.946 42.4858C265.31 42.3097 265.614 42.0568 265.858 41.7273C266.102 41.3977 266.27 40.9972 266.361 40.5256H269.31C269.236 41.4517 268.963 42.2727 268.491 42.9886C268.02 43.6989 267.378 44.2557 266.565 44.6591C265.753 45.0568 264.798 45.2557 263.702 45.2557ZM273.761 49.9091C273.34 49.9091 272.951 49.875 272.593 49.8068C272.241 49.7443 271.96 49.6705 271.749 49.5852L272.465 47.1818C272.914 47.3125 273.315 47.375 273.667 47.3693C274.019 47.3636 274.329 47.2528 274.596 47.0369C274.869 46.8267 275.099 46.4744 275.286 45.9801L275.55 45.2727L270.803 31.9091H274.076L277.093 41.7955H277.229L280.255 31.9091H283.536L278.295 46.5852C278.05 47.2784 277.727 47.8722 277.323 48.3665C276.92 48.8665 276.425 49.2472 275.84 49.5085C275.261 49.7756 274.567 49.9091 273.761 49.9091ZM291.309 33V31.2614C291.309 30.7614 291.403 30.2415 291.59 29.7017C291.783 29.1562 292.045 28.642 292.374 28.1591C292.71 27.6705 293.085 27.2585 293.499 26.9233L294.931 27.8523C294.596 28.358 294.315 28.8864 294.087 29.4375C293.866 29.983 293.758 30.5852 293.763 31.2443V33H291.309ZM295.63 33V31.2614C295.63 30.7614 295.724 30.2415 295.911 29.7017C296.104 29.1562 296.366 28.642 296.695 28.1591C297.031 27.6705 297.406 27.2585 297.82 26.9233L299.252 27.8523C298.917 28.358 298.636 28.8864 298.408 29.4375C298.187 29.983 298.079 30.5852 298.085 31.2443V33H295.63ZM304.905 27.5455H308.041V39.8182C308.036 40.9432 307.797 41.9119 307.325 42.7244C306.854 43.5312 306.195 44.1534 305.348 44.5909C304.507 45.0227 303.527 45.2386 302.408 45.2386C301.385 45.2386 300.464 45.0568 299.646 44.6932C298.834 44.3239 298.189 43.7784 297.712 43.0568C297.234 42.3352 296.996 41.4375 296.996 40.3636H300.141C300.146 40.8352 300.249 41.2415 300.447 41.5824C300.652 41.9233 300.933 42.1847 301.291 42.3665C301.649 42.5483 302.061 42.6392 302.527 42.6392C303.033 42.6392 303.462 42.5341 303.814 42.3239C304.166 42.108 304.433 41.7898 304.615 41.3693C304.803 40.9489 304.899 40.4318 304.905 39.8182V27.5455ZM315.102 45.2642C314.273 45.2642 313.526 45.1165 312.861 44.821C312.202 44.5199 311.679 44.0767 311.293 43.4915C310.912 42.9062 310.722 42.1847 310.722 41.3267C310.722 40.5881 310.858 39.9773 311.131 39.4943C311.403 39.0114 311.776 38.625 312.247 38.3352C312.719 38.0455 313.25 37.8267 313.841 37.679C314.438 37.5256 315.054 37.4148 315.69 37.3466C316.457 37.267 317.08 37.196 317.557 37.1335C318.034 37.0653 318.381 36.9631 318.597 36.8267C318.818 36.6847 318.929 36.4659 318.929 36.1705V36.1193C318.929 35.4773 318.739 34.9801 318.358 34.6278C317.977 34.2756 317.429 34.0994 316.713 34.0994C315.957 34.0994 315.358 34.2642 314.915 34.5938C314.477 34.9233 314.182 35.3125 314.028 35.7614L311.148 35.3523C311.375 34.5568 311.75 33.892 312.273 33.358C312.795 32.8182 313.435 32.4148 314.19 32.1477C314.946 31.875 315.781 31.7386 316.696 31.7386C317.327 31.7386 317.955 31.8125 318.58 31.9602C319.205 32.108 319.776 32.3523 320.293 32.6932C320.81 33.0284 321.224 33.4858 321.537 34.0653C321.855 34.6449 322.014 35.3693 322.014 36.2386V45H319.048V43.2017H318.946C318.759 43.5653 318.494 43.9062 318.153 44.2244C317.818 44.5369 317.395 44.7898 316.884 44.983C316.378 45.1705 315.784 45.2642 315.102 45.2642ZM315.903 42.9972C316.523 42.9972 317.06 42.875 317.514 42.6307C317.969 42.3807 318.318 42.0511 318.562 41.642C318.812 41.233 318.938 40.7869 318.938 40.304V38.7614C318.841 38.8409 318.676 38.9148 318.443 38.983C318.216 39.0511 317.96 39.1108 317.676 39.1619C317.392 39.2131 317.111 39.2585 316.832 39.2983C316.554 39.3381 316.313 39.3722 316.108 39.4006C315.648 39.4631 315.236 39.5653 314.872 39.7074C314.509 39.8494 314.222 40.0483 314.011 40.304C313.801 40.554 313.696 40.8778 313.696 41.2756C313.696 41.8438 313.903 42.2727 314.318 42.5625C314.733 42.8523 315.261 42.9972 315.903 42.9972ZM336.341 31.9091L331.679 45H328.27L323.608 31.9091H326.898L329.906 41.6335H330.043L333.06 31.9091H336.341ZM341.868 45.2642C341.038 45.2642 340.291 45.1165 339.626 44.821C338.967 44.5199 338.445 44.0767 338.058 43.4915C337.678 42.9062 337.487 42.1847 337.487 41.3267C337.487 40.5881 337.624 39.9773 337.896 39.4943C338.169 39.0114 338.541 38.625 339.013 38.3352C339.484 38.0455 340.016 37.8267 340.607 37.679C341.203 37.5256 341.82 37.4148 342.456 37.3466C343.223 37.267 343.845 37.196 344.322 37.1335C344.8 37.0653 345.146 36.9631 345.362 36.8267C345.584 36.6847 345.695 36.4659 345.695 36.1705V36.1193C345.695 35.4773 345.504 34.9801 345.124 34.6278C344.743 34.2756 344.195 34.0994 343.479 34.0994C342.723 34.0994 342.124 34.2642 341.68 34.5938C341.243 34.9233 340.947 35.3125 340.794 35.7614L337.913 35.3523C338.141 34.5568 338.516 33.892 339.038 33.358C339.561 32.8182 340.2 32.4148 340.956 32.1477C341.712 31.875 342.547 31.7386 343.462 31.7386C344.092 31.7386 344.72 31.8125 345.345 31.9602C345.97 32.108 346.541 32.3523 347.058 32.6932C347.575 33.0284 347.99 33.4858 348.303 34.0653C348.621 34.6449 348.78 35.3693 348.78 36.2386V45H345.814V43.2017H345.712C345.524 43.5653 345.26 43.9062 344.919 44.2244C344.584 44.5369 344.161 44.7898 343.649 44.983C343.143 45.1705 342.55 45.2642 341.868 45.2642ZM342.669 42.9972C343.288 42.9972 343.825 42.875 344.28 42.6307C344.734 42.3807 345.084 42.0511 345.328 41.642C345.578 41.233 345.703 40.7869 345.703 40.304V38.7614C345.607 38.8409 345.442 38.9148 345.209 38.983C344.982 39.0511 344.726 39.1108 344.442 39.1619C344.158 39.2131 343.876 39.2585 343.598 39.2983C343.32 39.3381 343.078 39.3722 342.874 39.4006C342.413 39.4631 342.001 39.5653 341.638 39.7074C341.274 39.8494 340.987 40.0483 340.777 40.304C340.567 40.554 340.462 40.8778 340.462 41.2756C340.462 41.8438 340.669 42.2727 341.084 42.5625C341.499 42.8523 342.027 42.9972 342.669 42.9972ZM361.504 32.3438C361.425 31.5994 361.089 31.0199 360.499 30.6051C359.913 30.1903 359.152 29.983 358.214 29.983C357.555 29.983 356.99 30.0824 356.518 30.2812C356.047 30.4801 355.686 30.75 355.436 31.0909C355.186 31.4318 355.058 31.821 355.053 32.2585C355.053 32.6222 355.135 32.9375 355.3 33.2045C355.47 33.4716 355.7 33.6989 355.99 33.8864C356.28 34.0682 356.601 34.2216 356.953 34.3466C357.305 34.4716 357.661 34.5767 358.018 34.6619L359.655 35.071C360.314 35.2244 360.947 35.4318 361.555 35.6932C362.169 35.9545 362.717 36.2841 363.2 36.6818C363.689 37.0795 364.075 37.5597 364.359 38.1222C364.643 38.6847 364.786 39.3437 364.786 40.0994C364.786 41.1222 364.524 42.0227 364.001 42.8011C363.479 43.5739 362.723 44.179 361.734 44.6165C360.751 45.0483 359.561 45.2642 358.163 45.2642C356.805 45.2642 355.626 45.054 354.626 44.6335C353.632 44.2131 352.854 43.5994 352.291 42.7926C351.734 41.9858 351.433 41.0028 351.388 39.8438H354.499C354.544 40.4517 354.732 40.9574 355.061 41.3608C355.391 41.7642 355.82 42.0653 356.348 42.2642C356.882 42.4631 357.479 42.5625 358.138 42.5625C358.825 42.5625 359.428 42.4602 359.945 42.2557C360.467 42.0455 360.876 41.7557 361.172 41.3864C361.467 41.0114 361.618 40.5739 361.624 40.0739C361.618 39.6193 361.484 39.2443 361.223 38.9489C360.962 38.6477 360.595 38.3977 360.124 38.1989C359.658 37.9943 359.112 37.8125 358.487 37.6534L356.501 37.142C355.064 36.7727 353.928 36.2131 353.092 35.4631C352.263 34.7074 351.848 33.7045 351.848 32.4545C351.848 31.4261 352.126 30.5256 352.683 29.7528C353.246 28.9801 354.01 28.3807 354.976 27.9545C355.942 27.5227 357.036 27.3068 358.257 27.3068C359.496 27.3068 360.581 27.5227 361.513 27.9545C362.45 28.3807 363.186 28.9744 363.72 29.7358C364.254 30.4915 364.53 31.3608 364.547 32.3438H361.504ZM373.178 45.2557C371.871 45.2557 370.749 44.9688 369.812 44.3949C368.88 43.821 368.161 43.0284 367.656 42.017C367.156 41 366.906 39.8295 366.906 38.5057C366.906 37.1761 367.161 36.0028 367.673 34.9858C368.184 33.9631 368.906 33.1676 369.837 32.5994C370.775 32.0256 371.883 31.7386 373.161 31.7386C374.224 31.7386 375.164 31.9347 375.982 32.3267C376.806 32.7131 377.462 33.2614 377.951 33.9716C378.44 34.6761 378.718 35.5 378.786 36.4432H375.837C375.718 35.8125 375.434 35.2869 374.985 34.8665C374.542 34.4403 373.948 34.2273 373.204 34.2273C372.573 34.2273 372.019 34.3977 371.542 34.7386C371.065 35.0739 370.692 35.5568 370.425 36.1875C370.164 36.8182 370.033 37.5739 370.033 38.4545C370.033 39.3466 370.164 40.1136 370.425 40.7557C370.687 41.392 371.053 41.8835 371.525 42.2301C372.002 42.571 372.562 42.7415 373.204 42.7415C373.658 42.7415 374.065 42.6562 374.423 42.4858C374.786 42.3097 375.09 42.0568 375.335 41.7273C375.579 41.3977 375.746 40.9972 375.837 40.5256H378.786C378.712 41.4517 378.44 42.2727 377.968 42.9886C377.496 43.6989 376.854 44.2557 376.042 44.6591C375.229 45.0568 374.275 45.2557 373.178 45.2557ZM381.32 45V31.9091H384.311V34.0909H384.447C384.686 33.3352 385.095 32.7528 385.675 32.3438C386.26 31.929 386.928 31.7216 387.678 31.7216C387.848 31.7216 388.038 31.7301 388.249 31.7472C388.464 31.7585 388.643 31.7784 388.786 31.8068V34.6449C388.655 34.5994 388.447 34.5597 388.163 34.5256C387.885 34.4858 387.615 34.4659 387.354 34.4659C386.791 34.4659 386.286 34.5881 385.837 34.8324C385.393 35.071 385.044 35.4034 384.788 35.8295C384.533 36.2557 384.405 36.7472 384.405 37.304V45H381.32ZM390.835 45V31.9091H393.92V45H390.835ZM392.386 30.0511C391.898 30.0511 391.477 29.8892 391.125 29.5653C390.773 29.2358 390.597 28.8409 390.597 28.3807C390.597 27.9148 390.773 27.5199 391.125 27.196C391.477 26.8665 391.898 26.7017 392.386 26.7017C392.881 26.7017 393.301 26.8665 393.648 27.196C394 27.5199 394.176 27.9148 394.176 28.3807C394.176 28.8409 394 29.2358 393.648 29.5653C393.301 29.8892 392.881 30.0511 392.386 30.0511ZM397.093 49.9091V31.9091H400.127V34.0739H400.306C400.465 33.7557 400.69 33.4176 400.979 33.0597C401.269 32.696 401.661 32.3864 402.156 32.1307C402.65 31.8693 403.281 31.7386 404.048 31.7386C405.059 31.7386 405.971 31.9972 406.783 32.5142C407.602 33.0256 408.249 33.7841 408.727 34.7898C409.21 35.7898 409.451 37.017 409.451 38.4716C409.451 39.9091 409.215 41.1307 408.744 42.1364C408.272 43.142 407.63 43.9091 406.817 44.4375C406.005 44.9659 405.085 45.2301 404.056 45.2301C403.306 45.2301 402.684 45.1051 402.19 44.8551C401.695 44.6051 401.298 44.304 400.996 43.9517C400.701 43.5937 400.471 43.2557 400.306 42.9375H400.178V49.9091H397.093ZM400.119 38.4545C400.119 39.3011 400.238 40.0426 400.477 40.679C400.721 41.3153 401.07 41.8125 401.525 42.1705C401.985 42.5227 402.542 42.6989 403.195 42.6989C403.877 42.6989 404.448 42.517 404.908 42.1534C405.369 41.7841 405.715 41.2812 405.948 40.6449C406.187 40.0028 406.306 39.2727 406.306 38.4545C406.306 37.642 406.19 36.9205 405.957 36.2898C405.724 35.6591 405.377 35.1648 404.917 34.8068C404.457 34.4489 403.883 34.2699 403.195 34.2699C402.536 34.2699 401.977 34.4432 401.516 34.7898C401.056 35.1364 400.707 35.6222 400.468 36.2472C400.235 36.8722 400.119 37.608 400.119 38.4545ZM418.63 31.9091V34.2955H411.104V31.9091H418.63ZM412.962 28.7727H416.048V41.0625C416.048 41.4773 416.11 41.7955 416.235 42.017C416.366 42.233 416.536 42.3807 416.746 42.4602C416.957 42.5398 417.19 42.5795 417.445 42.5795C417.638 42.5795 417.815 42.5653 417.974 42.5369C418.138 42.5085 418.263 42.483 418.349 42.4602L418.869 44.8722C418.704 44.929 418.468 44.9915 418.161 45.0597C417.86 45.1278 417.491 45.1676 417.053 45.179C416.281 45.2017 415.585 45.0852 414.965 44.8295C414.346 44.5682 413.854 44.1648 413.491 43.6193C413.133 43.0739 412.957 42.392 412.962 41.5739V28.7727ZM424.436 27.5455V29.2841C424.436 29.7841 424.339 30.304 424.146 30.8438C423.959 31.3778 423.7 31.8892 423.371 32.3778C423.041 32.8608 422.666 33.2756 422.246 33.6222L420.814 32.6932C421.126 32.2216 421.399 31.7131 421.632 31.1676C421.865 30.6165 421.982 29.9943 421.982 29.3011V27.5455H424.436ZM428.74 27.5455V29.2841C428.74 29.7841 428.643 30.304 428.45 30.8438C428.263 31.3778 428.004 31.8892 427.675 32.3778C427.345 32.8608 426.973 33.2756 426.558 33.6222L425.126 32.6932C425.433 32.2216 425.703 31.7131 425.936 31.1676C426.169 30.6165 426.286 29.9943 426.286 29.3011V27.5455H428.74Z" fill="#91B302"/>
<path d="M425.5 111C425.5 134.981 405.845 154.5 381.5 154.5C357.155 154.5 337.5 134.981 337.5 111C337.5 87.0195 357.155 67.5 381.5 67.5C405.845 67.5 425.5 87.0195 425.5 111Z" stroke="#2A3609" stroke-width="9"/>
<mask id="path-4-inside-1_29_44" fill="white">
<path d="M373.227 63.7035C381.132 62.3491 389.253 62.9566 396.863 65.4718L394.116 73.6116C387.867 71.5461 381.198 71.0472 374.706 72.1594L373.227 63.7035Z"/>
</mask>
<path d="M373.227 63.7035C381.132 62.3491 389.253 62.9566 396.863 65.4718L394.116 73.6116C387.867 71.5461 381.198 71.0472 374.706 72.1594L373.227 63.7035Z" stroke="#91B302" stroke-width="18" mask="url(#path-4-inside-1_29_44)"/>
<path d="M364.651 102.545V120H361.489V105.622H361.386L357.304 108.23V105.332L361.642 102.545H364.651ZM375.534 120.332C374.131 120.332 372.926 119.977 371.92 119.267C370.92 118.551 370.151 117.52 369.611 116.173C369.077 114.821 368.81 113.193 368.81 111.29C368.815 109.386 369.085 107.767 369.619 106.432C370.159 105.091 370.929 104.068 371.929 103.364C372.935 102.659 374.136 102.307 375.534 102.307C376.932 102.307 378.134 102.659 379.139 103.364C380.145 104.068 380.915 105.091 381.449 106.432C381.989 107.773 382.259 109.392 382.259 111.29C382.259 113.199 381.989 114.83 381.449 116.182C380.915 117.528 380.145 118.557 379.139 119.267C378.139 119.977 376.938 120.332 375.534 120.332ZM375.534 117.665C376.625 117.665 377.486 117.128 378.116 116.054C378.753 114.974 379.071 113.386 379.071 111.29C379.071 109.903 378.926 108.739 378.636 107.795C378.347 106.852 377.938 106.142 377.409 105.665C376.881 105.182 376.256 104.94 375.534 104.94C374.449 104.94 373.591 105.48 372.96 106.56C372.33 107.634 372.011 109.21 372.006 111.29C372 112.682 372.139 113.852 372.423 114.801C372.713 115.75 373.122 116.466 373.651 116.949C374.179 117.426 374.807 117.665 375.534 117.665ZM394.423 116.727V115.807C394.423 115.131 394.565 114.509 394.849 113.94C395.138 113.372 395.559 112.915 396.11 112.568C396.661 112.222 397.329 112.048 398.113 112.048C398.92 112.048 399.596 112.222 400.141 112.568C400.687 112.909 401.099 113.364 401.377 113.932C401.661 114.5 401.803 115.125 401.803 115.807V116.727C401.803 117.403 401.661 118.026 401.377 118.594C401.093 119.162 400.675 119.619 400.124 119.966C399.579 120.313 398.908 120.486 398.113 120.486C397.317 120.486 396.644 120.313 396.093 119.966C395.542 119.619 395.124 119.162 394.84 118.594C394.562 118.026 394.423 117.403 394.423 116.727ZM396.647 115.807V116.727C396.647 117.176 396.755 117.588 396.971 117.963C397.187 118.338 397.567 118.526 398.113 118.526C398.664 118.526 399.042 118.341 399.246 117.972C399.457 117.597 399.562 117.182 399.562 116.727V115.807C399.562 115.352 399.462 114.938 399.263 114.562C399.065 114.182 398.681 113.991 398.113 113.991C397.579 113.991 397.201 114.182 396.979 114.562C396.758 114.938 396.647 115.352 396.647 115.807ZM385.55 106.739V105.818C385.55 105.136 385.695 104.511 385.985 103.943C386.275 103.375 386.695 102.92 387.246 102.58C387.798 102.233 388.465 102.06 389.249 102.06C390.05 102.06 390.724 102.233 391.269 102.58C391.82 102.92 392.235 103.375 392.513 103.943C392.792 104.511 392.931 105.136 392.931 105.818V106.739C392.931 107.42 392.789 108.045 392.505 108.614C392.227 109.176 391.812 109.628 391.261 109.969C390.71 110.31 390.039 110.48 389.249 110.48C388.448 110.48 387.772 110.31 387.221 109.969C386.675 109.628 386.261 109.173 385.977 108.605C385.692 108.037 385.55 107.415 385.55 106.739ZM387.792 105.818V106.739C387.792 107.193 387.897 107.608 388.107 107.983C388.323 108.352 388.704 108.537 389.249 108.537C389.795 108.537 390.17 108.352 390.374 107.983C390.585 107.608 390.69 107.193 390.69 106.739V105.818C390.69 105.364 390.59 104.949 390.391 104.574C390.192 104.193 389.812 104.003 389.249 104.003C388.71 104.003 388.332 104.193 388.116 104.574C387.9 104.955 387.792 105.369 387.792 105.818ZM386.522 120L398.522 102.545H400.653L388.653 120H386.522Z" fill="#68B587"/>
<path fill-rule="evenodd" clip-rule="evenodd" d="M52.5591 86.7965L51.2668 83L49.9745 86.7965C49.6986 87.607 48.9374 88.152 48.0812 88.152L44.0019 88.152L47.2209 90.3844C47.9547 90.8933 48.2622 91.827 47.9744 92.6724L46.7262 96.3394L50.1271 93.9808C50.8125 93.5054 51.7211 93.5054 52.4066 93.9808L55.8074 96.3394L54.5592 92.6724C54.2715 91.827 54.579 90.8933 55.3128 90.3844L58.5318 88.152H54.4524C53.5962 88.152 52.835 87.607 52.5591 86.7965ZM52.2135 82.6778C51.9059 81.7741 50.6278 81.7741 50.3202 82.6778L49.0279 86.4742C48.8899 86.8795 48.5093 87.152 48.0812 87.152H44.0019C43.0219 87.152 42.6267 88.4153 43.432 88.9737L46.651 91.2062C47.0179 91.4606 47.1717 91.9274 47.0278 92.3501L45.7796 96.0171C45.4687 96.9303 46.5034 97.7108 47.2961 97.1611L50.6969 94.8025C51.0397 94.5648 51.494 94.5648 51.8367 94.8025L55.2376 97.1611C56.0302 97.7108 57.0649 96.9303 56.7541 96.0171L55.5059 92.3501C55.362 91.9274 55.5158 91.4606 55.8827 91.2062L59.1017 88.9737C59.9069 88.4153 59.5117 87.152 58.5318 87.152H54.4524C54.0243 87.152 53.6437 86.8795 53.5058 86.4742L52.2135 82.6778Z" fill="#68B587"/>
<path fill-rule="evenodd" clip-rule="evenodd" d="M52.5591 133.796L51.2668 130L49.9745 133.796C49.6986 134.607 48.9374 135.152 48.0812 135.152L44.0019 135.152L47.2209 137.384C47.9547 137.893 48.2622 138.827 47.9744 139.672L46.7262 143.339L50.1271 140.981C50.8125 140.505 51.7211 140.505 52.4066 140.981L55.8074 143.339L54.5592 139.672C54.2715 138.827 54.579 137.893 55.3128 137.384L58.5318 135.152H54.4524C53.5962 135.152 52.835 134.607 52.5591 133.796ZM52.2135 129.678C51.9059 128.774 50.6278 128.774 50.3202 129.678L49.0279 133.474C48.8899 133.879 48.5093 134.152 48.0812 134.152H44.0019C43.0219 134.152 42.6267 135.415 43.432 135.974L46.651 138.206C47.0179 138.461 47.1717 138.927 47.0278 139.35L45.7796 143.017C45.4687 143.93 46.5034 144.711 47.2961 144.161L50.6969 141.803C51.0397 141.565 51.494 141.565 51.8367 141.803L55.2376 144.161C56.0302 144.711 57.0649 143.93 56.7541 143.017L55.5059 139.35C55.362 138.927 55.5158 138.461 55.8827 138.206L59.1017 135.974C59.9069 135.415 59.5117 134.152 58.5318 134.152H54.4524C54.0243 134.152 53.6437 133.879 53.5058 133.474L52.2135 129.678Z" fill="#68B587"/>
<path d="M71.2557 82.3636V94H69.1477V82.3636H71.2557ZM79.473 88.8864V94H77.4162V82.3636H79.4276V86.7557H79.5298C79.7344 86.2633 80.0507 85.875 80.4787 85.5909C80.9105 85.303 81.4598 85.1591 82.1264 85.1591C82.7325 85.1591 83.2609 85.286 83.7116 85.5398C84.1624 85.7936 84.5109 86.1648 84.7571 86.6534C85.0071 87.142 85.1321 87.7386 85.1321 88.4432V94H83.0753V88.7614C83.0753 88.1742 82.9238 87.7178 82.6207 87.392C82.3215 87.0625 81.901 86.8977 81.3594 86.8977C80.9957 86.8977 80.67 86.9773 80.3821 87.1364C80.098 87.2917 79.8745 87.517 79.7116 87.8125C79.5526 88.108 79.473 88.4659 79.473 88.8864ZM89.7401 94.1761C89.187 94.1761 88.6889 94.0777 88.2457 93.8807C87.8063 93.6799 87.4579 93.3845 87.2003 92.9943C86.9465 92.6042 86.8196 92.1231 86.8196 91.5511C86.8196 91.0587 86.9105 90.6515 87.0923 90.3295C87.2741 90.0076 87.5223 89.75 87.8366 89.5568C88.151 89.3636 88.5052 89.2178 88.8991 89.1193C89.2969 89.017 89.7079 88.9432 90.1321 88.8977C90.6435 88.8447 91.0582 88.7973 91.3764 88.7557C91.6946 88.7102 91.9257 88.642 92.0696 88.5511C92.2173 88.4564 92.2912 88.3106 92.2912 88.1136V88.0795C92.2912 87.6515 92.1643 87.3201 91.9105 87.0852C91.6567 86.8504 91.2912 86.733 90.8139 86.733C90.3101 86.733 89.9105 86.8428 89.6151 87.0625C89.3234 87.2822 89.1264 87.5417 89.0241 87.8409L87.1037 87.5682C87.2552 87.0379 87.5052 86.5947 87.8537 86.2386C88.2022 85.8788 88.6283 85.6098 89.1321 85.4318C89.6359 85.25 90.1927 85.1591 90.8026 85.1591C91.223 85.1591 91.6416 85.2083 92.0582 85.3068C92.4749 85.4053 92.8556 85.5682 93.2003 85.7955C93.545 86.0189 93.8215 86.3239 94.0298 86.7102C94.242 87.0966 94.348 87.5795 94.348 88.1591V94H92.3707V92.8011H92.3026C92.1776 93.0436 92.0014 93.2708 91.7741 93.483C91.5507 93.6913 91.2685 93.8598 90.9276 93.9886C90.5904 94.1136 90.1946 94.1761 89.7401 94.1761ZM90.2741 92.6648C90.687 92.6648 91.045 92.5833 91.348 92.4205C91.651 92.2538 91.884 92.0341 92.0469 91.7614C92.2135 91.4886 92.2969 91.1913 92.2969 90.8693V89.8409C92.2325 89.8939 92.1226 89.9432 91.9673 89.9886C91.8158 90.0341 91.6454 90.0739 91.456 90.108C91.2666 90.142 91.0791 90.1723 90.8935 90.1989C90.7079 90.2254 90.5469 90.2481 90.4105 90.267C90.1037 90.3087 89.8291 90.3769 89.5866 90.4716C89.3442 90.5663 89.1529 90.6989 89.0128 90.8693C88.8726 91.036 88.8026 91.2519 88.8026 91.517C88.8026 91.8958 88.9408 92.1818 89.2173 92.375C89.4938 92.5682 89.8461 92.6648 90.2741 92.6648ZM103.899 85.2727L100.791 94H98.5185L95.4105 85.2727H97.6037L99.6094 91.7557H99.7003L101.712 85.2727H103.899ZM108.889 94.1705C108.014 94.1705 107.259 93.9886 106.622 93.625C105.99 93.2576 105.503 92.7386 105.162 92.0682C104.821 91.3939 104.651 90.6004 104.651 89.6875C104.651 88.7898 104.821 88.0019 105.162 87.3239C105.507 86.642 105.988 86.1117 106.605 85.733C107.223 85.3504 107.948 85.1591 108.781 85.1591C109.319 85.1591 109.827 85.2462 110.304 85.4205C110.785 85.5909 111.209 85.8561 111.577 86.2159C111.948 86.5758 112.24 87.0341 112.452 87.5909C112.664 88.1439 112.77 88.803 112.77 89.5682V90.1989H105.616V88.8125H110.798C110.795 88.4186 110.709 88.0682 110.543 87.7614C110.376 87.4508 110.143 87.2064 109.844 87.0284C109.548 86.8504 109.204 86.7614 108.81 86.7614C108.389 86.7614 108.02 86.8636 107.702 87.0682C107.384 87.2689 107.135 87.5341 106.957 87.8636C106.783 88.1894 106.694 88.5473 106.69 88.9375V90.1477C106.69 90.6553 106.783 91.0909 106.969 91.4545C107.154 91.8144 107.414 92.0909 107.747 92.2841C108.08 92.4735 108.471 92.5682 108.918 92.5682C109.217 92.5682 109.488 92.5265 109.73 92.4432C109.973 92.3561 110.183 92.2292 110.361 92.0625C110.539 91.8958 110.673 91.6894 110.764 91.4432L112.685 91.6591C112.563 92.1667 112.332 92.6098 111.991 92.9886C111.654 93.3636 111.223 93.6553 110.696 93.8636C110.17 94.0682 109.567 94.1705 108.889 94.1705ZM125.376 87.5795L123.501 87.7841C123.448 87.5947 123.356 87.4167 123.223 87.25C123.094 87.0833 122.92 86.9489 122.7 86.8466C122.481 86.7443 122.212 86.6932 121.893 86.6932C121.465 86.6932 121.106 86.786 120.814 86.9716C120.526 87.1572 120.384 87.3977 120.388 87.6932C120.384 87.947 120.477 88.1534 120.666 88.3125C120.859 88.4716 121.178 88.6023 121.621 88.7045L123.109 89.0227C123.935 89.2008 124.549 89.483 124.95 89.8693C125.356 90.2557 125.56 90.7614 125.564 91.3864C125.56 91.9356 125.399 92.4205 125.081 92.8409C124.767 93.2576 124.329 93.5833 123.768 93.8182C123.208 94.053 122.564 94.1705 121.837 94.1705C120.768 94.1705 119.909 93.947 119.257 93.5C118.606 93.0492 118.217 92.4223 118.092 91.6193L120.098 91.4261C120.189 91.8201 120.382 92.1174 120.678 92.3182C120.973 92.5189 121.357 92.6193 121.831 92.6193C122.32 92.6193 122.712 92.5189 123.007 92.3182C123.306 92.1174 123.456 91.8693 123.456 91.5739C123.456 91.3239 123.359 91.1174 123.166 90.9545C122.977 90.7917 122.681 90.6667 122.28 90.5795L120.791 90.267C119.954 90.0928 119.335 89.7992 118.933 89.3864C118.532 88.9697 118.333 88.4432 118.337 87.8068C118.333 87.2689 118.479 86.803 118.774 86.4091C119.073 86.0114 119.488 85.7045 120.018 85.4886C120.553 85.2689 121.168 85.1591 121.865 85.1591C122.888 85.1591 123.693 85.3769 124.28 85.8125C124.871 86.2481 125.236 86.8371 125.376 87.5795ZM131.067 94.1705C130.214 94.1705 129.476 93.983 128.851 93.608C128.226 93.233 127.741 92.7083 127.396 92.0341C127.055 91.3598 126.885 90.572 126.885 89.6705C126.885 88.7689 127.055 87.9792 127.396 87.3011C127.741 86.6231 128.226 86.0966 128.851 85.7216C129.476 85.3466 130.214 85.1591 131.067 85.1591C131.919 85.1591 132.658 85.3466 133.283 85.7216C133.908 86.0966 134.391 86.6231 134.732 87.3011C135.076 87.9792 135.249 88.7689 135.249 89.6705C135.249 90.572 135.076 91.3598 134.732 92.0341C134.391 92.7083 133.908 93.233 133.283 93.608C132.658 93.983 131.919 94.1705 131.067 94.1705ZM131.078 92.5227C131.54 92.5227 131.927 92.3958 132.237 92.142C132.548 91.8845 132.779 91.5398 132.93 91.108C133.086 90.6761 133.163 90.1951 133.163 89.6648C133.163 89.1307 133.086 88.6477 132.93 88.2159C132.779 87.7803 132.548 87.4337 132.237 87.1761C131.927 86.9186 131.54 86.7898 131.078 86.7898C130.605 86.7898 130.211 86.9186 129.896 87.1761C129.586 87.4337 129.353 87.7803 129.197 88.2159C129.046 88.6477 128.97 89.1307 128.97 89.6648C128.97 90.1951 129.046 90.6761 129.197 91.108C129.353 91.5398 129.586 91.8845 129.896 92.142C130.211 92.3958 130.605 92.5227 131.078 92.5227ZM136.994 94V85.2727H138.96V86.7557H139.062C139.244 86.2557 139.545 85.8655 139.966 85.5852C140.386 85.3011 140.888 85.1591 141.472 85.1591C142.062 85.1591 142.561 85.303 142.966 85.5909C143.375 85.875 143.663 86.2633 143.83 86.7557H143.92C144.114 86.2708 144.439 85.8845 144.898 85.5966C145.36 85.3049 145.907 85.1591 146.54 85.1591C147.343 85.1591 147.998 85.4129 148.506 85.9205C149.013 86.428 149.267 87.1686 149.267 88.142V94H147.205V88.4602C147.205 87.9186 147.061 87.5227 146.773 87.2727C146.485 87.0189 146.133 86.892 145.716 86.892C145.22 86.892 144.831 87.0473 144.551 87.358C144.275 87.6648 144.136 88.0644 144.136 88.5568V94H142.119V88.375C142.119 87.9242 141.983 87.5644 141.71 87.2955C141.441 87.0265 141.089 86.892 140.653 86.892C140.358 86.892 140.089 86.9678 139.847 87.1193C139.604 87.267 139.411 87.4773 139.267 87.75C139.123 88.0189 139.051 88.3333 139.051 88.6932V94H136.994ZM155.217 94.1705C154.342 94.1705 153.587 93.9886 152.95 93.625C152.318 93.2576 151.831 92.7386 151.49 92.0682C151.149 91.3939 150.979 90.6004 150.979 89.6875C150.979 88.7898 151.149 88.0019 151.49 87.3239C151.835 86.642 152.316 86.1117 152.933 85.733C153.551 85.3504 154.276 85.1591 155.109 85.1591C155.647 85.1591 156.155 85.2462 156.632 85.4205C157.113 85.5909 157.537 85.8561 157.905 86.2159C158.276 86.5758 158.568 87.0341 158.78 87.5909C158.992 88.1439 159.098 88.803 159.098 89.5682V90.1989H151.945V88.8125H157.126C157.123 88.4186 157.037 88.0682 156.871 87.7614C156.704 87.4508 156.471 87.2064 156.172 87.0284C155.876 86.8504 155.532 86.7614 155.138 86.7614C154.717 86.7614 154.348 86.8636 154.03 87.0682C153.712 87.2689 153.464 87.5341 153.286 87.8636C153.111 88.1894 153.022 88.5473 153.018 88.9375V90.1477C153.018 90.6553 153.111 91.0909 153.297 91.4545C153.482 91.8144 153.742 92.0909 154.075 92.2841C154.409 92.4735 154.799 92.5682 155.246 92.5682C155.545 92.5682 155.816 92.5265 156.058 92.4432C156.301 92.3561 156.511 92.2292 156.689 92.0625C156.867 91.8958 157.001 91.6894 157.092 91.4432L159.013 91.6591C158.892 92.1667 158.661 92.6098 158.32 92.9886C157.982 93.3636 157.551 93.6553 157.024 93.8636C156.498 94.0682 155.895 94.1705 155.217 94.1705ZM166.682 91.2614L166.676 88.7784H167.006L170.142 85.2727H172.545L168.688 89.5682H168.261L166.682 91.2614ZM164.807 94V82.3636H166.864V94H164.807ZM170.284 94L167.443 90.0284L168.83 88.5795L172.744 94H170.284ZM175.973 88.8864V94H173.916V85.2727H175.882V86.7557H175.984C176.185 86.267 176.505 85.8788 176.945 85.5909C177.388 85.303 177.935 85.1591 178.587 85.1591C179.189 85.1591 179.714 85.2879 180.161 85.5455C180.611 85.803 180.96 86.1761 181.206 86.6648C181.456 87.1534 181.579 87.7462 181.575 88.4432V94H179.518V88.7614C179.518 88.178 179.367 87.7216 179.064 87.392C178.765 87.0625 178.35 86.8977 177.82 86.8977C177.46 86.8977 177.14 86.9773 176.859 87.1364C176.583 87.2917 176.365 87.517 176.206 87.8125C176.051 88.108 175.973 88.4659 175.973 88.8864ZM187.473 94.1705C186.621 94.1705 185.882 93.983 185.257 93.608C184.632 93.233 184.147 92.7083 183.803 92.0341C183.462 91.3598 183.291 90.572 183.291 89.6705C183.291 88.7689 183.462 87.9792 183.803 87.3011C184.147 86.6231 184.632 86.0966 185.257 85.7216C185.882 85.3466 186.621 85.1591 187.473 85.1591C188.325 85.1591 189.064 85.3466 189.689 85.7216C190.314 86.0966 190.797 86.6231 191.138 87.3011C191.482 87.9792 191.655 88.7689 191.655 89.6705C191.655 90.572 191.482 91.3598 191.138 92.0341C190.797 92.7083 190.314 93.233 189.689 93.608C189.064 93.983 188.325 94.1705 187.473 94.1705ZM187.484 92.5227C187.946 92.5227 188.333 92.3958 188.643 92.142C188.954 91.8845 189.185 91.5398 189.337 91.108C189.492 90.6761 189.57 90.1951 189.57 89.6648C189.57 89.1307 189.492 88.6477 189.337 88.2159C189.185 87.7803 188.954 87.4337 188.643 87.1761C188.333 86.9186 187.946 86.7898 187.484 86.7898C187.011 86.7898 186.617 86.9186 186.303 87.1761C185.992 87.4337 185.759 87.7803 185.604 88.2159C185.452 88.6477 185.376 89.1307 185.376 89.6648C185.376 90.1951 185.452 90.6761 185.604 91.108C185.759 91.5398 185.992 91.8845 186.303 92.142C186.617 92.3958 187.011 92.5227 187.484 92.5227ZM194.952 94L192.486 85.2727H194.582L196.116 91.4091H196.196L197.764 85.2727H199.838L201.406 91.375H201.491L203.003 85.2727H205.105L202.634 94H200.491L198.855 88.1023H198.736L197.099 94H194.952ZM208.598 82.3636V94H206.541V82.3636H208.598ZM214.577 94.1705C213.702 94.1705 212.946 93.9886 212.31 93.625C211.677 93.2576 211.19 92.7386 210.849 92.0682C210.509 91.3939 210.338 90.6004 210.338 89.6875C210.338 88.7898 210.509 88.0019 210.849 87.3239C211.194 86.642 211.675 86.1117 212.293 85.733C212.91 85.3504 213.635 85.1591 214.469 85.1591C215.007 85.1591 215.514 85.2462 215.991 85.4205C216.473 85.5909 216.897 85.8561 217.264 86.2159C217.635 86.5758 217.927 87.0341 218.139 87.5909C218.351 88.1439 218.457 88.803 218.457 89.5682V90.1989H211.304V88.8125H216.486C216.482 88.4186 216.397 88.0682 216.23 87.7614C216.063 87.4508 215.83 87.2064 215.531 87.0284C215.236 86.8504 214.891 86.7614 214.497 86.7614C214.077 86.7614 213.707 86.8636 213.389 87.0682C213.071 87.2689 212.823 87.5341 212.645 87.8636C212.471 88.1894 212.382 88.5473 212.378 88.9375V90.1477C212.378 90.6553 212.471 91.0909 212.656 91.4545C212.842 91.8144 213.101 92.0909 213.435 92.2841C213.768 92.4735 214.158 92.5682 214.605 92.5682C214.904 92.5682 215.175 92.5265 215.418 92.4432C215.66 92.3561 215.87 92.2292 216.048 92.0625C216.226 91.8958 216.361 91.6894 216.452 91.4432L218.372 91.6591C218.251 92.1667 218.02 92.6098 217.679 92.9886C217.342 93.3636 216.91 93.6553 216.384 93.8636C215.857 94.0682 215.255 94.1705 214.577 94.1705ZM223.436 94.1534C222.75 94.1534 222.137 93.9773 221.595 93.625C221.054 93.2727 220.625 92.7614 220.311 92.0909C219.997 91.4205 219.839 90.6061 219.839 89.6477C219.839 88.678 219.999 87.8598 220.317 87.1932C220.639 86.5227 221.072 86.017 221.618 85.6761C222.163 85.3314 222.771 85.1591 223.442 85.1591C223.953 85.1591 224.374 85.2462 224.703 85.4205C225.033 85.5909 225.294 85.7973 225.487 86.0398C225.68 86.2784 225.83 86.5038 225.936 86.7159H226.021V82.3636H228.084V94H226.061V92.625H225.936C225.83 92.8371 225.677 93.0625 225.476 93.3011C225.275 93.536 225.01 93.7367 224.68 93.9034C224.351 94.0701 223.936 94.1534 223.436 94.1534ZM224.01 92.4659C224.446 92.4659 224.817 92.3485 225.124 92.1136C225.43 91.875 225.663 91.5436 225.822 91.1193C225.982 90.6951 226.061 90.2008 226.061 89.6364C226.061 89.072 225.982 88.5814 225.822 88.1648C225.667 87.7481 225.436 87.4242 225.129 87.1932C224.826 86.9621 224.453 86.8466 224.01 86.8466C223.552 86.8466 223.169 86.9659 222.862 87.2045C222.555 87.4432 222.324 87.7727 222.169 88.1932C222.014 88.6136 221.936 89.0947 221.936 89.6364C221.936 90.1818 222.014 90.6686 222.169 91.0966C222.328 91.5208 222.561 91.8561 222.868 92.1023C223.179 92.3447 223.559 92.4659 224.01 92.4659ZM234.071 97.4545C233.332 97.4545 232.698 97.3542 232.168 97.1534C231.637 96.9564 231.211 96.6913 230.889 96.358C230.567 96.0246 230.344 95.6553 230.219 95.25L232.071 94.8011C232.154 94.9716 232.276 95.1402 232.435 95.3068C232.594 95.4773 232.808 95.6174 233.077 95.7273C233.349 95.8409 233.692 95.8977 234.105 95.8977C234.688 95.8977 235.171 95.7557 235.554 95.4716C235.937 95.1913 236.128 94.7292 236.128 94.0852V92.4318H236.026C235.92 92.6439 235.764 92.8617 235.56 93.0852C235.359 93.3087 235.092 93.4962 234.759 93.6477C234.429 93.7992 234.014 93.875 233.514 93.875C232.844 93.875 232.236 93.7178 231.69 93.4034C231.149 93.0852 230.717 92.6117 230.395 91.983C230.077 91.3504 229.918 90.5587 229.918 89.608C229.918 88.6496 230.077 87.8409 230.395 87.1818C230.717 86.5189 231.151 86.017 231.696 85.6761C232.241 85.3314 232.849 85.1591 233.52 85.1591C234.031 85.1591 234.452 85.2462 234.781 85.4205C235.115 85.5909 235.38 85.7973 235.577 86.0398C235.774 86.2784 235.923 86.5038 236.026 86.7159H236.139V85.2727H238.168V94.142C238.168 94.8883 237.99 95.5057 237.634 95.9943C237.277 96.483 236.791 96.8485 236.173 97.0909C235.556 97.3333 234.855 97.4545 234.071 97.4545ZM234.088 92.2614C234.524 92.2614 234.895 92.1553 235.202 91.9432C235.509 91.7311 235.741 91.4261 235.901 91.0284C236.06 90.6307 236.139 90.1534 236.139 89.5966C236.139 89.0473 236.06 88.5663 235.901 88.1534C235.745 87.7405 235.514 87.4205 235.207 87.1932C234.904 86.9621 234.531 86.8466 234.088 86.8466C233.63 86.8466 233.247 86.9659 232.94 87.2045C232.634 87.4432 232.402 87.7708 232.247 88.1875C232.092 88.6004 232.014 89.0701 232.014 89.5966C232.014 90.1307 232.092 90.5985 232.247 91C232.406 91.3977 232.639 91.7083 232.946 91.9318C233.257 92.1515 233.637 92.2614 234.088 92.2614ZM244.139 94.1705C243.264 94.1705 242.509 93.9886 241.872 93.625C241.24 93.2576 240.753 92.7386 240.412 92.0682C240.071 91.3939 239.901 90.6004 239.901 89.6875C239.901 88.7898 240.071 88.0019 240.412 87.3239C240.757 86.642 241.238 86.1117 241.855 85.733C242.473 85.3504 243.198 85.1591 244.031 85.1591C244.569 85.1591 245.077 85.2462 245.554 85.4205C246.035 85.5909 246.459 85.8561 246.827 86.2159C247.198 86.5758 247.49 87.0341 247.702 87.5909C247.914 88.1439 248.02 88.803 248.02 89.5682V90.1989H240.866V88.8125H246.048C246.045 88.4186 245.959 88.0682 245.793 87.7614C245.626 87.4508 245.393 87.2064 245.094 87.0284C244.798 86.8504 244.454 86.7614 244.06 86.7614C243.639 86.7614 243.27 86.8636 242.952 87.0682C242.634 87.2689 242.385 87.5341 242.207 87.8636C242.033 88.1894 241.944 88.5473 241.94 88.9375V90.1477C241.94 90.6553 242.033 91.0909 242.219 91.4545C242.404 91.8144 242.664 92.0909 242.997 92.2841C243.33 92.4735 243.721 92.5682 244.168 92.5682C244.467 92.5682 244.738 92.5265 244.98 92.4432C245.223 92.3561 245.433 92.2292 245.611 92.0625C245.789 91.8958 245.923 91.6894 246.014 91.4432L247.935 91.6591C247.813 92.1667 247.582 92.6098 247.241 92.9886C246.904 93.3636 246.473 93.6553 245.946 93.8636C245.42 94.0682 244.817 94.1705 244.139 94.1705Z" fill="#68B587"/>
<path d="M71.2557 132.364V144H69.1477V132.364H71.2557ZM84.3139 137.58L82.4389 137.784C82.3859 137.595 82.2931 137.417 82.1605 137.25C82.0317 137.083 81.8575 136.949 81.6378 136.847C81.4181 136.744 81.1491 136.693 80.831 136.693C80.4029 136.693 80.0431 136.786 79.7514 136.972C79.4635 137.157 79.3215 137.398 79.3253 137.693C79.3215 137.947 79.4143 138.153 79.6037 138.312C79.7969 138.472 80.1151 138.602 80.5582 138.705L82.0469 139.023C82.8726 139.201 83.4863 139.483 83.8878 139.869C84.2931 140.256 84.4976 140.761 84.5014 141.386C84.4976 141.936 84.3366 142.42 84.0185 142.841C83.7041 143.258 83.2666 143.583 82.706 143.818C82.1454 144.053 81.5014 144.17 80.7741 144.17C79.706 144.17 78.8461 143.947 78.1946 143.5C77.5431 143.049 77.1548 142.422 77.0298 141.619L79.0355 141.426C79.1264 141.82 79.3196 142.117 79.6151 142.318C79.9105 142.519 80.295 142.619 80.7685 142.619C81.2571 142.619 81.6491 142.519 81.9446 142.318C82.2438 142.117 82.3935 141.869 82.3935 141.574C82.3935 141.324 82.2969 141.117 82.1037 140.955C81.9143 140.792 81.6188 140.667 81.2173 140.58L79.7287 140.267C78.8916 140.093 78.2723 139.799 77.8707 139.386C77.4692 138.97 77.2704 138.443 77.2741 137.807C77.2704 137.269 77.4162 136.803 77.7116 136.409C78.0109 136.011 78.4257 135.705 78.956 135.489C79.4901 135.269 80.1056 135.159 80.8026 135.159C81.8253 135.159 82.6302 135.377 83.2173 135.812C83.8082 136.248 84.1738 136.837 84.3139 137.58ZM90.5554 135.273V136.864H85.5384V135.273H90.5554ZM86.777 133.182H88.8338V141.375C88.8338 141.652 88.8755 141.864 88.9588 142.011C89.0459 142.155 89.1596 142.254 89.2997 142.307C89.4399 142.36 89.5952 142.386 89.7656 142.386C89.8944 142.386 90.0118 142.377 90.1179 142.358C90.2277 142.339 90.3111 142.322 90.3679 142.307L90.7145 143.915C90.6046 143.953 90.4474 143.994 90.2429 144.04C90.0421 144.085 89.7959 144.112 89.5043 144.119C88.9891 144.134 88.5251 144.057 88.1122 143.886C87.6993 143.712 87.3717 143.443 87.1293 143.08C86.8906 142.716 86.7732 142.261 86.777 141.716V133.182ZM97.8381 140.33V135.273H99.8949V144H97.9006V142.449H97.8097C97.6127 142.937 97.2888 143.337 96.8381 143.648C96.3911 143.958 95.84 144.114 95.1847 144.114C94.6127 144.114 94.107 143.987 93.6676 143.733C93.232 143.475 92.8911 143.102 92.6449 142.614C92.3987 142.121 92.2756 141.527 92.2756 140.83V135.273H94.3324V140.511C94.3324 141.064 94.4839 141.504 94.7869 141.83C95.09 142.155 95.4877 142.318 95.9801 142.318C96.2831 142.318 96.5767 142.244 96.8608 142.097C97.1449 141.949 97.3778 141.729 97.5597 141.438C97.7453 141.142 97.8381 140.773 97.8381 140.33ZM105.249 144.153C104.563 144.153 103.949 143.977 103.408 143.625C102.866 143.273 102.438 142.761 102.124 142.091C101.809 141.42 101.652 140.606 101.652 139.648C101.652 138.678 101.811 137.86 102.129 137.193C102.451 136.523 102.885 136.017 103.43 135.676C103.976 135.331 104.584 135.159 105.254 135.159C105.766 135.159 106.186 135.246 106.516 135.42C106.845 135.591 107.107 135.797 107.3 136.04C107.493 136.278 107.643 136.504 107.749 136.716H107.834V132.364H109.896V144H107.874V142.625H107.749C107.643 142.837 107.489 143.062 107.288 143.301C107.088 143.536 106.822 143.737 106.493 143.903C106.163 144.07 105.749 144.153 105.249 144.153ZM105.822 142.466C106.258 142.466 106.629 142.348 106.936 142.114C107.243 141.875 107.476 141.544 107.635 141.119C107.794 140.695 107.874 140.201 107.874 139.636C107.874 139.072 107.794 138.581 107.635 138.165C107.48 137.748 107.249 137.424 106.942 137.193C106.639 136.962 106.266 136.847 105.822 136.847C105.364 136.847 104.982 136.966 104.675 137.205C104.368 137.443 104.137 137.773 103.982 138.193C103.826 138.614 103.749 139.095 103.749 139.636C103.749 140.182 103.826 140.669 103.982 141.097C104.141 141.521 104.374 141.856 104.68 142.102C104.991 142.345 105.372 142.466 105.822 142.466ZM113.366 147.273C113.086 147.273 112.827 147.25 112.588 147.205C112.353 147.163 112.166 147.114 112.026 147.057L112.503 145.455C112.802 145.542 113.069 145.583 113.304 145.58C113.539 145.576 113.745 145.502 113.923 145.358C114.105 145.218 114.259 144.983 114.384 144.653L114.56 144.182L111.395 135.273H113.577L115.588 141.864H115.679L117.696 135.273H119.884L116.389 145.057C116.226 145.519 116.01 145.915 115.741 146.244C115.473 146.578 115.143 146.831 114.753 147.006C114.366 147.184 113.904 147.273 113.366 147.273ZM129.696 135.273V136.864H124.537V135.273H129.696ZM125.827 144V134.449C125.827 133.862 125.948 133.373 126.19 132.983C126.437 132.593 126.766 132.301 127.179 132.108C127.592 131.915 128.05 131.818 128.554 131.818C128.91 131.818 129.226 131.847 129.503 131.903C129.779 131.96 129.984 132.011 130.116 132.057L129.707 133.648C129.62 133.621 129.51 133.595 129.378 133.568C129.245 133.538 129.098 133.523 128.935 133.523C128.552 133.523 128.281 133.616 128.122 133.801C127.967 133.983 127.889 134.244 127.889 134.585V144H125.827ZM136.869 140.33V135.273H138.926V144H136.932V142.449H136.841C136.644 142.937 136.32 143.337 135.869 143.648C135.422 143.958 134.871 144.114 134.216 144.114C133.644 144.114 133.138 143.987 132.699 143.733C132.263 143.475 131.922 143.102 131.676 142.614C131.43 142.121 131.307 141.527 131.307 140.83V135.273H133.364V140.511C133.364 141.064 133.515 141.504 133.818 141.83C134.121 142.155 134.519 142.318 135.011 142.318C135.314 142.318 135.608 142.244 135.892 142.097C136.176 141.949 136.409 141.729 136.591 141.438C136.777 141.142 136.869 140.773 136.869 140.33ZM141.041 144V135.273H143.036V136.727H143.126C143.286 136.223 143.558 135.835 143.945 135.562C144.335 135.286 144.78 135.148 145.28 135.148C145.393 135.148 145.52 135.153 145.661 135.165C145.804 135.172 145.924 135.186 146.018 135.205V137.097C145.931 137.066 145.793 137.04 145.604 137.017C145.418 136.991 145.238 136.977 145.064 136.977C144.689 136.977 144.352 137.059 144.053 137.222C143.757 137.381 143.524 137.602 143.354 137.886C143.183 138.17 143.098 138.498 143.098 138.869V144H141.041ZM152.212 135.273V136.864H147.195V135.273H152.212ZM148.433 133.182H150.49V141.375C150.49 141.652 150.532 141.864 150.615 142.011C150.702 142.155 150.816 142.254 150.956 142.307C151.096 142.36 151.251 142.386 151.422 142.386C151.551 142.386 151.668 142.377 151.774 142.358C151.884 142.339 151.967 142.322 152.024 142.307L152.371 143.915C152.261 143.953 152.104 143.994 151.899 144.04C151.698 144.085 151.452 144.112 151.161 144.119C150.645 144.134 150.181 144.057 149.768 143.886C149.356 143.712 149.028 143.443 148.786 143.08C148.547 142.716 148.429 142.261 148.433 141.716V133.182ZM156.176 138.886V144H154.119V132.364H156.131V136.756H156.233C156.438 136.263 156.754 135.875 157.182 135.591C157.614 135.303 158.163 135.159 158.83 135.159C159.436 135.159 159.964 135.286 160.415 135.54C160.866 135.794 161.214 136.165 161.46 136.653C161.71 137.142 161.835 137.739 161.835 138.443V144H159.778V138.761C159.778 138.174 159.627 137.718 159.324 137.392C159.025 137.062 158.604 136.898 158.062 136.898C157.699 136.898 157.373 136.977 157.085 137.136C156.801 137.292 156.578 137.517 156.415 137.812C156.256 138.108 156.176 138.466 156.176 138.886ZM167.795 144.17C166.92 144.17 166.165 143.989 165.528 143.625C164.896 143.258 164.409 142.739 164.068 142.068C163.727 141.394 163.557 140.6 163.557 139.688C163.557 138.79 163.727 138.002 164.068 137.324C164.413 136.642 164.894 136.112 165.511 135.733C166.129 135.35 166.854 135.159 167.688 135.159C168.225 135.159 168.733 135.246 169.21 135.42C169.691 135.591 170.116 135.856 170.483 136.216C170.854 136.576 171.146 137.034 171.358 137.591C171.57 138.144 171.676 138.803 171.676 139.568V140.199H164.523V138.812H169.705C169.701 138.419 169.616 138.068 169.449 137.761C169.282 137.451 169.049 137.206 168.75 137.028C168.455 136.85 168.11 136.761 167.716 136.761C167.295 136.761 166.926 136.864 166.608 137.068C166.29 137.269 166.042 137.534 165.864 137.864C165.689 138.189 165.6 138.547 165.597 138.938V140.148C165.597 140.655 165.689 141.091 165.875 141.455C166.061 141.814 166.32 142.091 166.653 142.284C166.987 142.473 167.377 142.568 167.824 142.568C168.123 142.568 168.394 142.527 168.636 142.443C168.879 142.356 169.089 142.229 169.267 142.062C169.445 141.896 169.58 141.689 169.67 141.443L171.591 141.659C171.47 142.167 171.239 142.61 170.898 142.989C170.561 143.364 170.129 143.655 169.602 143.864C169.076 144.068 168.473 144.17 167.795 144.17ZM173.416 144V135.273H175.411V136.727H175.501C175.661 136.223 175.933 135.835 176.32 135.562C176.71 135.286 177.155 135.148 177.655 135.148C177.768 135.148 177.895 135.153 178.036 135.165C178.179 135.172 178.299 135.186 178.393 135.205V137.097C178.306 137.066 178.168 137.04 177.979 137.017C177.793 136.991 177.613 136.977 177.439 136.977C177.064 136.977 176.727 137.059 176.428 137.222C176.132 137.381 175.899 137.602 175.729 137.886C175.558 138.17 175.473 138.498 175.473 138.869V144H173.416Z" fill="#68B587"/>
</svg>
