<svg width="464" height="181" viewBox="0 0 464 181" fill="none" xmlns="http://www.w3.org/2000/svg">
<g style="mix-blend-mode:luminosity">
<rect width="464" height="181" fill="#0A0F0B"/>
</g>
<path d="M21.7216 51V33.5455H24.8835V48.3494H32.571V51H21.7216ZM38.946 51.2642C38.1165 51.2642 37.3693 51.1165 36.7045 50.821C36.0455 50.5199 35.5227 50.0767 35.1364 49.4915C34.7557 48.9062 34.5653 48.1847 34.5653 47.3267C34.5653 46.5881 34.7017 45.9773 34.9744 45.4943C35.2472 45.0114 35.6193 44.625 36.0909 44.3352C36.5625 44.0455 37.0938 43.8267 37.6847 43.679C38.2813 43.5256 38.8977 43.4148 39.5341 43.3466C40.3011 43.267 40.9233 43.196 41.4006 43.1335C41.8778 43.0653 42.2244 42.9631 42.4403 42.8267C42.6619 42.6847 42.7727 42.4659 42.7727 42.1705V42.1193C42.7727 41.4773 42.5824 40.9801 42.2017 40.6278C41.821 40.2756 41.2727 40.0994 40.5568 40.0994C39.8011 40.0994 39.2017 40.2642 38.7585 40.5938C38.321 40.9233 38.0256 41.3125 37.8722 41.7614L34.9915 41.3523C35.2188 40.5568 35.5938 39.892 36.1165 39.358C36.6392 38.8182 37.2784 38.4148 38.0341 38.1477C38.7898 37.875 39.625 37.7386 40.5398 37.7386C41.1705 37.7386 41.7983 37.8125 42.4233 37.9602C43.0483 38.108 43.6193 38.3523 44.1364 38.6932C44.6534 39.0284 45.0682 39.4858 45.3807 40.0653C45.6989 40.6449 45.858 41.3693 45.858 42.2386V51H42.892V49.2017H42.7898C42.6023 49.5653 42.3381 49.9062 41.9972 50.2244C41.6619 50.5369 41.2386 50.7898 40.7273 50.983C40.2216 51.1705 39.6278 51.2642 38.946 51.2642ZM39.7472 48.9972C40.3665 48.9972 40.9034 48.875 41.358 48.6307C41.8125 48.3807 42.1619 48.0511 42.4062 47.642C42.6562 47.233 42.7812 46.7869 42.7812 46.304V44.7614C42.6847 44.8409 42.5199 44.9148 42.2869 44.983C42.0597 45.0511 41.804 45.1108 41.5199 45.1619C41.2358 45.2131 40.9545 45.2585 40.6761 45.2983C40.3977 45.3381 40.1563 45.3722 39.9517 45.4006C39.4915 45.4631 39.0795 45.5653 38.7159 45.7074C38.3523 45.8494 38.0653 46.0483 37.8551 46.304C37.6449 46.554 37.5398 46.8778 37.5398 47.2756C37.5398 47.8438 37.7472 48.2727 38.1619 48.5625C38.5767 48.8523 39.1051 48.9972 39.7472 48.9972ZM52.0455 43.3295V51H48.9602V37.9091H51.9091V40.1335H52.0625C52.3636 39.4006 52.8438 38.8182 53.5028 38.3864C54.1676 37.9545 54.9886 37.7386 55.9659 37.7386C56.8693 37.7386 57.6563 37.9318 58.3267 38.3182C59.0028 38.7045 59.5256 39.2642 59.8949 39.9972C60.2699 40.7301 60.4545 41.6193 60.4489 42.6648V51H57.3636V43.142C57.3636 42.267 57.1364 41.5824 56.6818 41.0881C56.233 40.5937 55.6108 40.3466 54.8153 40.3466C54.2756 40.3466 53.7955 40.4659 53.375 40.7045C52.9602 40.9375 52.6335 41.2756 52.3949 41.7188C52.1619 42.1619 52.0455 42.6989 52.0455 43.3295ZM69.2784 56.1818C68.1705 56.1818 67.2188 56.0313 66.4233 55.7301C65.6278 55.4347 64.9886 55.0369 64.5057 54.5369C64.0227 54.0369 63.6875 53.483 63.5 52.875L66.2784 52.2017C66.4034 52.4574 66.5852 52.7102 66.8239 52.9602C67.0625 53.2159 67.3835 53.4261 67.7869 53.5909C68.196 53.7614 68.7102 53.8466 69.3295 53.8466C70.2045 53.8466 70.929 53.6335 71.5028 53.2074C72.0767 52.7869 72.3636 52.0938 72.3636 51.1278V48.6477H72.2102C72.0511 48.9659 71.8182 49.2926 71.5114 49.6278C71.2102 49.9631 70.8097 50.2443 70.3097 50.4716C69.8153 50.6989 69.1932 50.8125 68.4432 50.8125C67.4375 50.8125 66.5256 50.5767 65.7074 50.1051C64.8949 49.6278 64.2472 48.9176 63.7642 47.9744C63.2869 47.0256 63.0483 45.8381 63.0483 44.4119C63.0483 42.9744 63.2869 41.7614 63.7642 40.7727C64.2472 39.7784 64.8977 39.0256 65.7159 38.5142C66.5341 37.9972 67.446 37.7386 68.4517 37.7386C69.2188 37.7386 69.8494 37.8693 70.3438 38.1307C70.8438 38.3864 71.2415 38.696 71.5369 39.0597C71.8324 39.4176 72.0568 39.7557 72.2102 40.0739H72.3807V37.9091H75.4233V51.2131C75.4233 52.3324 75.1563 53.2585 74.6222 53.9915C74.0881 54.7244 73.358 55.2727 72.4318 55.6364C71.5057 56 70.4545 56.1818 69.2784 56.1818ZM69.304 48.392C69.9574 48.392 70.5142 48.233 70.9744 47.9148C71.4347 47.5966 71.7841 47.1392 72.0227 46.5426C72.2614 45.946 72.3807 45.2301 72.3807 44.3949C72.3807 43.571 72.2614 42.8494 72.0227 42.2301C71.7898 41.6108 71.4432 41.1307 70.983 40.7898C70.5284 40.4432 69.9688 40.2699 69.304 40.2699C68.6165 40.2699 68.0426 40.4489 67.5824 40.8068C67.1222 41.1648 66.7756 41.6562 66.5426 42.2812C66.3097 42.9006 66.1932 43.6051 66.1932 44.3949C66.1932 45.196 66.3097 45.8977 66.5426 46.5C66.7813 47.0966 67.1307 47.5625 67.5909 47.8977C68.0568 48.2273 68.6278 48.392 69.304 48.392ZM86.929 45.4943V37.9091H90.0142V51H87.0227V48.6733H86.8864C86.5909 49.4062 86.1051 50.0057 85.429 50.4716C84.7585 50.9375 83.9318 51.1705 82.9489 51.1705C82.0909 51.1705 81.3324 50.9801 80.6733 50.5994C80.0199 50.2131 79.5085 49.6534 79.1392 48.9205C78.7699 48.1818 78.5852 47.2898 78.5852 46.2443V37.9091H81.6705V45.767C81.6705 46.5966 81.8977 47.2557 82.3523 47.7443C82.8068 48.233 83.4034 48.4773 84.142 48.4773C84.5966 48.4773 85.0369 48.3665 85.4631 48.1449C85.8892 47.9233 86.2386 47.5938 86.5114 47.1562C86.7898 46.7131 86.929 46.1591 86.929 45.4943ZM96.9538 51.2642C96.1243 51.2642 95.3771 51.1165 94.7124 50.821C94.0533 50.5199 93.5305 50.0767 93.1442 49.4915C92.7635 48.9062 92.5732 48.1847 92.5732 47.3267C92.5732 46.5881 92.7095 45.9773 92.9822 45.4943C93.255 45.0114 93.6271 44.625 94.0987 44.3352C94.5703 44.0455 95.1016 43.8267 95.6925 43.679C96.2891 43.5256 96.9055 43.4148 97.5419 43.3466C98.3089 43.267 98.9311 43.196 99.4084 43.1335C99.8857 43.0653 100.232 42.9631 100.448 42.8267C100.67 42.6847 100.781 42.4659 100.781 42.1705V42.1193C100.781 41.4773 100.59 40.9801 100.21 40.6278C99.8288 40.2756 99.2805 40.0994 98.5646 40.0994C97.8089 40.0994 97.2095 40.2642 96.7663 40.5938C96.3288 40.9233 96.0334 41.3125 95.88 41.7614L92.9993 41.3523C93.2266 40.5568 93.6016 39.892 94.1243 39.358C94.647 38.8182 95.2862 38.4148 96.0419 38.1477C96.7976 37.875 97.6328 37.7386 98.5476 37.7386C99.1783 37.7386 99.8061 37.8125 100.431 37.9602C101.056 38.108 101.627 38.3523 102.144 38.6932C102.661 39.0284 103.076 39.4858 103.388 40.0653C103.707 40.6449 103.866 41.3693 103.866 42.2386V51H100.9V49.2017H100.798C100.61 49.5653 100.346 49.9062 100.005 50.2244C99.6697 50.5369 99.2464 50.7898 98.7351 50.983C98.2294 51.1705 97.6357 51.2642 96.9538 51.2642ZM97.755 48.9972C98.3743 48.9972 98.9112 48.875 99.3658 48.6307C99.8203 48.3807 100.17 48.0511 100.414 47.642C100.664 47.233 100.789 46.7869 100.789 46.304V44.7614C100.692 44.8409 100.528 44.9148 100.295 44.983C100.067 45.0511 99.8118 45.1108 99.5277 45.1619C99.2436 45.2131 98.9624 45.2585 98.6839 45.2983C98.4055 45.3381 98.1641 45.3722 97.9595 45.4006C97.4993 45.4631 97.0874 45.5653 96.7237 45.7074C96.3601 45.8494 96.0732 46.0483 95.8629 46.304C95.6527 46.554 95.5476 46.8778 95.5476 47.2756C95.5476 47.8438 95.755 48.2727 96.1697 48.5625C96.5845 48.8523 97.1129 48.9972 97.755 48.9972ZM112.661 56.1818C111.553 56.1818 110.602 56.0313 109.806 55.7301C109.011 55.4347 108.371 55.0369 107.888 54.5369C107.406 54.0369 107.07 53.483 106.883 52.875L109.661 52.2017C109.786 52.4574 109.968 52.7102 110.207 52.9602C110.445 53.2159 110.766 53.4261 111.17 53.5909C111.579 53.7614 112.093 53.8466 112.712 53.8466C113.587 53.8466 114.312 53.6335 114.886 53.2074C115.46 52.7869 115.746 52.0938 115.746 51.1278V48.6477H115.593C115.434 48.9659 115.201 49.2926 114.894 49.6278C114.593 49.9631 114.192 50.2443 113.692 50.4716C113.198 50.6989 112.576 50.8125 111.826 50.8125C110.82 50.8125 109.908 50.5767 109.09 50.1051C108.278 49.6278 107.63 48.9176 107.147 47.9744C106.67 47.0256 106.431 45.8381 106.431 44.4119C106.431 42.9744 106.67 41.7614 107.147 40.7727C107.63 39.7784 108.281 39.0256 109.099 38.5142C109.917 37.9972 110.829 37.7386 111.835 37.7386C112.602 37.7386 113.232 37.8693 113.727 38.1307C114.227 38.3864 114.624 38.696 114.92 39.0597C115.215 39.4176 115.44 39.7557 115.593 40.0739H115.763V37.9091H118.806V51.2131C118.806 52.3324 118.539 53.2585 118.005 53.9915C117.471 54.7244 116.741 55.2727 115.815 55.6364C114.888 56 113.837 56.1818 112.661 56.1818ZM112.687 48.392C113.34 48.392 113.897 48.233 114.357 47.9148C114.817 47.5966 115.167 47.1392 115.406 46.5426C115.644 45.946 115.763 45.2301 115.763 44.3949C115.763 43.571 115.644 42.8494 115.406 42.2301C115.173 41.6108 114.826 41.1307 114.366 40.7898C113.911 40.4432 113.352 40.2699 112.687 40.2699C111.999 40.2699 111.425 40.4489 110.965 40.8068C110.505 41.1648 110.158 41.6562 109.925 42.2812C109.692 42.9006 109.576 43.6051 109.576 44.3949C109.576 45.196 109.692 45.8977 109.925 46.5C110.164 47.0966 110.513 47.5625 110.974 47.8977C111.44 48.2273 112.011 48.392 112.687 48.392ZM127.763 51.2557C126.451 51.2557 125.317 50.983 124.363 50.4375C123.414 49.8864 122.684 49.108 122.173 48.1023C121.661 47.0909 121.406 45.9006 121.406 44.5312C121.406 43.1847 121.661 42.0028 122.173 40.9858C122.69 39.9631 123.411 39.1676 124.337 38.5994C125.263 38.0256 126.352 37.7386 127.602 37.7386C128.408 37.7386 129.17 37.8693 129.886 38.1307C130.607 38.3864 131.244 38.7841 131.795 39.3239C132.352 39.8636 132.789 40.5511 133.107 41.3864C133.425 42.2159 133.585 43.2045 133.585 44.3523V45.2983H122.854V43.2188H130.627C130.621 42.6278 130.494 42.1023 130.244 41.642C129.994 41.1761 129.644 40.8097 129.195 40.5426C128.752 40.2756 128.235 40.142 127.644 40.142C127.013 40.142 126.46 40.2955 125.982 40.6023C125.505 40.9034 125.133 41.3011 124.866 41.7955C124.604 42.2841 124.471 42.821 124.465 43.4062V45.2216C124.465 45.983 124.604 46.6364 124.883 47.1818C125.161 47.7216 125.55 48.1364 126.05 48.4261C126.55 48.7102 127.136 48.8523 127.806 48.8523C128.255 48.8523 128.661 48.7898 129.025 48.6648C129.388 48.5341 129.704 48.3438 129.971 48.0938C130.238 47.8438 130.44 47.5341 130.576 47.1648L133.457 47.4886C133.275 48.25 132.928 48.9148 132.417 49.483C131.911 50.0455 131.263 50.483 130.474 50.7955C129.684 51.1023 128.781 51.2557 127.763 51.2557ZM142.148 55.9091V37.9091H145.182V40.0739H145.361C145.52 39.7557 145.744 39.4176 146.034 39.0597C146.324 38.696 146.716 38.3864 147.21 38.1307C147.705 37.8693 148.335 37.7386 149.102 37.7386C150.114 37.7386 151.026 37.9972 151.838 38.5142C152.656 39.0256 153.304 39.7841 153.781 40.7898C154.264 41.7898 154.506 43.017 154.506 44.4716C154.506 45.9091 154.27 47.1307 153.798 48.1364C153.327 49.142 152.685 49.9091 151.872 50.4375C151.06 50.9659 150.139 51.2301 149.111 51.2301C148.361 51.2301 147.739 51.1051 147.244 50.8551C146.75 50.6051 146.352 50.304 146.051 49.9517C145.756 49.5937 145.526 49.2557 145.361 48.9375H145.233V55.9091H142.148ZM145.173 44.4545C145.173 45.3011 145.293 46.0426 145.531 46.679C145.776 47.3153 146.125 47.8125 146.58 48.1705C147.04 48.5227 147.597 48.6989 148.25 48.6989C148.932 48.6989 149.503 48.517 149.963 48.1534C150.423 47.7841 150.77 47.2812 151.003 46.6449C151.241 46.0028 151.361 45.2727 151.361 44.4545C151.361 43.642 151.244 42.9205 151.011 42.2898C150.778 41.6591 150.432 41.1648 149.972 40.8068C149.511 40.4489 148.938 40.2699 148.25 40.2699C147.591 40.2699 147.031 40.4432 146.571 40.7898C146.111 41.1364 145.761 41.6222 145.523 42.2472C145.29 42.8722 145.173 43.608 145.173 44.4545ZM157.148 51V37.9091H160.139V40.0909H160.276C160.514 39.3352 160.923 38.7528 161.503 38.3438C162.088 37.929 162.756 37.7216 163.506 37.7216C163.676 37.7216 163.866 37.7301 164.077 37.7472C164.293 37.7585 164.472 37.7784 164.614 37.8068V40.6449C164.483 40.5994 164.276 40.5597 163.991 40.5256C163.713 40.4858 163.443 40.4659 163.182 40.4659C162.619 40.4659 162.114 40.5881 161.665 40.8324C161.222 41.071 160.872 41.4034 160.616 41.8295C160.361 42.2557 160.233 42.7472 160.233 43.304V51H157.148ZM171.835 51.2557C170.556 51.2557 169.448 50.9744 168.511 50.4119C167.573 49.8494 166.846 49.0625 166.329 48.0511C165.817 47.0398 165.562 45.858 165.562 44.5057C165.562 43.1534 165.817 41.9687 166.329 40.9517C166.846 39.9347 167.573 39.1449 168.511 38.5824C169.448 38.0199 170.556 37.7386 171.835 37.7386C173.113 37.7386 174.221 38.0199 175.158 38.5824C176.096 39.1449 176.82 39.9347 177.332 40.9517C177.849 41.9687 178.107 43.1534 178.107 44.5057C178.107 45.858 177.849 47.0398 177.332 48.0511C176.82 49.0625 176.096 49.8494 175.158 50.4119C174.221 50.9744 173.113 51.2557 171.835 51.2557ZM171.852 48.7841C172.545 48.7841 173.124 48.5937 173.59 48.2131C174.056 47.8267 174.403 47.3097 174.63 46.6619C174.863 46.0142 174.979 45.2926 174.979 44.4972C174.979 43.696 174.863 42.9716 174.63 42.3239C174.403 41.6705 174.056 41.1506 173.59 40.7642C173.124 40.3778 172.545 40.1847 171.852 40.1847C171.141 40.1847 170.55 40.3778 170.079 40.7642C169.613 41.1506 169.263 41.6705 169.031 42.3239C168.803 42.9716 168.69 43.696 168.69 44.4972C168.69 45.2926 168.803 46.0142 169.031 46.6619C169.263 47.3097 169.613 47.8267 170.079 48.2131C170.55 48.5937 171.141 48.7841 171.852 48.7841ZM187.357 37.9091V40.2955H179.618V37.9091H187.357ZM181.553 51V36.6733C181.553 35.7926 181.734 35.0597 182.098 34.4744C182.467 33.8892 182.962 33.4517 183.581 33.1619C184.2 32.8722 184.888 32.7273 185.643 32.7273C186.178 32.7273 186.652 32.7699 187.067 32.8551C187.482 32.9403 187.788 33.017 187.987 33.0852L187.374 35.4716C187.243 35.4318 187.078 35.392 186.879 35.3523C186.68 35.3068 186.459 35.2841 186.214 35.2841C185.641 35.2841 185.234 35.4233 184.996 35.7017C184.763 35.9744 184.646 36.3665 184.646 36.8778V51H181.553ZM189.773 51V37.9091H192.858V51H189.773ZM191.324 36.0511C190.835 36.0511 190.415 35.8892 190.062 35.5653C189.71 35.2358 189.534 34.8409 189.534 34.3807C189.534 33.9148 189.71 33.5199 190.062 33.196C190.415 32.8665 190.835 32.7017 191.324 32.7017C191.818 32.7017 192.239 32.8665 192.585 33.196C192.938 33.5199 193.114 33.9148 193.114 34.3807C193.114 34.8409 192.938 35.2358 192.585 35.5653C192.239 35.8892 191.818 36.0511 191.324 36.0511ZM201.741 51.2557C200.434 51.2557 199.312 50.9688 198.374 50.3949C197.442 49.821 196.724 49.0284 196.218 48.017C195.718 47 195.468 45.8295 195.468 44.5057C195.468 43.1761 195.724 42.0028 196.235 40.9858C196.746 39.9631 197.468 39.1676 198.4 38.5994C199.337 38.0256 200.445 37.7386 201.724 37.7386C202.786 37.7386 203.727 37.9347 204.545 38.3267C205.369 38.7131 206.025 39.2614 206.513 39.9716C207.002 40.6761 207.281 41.5 207.349 42.4432H204.4C204.281 41.8125 203.996 41.2869 203.548 40.8665C203.104 40.4403 202.511 40.2273 201.766 40.2273C201.136 40.2273 200.582 40.3977 200.104 40.7386C199.627 41.0739 199.255 41.5568 198.988 42.1875C198.727 42.8182 198.596 43.5739 198.596 44.4545C198.596 45.3466 198.727 46.1136 198.988 46.7557C199.249 47.392 199.616 47.8835 200.087 48.2301C200.565 48.571 201.124 48.7415 201.766 48.7415C202.221 48.7415 202.627 48.6562 202.985 48.4858C203.349 48.3097 203.653 48.0568 203.897 47.7273C204.141 47.3977 204.309 46.9972 204.4 46.5256H207.349C207.275 47.4517 207.002 48.2727 206.531 48.9886C206.059 49.6989 205.417 50.2557 204.604 50.6591C203.792 51.0568 202.837 51.2557 201.741 51.2557ZM209.882 51V37.9091H212.967V51H209.882ZM211.433 36.0511C210.945 36.0511 210.524 35.8892 210.172 35.5653C209.82 35.2358 209.643 34.8409 209.643 34.3807C209.643 33.9148 209.82 33.5199 210.172 33.196C210.524 32.8665 210.945 32.7017 211.433 32.7017C211.928 32.7017 212.348 32.8665 212.695 33.196C213.047 33.5199 213.223 33.9148 213.223 34.3807C213.223 34.8409 213.047 35.2358 212.695 35.5653C212.348 35.8892 211.928 36.0511 211.433 36.0511ZM221.935 51.2557C220.623 51.2557 219.489 50.983 218.535 50.4375C217.586 49.8864 216.856 49.108 216.344 48.1023C215.833 47.0909 215.577 45.9006 215.577 44.5312C215.577 43.1847 215.833 42.0028 216.344 40.9858C216.862 39.9631 217.583 39.1676 218.509 38.5994C219.435 38.0256 220.523 37.7386 221.773 37.7386C222.58 37.7386 223.342 37.8693 224.058 38.1307C224.779 38.3864 225.415 38.7841 225.967 39.3239C226.523 39.8636 226.961 40.5511 227.279 41.3864C227.597 42.2159 227.756 43.2045 227.756 44.3523V45.2983H217.026V43.2188H224.799C224.793 42.6278 224.665 42.1023 224.415 41.642C224.165 41.1761 223.816 40.8097 223.367 40.5426C222.924 40.2756 222.407 40.142 221.816 40.142C221.185 40.142 220.631 40.2955 220.154 40.6023C219.677 40.9034 219.305 41.3011 219.038 41.7955C218.776 42.2841 218.643 42.821 218.637 43.4062V45.2216C218.637 45.983 218.776 46.6364 219.055 47.1818C219.333 47.7216 219.722 48.1364 220.222 48.4261C220.722 48.7102 221.308 48.8523 221.978 48.8523C222.427 48.8523 222.833 48.7898 223.197 48.6648C223.56 48.5341 223.876 48.3438 224.143 48.0938C224.41 47.8438 224.612 47.5341 224.748 47.1648L227.629 47.4886C227.447 48.25 227.1 48.9148 226.589 49.483C226.083 50.0455 225.435 50.483 224.646 50.7955C223.856 51.1023 222.952 51.2557 221.935 51.2557ZM233.452 43.3295V51H230.366V37.9091H233.315V40.1335H233.469C233.77 39.4006 234.25 38.8182 234.909 38.3864C235.574 37.9545 236.395 37.7386 237.372 37.7386C238.276 37.7386 239.063 37.9318 239.733 38.3182C240.409 38.7045 240.932 39.2642 241.301 39.9972C241.676 40.7301 241.861 41.6193 241.855 42.6648V51H238.77V43.142C238.77 42.267 238.543 41.5824 238.088 41.0881C237.639 40.5937 237.017 40.3466 236.222 40.3466C235.682 40.3466 235.202 40.4659 234.781 40.7045C234.366 40.9375 234.04 41.2756 233.801 41.7188C233.568 42.1619 233.452 42.6989 233.452 43.3295ZM250.702 51.2557C249.395 51.2557 248.273 50.9688 247.335 50.3949C246.403 49.821 245.685 49.0284 245.179 48.017C244.679 47 244.429 45.8295 244.429 44.5057C244.429 43.1761 244.685 42.0028 245.196 40.9858C245.707 39.9631 246.429 39.1676 247.361 38.5994C248.298 38.0256 249.406 37.7386 250.685 37.7386C251.747 37.7386 252.688 37.9347 253.506 38.3267C254.33 38.7131 254.986 39.2614 255.474 39.9716C255.963 40.6761 256.241 41.5 256.31 42.4432H253.361C253.241 41.8125 252.957 41.2869 252.509 40.8665C252.065 40.4403 251.472 40.2273 250.727 40.2273C250.097 40.2273 249.543 40.3977 249.065 40.7386C248.588 41.0739 248.216 41.5568 247.949 42.1875C247.688 42.8182 247.557 43.5739 247.557 44.4545C247.557 45.3466 247.688 46.1136 247.949 46.7557C248.21 47.392 248.577 47.8835 249.048 48.2301C249.526 48.571 250.085 48.7415 250.727 48.7415C251.182 48.7415 251.588 48.6562 251.946 48.4858C252.31 48.3097 252.614 48.0568 252.858 47.7273C253.102 47.3977 253.27 46.9972 253.361 46.5256H256.31C256.236 47.4517 255.963 48.2727 255.491 48.9886C255.02 49.6989 254.378 50.2557 253.565 50.6591C252.753 51.0568 251.798 51.2557 250.702 51.2557ZM260.761 55.9091C260.34 55.9091 259.951 55.875 259.593 55.8068C259.241 55.7443 258.96 55.6705 258.749 55.5852L259.465 53.1818C259.914 53.3125 260.315 53.375 260.667 53.3693C261.019 53.3636 261.329 53.2528 261.596 53.0369C261.869 52.8267 262.099 52.4744 262.286 51.9801L262.55 51.2727L257.803 37.9091H261.076L264.093 47.7955H264.229L267.255 37.9091H270.536L265.295 52.5852C265.05 53.2784 264.727 53.8722 264.323 54.3665C263.92 54.8665 263.425 55.2472 262.84 55.5085C262.261 55.7756 261.567 55.9091 260.761 55.9091ZM278.309 39V37.2614C278.309 36.7614 278.403 36.2415 278.59 35.7017C278.783 35.1562 279.045 34.642 279.374 34.1591C279.71 33.6705 280.085 33.2585 280.499 32.9233L281.931 33.8523C281.596 34.358 281.315 34.8864 281.087 35.4375C280.866 35.983 280.758 36.5852 280.763 37.2443V39H278.309ZM282.63 39V37.2614C282.63 36.7614 282.724 36.2415 282.911 35.7017C283.104 35.1562 283.366 34.642 283.695 34.1591C284.031 33.6705 284.406 33.2585 284.82 32.9233L286.252 33.8523C285.917 34.358 285.636 34.8864 285.408 35.4375C285.187 35.983 285.079 36.5852 285.085 37.2443V39H282.63ZM298.043 38.3438C297.964 37.5994 297.629 37.0199 297.038 36.6051C296.452 36.1903 295.691 35.983 294.754 35.983C294.094 35.983 293.529 36.0824 293.058 36.2812C292.586 36.4801 292.225 36.75 291.975 37.0909C291.725 37.4318 291.597 37.821 291.592 38.2585C291.592 38.6222 291.674 38.9375 291.839 39.2045C292.009 39.4716 292.239 39.6989 292.529 39.8864C292.819 40.0682 293.14 40.2216 293.492 40.3466C293.844 40.4716 294.2 40.5767 294.558 40.6619L296.194 41.071C296.853 41.2244 297.487 41.4318 298.094 41.6932C298.708 41.9545 299.256 42.2841 299.739 42.6818C300.228 43.0795 300.614 43.5597 300.898 44.1222C301.183 44.6847 301.325 45.3437 301.325 46.0994C301.325 47.1222 301.063 48.0227 300.54 48.8011C300.018 49.5739 299.262 50.179 298.273 50.6165C297.29 51.0483 296.1 51.2642 294.702 51.2642C293.344 51.2642 292.165 51.054 291.165 50.6335C290.171 50.2131 289.393 49.5994 288.83 48.7926C288.273 47.9858 287.972 47.0028 287.927 45.8438H291.038C291.083 46.4517 291.271 46.9574 291.6 47.3608C291.93 47.7642 292.359 48.0653 292.887 48.2642C293.421 48.4631 294.018 48.5625 294.677 48.5625C295.364 48.5625 295.967 48.4602 296.484 48.2557C297.006 48.0455 297.415 47.7557 297.711 47.3864C298.006 47.0114 298.157 46.5739 298.163 46.0739C298.157 45.6193 298.023 45.2443 297.762 44.9489C297.501 44.6477 297.134 44.3977 296.663 44.1989C296.197 43.9943 295.651 43.8125 295.026 43.6534L293.04 43.142C291.603 42.7727 290.467 42.2131 289.631 41.4631C288.802 40.7074 288.387 39.7045 288.387 38.4545C288.387 37.4261 288.665 36.5256 289.222 35.7528C289.785 34.9801 290.549 34.3807 291.515 33.9545C292.481 33.5227 293.575 33.3068 294.796 33.3068C296.035 33.3068 297.12 33.5227 298.052 33.9545C298.989 34.3807 299.725 34.9744 300.259 35.7358C300.793 36.4915 301.069 37.3608 301.086 38.3438H298.043ZM306.104 51H302.729L308.874 33.5455H312.777L318.93 51H315.555L310.893 37.125H310.757L306.104 51ZM306.214 44.1562H315.419V46.696H306.214V44.1562ZM330.434 38.3438C330.354 37.5994 330.019 37.0199 329.428 36.6051C328.843 36.1903 328.082 35.983 327.144 35.983C326.485 35.983 325.92 36.0824 325.448 36.2812C324.977 36.4801 324.616 36.75 324.366 37.0909C324.116 37.4318 323.988 37.821 323.982 38.2585C323.982 38.6222 324.065 38.9375 324.229 39.2045C324.4 39.4716 324.63 39.6989 324.92 39.8864C325.21 40.0682 325.531 40.2216 325.883 40.3466C326.235 40.4716 326.59 40.5767 326.948 40.6619L328.585 41.071C329.244 41.2244 329.877 41.4318 330.485 41.6932C331.099 41.9545 331.647 42.2841 332.13 42.6818C332.619 43.0795 333.005 43.5597 333.289 44.1222C333.573 44.6847 333.715 45.3437 333.715 46.0994C333.715 47.1222 333.454 48.0227 332.931 48.8011C332.408 49.5739 331.653 50.179 330.664 50.6165C329.681 51.0483 328.491 51.2642 327.093 51.2642C325.735 51.2642 324.556 51.054 323.556 50.6335C322.562 50.2131 321.783 49.5994 321.221 48.7926C320.664 47.9858 320.363 47.0028 320.317 45.8438H323.428C323.474 46.4517 323.661 46.9574 323.991 47.3608C324.32 47.7642 324.749 48.0653 325.278 48.2642C325.812 48.4631 326.408 48.5625 327.067 48.5625C327.755 48.5625 328.357 48.4602 328.874 48.2557C329.397 48.0455 329.806 47.7557 330.102 47.3864C330.397 47.0114 330.548 46.5739 330.553 46.0739C330.548 45.6193 330.414 45.2443 330.153 44.9489C329.891 44.6477 329.525 44.3977 329.053 44.1989C328.587 43.9943 328.042 43.8125 327.417 43.6534L325.431 43.142C323.994 42.7727 322.857 42.2131 322.022 41.4631C321.192 40.7074 320.778 39.7045 320.778 38.4545C320.778 37.4261 321.056 36.5256 321.613 35.7528C322.175 34.9801 322.94 34.3807 323.906 33.9545C324.871 33.5227 325.965 33.3068 327.187 33.3068C328.425 33.3068 329.511 33.5227 330.442 33.9545C331.38 34.3807 332.116 34.9744 332.65 35.7358C333.184 36.4915 333.46 37.3608 333.477 38.3438H330.434ZM346.02 38.3438C345.94 37.5994 345.605 37.0199 345.014 36.6051C344.429 36.1903 343.668 35.983 342.73 35.983C342.071 35.983 341.506 36.0824 341.034 36.2812C340.563 36.4801 340.202 36.75 339.952 37.0909C339.702 37.4318 339.574 37.821 339.568 38.2585C339.568 38.6222 339.651 38.9375 339.815 39.2045C339.986 39.4716 340.216 39.6989 340.506 39.8864C340.795 40.0682 341.116 40.2216 341.469 40.3466C341.821 40.4716 342.176 40.5767 342.534 40.6619L344.17 41.071C344.83 41.2244 345.463 41.4318 346.071 41.6932C346.685 41.9545 347.233 42.2841 347.716 42.6818C348.205 43.0795 348.591 43.5597 348.875 44.1222C349.159 44.6847 349.301 45.3437 349.301 46.0994C349.301 47.1222 349.04 48.0227 348.517 48.8011C347.994 49.5739 347.239 50.179 346.25 50.6165C345.267 51.0483 344.077 51.2642 342.679 51.2642C341.321 51.2642 340.142 51.054 339.142 50.6335C338.148 50.2131 337.369 49.5994 336.807 48.7926C336.25 47.9858 335.949 47.0028 335.903 45.8438H339.014C339.06 46.4517 339.247 46.9574 339.577 47.3608C339.906 47.7642 340.335 48.0653 340.864 48.2642C341.398 48.4631 341.994 48.5625 342.653 48.5625C343.341 48.5625 343.943 48.4602 344.46 48.2557C344.983 48.0455 345.392 47.7557 345.688 47.3864C345.983 47.0114 346.134 46.5739 346.139 46.0739C346.134 45.6193 346 45.2443 345.739 44.9489C345.477 44.6477 345.111 44.3977 344.639 44.1989C344.173 43.9943 343.628 43.8125 343.003 43.6534L341.017 43.142C339.58 42.7727 338.443 42.2131 337.608 41.4631C336.778 40.7074 336.364 39.7045 336.364 38.4545C336.364 37.4261 336.642 36.5256 337.199 35.7528C337.761 34.9801 338.526 34.3807 339.491 33.9545C340.457 33.5227 341.551 33.3068 342.773 33.3068C344.011 33.3068 345.097 33.5227 346.028 33.9545C346.966 34.3807 347.702 34.9744 348.236 35.7358C348.77 36.4915 349.045 37.3608 349.062 38.3438H346.02ZM354.6 33.5455V35.2841C354.6 35.7841 354.504 36.304 354.31 36.8438C354.123 37.3778 353.864 37.8892 353.535 38.3778C353.205 38.8608 352.83 39.2756 352.41 39.6222L350.978 38.6932C351.29 38.2216 351.563 37.7131 351.796 37.1676C352.029 36.6165 352.146 35.9943 352.146 35.3011V33.5455H354.6ZM358.904 33.5455V35.2841C358.904 35.7841 358.808 36.304 358.614 36.8438C358.427 37.3778 358.168 37.8892 357.839 38.3778C357.509 38.8608 357.137 39.2756 356.722 39.6222L355.29 38.6932C355.597 38.2216 355.867 37.7131 356.1 37.1676C356.333 36.6165 356.45 35.9943 356.45 35.3011V33.5455H358.904Z" fill="#91B302"/>
<path fill-rule="evenodd" clip-rule="evenodd" d="M29.5591 88.7965L28.2668 85L26.9745 88.7965C26.6986 89.607 25.9374 90.152 25.0812 90.152L21.0019 90.152L24.2209 92.3844C24.9547 92.8933 25.2622 93.827 24.9744 94.6724L23.7262 98.3394L27.1271 95.9808C27.8125 95.5054 28.7211 95.5054 29.4066 95.9808L32.8074 98.3394L31.5592 94.6724C31.2715 93.827 31.579 92.8933 32.3128 92.3844L35.5318 90.152H31.4524C30.5962 90.152 29.835 89.607 29.5591 88.7965ZM29.2135 84.6778C28.9059 83.7741 27.6278 83.7741 27.3202 84.6778L26.0279 88.4742C25.8899 88.8795 25.5093 89.152 25.0812 89.152H21.0019C20.0219 89.152 19.6267 90.4153 20.432 90.9737L23.651 93.2062C24.0179 93.4606 24.1717 93.9274 24.0278 94.3501L22.7796 98.0171C22.4687 98.9303 23.5034 99.7108 24.2961 99.1611L27.6969 96.8025C28.0397 96.5648 28.494 96.5648 28.8367 96.8025L32.2376 99.1611C33.0302 99.7108 34.0649 98.9303 33.7541 98.0171L32.5059 94.3501C32.362 93.9274 32.5158 93.4606 32.8827 93.2062L36.1017 90.9737C36.9069 90.4153 36.5117 89.152 35.5318 89.152H31.4524C31.0243 89.152 30.6437 88.8795 30.5058 88.4742L29.2135 84.6778Z" fill="#68B587"/>
<path d="M49.2557 84.3636V96H47.1477V84.3636H49.2557ZM57.2173 96L54.7514 87.2727H56.848L58.3821 93.4091H58.4616L60.0298 87.2727H62.1037L63.6719 93.375H63.7571L65.2685 87.2727H67.3707L64.8991 96H62.7571L61.1207 90.1023H61.0014L59.3651 96H57.2173ZM68.8068 96V87.2727H70.8636V96H68.8068ZM69.8409 86.0341C69.5152 86.0341 69.2348 85.9261 69 85.7102C68.7652 85.4905 68.6477 85.2273 68.6477 84.9205C68.6477 84.6098 68.7652 84.3466 69 84.1307C69.2348 83.911 69.5152 83.8011 69.8409 83.8011C70.1705 83.8011 70.4508 83.911 70.6818 84.1307C70.9167 84.3466 71.0341 84.6098 71.0341 84.9205C71.0341 85.2273 70.9167 85.4905 70.6818 85.7102C70.4508 85.9261 70.1705 86.0341 69.8409 86.0341ZM75.0355 84.3636V96H72.9787V84.3636H75.0355ZM79.2074 84.3636V96H77.1506V84.3636H79.2074ZM92.1889 89.5795L90.3139 89.7841C90.2609 89.5947 90.1681 89.4167 90.0355 89.25C89.9067 89.0833 89.7325 88.9489 89.5128 88.8466C89.2931 88.7443 89.0241 88.6932 88.706 88.6932C88.2779 88.6932 87.9181 88.786 87.6264 88.9716C87.3385 89.1572 87.1965 89.3977 87.2003 89.6932C87.1965 89.947 87.2893 90.1534 87.4787 90.3125C87.6719 90.4716 87.9901 90.6023 88.4332 90.7045L89.9219 91.0227C90.7476 91.2008 91.3613 91.483 91.7628 91.8693C92.1681 92.2557 92.3726 92.7614 92.3764 93.3864C92.3726 93.9356 92.2116 94.4205 91.8935 94.8409C91.5791 95.2576 91.1416 95.5833 90.581 95.8182C90.0204 96.053 89.3764 96.1705 88.6491 96.1705C87.581 96.1705 86.7211 95.947 86.0696 95.5C85.4181 95.0492 85.0298 94.4223 84.9048 93.6193L86.9105 93.4261C87.0014 93.8201 87.1946 94.1174 87.4901 94.3182C87.7855 94.5189 88.17 94.6193 88.6435 94.6193C89.1321 94.6193 89.5241 94.5189 89.8196 94.3182C90.1188 94.1174 90.2685 93.8693 90.2685 93.5739C90.2685 93.3239 90.1719 93.1174 89.9787 92.9545C89.7893 92.7917 89.4938 92.6667 89.0923 92.5795L87.6037 92.267C86.7666 92.0928 86.1473 91.7992 85.7457 91.3864C85.3442 90.9697 85.1454 90.4432 85.1491 89.8068C85.1454 89.2689 85.2912 88.803 85.5866 88.4091C85.8859 88.0114 86.3007 87.7045 86.831 87.4886C87.3651 87.2689 87.9806 87.1591 88.6776 87.1591C89.7003 87.1591 90.5052 87.3769 91.0923 87.8125C91.6832 88.2481 92.0488 88.8371 92.1889 89.5795ZM98.4304 87.2727V88.8636H93.4134V87.2727H98.4304ZM94.652 85.1818H96.7088V93.375C96.7088 93.6515 96.7505 93.8636 96.8338 94.0114C96.9209 94.1553 97.0346 94.2538 97.1747 94.3068C97.3149 94.3598 97.4702 94.3864 97.6406 94.3864C97.7694 94.3864 97.8868 94.3769 97.9929 94.358C98.1027 94.339 98.1861 94.322 98.2429 94.3068L98.5895 95.9148C98.4796 95.9527 98.3224 95.9943 98.1179 96.0398C97.9171 96.0852 97.6709 96.1117 97.3793 96.1193C96.8641 96.1345 96.4001 96.0568 95.9872 95.8864C95.5743 95.7121 95.2467 95.4432 95.0043 95.0795C94.7656 94.7159 94.6482 94.2614 94.652 93.7159V85.1818ZM105.713 92.3295V87.2727H107.77V96H105.776V94.4489H105.685C105.488 94.9375 105.164 95.3371 104.713 95.6477C104.266 95.9583 103.715 96.1136 103.06 96.1136C102.488 96.1136 101.982 95.9867 101.543 95.733C101.107 95.4754 100.766 95.1023 100.52 94.6136C100.274 94.1212 100.151 93.5265 100.151 92.8295V87.2727H102.207V92.5114C102.207 93.0644 102.359 93.5038 102.662 93.8295C102.965 94.1553 103.363 94.3182 103.855 94.3182C104.158 94.3182 104.452 94.2443 104.736 94.0966C105.02 93.9489 105.253 93.7292 105.435 93.4375C105.62 93.142 105.713 92.7727 105.713 92.3295ZM113.124 96.1534C112.438 96.1534 111.824 95.9773 111.283 95.625C110.741 95.2727 110.313 94.7614 109.999 94.0909C109.684 93.4205 109.527 92.6061 109.527 91.6477C109.527 90.678 109.686 89.8598 110.004 89.1932C110.326 88.5227 110.76 88.017 111.305 87.6761C111.851 87.3314 112.459 87.1591 113.129 87.1591C113.641 87.1591 114.061 87.2462 114.391 87.4205C114.72 87.5909 114.982 87.7973 115.175 88.0398C115.368 88.2784 115.518 88.5038 115.624 88.7159H115.709V84.3636H117.771V96H115.749V94.625H115.624C115.518 94.8371 115.364 95.0625 115.163 95.3011C114.963 95.536 114.697 95.7367 114.368 95.9034C114.038 96.0701 113.624 96.1534 113.124 96.1534ZM113.697 94.4659C114.133 94.4659 114.504 94.3485 114.811 94.1136C115.118 93.875 115.351 93.5436 115.51 93.1193C115.669 92.6951 115.749 92.2008 115.749 91.6364C115.749 91.072 115.669 90.5814 115.51 90.1648C115.355 89.7481 115.124 89.4242 114.817 89.1932C114.514 88.9621 114.141 88.8466 113.697 88.8466C113.239 88.8466 112.857 88.9659 112.55 89.2045C112.243 89.4432 112.012 89.7727 111.857 90.1932C111.701 90.6136 111.624 91.0947 111.624 91.6364C111.624 92.1818 111.701 92.6686 111.857 93.0966C112.016 93.5208 112.249 93.8561 112.555 94.1023C112.866 94.3447 113.247 94.4659 113.697 94.4659ZM121.241 99.2727C120.961 99.2727 120.702 99.25 120.463 99.2045C120.228 99.1629 120.041 99.1136 119.901 99.0568L120.378 97.4545C120.677 97.5417 120.944 97.5833 121.179 97.5795C121.414 97.5758 121.62 97.5019 121.798 97.358C121.98 97.2178 122.134 96.983 122.259 96.6534L122.435 96.1818L119.27 87.2727H121.452L123.463 93.8636H123.554L125.571 87.2727H127.759L124.264 97.0568C124.101 97.5189 123.885 97.9148 123.616 98.2443C123.348 98.5777 123.018 98.8314 122.628 99.0057C122.241 99.1837 121.779 99.2727 121.241 99.2727ZM133.151 96V87.2727H135.207V96H133.151ZM134.185 86.0341C133.859 86.0341 133.579 85.9261 133.344 85.7102C133.109 85.4905 132.991 85.2273 132.991 84.9205C132.991 84.6098 133.109 84.3466 133.344 84.1307C133.579 83.911 133.859 83.8011 134.185 83.8011C134.514 83.8011 134.795 83.911 135.026 84.1307C135.26 84.3466 135.378 84.6098 135.378 84.9205C135.378 85.2273 135.26 85.4905 135.026 85.7102C134.795 85.9261 134.514 86.0341 134.185 86.0341ZM139.379 90.8864V96H137.322V87.2727H139.288V88.7557H139.391C139.591 88.267 139.911 87.8788 140.351 87.5909C140.794 87.303 141.341 87.1591 141.993 87.1591C142.595 87.1591 143.12 87.2879 143.567 87.5455C144.018 87.803 144.366 88.1761 144.612 88.6648C144.862 89.1534 144.985 89.7462 144.982 90.4432V96H142.925V90.7614C142.925 90.178 142.773 89.7216 142.47 89.392C142.171 89.0625 141.756 88.8977 141.226 88.8977C140.866 88.8977 140.546 88.9773 140.266 89.1364C139.989 89.2917 139.771 89.517 139.612 89.8125C139.457 90.108 139.379 90.4659 139.379 90.8864ZM155.399 87.2727V88.8636H150.382V87.2727H155.399ZM151.621 85.1818H153.678V93.375C153.678 93.6515 153.719 93.8636 153.803 94.0114C153.89 94.1553 154.003 94.2538 154.143 94.3068C154.284 94.3598 154.439 94.3864 154.609 94.3864C154.738 94.3864 154.856 94.3769 154.962 94.358C155.071 94.339 155.155 94.322 155.212 94.3068L155.558 95.9148C155.448 95.9527 155.291 95.9943 155.087 96.0398C154.886 96.0852 154.64 96.1117 154.348 96.1193C153.833 96.1345 153.369 96.0568 152.956 95.8864C152.543 95.7121 152.215 95.4432 151.973 95.0795C151.734 94.7159 151.617 94.2614 151.621 93.7159V85.1818ZM159.364 90.8864V96H157.307V84.3636H159.318V88.7557H159.42C159.625 88.2633 159.941 87.875 160.369 87.5909C160.801 87.303 161.35 87.1591 162.017 87.1591C162.623 87.1591 163.152 87.286 163.602 87.5398C164.053 87.7936 164.402 88.1648 164.648 88.6534C164.898 89.142 165.023 89.7386 165.023 90.4432V96H162.966V90.7614C162.966 90.1742 162.814 89.7178 162.511 89.392C162.212 89.0625 161.792 88.8977 161.25 88.8977C160.886 88.8977 160.561 88.9773 160.273 89.1364C159.989 89.2917 159.765 89.517 159.602 89.8125C159.443 90.108 159.364 90.4659 159.364 90.8864ZM170.983 96.1705C170.108 96.1705 169.352 95.9886 168.716 95.625C168.083 95.2576 167.597 94.7386 167.256 94.0682C166.915 93.3939 166.744 92.6004 166.744 91.6875C166.744 90.7898 166.915 90.0019 167.256 89.3239C167.6 88.642 168.081 88.1117 168.699 87.733C169.316 87.3504 170.042 87.1591 170.875 87.1591C171.413 87.1591 171.92 87.2462 172.398 87.4205C172.879 87.5909 173.303 87.8561 173.67 88.2159C174.042 88.5758 174.333 89.0341 174.545 89.5909C174.758 90.1439 174.864 90.803 174.864 91.5682V92.1989H167.71V90.8125H172.892C172.888 90.4186 172.803 90.0682 172.636 89.7614C172.47 89.4508 172.237 89.2064 171.938 89.0284C171.642 88.8504 171.297 88.7614 170.903 88.7614C170.483 88.7614 170.114 88.8636 169.795 89.0682C169.477 89.2689 169.229 89.5341 169.051 89.8636C168.877 90.1894 168.788 90.5473 168.784 90.9375V92.1477C168.784 92.6553 168.877 93.0909 169.062 93.4545C169.248 93.8144 169.508 94.0909 169.841 94.2841C170.174 94.4735 170.564 94.5682 171.011 94.5682C171.311 94.5682 171.581 94.5265 171.824 94.4432C172.066 94.3561 172.277 94.2292 172.455 94.0625C172.633 93.8958 172.767 93.6894 172.858 93.4432L174.778 93.6591C174.657 94.1667 174.426 94.6098 174.085 94.9886C173.748 95.3636 173.316 95.6553 172.79 95.8636C172.263 96.0682 171.661 96.1705 170.983 96.1705ZM180.663 96V84.3636H182.72V88.7159H182.805C182.911 88.5038 183.061 88.2784 183.254 88.0398C183.447 87.7973 183.709 87.5909 184.038 87.4205C184.368 87.2462 184.788 87.1591 185.3 87.1591C185.974 87.1591 186.582 87.3314 187.124 87.6761C187.669 88.017 188.101 88.5227 188.419 89.1932C188.741 89.8598 188.902 90.678 188.902 91.6477C188.902 92.6061 188.745 93.4205 188.43 94.0909C188.116 94.7614 187.688 95.2727 187.146 95.625C186.605 95.9773 185.991 96.1534 185.305 96.1534C184.805 96.1534 184.391 96.0701 184.061 95.9034C183.732 95.7367 183.466 95.536 183.266 95.3011C183.069 95.0625 182.915 94.8371 182.805 94.625H182.686V96H180.663ZM182.68 91.6364C182.68 92.2008 182.76 92.6951 182.919 93.1193C183.082 93.5436 183.315 93.875 183.618 94.1136C183.925 94.3485 184.296 94.4659 184.732 94.4659C185.186 94.4659 185.567 94.3447 185.874 94.1023C186.18 93.8561 186.411 93.5208 186.567 93.0966C186.726 92.6686 186.805 92.1818 186.805 91.6364C186.805 91.0947 186.728 90.6136 186.572 90.1932C186.417 89.7727 186.186 89.4432 185.879 89.2045C185.572 88.9659 185.19 88.8466 184.732 88.8466C184.292 88.8466 183.919 88.9621 183.612 89.1932C183.305 89.4242 183.072 89.7481 182.913 90.1648C182.758 90.5814 182.68 91.072 182.68 91.6364ZM190.651 96V87.2727H192.645V88.7273H192.736C192.895 88.2235 193.168 87.8352 193.554 87.5625C193.944 87.286 194.389 87.1477 194.889 87.1477C195.003 87.1477 195.13 87.1534 195.27 87.1648C195.414 87.1723 195.533 87.1856 195.628 87.2045V89.0966C195.541 89.0663 195.402 89.0398 195.213 89.017C195.027 88.9905 194.848 88.9773 194.673 88.9773C194.298 88.9773 193.961 89.0587 193.662 89.2216C193.366 89.3807 193.134 89.6023 192.963 89.8864C192.793 90.1705 192.707 90.4981 192.707 90.8693V96H190.651ZM196.994 96V87.2727H199.051V96H196.994ZM198.028 86.0341C197.703 86.0341 197.422 85.9261 197.188 85.7102C196.953 85.4905 196.835 85.2273 196.835 84.9205C196.835 84.6098 196.953 84.3466 197.188 84.1307C197.422 83.911 197.703 83.8011 198.028 83.8011C198.358 83.8011 198.638 83.911 198.869 84.1307C199.104 84.3466 199.222 84.6098 199.222 84.9205C199.222 85.2273 199.104 85.4905 198.869 85.7102C198.638 85.9261 198.358 86.0341 198.028 86.0341ZM204.962 99.4545C204.223 99.4545 203.589 99.3542 203.058 99.1534C202.528 98.9564 202.102 98.6913 201.78 98.358C201.458 98.0246 201.234 97.6553 201.109 97.25L202.962 96.8011C203.045 96.9716 203.166 97.1402 203.325 97.3068C203.484 97.4773 203.698 97.6174 203.967 97.7273C204.24 97.8409 204.583 97.8977 204.996 97.8977C205.579 97.8977 206.062 97.7557 206.445 97.4716C206.827 97.1913 207.018 96.7292 207.018 96.0852V94.4318H206.916C206.81 94.6439 206.655 94.8617 206.45 95.0852C206.25 95.3087 205.982 95.4962 205.649 95.6477C205.32 95.7992 204.905 95.875 204.405 95.875C203.734 95.875 203.126 95.7178 202.581 95.4034C202.039 95.0852 201.607 94.6117 201.286 93.983C200.967 93.3504 200.808 92.5587 200.808 91.608C200.808 90.6496 200.967 89.8409 201.286 89.1818C201.607 88.5189 202.041 88.017 202.587 87.6761C203.132 87.3314 203.74 87.1591 204.411 87.1591C204.922 87.1591 205.342 87.2462 205.672 87.4205C206.005 87.5909 206.27 87.7973 206.467 88.0398C206.664 88.2784 206.814 88.5038 206.916 88.7159H207.03V87.2727H209.058V96.142C209.058 96.8883 208.88 97.5057 208.524 97.9943C208.168 98.483 207.681 98.8485 207.064 99.0909C206.446 99.3333 205.746 99.4545 204.962 99.4545ZM204.979 94.2614C205.414 94.2614 205.786 94.1553 206.092 93.9432C206.399 93.7311 206.632 93.4261 206.791 93.0284C206.95 92.6307 207.03 92.1534 207.03 91.5966C207.03 91.0473 206.95 90.5663 206.791 90.1534C206.636 89.7405 206.405 89.4205 206.098 89.1932C205.795 88.9621 205.422 88.8466 204.979 88.8466C204.52 88.8466 204.138 88.9659 203.831 89.2045C203.524 89.4432 203.293 89.7708 203.138 90.1875C202.982 90.6004 202.905 91.0701 202.905 91.5966C202.905 92.1307 202.982 92.5985 203.138 93C203.297 93.3977 203.53 93.7083 203.837 93.9318C204.147 94.1515 204.528 94.2614 204.979 94.2614ZM213.223 90.8864V96H211.166V84.3636H213.178V88.7557H213.28C213.484 88.2633 213.801 87.875 214.229 87.5909C214.661 87.303 215.21 87.1591 215.876 87.1591C216.482 87.1591 217.011 87.286 217.462 87.5398C217.912 87.7936 218.261 88.1648 218.507 88.6534C218.757 89.142 218.882 89.7386 218.882 90.4432V96H216.825V90.7614C216.825 90.1742 216.674 89.7178 216.371 89.392C216.071 89.0625 215.651 88.8977 215.109 88.8977C214.746 88.8977 214.42 88.9773 214.132 89.1364C213.848 89.2917 213.625 89.517 213.462 89.8125C213.303 90.108 213.223 90.4659 213.223 90.8864ZM225.337 87.2727V88.8636H220.32V87.2727H225.337ZM221.558 85.1818H223.615V93.375C223.615 93.6515 223.657 93.8636 223.74 94.0114C223.827 94.1553 223.941 94.2538 224.081 94.3068C224.221 94.3598 224.376 94.3864 224.547 94.3864C224.676 94.3864 224.793 94.3769 224.899 94.358C225.009 94.339 225.092 94.322 225.149 94.3068L225.496 95.9148C225.386 95.9527 225.229 95.9943 225.024 96.0398C224.823 96.0852 224.577 96.1117 224.286 96.1193C223.77 96.1345 223.306 96.0568 222.893 95.8864C222.481 95.7121 222.153 95.4432 221.911 95.0795C221.672 94.7159 221.554 94.2614 221.558 93.7159V85.1818ZM235.446 87.2727V88.8636H230.287V87.2727H235.446ZM231.577 96V86.4489C231.577 85.8617 231.698 85.3731 231.94 84.983C232.187 84.5928 232.516 84.3011 232.929 84.108C233.342 83.9148 233.8 83.8182 234.304 83.8182C234.66 83.8182 234.976 83.8466 235.253 83.9034C235.529 83.9602 235.734 84.0114 235.866 84.0568L235.457 85.6477C235.37 85.6212 235.26 85.5947 235.128 85.5682C234.995 85.5379 234.848 85.5227 234.685 85.5227C234.302 85.5227 234.031 85.6155 233.872 85.8011C233.717 85.983 233.639 86.2443 233.639 86.5852V96H231.577ZM242.619 92.3295V87.2727H244.676V96H242.682V94.4489H242.591C242.394 94.9375 242.07 95.3371 241.619 95.6477C241.172 95.9583 240.621 96.1136 239.966 96.1136C239.394 96.1136 238.888 95.9867 238.449 95.733C238.013 95.4754 237.672 95.1023 237.426 94.6136C237.18 94.1212 237.057 93.5265 237.057 92.8295V87.2727H239.114V92.5114C239.114 93.0644 239.265 93.5038 239.568 93.8295C239.871 94.1553 240.269 94.3182 240.761 94.3182C241.064 94.3182 241.358 94.2443 241.642 94.0966C241.926 93.9489 242.159 93.7292 242.341 93.4375C242.527 93.142 242.619 92.7727 242.619 92.3295ZM251.149 87.2727V88.8636H246.132V87.2727H251.149ZM247.371 85.1818H249.428V93.375C249.428 93.6515 249.469 93.8636 249.553 94.0114C249.64 94.1553 249.753 94.2538 249.893 94.3068C250.034 94.3598 250.189 94.3864 250.359 94.3864C250.488 94.3864 250.606 94.3769 250.712 94.358C250.821 94.339 250.905 94.322 250.962 94.3068L251.308 95.9148C251.198 95.9527 251.041 95.9943 250.837 96.0398C250.636 96.0852 250.39 96.1117 250.098 96.1193C249.583 96.1345 249.119 96.0568 248.706 95.8864C248.293 95.7121 247.965 95.4432 247.723 95.0795C247.484 94.7159 247.367 94.2614 247.371 93.7159V85.1818ZM258.432 92.3295V87.2727H260.489V96H258.494V94.4489H258.403C258.206 94.9375 257.883 95.3371 257.432 95.6477C256.985 95.9583 256.434 96.1136 255.778 96.1136C255.206 96.1136 254.701 95.9867 254.261 95.733C253.826 95.4754 253.485 95.1023 253.239 94.6136C252.992 94.1212 252.869 93.5265 252.869 92.8295V87.2727H254.926V92.5114C254.926 93.0644 255.078 93.5038 255.381 93.8295C255.684 94.1553 256.081 94.3182 256.574 94.3182C256.877 94.3182 257.17 94.2443 257.455 94.0966C257.739 93.9489 257.972 93.7292 258.153 93.4375C258.339 93.142 258.432 92.7727 258.432 92.3295ZM262.604 96V87.2727H264.598V88.7273H264.689C264.848 88.2235 265.121 87.8352 265.507 87.5625C265.897 87.286 266.342 87.1477 266.842 87.1477C266.956 87.1477 267.083 87.1534 267.223 87.1648C267.367 87.1723 267.486 87.1856 267.581 87.2045V89.0966C267.494 89.0663 267.356 89.0398 267.166 89.017C266.981 88.9905 266.801 88.9773 266.626 88.9773C266.251 88.9773 265.914 89.0587 265.615 89.2216C265.32 89.3807 265.087 89.6023 264.916 89.8864C264.746 90.1705 264.661 90.4981 264.661 90.8693V96H262.604ZM272.452 96.1705C271.577 96.1705 270.821 95.9886 270.185 95.625C269.552 95.2576 269.065 94.7386 268.724 94.0682C268.384 93.3939 268.213 92.6004 268.213 91.6875C268.213 90.7898 268.384 90.0019 268.724 89.3239C269.069 88.642 269.55 88.1117 270.168 87.733C270.785 87.3504 271.51 87.1591 272.344 87.1591C272.882 87.1591 273.389 87.2462 273.866 87.4205C274.348 87.5909 274.772 87.8561 275.139 88.2159C275.51 88.5758 275.802 89.0341 276.014 89.5909C276.226 90.1439 276.332 90.803 276.332 91.5682V92.1989H269.179V90.8125H274.361C274.357 90.4186 274.272 90.0682 274.105 89.7614C273.938 89.4508 273.705 89.2064 273.406 89.0284C273.111 88.8504 272.766 88.7614 272.372 88.7614C271.952 88.7614 271.582 88.8636 271.264 89.0682C270.946 89.2689 270.698 89.5341 270.52 89.8636C270.346 90.1894 270.257 90.5473 270.253 90.9375V92.1477C270.253 92.6553 270.346 93.0909 270.531 93.4545C270.717 93.8144 270.976 94.0909 271.31 94.2841C271.643 94.4735 272.033 94.5682 272.48 94.5682C272.779 94.5682 273.05 94.5265 273.293 94.4432C273.535 94.3561 273.745 94.2292 273.923 94.0625C274.101 93.8958 274.236 93.6894 274.327 93.4432L276.247 93.6591C276.126 94.1667 275.895 94.6098 275.554 94.9886C275.217 95.3636 274.785 95.6553 274.259 95.8636C273.732 96.0682 273.13 96.1705 272.452 96.1705ZM283.308 96.125C282.964 96.125 282.668 96.0038 282.422 95.7614C282.176 95.5189 282.054 95.2235 282.058 94.875C282.054 94.5341 282.176 94.2424 282.422 94C282.668 93.7576 282.964 93.6364 283.308 93.6364C283.642 93.6364 283.931 93.7576 284.178 94C284.428 94.2424 284.554 94.5341 284.558 94.875C284.554 95.1061 284.494 95.3163 284.376 95.5057C284.263 95.6951 284.111 95.8466 283.922 95.9602C283.736 96.0701 283.532 96.125 283.308 96.125ZM283.308 89.8977C282.964 89.8977 282.668 89.7765 282.422 89.5341C282.176 89.2879 282.054 88.9924 282.058 88.6477C282.054 88.3068 282.176 88.0152 282.422 87.7727C282.668 87.5265 282.964 87.4034 283.308 87.4034C283.642 87.4034 283.931 87.5265 284.178 87.7727C284.428 88.0152 284.554 88.3068 284.558 88.6477C284.554 88.875 284.494 89.0833 284.376 89.2727C284.263 89.4621 284.111 89.6136 283.922 89.7273C283.736 89.8409 283.532 89.8977 283.308 89.8977ZM290.352 91.2557C290.352 92.6723 290.163 93.9773 289.784 95.1705C289.409 96.3598 288.848 97.4602 288.102 98.4716H286.165C286.456 98.0966 286.725 97.6383 286.972 97.0966C287.222 96.5549 287.438 95.9602 287.619 95.3125C287.805 94.6648 287.949 93.9943 288.051 93.3011C288.157 92.608 288.21 91.9261 288.21 91.2557C288.21 90.358 288.119 89.4489 287.938 88.5284C287.759 87.608 287.515 86.7538 287.205 85.9659C286.898 85.178 286.551 84.5341 286.165 84.0341H288.102C288.848 85.0455 289.409 86.1477 289.784 87.3409C290.163 88.5303 290.352 89.8352 290.352 91.2557Z" fill="#68B587"/>
<path fill-rule="evenodd" clip-rule="evenodd" d="M394.5 66C372.636 66 355 83.5092 355 105C355 126.491 372.636 144 394.5 144C416.364 144 434 126.491 434 105C434 83.5092 416.364 66 394.5 66ZM346 105C346 78.442 367.763 57 394.5 57C421.237 57 443 78.442 443 105C443 131.558 421.237 153 394.5 153C367.763 153 346 131.558 346 105Z" fill="#2A3609"/>
<path d="M384.003 113.332C382.599 113.332 381.395 112.977 380.389 112.267C379.389 111.551 378.619 110.52 378.08 109.173C377.545 107.821 377.278 106.193 377.278 104.29C377.284 102.386 377.554 100.767 378.088 99.4318C378.628 98.0909 379.398 97.0682 380.398 96.3636C381.403 95.6591 382.605 95.3068 384.003 95.3068C385.401 95.3068 386.602 95.6591 387.608 96.3636C388.614 97.0682 389.384 98.0909 389.918 99.4318C390.457 100.773 390.727 102.392 390.727 104.29C390.727 106.199 390.457 107.83 389.918 109.182C389.384 110.528 388.614 111.557 387.608 112.267C386.608 112.977 385.406 113.332 384.003 113.332ZM384.003 110.665C385.094 110.665 385.955 110.128 386.585 109.054C387.222 107.974 387.54 106.386 387.54 104.29C387.54 102.903 387.395 101.739 387.105 100.795C386.815 99.8523 386.406 99.142 385.878 98.6648C385.349 98.1818 384.724 97.9403 384.003 97.9403C382.918 97.9403 382.06 98.4801 381.429 99.5597C380.798 100.634 380.48 102.21 380.474 104.29C380.469 105.682 380.608 106.852 380.892 107.801C381.182 108.75 381.591 109.466 382.119 109.949C382.648 110.426 383.276 110.665 384.003 110.665ZM402.891 109.727V108.807C402.891 108.131 403.033 107.509 403.317 106.94C403.607 106.372 404.028 105.915 404.579 105.568C405.13 105.222 405.798 105.048 406.582 105.048C407.388 105.048 408.065 105.222 408.61 105.568C409.156 105.909 409.567 106.364 409.846 106.932C410.13 107.5 410.272 108.125 410.272 108.807V109.727C410.272 110.403 410.13 111.026 409.846 111.594C409.562 112.162 409.144 112.619 408.593 112.966C408.048 113.313 407.377 113.486 406.582 113.486C405.786 113.486 405.113 113.313 404.562 112.966C404.011 112.619 403.593 112.162 403.309 111.594C403.031 111.026 402.891 110.403 402.891 109.727ZM405.116 108.807V109.727C405.116 110.176 405.224 110.588 405.44 110.963C405.656 111.338 406.036 111.526 406.582 111.526C407.133 111.526 407.511 111.341 407.715 110.972C407.925 110.597 408.031 110.182 408.031 109.727V108.807C408.031 108.352 407.931 107.938 407.732 107.562C407.533 107.182 407.15 106.991 406.582 106.991C406.048 106.991 405.67 107.182 405.448 107.562C405.227 107.938 405.116 108.352 405.116 108.807ZM394.019 99.7386V98.8182C394.019 98.1364 394.164 97.5114 394.454 96.9432C394.744 96.375 395.164 95.9205 395.715 95.5795C396.266 95.233 396.934 95.0597 397.718 95.0597C398.519 95.0597 399.192 95.233 399.738 95.5795C400.289 95.9205 400.704 96.375 400.982 96.9432C401.261 97.5114 401.4 98.1364 401.4 98.8182V99.7386C401.4 100.42 401.258 101.045 400.974 101.614C400.695 102.176 400.281 102.628 399.729 102.969C399.178 103.31 398.508 103.48 397.718 103.48C396.917 103.48 396.241 103.31 395.69 102.969C395.144 102.628 394.729 102.173 394.445 101.605C394.161 101.037 394.019 100.415 394.019 99.7386ZM396.261 98.8182V99.7386C396.261 100.193 396.366 100.608 396.576 100.983C396.792 101.352 397.173 101.537 397.718 101.537C398.263 101.537 398.638 101.352 398.843 100.983C399.053 100.608 399.158 100.193 399.158 99.7386V98.8182C399.158 98.3636 399.059 97.9489 398.86 97.5739C398.661 97.1932 398.281 97.0028 397.718 97.0028C397.178 97.0028 396.8 97.1932 396.585 97.5739C396.369 97.9545 396.261 98.3693 396.261 98.8182ZM394.991 113L406.991 95.5455H409.121L397.121 113H394.991Z" fill="#68B587"/>
</svg>
