<svg width="464" height="181" viewBox="0 0 464 181" fill="none" xmlns="http://www.w3.org/2000/svg">
<rect width="464" height="181" fill="#0A0F0B"/>
<path d="M25.7216 39V21.5455H28.8835V36.3494H36.571V39H25.7216ZM42.946 39.2642C42.1165 39.2642 41.3693 39.1165 40.7045 38.821C40.0455 38.5199 39.5227 38.0767 39.1364 37.4915C38.7557 36.9062 38.5653 36.1847 38.5653 35.3267C38.5653 34.5881 38.7017 33.9773 38.9744 33.4943C39.2472 33.0114 39.6193 32.625 40.0909 32.3352C40.5625 32.0455 41.0938 31.8267 41.6847 31.679C42.2813 31.5256 42.8977 31.4148 43.5341 31.3466C44.3011 31.267 44.9233 31.196 45.4006 31.1335C45.8778 31.0653 46.2244 30.9631 46.4403 30.8267C46.6619 30.6847 46.7727 30.4659 46.7727 30.1705V30.1193C46.7727 29.4773 46.5824 28.9801 46.2017 28.6278C45.821 28.2756 45.2727 28.0994 44.5568 28.0994C43.8011 28.0994 43.2017 28.2642 42.7585 28.5938C42.321 28.9233 42.0256 29.3125 41.8722 29.7614L38.9915 29.3523C39.2188 28.5568 39.5938 27.892 40.1165 27.358C40.6392 26.8182 41.2784 26.4148 42.0341 26.1477C42.7898 25.875 43.625 25.7386 44.5398 25.7386C45.1705 25.7386 45.7983 25.8125 46.4233 25.9602C47.0483 26.108 47.6193 26.3523 48.1364 26.6932C48.6534 27.0284 49.0682 27.4858 49.3807 28.0653C49.6989 28.6449 49.858 29.3693 49.858 30.2386V39H46.892V37.2017H46.7898C46.6023 37.5653 46.3381 37.9062 45.9972 38.2244C45.6619 38.5369 45.2386 38.7898 44.7273 38.983C44.2216 39.1705 43.6278 39.2642 42.946 39.2642ZM43.7472 36.9972C44.3665 36.9972 44.9034 36.875 45.358 36.6307C45.8125 36.3807 46.1619 36.0511 46.4062 35.642C46.6562 35.233 46.7812 34.7869 46.7812 34.304V32.7614C46.6847 32.8409 46.5199 32.9148 46.2869 32.983C46.0597 33.0511 45.804 33.1108 45.5199 33.1619C45.2358 33.2131 44.9545 33.2585 44.6761 33.2983C44.3977 33.3381 44.1563 33.3722 43.9517 33.4006C43.4915 33.4631 43.0795 33.5653 42.7159 33.7074C42.3523 33.8494 42.0653 34.0483 41.8551 34.304C41.6449 34.554 41.5398 34.8778 41.5398 35.2756C41.5398 35.8438 41.7472 36.2727 42.1619 36.5625C42.5767 36.8523 43.1051 36.9972 43.7472 36.9972ZM56.0455 31.3295V39H52.9602V25.9091H55.9091V28.1335H56.0625C56.3636 27.4006 56.8438 26.8182 57.5028 26.3864C58.1676 25.9545 58.9886 25.7386 59.9659 25.7386C60.8693 25.7386 61.6563 25.9318 62.3267 26.3182C63.0028 26.7045 63.5256 27.2642 63.8949 27.9972C64.2699 28.7301 64.4545 29.6193 64.4489 30.6648V39H61.3636V31.142C61.3636 30.267 61.1364 29.5824 60.6818 29.0881C60.233 28.5937 59.6108 28.3466 58.8153 28.3466C58.2756 28.3466 57.7955 28.4659 57.375 28.7045C56.9602 28.9375 56.6335 29.2756 56.3949 29.7188C56.1619 30.1619 56.0455 30.6989 56.0455 31.3295ZM73.2784 44.1818C72.1705 44.1818 71.2188 44.0313 70.4233 43.7301C69.6278 43.4347 68.9886 43.0369 68.5057 42.5369C68.0227 42.0369 67.6875 41.483 67.5 40.875L70.2784 40.2017C70.4034 40.4574 70.5852 40.7102 70.8239 40.9602C71.0625 41.2159 71.3835 41.4261 71.7869 41.5909C72.196 41.7614 72.7102 41.8466 73.3295 41.8466C74.2045 41.8466 74.929 41.6335 75.5028 41.2074C76.0767 40.7869 76.3636 40.0938 76.3636 39.1278V36.6477H76.2102C76.0511 36.9659 75.8182 37.2926 75.5114 37.6278C75.2102 37.9631 74.8097 38.2443 74.3097 38.4716C73.8153 38.6989 73.1932 38.8125 72.4432 38.8125C71.4375 38.8125 70.5256 38.5767 69.7074 38.1051C68.8949 37.6278 68.2472 36.9176 67.7642 35.9744C67.2869 35.0256 67.0483 33.8381 67.0483 32.4119C67.0483 30.9744 67.2869 29.7614 67.7642 28.7727C68.2472 27.7784 68.8977 27.0256 69.7159 26.5142C70.5341 25.9972 71.446 25.7386 72.4517 25.7386C73.2188 25.7386 73.8494 25.8693 74.3438 26.1307C74.8438 26.3864 75.2415 26.696 75.5369 27.0597C75.8324 27.4176 76.0568 27.7557 76.2102 28.0739H76.3807V25.9091H79.4233V39.2131C79.4233 40.3324 79.1563 41.2585 78.6222 41.9915C78.0881 42.7244 77.358 43.2727 76.4318 43.6364C75.5057 44 74.4545 44.1818 73.2784 44.1818ZM73.304 36.392C73.9574 36.392 74.5142 36.233 74.9744 35.9148C75.4347 35.5966 75.7841 35.1392 76.0227 34.5426C76.2614 33.946 76.3807 33.2301 76.3807 32.3949C76.3807 31.571 76.2614 30.8494 76.0227 30.2301C75.7898 29.6108 75.4432 29.1307 74.983 28.7898C74.5284 28.4432 73.9688 28.2699 73.304 28.2699C72.6165 28.2699 72.0426 28.4489 71.5824 28.8068C71.1222 29.1648 70.7756 29.6562 70.5426 30.2812C70.3097 30.9006 70.1932 31.6051 70.1932 32.3949C70.1932 33.196 70.3097 33.8977 70.5426 34.5C70.7813 35.0966 71.1307 35.5625 71.5909 35.8977C72.0568 36.2273 72.6278 36.392 73.304 36.392ZM90.929 33.4943V25.9091H94.0142V39H91.0227V36.6733H90.8864C90.5909 37.4062 90.1051 38.0057 89.429 38.4716C88.7585 38.9375 87.9318 39.1705 86.9489 39.1705C86.0909 39.1705 85.3324 38.9801 84.6733 38.5994C84.0199 38.2131 83.5085 37.6534 83.1392 36.9205C82.7699 36.1818 82.5852 35.2898 82.5852 34.2443V25.9091H85.6705V33.767C85.6705 34.5966 85.8977 35.2557 86.3523 35.7443C86.8068 36.233 87.4034 36.4773 88.142 36.4773C88.5966 36.4773 89.0369 36.3665 89.4631 36.1449C89.8892 35.9233 90.2386 35.5938 90.5114 35.1562C90.7898 34.7131 90.929 34.1591 90.929 33.4943ZM102.982 39.2557C101.67 39.2557 100.536 38.983 99.5817 38.4375C98.6328 37.8864 97.9027 37.108 97.3913 36.1023C96.88 35.0909 96.6243 33.9006 96.6243 32.5312C96.6243 31.1847 96.88 30.0028 97.3913 28.9858C97.9084 27.9631 98.63 27.1676 99.5561 26.5994C100.482 26.0256 101.57 25.7386 102.82 25.7386C103.627 25.7386 104.388 25.8693 105.104 26.1307C105.826 26.3864 106.462 26.7841 107.013 27.3239C107.57 27.8636 108.008 28.5511 108.326 29.3864C108.644 30.2159 108.803 31.2045 108.803 32.3523V33.2983H98.0732V31.2188H105.846C105.84 30.6278 105.712 30.1023 105.462 29.642C105.212 29.1761 104.863 28.8097 104.414 28.5426C103.971 28.2756 103.454 28.142 102.863 28.142C102.232 28.142 101.678 28.2955 101.201 28.6023C100.724 28.9034 100.352 29.3011 100.085 29.7955C99.8232 30.2841 99.6896 30.821 99.6839 31.4062V33.2216C99.6839 33.983 99.8232 34.6364 100.102 35.1818C100.38 35.7216 100.769 36.1364 101.269 36.4261C101.769 36.7102 102.354 36.8523 103.025 36.8523C103.474 36.8523 103.88 36.7898 104.244 36.6648C104.607 36.5341 104.923 36.3438 105.19 36.0938C105.457 35.8438 105.658 35.5341 105.795 35.1648L108.675 35.4886C108.494 36.25 108.147 36.9148 107.636 37.483C107.13 38.0455 106.482 38.483 105.692 38.7955C104.903 39.1023 103.999 39.2557 102.982 39.2557ZM117.107 44.1818C115.999 44.1818 115.047 44.0313 114.251 43.7301C113.456 43.4347 112.817 43.0369 112.334 42.5369C111.851 42.0369 111.516 41.483 111.328 40.875L114.107 40.2017C114.232 40.4574 114.413 40.7102 114.652 40.9602C114.891 41.2159 115.212 41.4261 115.615 41.5909C116.024 41.7614 116.538 41.8466 117.158 41.8466C118.033 41.8466 118.757 41.6335 119.331 41.2074C119.905 40.7869 120.192 40.0938 120.192 39.1278V36.6477H120.038C119.879 36.9659 119.646 37.2926 119.339 37.6278C119.038 37.9631 118.638 38.2443 118.138 38.4716C117.643 38.6989 117.021 38.8125 116.271 38.8125C115.266 38.8125 114.354 38.5767 113.536 38.1051C112.723 37.6278 112.075 36.9176 111.592 35.9744C111.115 35.0256 110.876 33.8381 110.876 32.4119C110.876 30.9744 111.115 29.7614 111.592 28.7727C112.075 27.7784 112.726 27.0256 113.544 26.5142C114.362 25.9972 115.274 25.7386 116.28 25.7386C117.047 25.7386 117.678 25.8693 118.172 26.1307C118.672 26.3864 119.07 26.696 119.365 27.0597C119.661 27.4176 119.885 27.7557 120.038 28.0739H120.209V25.9091H123.251V39.2131C123.251 40.3324 122.984 41.2585 122.45 41.9915C121.916 42.7244 121.186 43.2727 120.26 43.6364C119.334 44 118.283 44.1818 117.107 44.1818ZM117.132 36.392C117.786 36.392 118.342 36.233 118.803 35.9148C119.263 35.5966 119.612 35.1392 119.851 34.5426C120.089 33.946 120.209 33.2301 120.209 32.3949C120.209 31.571 120.089 30.8494 119.851 30.2301C119.618 29.6108 119.271 29.1307 118.811 28.7898C118.357 28.4432 117.797 28.2699 117.132 28.2699C116.445 28.2699 115.871 28.4489 115.411 28.8068C114.95 29.1648 114.604 29.6562 114.371 30.2812C114.138 30.9006 114.021 31.6051 114.021 32.3949C114.021 33.196 114.138 33.8977 114.371 34.5C114.609 35.0966 114.959 35.5625 115.419 35.8977C115.885 36.2273 116.456 36.392 117.132 36.392ZM132.209 39.2557C130.896 39.2557 129.763 38.983 128.808 38.4375C127.859 37.8864 127.129 37.108 126.618 36.1023C126.107 35.0909 125.851 33.9006 125.851 32.5312C125.851 31.1847 126.107 30.0028 126.618 28.9858C127.135 27.9631 127.857 27.1676 128.783 26.5994C129.709 26.0256 130.797 25.7386 132.047 25.7386C132.854 25.7386 133.615 25.8693 134.331 26.1307C135.053 26.3864 135.689 26.7841 136.24 27.3239C136.797 27.8636 137.234 28.5511 137.553 29.3864C137.871 30.2159 138.03 31.2045 138.03 32.3523V33.2983H127.3V31.2188H135.072C135.067 30.6278 134.939 30.1023 134.689 29.642C134.439 29.1761 134.089 28.8097 133.641 28.5426C133.197 28.2756 132.68 28.142 132.089 28.142C131.459 28.142 130.905 28.2955 130.428 28.6023C129.95 28.9034 129.578 29.3011 129.311 29.7955C129.05 30.2841 128.916 30.821 128.911 31.4062V33.2216C128.911 33.983 129.05 34.6364 129.328 35.1818C129.607 35.7216 129.996 36.1364 130.496 36.4261C130.996 36.7102 131.581 36.8523 132.251 36.8523C132.7 36.8523 133.107 36.7898 133.47 36.6648C133.834 36.5341 134.149 36.3438 134.416 36.0938C134.683 35.8438 134.885 35.5341 135.021 35.1648L137.902 35.4886C137.72 36.25 137.374 36.9148 136.862 37.483C136.357 38.0455 135.709 38.483 134.919 38.7955C134.129 39.1023 133.226 39.2557 132.209 39.2557ZM146.593 43.9091V25.9091H149.627V28.0739H149.806C149.965 27.7557 150.19 27.4176 150.479 27.0597C150.769 26.696 151.161 26.3864 151.656 26.1307C152.15 25.8693 152.781 25.7386 153.548 25.7386C154.559 25.7386 155.471 25.9972 156.283 26.5142C157.102 27.0256 157.749 27.7841 158.227 28.7898C158.71 29.7898 158.951 31.017 158.951 32.4716C158.951 33.9091 158.715 35.1307 158.244 36.1364C157.772 37.142 157.13 37.9091 156.317 38.4375C155.505 38.9659 154.585 39.2301 153.556 39.2301C152.806 39.2301 152.184 39.1051 151.69 38.8551C151.195 38.6051 150.798 38.304 150.496 37.9517C150.201 37.5937 149.971 37.2557 149.806 36.9375H149.678V43.9091H146.593ZM149.619 32.4545C149.619 33.3011 149.738 34.0426 149.977 34.679C150.221 35.3153 150.57 35.8125 151.025 36.1705C151.485 36.5227 152.042 36.6989 152.695 36.6989C153.377 36.6989 153.948 36.517 154.408 36.1534C154.869 35.7841 155.215 35.2812 155.448 34.6449C155.687 34.0028 155.806 33.2727 155.806 32.4545C155.806 31.642 155.69 30.9205 155.457 30.2898C155.224 29.6591 154.877 29.1648 154.417 28.8068C153.957 28.4489 153.383 28.2699 152.695 28.2699C152.036 28.2699 151.477 28.4432 151.016 28.7898C150.556 29.1364 150.207 29.6222 149.968 30.2472C149.735 30.8722 149.619 31.608 149.619 32.4545ZM161.593 39V25.9091H164.585V28.0909H164.721C164.96 27.3352 165.369 26.7528 165.948 26.3438C166.533 25.929 167.201 25.7216 167.951 25.7216C168.121 25.7216 168.312 25.7301 168.522 25.7472C168.738 25.7585 168.917 25.7784 169.059 25.8068V28.6449C168.928 28.5994 168.721 28.5597 168.437 28.5256C168.158 28.4858 167.888 28.4659 167.627 28.4659C167.065 28.4659 166.559 28.5881 166.11 28.8324C165.667 29.071 165.317 29.4034 165.062 29.8295C164.806 30.2557 164.678 30.7472 164.678 31.304V39H161.593ZM176.28 39.2557C175.001 39.2557 173.893 38.9744 172.956 38.4119C172.018 37.8494 171.291 37.0625 170.774 36.0511C170.263 35.0398 170.007 33.858 170.007 32.5057C170.007 31.1534 170.263 29.9687 170.774 28.9517C171.291 27.9347 172.018 27.1449 172.956 26.5824C173.893 26.0199 175.001 25.7386 176.28 25.7386C177.558 25.7386 178.666 26.0199 179.604 26.5824C180.541 27.1449 181.266 27.9347 181.777 28.9517C182.294 29.9687 182.553 31.1534 182.553 32.5057C182.553 33.858 182.294 35.0398 181.777 36.0511C181.266 37.0625 180.541 37.8494 179.604 38.4119C178.666 38.9744 177.558 39.2557 176.28 39.2557ZM176.297 36.7841C176.99 36.7841 177.57 36.5937 178.036 36.2131C178.501 35.8267 178.848 35.3097 179.075 34.6619C179.308 34.0142 179.425 33.2926 179.425 32.4972C179.425 31.696 179.308 30.9716 179.075 30.3239C178.848 29.6705 178.501 29.1506 178.036 28.7642C177.57 28.3778 176.99 28.1847 176.297 28.1847C175.587 28.1847 174.996 28.3778 174.524 28.7642C174.058 29.1506 173.709 29.6705 173.476 30.3239C173.249 30.9716 173.135 31.696 173.135 32.4972C173.135 33.2926 173.249 34.0142 173.476 34.6619C173.709 35.3097 174.058 35.8267 174.524 36.2131C174.996 36.5937 175.587 36.7841 176.297 36.7841ZM191.802 25.9091V28.2955H184.063V25.9091H191.802ZM185.998 39V24.6733C185.998 23.7926 186.18 23.0597 186.543 22.4744C186.913 21.8892 187.407 21.4517 188.026 21.1619C188.646 20.8722 189.333 20.7273 190.089 20.7273C190.623 20.7273 191.097 20.7699 191.512 20.8551C191.927 20.9403 192.234 21.017 192.433 21.0852L191.819 23.4716C191.688 23.4318 191.523 23.392 191.325 23.3523C191.126 23.3068 190.904 23.2841 190.66 23.2841C190.086 23.2841 189.68 23.4233 189.441 23.7017C189.208 23.9744 189.092 24.3665 189.092 24.8778V39H185.998ZM194.218 39V25.9091H197.303V39H194.218ZM195.769 24.0511C195.281 24.0511 194.86 23.8892 194.508 23.5653C194.156 23.2358 193.979 22.8409 193.979 22.3807C193.979 21.9148 194.156 21.5199 194.508 21.196C194.86 20.8665 195.281 20.7017 195.769 20.7017C196.263 20.7017 196.684 20.8665 197.031 21.196C197.383 21.5199 197.559 21.9148 197.559 22.3807C197.559 22.8409 197.383 23.2358 197.031 23.5653C196.684 23.8892 196.263 24.0511 195.769 24.0511ZM206.186 39.2557C204.879 39.2557 203.757 38.9688 202.82 38.3949C201.888 37.821 201.169 37.0284 200.663 36.017C200.163 35 199.913 33.8295 199.913 32.5057C199.913 31.1761 200.169 30.0028 200.68 28.9858C201.192 27.9631 201.913 27.1676 202.845 26.5994C203.783 26.0256 204.891 25.7386 206.169 25.7386C207.232 25.7386 208.172 25.9347 208.99 26.3267C209.814 26.7131 210.47 27.2614 210.959 27.9716C211.447 28.6761 211.726 29.5 211.794 30.4432H208.845C208.726 29.8125 208.442 29.2869 207.993 28.8665C207.55 28.4403 206.956 28.2273 206.212 28.2273C205.581 28.2273 205.027 28.3977 204.55 28.7386C204.072 29.0739 203.7 29.5568 203.433 30.1875C203.172 30.8182 203.041 31.5739 203.041 32.4545C203.041 33.3466 203.172 34.1136 203.433 34.7557C203.695 35.392 204.061 35.8835 204.533 36.2301C205.01 36.571 205.57 36.7415 206.212 36.7415C206.666 36.7415 207.072 36.6562 207.43 36.4858C207.794 36.3097 208.098 36.0568 208.342 35.7273C208.587 35.3977 208.754 34.9972 208.845 34.5256H211.794C211.72 35.4517 211.447 36.2727 210.976 36.9886C210.504 37.6989 209.862 38.2557 209.05 38.6591C208.237 39.0568 207.283 39.2557 206.186 39.2557ZM214.327 39V25.9091H217.413V39H214.327ZM215.879 24.0511C215.39 24.0511 214.969 23.8892 214.617 23.5653C214.265 23.2358 214.089 22.8409 214.089 22.3807C214.089 21.9148 214.265 21.5199 214.617 21.196C214.969 20.8665 215.39 20.7017 215.879 20.7017C216.373 20.7017 216.793 20.8665 217.14 21.196C217.492 21.5199 217.668 21.9148 217.668 22.3807C217.668 22.8409 217.492 23.2358 217.14 23.5653C216.793 23.8892 216.373 24.0511 215.879 24.0511ZM226.381 39.2557C225.068 39.2557 223.935 38.983 222.98 38.4375C222.031 37.8864 221.301 37.108 220.79 36.1023C220.278 35.0909 220.023 33.9006 220.023 32.5312C220.023 31.1847 220.278 30.0028 220.79 28.9858C221.307 27.9631 222.028 27.1676 222.955 26.5994C223.881 26.0256 224.969 25.7386 226.219 25.7386C227.026 25.7386 227.787 25.8693 228.503 26.1307C229.224 26.3864 229.861 26.7841 230.412 27.3239C230.969 27.8636 231.406 28.5511 231.724 29.3864C232.043 30.2159 232.202 31.2045 232.202 32.3523V33.2983H221.472V31.2188H229.244C229.239 30.6278 229.111 30.1023 228.861 29.642C228.611 29.1761 228.261 28.8097 227.812 28.5426C227.369 28.2756 226.852 28.142 226.261 28.142C225.631 28.142 225.077 28.2955 224.599 28.6023C224.122 28.9034 223.75 29.3011 223.483 29.7955C223.222 30.2841 223.088 30.821 223.082 31.4062V33.2216C223.082 33.983 223.222 34.6364 223.5 35.1818C223.778 35.7216 224.168 36.1364 224.668 36.4261C225.168 36.7102 225.753 36.8523 226.423 36.8523C226.872 36.8523 227.278 36.7898 227.642 36.6648C228.006 36.5341 228.321 36.3438 228.588 36.0938C228.855 35.8438 229.057 35.5341 229.193 35.1648L232.074 35.4886C231.892 36.25 231.545 36.9148 231.034 37.483C230.528 38.0455 229.881 38.483 229.091 38.7955C228.301 39.1023 227.398 39.2557 226.381 39.2557ZM237.897 31.3295V39H234.812V25.9091H237.761V28.1335H237.914C238.215 27.4006 238.695 26.8182 239.354 26.3864C240.019 25.9545 240.84 25.7386 241.817 25.7386C242.721 25.7386 243.508 25.9318 244.178 26.3182C244.854 26.7045 245.377 27.2642 245.746 27.9972C246.121 28.7301 246.306 29.6193 246.3 30.6648V39H243.215V31.142C243.215 30.267 242.988 29.5824 242.533 29.0881C242.085 28.5937 241.462 28.3466 240.667 28.3466C240.127 28.3466 239.647 28.4659 239.227 28.7045C238.812 28.9375 238.485 29.2756 238.246 29.7188C238.013 30.1619 237.897 30.6989 237.897 31.3295ZM255.147 39.2557C253.84 39.2557 252.718 38.9688 251.781 38.3949C250.849 37.821 250.13 37.0284 249.624 36.017C249.124 35 248.874 33.8295 248.874 32.5057C248.874 31.1761 249.13 30.0028 249.641 28.9858C250.153 27.9631 250.874 27.1676 251.806 26.5994C252.744 26.0256 253.852 25.7386 255.13 25.7386C256.192 25.7386 257.133 25.9347 257.951 26.3267C258.775 26.7131 259.431 27.2614 259.92 27.9716C260.408 28.6761 260.687 29.5 260.755 30.4432H257.806C257.687 29.8125 257.403 29.2869 256.954 28.8665C256.511 28.4403 255.917 28.2273 255.173 28.2273C254.542 28.2273 253.988 28.3977 253.511 28.7386C253.033 29.0739 252.661 29.5568 252.394 30.1875C252.133 30.8182 252.002 31.5739 252.002 32.4545C252.002 33.3466 252.133 34.1136 252.394 34.7557C252.656 35.392 253.022 35.8835 253.494 36.2301C253.971 36.571 254.531 36.7415 255.173 36.7415C255.627 36.7415 256.033 36.6562 256.391 36.4858C256.755 36.3097 257.059 36.0568 257.303 35.7273C257.548 35.3977 257.715 34.9972 257.806 34.5256H260.755C260.681 35.4517 260.408 36.2727 259.937 36.9886C259.465 37.6989 258.823 38.2557 258.011 38.6591C257.198 39.0568 256.244 39.2557 255.147 39.2557ZM265.206 43.9091C264.786 43.9091 264.396 43.875 264.038 43.8068C263.686 43.7443 263.405 43.6705 263.195 43.5852L263.911 41.1818C264.359 41.3125 264.76 41.375 265.112 41.3693C265.464 41.3636 265.774 41.2528 266.041 41.0369C266.314 40.8267 266.544 40.4744 266.732 39.9801L266.996 39.2727L262.249 25.9091H265.521L268.538 35.7955H268.675L271.7 25.9091H274.982L269.74 40.5852C269.496 41.2784 269.172 41.8722 268.768 42.3665C268.365 42.8665 267.871 43.2472 267.286 43.5085C266.706 43.7756 266.013 43.9091 265.206 43.9091ZM282.754 27V25.2614C282.754 24.7614 282.848 24.2415 283.036 23.7017C283.229 23.1562 283.49 22.642 283.82 22.1591C284.155 21.6705 284.53 21.2585 284.945 20.9233L286.376 21.8523C286.041 22.358 285.76 22.8864 285.533 23.4375C285.311 23.983 285.203 24.5852 285.209 25.2443V27H282.754ZM287.075 27V25.2614C287.075 24.7614 287.169 24.2415 287.357 23.7017C287.55 23.1562 287.811 22.642 288.141 22.1591C288.476 21.6705 288.851 21.2585 289.266 20.9233L290.697 21.8523C290.362 22.358 290.081 22.8864 289.854 23.4375C289.632 23.983 289.524 24.5852 289.53 25.2443V27H287.075ZM302.489 26.3438C302.409 25.5994 302.074 25.0199 301.483 24.6051C300.898 24.1903 300.136 23.983 299.199 23.983C298.54 23.983 297.974 24.0824 297.503 24.2812C297.031 24.4801 296.67 24.75 296.42 25.0909C296.17 25.4318 296.043 25.821 296.037 26.2585C296.037 26.6222 296.119 26.9375 296.284 27.2045C296.455 27.4716 296.685 27.6989 296.974 27.8864C297.264 28.0682 297.585 28.2216 297.938 28.3466C298.29 28.4716 298.645 28.5767 299.003 28.6619L300.639 29.071C301.298 29.2244 301.932 29.4318 302.54 29.6932C303.153 29.9545 303.702 30.2841 304.185 30.6818C304.673 31.0795 305.06 31.5597 305.344 32.1222C305.628 32.6847 305.77 33.3437 305.77 34.0994C305.77 35.1222 305.509 36.0227 304.986 36.8011C304.463 37.5739 303.707 38.179 302.719 38.6165C301.736 39.0483 300.545 39.2642 299.148 39.2642C297.79 39.2642 296.611 39.054 295.611 38.6335C294.616 38.2131 293.838 37.5994 293.276 36.7926C292.719 35.9858 292.418 35.0028 292.372 33.8438H295.483C295.528 34.4517 295.716 34.9574 296.045 35.3608C296.375 35.7642 296.804 36.0653 297.332 36.2642C297.866 36.4631 298.463 36.5625 299.122 36.5625C299.81 36.5625 300.412 36.4602 300.929 36.2557C301.452 36.0455 301.861 35.7557 302.156 35.3864C302.452 35.0114 302.602 34.5739 302.608 34.0739C302.602 33.6193 302.469 33.2443 302.207 32.9489C301.946 32.6477 301.58 32.3977 301.108 32.1989C300.642 31.9943 300.097 31.8125 299.472 31.6534L297.486 31.142C296.048 30.7727 294.912 30.2131 294.077 29.4631C293.247 28.7074 292.832 27.7045 292.832 26.4545C292.832 25.4261 293.111 24.5256 293.668 23.7528C294.23 22.9801 294.994 22.3807 295.96 21.9545C296.926 21.5227 298.02 21.3068 299.241 21.3068C300.48 21.3068 301.565 21.5227 302.497 21.9545C303.435 22.3807 304.17 22.9744 304.705 23.7358C305.239 24.4915 305.514 25.3608 305.531 26.3438H302.489ZM310.549 39H307.174L313.319 21.5455H317.222L323.376 39H320.001L315.339 25.125H315.202L310.549 39ZM310.66 32.1562H319.864V34.696H310.66V32.1562ZM334.879 26.3438C334.8 25.5994 334.464 25.0199 333.874 24.6051C333.288 24.1903 332.527 23.983 331.589 23.983C330.93 23.983 330.365 24.0824 329.893 24.2812C329.422 24.4801 329.061 24.75 328.811 25.0909C328.561 25.4318 328.433 25.821 328.428 26.2585C328.428 26.6222 328.51 26.9375 328.675 27.2045C328.845 27.4716 329.075 27.6989 329.365 27.8864C329.655 28.0682 329.976 28.2216 330.328 28.3466C330.68 28.4716 331.036 28.5767 331.393 28.6619L333.03 29.071C333.689 29.2244 334.322 29.4318 334.93 29.6932C335.544 29.9545 336.092 30.2841 336.575 30.6818C337.064 31.0795 337.45 31.5597 337.734 32.1222C338.018 32.6847 338.161 33.3437 338.161 34.0994C338.161 35.1222 337.899 36.0227 337.376 36.8011C336.854 37.5739 336.098 38.179 335.109 38.6165C334.126 39.0483 332.936 39.2642 331.538 39.2642C330.18 39.2642 329.001 39.054 328.001 38.6335C327.007 38.2131 326.229 37.5994 325.666 36.7926C325.109 35.9858 324.808 35.0028 324.763 33.8438H327.874C327.919 34.4517 328.107 34.9574 328.436 35.3608C328.766 35.7642 329.195 36.0653 329.723 36.2642C330.257 36.4631 330.854 36.5625 331.513 36.5625C332.2 36.5625 332.803 36.4602 333.32 36.2557C333.842 36.0455 334.251 35.7557 334.547 35.3864C334.842 35.0114 334.993 34.5739 334.999 34.0739C334.993 33.6193 334.859 33.2443 334.598 32.9489C334.337 32.6477 333.97 32.3977 333.499 32.1989C333.033 31.9943 332.487 31.8125 331.862 31.6534L329.876 31.142C328.439 30.7727 327.303 30.2131 326.467 29.4631C325.638 28.7074 325.223 27.7045 325.223 26.4545C325.223 25.4261 325.501 24.5256 326.058 23.7528C326.621 22.9801 327.385 22.3807 328.351 21.9545C329.317 21.5227 330.411 21.3068 331.632 21.3068C332.871 21.3068 333.956 21.5227 334.888 21.9545C335.825 22.3807 336.561 22.9744 337.095 23.7358C337.629 24.4915 337.905 25.3608 337.922 26.3438H334.879ZM350.465 26.3438C350.386 25.5994 350.05 25.0199 349.46 24.6051C348.874 24.1903 348.113 23.983 347.175 23.983C346.516 23.983 345.951 24.0824 345.479 24.2812C345.008 24.4801 344.647 24.75 344.397 25.0909C344.147 25.4318 344.019 25.821 344.013 26.2585C344.013 26.6222 344.096 26.9375 344.261 27.2045C344.431 27.4716 344.661 27.6989 344.951 27.8864C345.241 28.0682 345.562 28.2216 345.914 28.3466C346.266 28.4716 346.621 28.5767 346.979 28.6619L348.616 29.071C349.275 29.2244 349.908 29.4318 350.516 29.6932C351.13 29.9545 351.678 30.2841 352.161 30.6818C352.65 31.0795 353.036 31.5597 353.32 32.1222C353.604 32.6847 353.746 33.3437 353.746 34.0994C353.746 35.1222 353.485 36.0227 352.962 36.8011C352.44 37.5739 351.684 38.179 350.695 38.6165C349.712 39.0483 348.522 39.2642 347.124 39.2642C345.766 39.2642 344.587 39.054 343.587 38.6335C342.593 38.2131 341.815 37.5994 341.252 36.7926C340.695 35.9858 340.394 35.0028 340.349 33.8438H343.46C343.505 34.4517 343.692 34.9574 344.022 35.3608C344.352 35.7642 344.781 36.0653 345.309 36.2642C345.843 36.4631 346.44 36.5625 347.099 36.5625C347.786 36.5625 348.388 36.4602 348.906 36.2557C349.428 36.0455 349.837 35.7557 350.133 35.3864C350.428 35.0114 350.579 34.5739 350.585 34.0739C350.579 33.6193 350.445 33.2443 350.184 32.9489C349.923 32.6477 349.556 32.3977 349.085 32.1989C348.619 31.9943 348.073 31.8125 347.448 31.6534L345.462 31.142C344.025 30.7727 342.888 30.2131 342.053 29.4631C341.224 28.7074 340.809 27.7045 340.809 26.4545C340.809 25.4261 341.087 24.5256 341.644 23.7528C342.207 22.9801 342.971 22.3807 343.937 21.9545C344.903 21.5227 345.996 21.3068 347.218 21.3068C348.457 21.3068 349.542 21.5227 350.474 21.9545C351.411 22.3807 352.147 22.9744 352.681 23.7358C353.215 24.4915 353.491 25.3608 353.508 26.3438H350.465ZM363.554 20.7273L357.929 41.625H355.227L360.852 20.7273H363.554ZM375.145 26.3438C375.065 25.5994 374.73 25.0199 374.139 24.6051C373.554 24.1903 372.793 23.983 371.855 23.983C371.196 23.983 370.631 24.0824 370.159 24.2812C369.688 24.4801 369.327 24.75 369.077 25.0909C368.827 25.4318 368.699 25.821 368.693 26.2585C368.693 26.6222 368.776 26.9375 368.94 27.2045C369.111 27.4716 369.341 27.6989 369.631 27.8864C369.92 28.0682 370.241 28.2216 370.594 28.3466C370.946 28.4716 371.301 28.5767 371.659 28.6619L373.295 29.071C373.955 29.2244 374.588 29.4318 375.196 29.6932C375.81 29.9545 376.358 30.2841 376.841 30.6818C377.33 31.0795 377.716 31.5597 378 32.1222C378.284 32.6847 378.426 33.3437 378.426 34.0994C378.426 35.1222 378.165 36.0227 377.642 36.8011C377.119 37.5739 376.364 38.179 375.375 38.6165C374.392 39.0483 373.202 39.2642 371.804 39.2642C370.446 39.2642 369.267 39.054 368.267 38.6335C367.273 38.2131 366.494 37.5994 365.932 36.7926C365.375 35.9858 365.074 35.0028 365.028 33.8438H368.139C368.185 34.4517 368.372 34.9574 368.702 35.3608C369.031 35.7642 369.46 36.0653 369.989 36.2642C370.523 36.4631 371.119 36.5625 371.778 36.5625C372.466 36.5625 373.068 36.4602 373.585 36.2557C374.108 36.0455 374.517 35.7557 374.812 35.3864C375.108 35.0114 375.259 34.5739 375.264 34.0739C375.259 33.6193 375.125 33.2443 374.864 32.9489C374.602 32.6477 374.236 32.3977 373.764 32.1989C373.298 31.9943 372.753 31.8125 372.128 31.6534L370.142 31.142C368.705 30.7727 367.568 30.2131 366.733 29.4631C365.903 28.7074 365.489 27.7045 365.489 26.4545C365.489 25.4261 365.767 24.5256 366.324 23.7528C366.886 22.9801 367.651 22.3807 368.616 21.9545C369.582 21.5227 370.676 21.3068 371.898 21.3068C373.136 21.3068 374.222 21.5227 375.153 21.9545C376.091 22.3807 376.827 22.9744 377.361 23.7358C377.895 24.4915 378.17 25.3608 378.188 26.3438H375.145ZM396.185 27.4347H392.998C392.907 26.9119 392.739 26.4489 392.495 26.0455C392.251 25.6364 391.947 25.2898 391.583 25.0057C391.219 24.7216 390.805 24.5085 390.339 24.3665C389.879 24.2188 389.381 24.1449 388.847 24.1449C387.898 24.1449 387.058 24.3835 386.325 24.8608C385.592 25.3324 385.018 26.0256 384.603 26.9403C384.188 27.8494 383.981 28.9602 383.981 30.2727C383.981 31.608 384.188 32.733 384.603 33.6477C385.023 34.5568 385.597 35.2443 386.325 35.7102C387.058 36.1705 387.896 36.4006 388.839 36.4006C389.362 36.4006 389.85 36.3324 390.305 36.196C390.765 36.054 391.177 35.8466 391.54 35.5739C391.91 35.3011 392.219 34.9659 392.469 34.5682C392.725 34.1705 392.901 33.7159 392.998 33.2045L396.185 33.2216C396.066 34.0511 395.808 34.8295 395.41 35.5568C395.018 36.2841 394.504 36.9261 393.867 37.483C393.231 38.0341 392.487 38.4659 391.634 38.7784C390.782 39.0852 389.836 39.2386 388.796 39.2386C387.262 39.2386 385.893 38.8835 384.688 38.1733C383.484 37.4631 382.535 36.4375 381.842 35.0966C381.148 33.7557 380.802 32.1477 380.802 30.2727C380.802 28.392 381.151 26.7841 381.85 25.4489C382.549 24.108 383.501 23.0824 384.705 22.3722C385.91 21.6619 387.273 21.3068 388.796 21.3068C389.768 21.3068 390.671 21.4432 391.506 21.7159C392.342 21.9886 393.086 22.3892 393.739 22.9176C394.393 23.4403 394.93 24.0824 395.35 24.8438C395.776 25.5994 396.055 26.4631 396.185 27.4347ZM408.567 26.3438C408.487 25.5994 408.152 25.0199 407.561 24.6051C406.976 24.1903 406.214 23.983 405.277 23.983C404.618 23.983 404.053 24.0824 403.581 24.2812C403.109 24.4801 402.749 24.75 402.499 25.0909C402.249 25.4318 402.121 25.821 402.115 26.2585C402.115 26.6222 402.197 26.9375 402.362 27.2045C402.533 27.4716 402.763 27.6989 403.053 27.8864C403.342 28.0682 403.663 28.2216 404.016 28.3466C404.368 28.4716 404.723 28.5767 405.081 28.6619L406.717 29.071C407.376 29.2244 408.01 29.4318 408.618 29.6932C409.232 29.9545 409.78 30.2841 410.263 30.6818C410.751 31.0795 411.138 31.5597 411.422 32.1222C411.706 32.6847 411.848 33.3437 411.848 34.0994C411.848 35.1222 411.587 36.0227 411.064 36.8011C410.541 37.5739 409.786 38.179 408.797 38.6165C407.814 39.0483 406.624 39.2642 405.226 39.2642C403.868 39.2642 402.689 39.054 401.689 38.6335C400.695 38.2131 399.916 37.5994 399.354 36.7926C398.797 35.9858 398.496 35.0028 398.45 33.8438H401.561C401.607 34.4517 401.794 34.9574 402.124 35.3608C402.453 35.7642 402.882 36.0653 403.411 36.2642C403.945 36.4631 404.541 36.5625 405.2 36.5625C405.888 36.5625 406.49 36.4602 407.007 36.2557C407.53 36.0455 407.939 35.7557 408.234 35.3864C408.53 35.0114 408.68 34.5739 408.686 34.0739C408.68 33.6193 408.547 33.2443 408.286 32.9489C408.024 32.6477 407.658 32.3977 407.186 32.1989C406.72 31.9943 406.175 31.8125 405.55 31.6534L403.564 31.142C402.126 30.7727 400.99 30.2131 400.155 29.4631C399.325 28.7074 398.911 27.7045 398.911 26.4545C398.911 25.4261 399.189 24.5256 399.746 23.7528C400.308 22.9801 401.072 22.3807 402.038 21.9545C403.004 21.5227 404.098 21.3068 405.32 21.3068C406.558 21.3068 407.643 21.5227 408.575 21.9545C409.513 22.3807 410.249 22.9744 410.783 23.7358C411.317 24.4915 411.592 25.3608 411.609 26.3438H408.567ZM424.153 26.3438C424.073 25.5994 423.738 25.0199 423.147 24.6051C422.562 24.1903 421.8 23.983 420.863 23.983C420.204 23.983 419.638 24.0824 419.167 24.2812C418.695 24.4801 418.335 24.75 418.085 25.0909C417.835 25.4318 417.707 25.821 417.701 26.2585C417.701 26.6222 417.783 26.9375 417.948 27.2045C418.119 27.4716 418.349 27.6989 418.638 27.8864C418.928 28.0682 419.249 28.2216 419.602 28.3466C419.954 28.4716 420.309 28.5767 420.667 28.6619L422.303 29.071C422.962 29.2244 423.596 29.4318 424.204 29.6932C424.817 29.9545 425.366 30.2841 425.849 30.6818C426.337 31.0795 426.724 31.5597 427.008 32.1222C427.292 32.6847 427.434 33.3437 427.434 34.0994C427.434 35.1222 427.173 36.0227 426.65 36.8011C426.127 37.5739 425.371 38.179 424.383 38.6165C423.4 39.0483 422.21 39.2642 420.812 39.2642C419.454 39.2642 418.275 39.054 417.275 38.6335C416.281 38.2131 415.502 37.5994 414.94 36.7926C414.383 35.9858 414.082 35.0028 414.036 33.8438H417.147C417.192 34.4517 417.38 34.9574 417.71 35.3608C418.039 35.7642 418.468 36.0653 418.996 36.2642C419.531 36.4631 420.127 36.5625 420.786 36.5625C421.474 36.5625 422.076 36.4602 422.593 36.2557C423.116 36.0455 423.525 35.7557 423.82 35.3864C424.116 35.0114 424.266 34.5739 424.272 34.0739C424.266 33.6193 424.133 33.2443 423.871 32.9489C423.61 32.6477 423.244 32.3977 422.772 32.1989C422.306 31.9943 421.761 31.8125 421.136 31.6534L419.15 31.142C417.712 30.7727 416.576 30.2131 415.741 29.4631C414.911 28.7074 414.496 27.7045 414.496 26.4545C414.496 25.4261 414.775 24.5256 415.332 23.7528C415.894 22.9801 416.658 22.3807 417.624 21.9545C418.59 21.5227 419.684 21.3068 420.906 21.3068C422.144 21.3068 423.229 21.5227 424.161 21.9545C425.099 22.3807 425.835 22.9744 426.369 23.7358C426.903 24.4915 427.178 25.3608 427.195 26.3438H424.153ZM432.733 21.5455V23.2841C432.733 23.7841 432.636 24.304 432.443 24.8438C432.256 25.3778 431.997 25.8892 431.668 26.3778C431.338 26.8608 430.963 27.2756 430.543 27.6222L429.111 26.6932C429.423 26.2216 429.696 25.7131 429.929 25.1676C430.162 24.6165 430.278 23.9943 430.278 23.3011V21.5455H432.733ZM437.037 21.5455V23.2841C437.037 23.7841 436.94 24.304 436.747 24.8438C436.56 25.3778 436.301 25.8892 435.972 26.3778C435.642 26.8608 435.27 27.2756 434.855 27.6222L433.423 26.6932C433.73 26.2216 434 25.7131 434.233 25.1676C434.466 24.6165 434.582 23.9943 434.582 23.3011V21.5455H437.037Z" fill="#91B302"/>
<path fill-rule="evenodd" clip-rule="evenodd" d="M33.5591 67.7965L32.2668 64L30.9745 67.7965C30.6986 68.607 29.9374 69.152 29.0812 69.152L25.0019 69.152L28.2209 71.3844C28.9547 71.8933 29.2622 72.827 28.9744 73.6724L27.7262 77.3394L31.1271 74.9808C31.8125 74.5054 32.7211 74.5054 33.4066 74.9808L36.8074 77.3394L35.5592 73.6724C35.2715 72.827 35.579 71.8933 36.3128 71.3844L39.5318 69.152H35.4524C34.5962 69.152 33.835 68.607 33.5591 67.7965ZM33.2135 63.6778C32.9059 62.7741 31.6278 62.7741 31.3202 63.6778L30.0279 67.4742C29.8899 67.8795 29.5093 68.152 29.0812 68.152H25.0019C24.0219 68.152 23.6267 69.4153 24.432 69.9737L27.651 72.2062C28.0179 72.4606 28.1717 72.9274 28.0278 73.3501L26.7796 77.0171C26.4687 77.9303 27.5034 78.7108 28.2961 78.1611L31.6969 75.8025C32.0397 75.5648 32.494 75.5648 32.8367 75.8025L36.2376 78.1611C37.0302 78.7108 38.0649 77.9303 37.7541 77.0171L36.5059 73.3501C36.362 72.9274 36.5158 72.4606 36.8827 72.2062L40.1017 69.9737C40.9069 69.4153 40.5117 68.152 39.5318 68.152H35.4524C35.0243 68.152 34.6437 67.8795 34.5058 67.4742L33.2135 63.6778Z" fill="#68B587"/>
<path fill-rule="evenodd" clip-rule="evenodd" d="M33.5591 95.7965L32.2668 92L30.9745 95.7965C30.6986 96.607 29.9374 97.152 29.0812 97.152L25.0019 97.152L28.2209 99.3844C28.9547 99.8933 29.2622 100.827 28.9744 101.672L27.7262 105.339L31.1271 102.981C31.8125 102.505 32.7211 102.505 33.4066 102.981L36.8074 105.339L35.5592 101.672C35.2715 100.827 35.579 99.8933 36.3128 99.3844L39.5318 97.152H35.4524C34.5962 97.152 33.835 96.607 33.5591 95.7965ZM33.2135 91.6778C32.9059 90.7741 31.6278 90.7741 31.3202 91.6778L30.0279 95.4742C29.8899 95.8795 29.5093 96.152 29.0812 96.152H25.0019C24.0219 96.152 23.6267 97.4153 24.432 97.9737L27.651 100.206C28.0179 100.461 28.1717 100.927 28.0278 101.35L26.7796 105.017C26.4687 105.93 27.5034 106.711 28.2961 106.161L31.6969 103.803C32.0397 103.565 32.494 103.565 32.8367 103.803L36.2376 106.161C37.0302 106.711 38.0649 105.93 37.7541 105.017L36.5059 101.35C36.362 100.927 36.5158 100.461 36.8827 100.206L40.1017 97.9737C40.9069 97.4153 40.5117 96.152 39.5318 96.152H35.4524C35.0243 96.152 34.6437 95.8795 34.5058 95.4742L33.2135 91.6778Z" fill="#68B587"/>
<path fill-rule="evenodd" clip-rule="evenodd" d="M33.5591 122.796L32.2668 119L30.9745 122.796C30.6986 123.607 29.9374 124.152 29.0812 124.152L25.0019 124.152L28.2209 126.384C28.9547 126.893 29.2622 127.827 28.9744 128.672L27.7262 132.339L31.1271 129.981C31.8125 129.505 32.7211 129.505 33.4066 129.981L36.8074 132.339L35.5592 128.672C35.2715 127.827 35.579 126.893 36.3128 126.384L39.5318 124.152H35.4524C34.5962 124.152 33.835 123.607 33.5591 122.796ZM33.2135 118.678C32.9059 117.774 31.6278 117.774 31.3202 118.678L30.0279 122.474C29.8899 122.879 29.5093 123.152 29.0812 123.152H25.0019C24.0219 123.152 23.6267 124.415 24.432 124.974L27.651 127.206C28.0179 127.461 28.1717 127.927 28.0278 128.35L26.7796 132.017C26.4687 132.93 27.5034 133.711 28.2961 133.161L31.6969 130.803C32.0397 130.565 32.494 130.565 32.8367 130.803L36.2376 133.161C37.0302 133.711 38.0649 132.93 37.7541 132.017L36.5059 128.35C36.362 127.927 36.5158 127.461 36.8827 127.206L40.1017 124.974C40.9069 124.415 40.5117 123.152 39.5318 123.152H35.4524C35.0243 123.152 34.6437 122.879 34.5058 122.474L33.2135 118.678Z" fill="#68B587"/>
<path fill-rule="evenodd" clip-rule="evenodd" d="M33.5591 150.796L32.2668 147L30.9745 150.796C30.6986 151.607 29.9374 152.152 29.0812 152.152L25.0019 152.152L28.2209 154.384C28.9547 154.893 29.2622 155.827 28.9744 156.672L27.7262 160.339L31.1271 157.981C31.8125 157.505 32.7211 157.505 33.4066 157.981L36.8074 160.339L35.5592 156.672C35.2715 155.827 35.579 154.893 36.3128 154.384L39.5318 152.152H35.4524C34.5962 152.152 33.835 151.607 33.5591 150.796ZM33.2135 146.678C32.9059 145.774 31.6278 145.774 31.3202 146.678L30.0279 150.474C29.8899 150.879 29.5093 151.152 29.0812 151.152H25.0019C24.0219 151.152 23.6267 152.415 24.432 152.974L27.651 155.206C28.0179 155.461 28.1717 155.927 28.0278 156.35L26.7796 160.017C26.4687 160.93 27.5034 161.711 28.2961 161.161L31.6969 158.803C32.0397 158.565 32.494 158.565 32.8367 158.803L36.2376 161.161C37.0302 161.711 38.0649 160.93 37.7541 160.017L36.5059 156.35C36.362 155.927 36.5158 155.461 36.8827 155.206L40.1017 152.974C40.9069 152.415 40.5117 151.152 39.5318 151.152H35.4524C35.0243 151.152 34.6437 150.879 34.5058 150.474L33.2135 146.678Z" fill="#68B587"/>
<path d="M62.299 69.8182L59.3853 78H57.2546L54.3409 69.8182H56.397L58.2773 75.896H58.3626L60.2482 69.8182H62.299ZM65.7534 78.1651C65.2349 78.1651 64.7679 78.0728 64.3525 77.8881C63.9405 77.6999 63.6138 77.4229 63.3723 77.0572C63.1344 76.6914 63.0154 76.2404 63.0154 75.7042C63.0154 75.2425 63.1007 74.8608 63.2711 74.5589C63.4416 74.2571 63.6742 74.0156 63.9689 73.8345C64.2637 73.6534 64.5957 73.5167 64.965 73.4244C65.3379 73.3285 65.7232 73.2592 66.1209 73.2166C66.6003 73.1669 66.9892 73.1225 67.2875 73.0835C67.5858 73.0408 67.8024 72.9769 67.9373 72.8917C68.0758 72.8029 68.1451 72.6662 68.1451 72.4815V72.4496C68.1451 72.0483 68.0261 71.7376 67.7882 71.5174C67.5502 71.2972 67.2076 71.1871 66.7601 71.1871C66.2878 71.1871 65.9132 71.2901 65.6362 71.4961C65.3627 71.7021 65.1781 71.9453 65.0822 72.2259L63.2818 71.9702C63.4238 71.473 63.6582 71.0575 63.9849 70.7237C64.3116 70.3864 64.7111 70.1342 65.1834 69.9673C65.6557 69.7969 66.1777 69.7116 66.7495 69.7116C67.1436 69.7116 67.536 69.7578 67.9267 69.8501C68.3173 69.9425 68.6742 70.0952 68.9973 70.3082C69.3205 70.5178 69.5797 70.8036 69.775 71.1658C69.9739 71.5281 70.0733 71.9808 70.0733 72.5241V78H68.2196V76.8761H68.1557C68.0385 77.1033 67.8734 77.3164 67.6603 77.5153C67.4508 77.7106 67.1863 77.8686 66.8667 77.9893C66.5506 78.1065 66.1795 78.1651 65.7534 78.1651ZM66.2541 76.7482C66.6412 76.7482 66.9767 76.6719 67.2608 76.5192C67.5449 76.3629 67.7633 76.157 67.916 75.9013C68.0723 75.6456 68.1504 75.3668 68.1504 75.065V74.1009C68.09 74.1506 67.987 74.1967 67.8414 74.2393C67.6994 74.282 67.5396 74.3192 67.362 74.3512C67.1845 74.3832 67.0087 74.4116 66.8347 74.4364C66.6607 74.4613 66.5098 74.4826 66.3819 74.5004C66.0943 74.5394 65.8368 74.6033 65.6096 74.6921C65.3823 74.7809 65.2029 74.9052 65.0716 75.065C64.9402 75.2212 64.8745 75.4237 64.8745 75.6722C64.8745 76.0273 65.0041 76.2955 65.2633 76.4766C65.5225 76.6577 65.8528 76.7482 66.2541 76.7482ZM72.0123 78V69.8182H73.8819V71.1818H73.9672C74.1163 70.7095 74.372 70.3455 74.7342 70.0898C75.1 69.8306 75.5172 69.701 75.986 69.701C76.0925 69.701 76.2115 69.7063 76.3429 69.717C76.4778 69.7241 76.5897 69.7365 76.6784 69.7543V71.5281C76.5968 71.4996 76.4672 71.4748 76.2896 71.4535C76.1156 71.4286 75.9469 71.4162 75.7836 71.4162C75.432 71.4162 75.1159 71.4925 74.8354 71.6452C74.5584 71.7944 74.34 72.0021 74.1802 72.2685C74.0204 72.5348 73.9405 72.842 73.9405 73.19V78H72.0123ZM77.9595 78V69.8182H79.8878V78H77.9595ZM78.929 68.657C78.6236 68.657 78.3608 68.5558 78.1406 68.3533C77.9205 68.1474 77.8104 67.9006 77.8104 67.6129C77.8104 67.3217 77.9205 67.0749 78.1406 66.8725C78.3608 66.6665 78.6236 66.5636 78.929 66.5636C79.2379 66.5636 79.5007 66.6665 79.7173 66.8725C79.9375 67.0749 80.0476 67.3217 80.0476 67.6129C80.0476 67.9006 79.9375 68.1474 79.7173 68.3533C79.5007 68.5558 79.2379 68.657 78.929 68.657ZM84.2251 78.1651C83.7066 78.1651 83.2396 78.0728 82.8241 77.8881C82.4122 77.6999 82.0855 77.4229 81.844 77.0572C81.6061 76.6914 81.4871 76.2404 81.4871 75.7042C81.4871 75.2425 81.5724 74.8608 81.7428 74.5589C81.9133 74.2571 82.1459 74.0156 82.4406 73.8345C82.7354 73.6534 83.0674 73.5167 83.4367 73.4244C83.8096 73.3285 84.1949 73.2592 84.5926 73.2166C85.072 73.1669 85.4608 73.1225 85.7591 73.0835C86.0574 73.0408 86.2741 72.9769 86.409 72.8917C86.5475 72.8029 86.6167 72.6662 86.6167 72.4815V72.4496C86.6167 72.0483 86.4978 71.7376 86.2599 71.5174C86.0219 71.2972 85.6792 71.1871 85.2318 71.1871C84.7595 71.1871 84.3849 71.2901 84.1079 71.4961C83.8344 71.7021 83.6498 71.9453 83.5539 72.2259L81.7535 71.9702C81.8955 71.473 82.1299 71.0575 82.4566 70.7237C82.7833 70.3864 83.1828 70.1342 83.6551 69.9673C84.1274 69.7969 84.6494 69.7116 85.2211 69.7116C85.6153 69.7116 86.0077 69.7578 86.3983 69.8501C86.789 69.9425 87.1459 70.0952 87.469 70.3082C87.7922 70.5178 88.0514 70.8036 88.2467 71.1658C88.4456 71.5281 88.545 71.9808 88.545 72.5241V78H86.6913V76.8761H86.6274C86.5102 77.1033 86.3451 77.3164 86.132 77.5153C85.9225 77.7106 85.6579 77.8686 85.3383 77.9893C85.0223 78.1065 84.6512 78.1651 84.2251 78.1651ZM84.7258 76.7482C85.1128 76.7482 85.4484 76.6719 85.7325 76.5192C86.0166 76.3629 86.235 76.157 86.3877 75.9013C86.5439 75.6456 86.6221 75.3668 86.6221 75.065V74.1009C86.5617 74.1506 86.4587 74.1967 86.3131 74.2393C86.1711 74.282 86.0113 74.3192 85.8337 74.3512C85.6562 74.3832 85.4804 74.4116 85.3064 74.4364C85.1324 74.4613 84.9814 74.4826 84.8536 74.5004C84.566 74.5394 84.3085 74.6033 84.0812 74.6921C83.854 74.7809 83.6746 74.9052 83.5432 75.065C83.4118 75.2212 83.3461 75.4237 83.3461 75.6722C83.3461 76.0273 83.4758 76.2955 83.735 76.4766C83.9942 76.6577 84.3245 76.7482 84.7258 76.7482ZM90.5692 78V67.0909H92.4974V71.1712H92.5773C92.6768 70.9723 92.817 70.761 92.9981 70.5373C93.1792 70.31 93.4243 70.1165 93.7332 69.9567C94.0422 69.7933 94.4363 69.7116 94.9157 69.7116C95.5479 69.7116 96.1178 69.8732 96.6256 70.1964C97.137 70.516 97.5418 70.9901 97.8401 71.6186C98.142 72.2436 98.2929 73.0107 98.2929 73.9197C98.2929 74.8182 98.1455 75.5817 97.8508 76.2102C97.556 76.8388 97.1547 77.3182 96.6469 77.6484C96.1391 77.9787 95.5638 78.1438 94.9211 78.1438C94.4523 78.1438 94.0635 78.0657 93.7545 77.9094C93.4456 77.7532 93.197 77.565 93.0088 77.3448C92.8241 77.1211 92.6803 76.9098 92.5773 76.7109H92.4655V78H90.5692ZM92.4601 73.9091C92.4601 74.4382 92.5347 74.9016 92.6839 75.2994C92.8366 75.6971 93.055 76.0078 93.339 76.2315C93.6267 76.4517 93.9747 76.5618 94.3831 76.5618C94.8092 76.5618 95.1661 76.4482 95.4537 76.2209C95.7414 75.9901 95.958 75.6758 96.1036 75.2781C96.2528 74.8768 96.3273 74.4205 96.3273 73.9091C96.3273 73.4013 96.2545 72.9503 96.1089 72.5561C95.9633 72.1619 95.7467 71.853 95.4591 71.6293C95.1714 71.4055 94.8128 71.2937 94.3831 71.2937C93.9711 71.2937 93.6214 71.402 93.3337 71.6186C93.0461 71.8352 92.8277 72.1388 92.6785 72.5295C92.5329 72.9201 92.4601 73.38 92.4601 73.9091ZM101.86 67.0909V78H99.9322V67.0909H101.86ZM107.465 78.1598C106.645 78.1598 105.937 77.9893 105.34 77.6484C104.747 77.304 104.291 76.8175 103.971 76.1889C103.652 75.5568 103.492 74.8129 103.492 73.957C103.492 73.1154 103.652 72.3768 103.971 71.7411C104.294 71.1019 104.745 70.6048 105.324 70.2496C105.903 69.891 106.583 69.7116 107.364 69.7116C107.869 69.7116 108.344 69.7933 108.792 69.9567C109.243 70.1165 109.641 70.3651 109.985 70.7024C110.333 71.0398 110.606 71.4695 110.805 71.9915C111.004 72.5099 111.104 73.1278 111.104 73.8452V74.4364H104.397V73.1367H109.255C109.252 72.7674 109.172 72.4389 109.016 72.1513C108.859 71.8601 108.641 71.631 108.36 71.4641C108.083 71.2972 107.76 71.2138 107.391 71.2138C106.997 71.2138 106.65 71.3097 106.352 71.5014C106.054 71.6896 105.821 71.9382 105.654 72.2472C105.491 72.5526 105.408 72.8881 105.404 73.2539V74.3885C105.404 74.8643 105.491 75.2727 105.665 75.6136C105.839 75.951 106.082 76.2102 106.395 76.3913C106.707 76.5689 107.073 76.6577 107.492 76.6577C107.773 76.6577 108.027 76.6186 108.254 76.5405C108.481 76.4588 108.678 76.3398 108.845 76.1836C109.012 76.0273 109.138 75.8338 109.223 75.603L111.024 75.8054C110.91 76.2812 110.693 76.6967 110.374 77.0518C110.058 77.4034 109.653 77.6768 109.159 77.8722C108.666 78.0639 108.101 78.1598 107.465 78.1598ZM119.202 71.9808L117.444 72.1726C117.394 71.995 117.307 71.8281 117.183 71.6719C117.062 71.5156 116.899 71.3896 116.693 71.2937C116.487 71.1978 116.235 71.1499 115.936 71.1499C115.535 71.1499 115.198 71.2369 114.924 71.4109C114.654 71.5849 114.521 71.8104 114.525 72.0874C114.521 72.3253 114.608 72.5188 114.786 72.668C114.967 72.8171 115.265 72.9396 115.681 73.0355L117.076 73.3338C117.85 73.5007 118.426 73.7653 118.802 74.1275C119.182 74.4897 119.374 74.9638 119.377 75.5497C119.374 76.0646 119.223 76.5192 118.925 76.9134C118.63 77.304 118.22 77.6094 117.694 77.8295C117.169 78.0497 116.565 78.1598 115.883 78.1598C114.882 78.1598 114.075 77.9503 113.465 77.5312C112.854 77.1087 112.49 76.521 112.373 75.7681L114.253 75.587C114.338 75.9563 114.519 76.2351 114.796 76.4233C115.073 76.6115 115.434 76.7056 115.878 76.7056C116.336 76.7056 116.703 76.6115 116.98 76.4233C117.261 76.2351 117.401 76.0025 117.401 75.7255C117.401 75.4911 117.311 75.2976 117.129 75.1449C116.952 74.9922 116.675 74.875 116.298 74.7933L114.903 74.5004C114.118 74.337 113.537 74.0618 113.161 73.6747C112.785 73.2841 112.598 72.7905 112.602 72.1939C112.598 71.6896 112.735 71.2528 113.012 70.8835C113.292 70.5107 113.681 70.223 114.178 70.0206C114.679 69.8146 115.256 69.7116 115.91 69.7116C116.868 69.7116 117.623 69.9158 118.173 70.3242C118.727 70.7326 119.07 71.2848 119.202 71.9808Z" fill="#68B587"/>
<path d="M54.9908 106V97.8182H56.8338V99.2085H56.9297C57.1001 98.7397 57.3825 98.3739 57.7766 98.1112C58.1708 97.8448 58.6413 97.7116 59.1882 97.7116C59.7422 97.7116 60.2092 97.8466 60.5891 98.1165C60.9727 98.3828 61.2425 98.7468 61.3988 99.2085H61.484C61.6651 98.7539 61.9705 98.3917 62.4002 98.1218C62.8335 97.8484 63.3466 97.7116 63.9396 97.7116C64.6925 97.7116 65.3068 97.9496 65.7827 98.4254C66.2585 98.9013 66.4964 99.5955 66.4964 100.508V106H64.5629V100.806C64.5629 100.299 64.4279 99.9276 64.158 99.6932C63.8881 99.4553 63.5579 99.3363 63.1673 99.3363C62.7021 99.3363 62.3381 99.4819 62.0753 99.7731C61.8161 100.061 61.6864 100.435 61.6864 100.897V106H59.7955V100.727C59.7955 100.304 59.6676 99.9666 59.4119 99.7145C59.1598 99.4624 58.8295 99.3363 58.4212 99.3363C58.1442 99.3363 57.892 99.4073 57.6648 99.5494C57.4375 99.6879 57.2564 99.8849 57.1214 100.141C56.9865 100.393 56.919 100.687 56.919 101.025V106H54.9908ZM68.4527 106V97.8182H70.3809V106H68.4527ZM69.4221 96.657C69.1167 96.657 68.854 96.5558 68.6338 96.3533C68.4136 96.1474 68.3035 95.9006 68.3035 95.6129C68.3035 95.3217 68.4136 95.0749 68.6338 94.8725C68.854 94.6665 69.1167 94.5636 69.4221 94.5636C69.7311 94.5636 69.9939 94.6665 70.2105 94.8725C70.4307 95.0749 70.5407 95.3217 70.5407 95.6129C70.5407 95.9006 70.4307 96.1474 70.2105 96.3533C69.9939 96.5558 69.7311 96.657 69.4221 96.657ZM73.9405 97.8182L75.5918 100.838L77.2697 97.8182H79.3098L76.8436 101.909L79.3525 106H77.323L75.5918 103.054L73.8766 106H71.8311L74.324 101.909L71.8951 97.8182H73.9405ZM80.8013 106V97.8182H82.7296V106H80.8013ZM81.7708 96.657C81.4654 96.657 81.2026 96.5558 80.9824 96.3533C80.7623 96.1474 80.6522 95.9006 80.6522 95.6129C80.6522 95.3217 80.7623 95.0749 80.9824 94.8725C81.2026 94.6665 81.4654 94.5636 81.7708 94.5636C82.0797 94.5636 82.3425 94.6665 82.5591 94.8725C82.7793 95.0749 82.8894 95.3217 82.8894 95.6129C82.8894 95.9006 82.7793 96.1474 82.5591 96.3533C82.3425 96.5558 82.0797 96.657 81.7708 96.657ZM86.6407 101.206V106H84.7124V97.8182H86.5555V99.2085H86.6514C86.8396 98.7504 87.1396 98.3864 87.5516 98.1165C87.9671 97.8466 88.4802 97.7116 89.091 97.7116C89.6556 97.7116 90.1475 97.8324 90.5665 98.0739C90.9891 98.3153 91.3158 98.6651 91.5466 99.1232C91.781 99.5813 91.8964 100.137 91.8928 100.79V106H89.9646V101.089C89.9646 100.542 89.8225 100.114 89.5384 99.805C89.2579 99.4961 88.8691 99.3416 88.3719 99.3416C88.0345 99.3416 87.7345 99.4162 87.4717 99.5653C87.2124 99.7109 87.0083 99.9222 86.8591 100.199C86.7135 100.476 86.6407 100.812 86.6407 101.206ZM100.32 99.9808L98.5619 100.173C98.5122 99.995 98.4252 99.8281 98.3009 99.6719C98.1801 99.5156 98.0168 99.3896 97.8108 99.2937C97.6048 99.1978 97.3527 99.1499 97.0544 99.1499C96.6531 99.1499 96.3158 99.2369 96.0423 99.4109C95.7725 99.5849 95.6393 99.8104 95.6428 100.087C95.6393 100.325 95.7263 100.519 95.9039 100.668C96.085 100.817 96.3833 100.94 96.7987 101.036L98.1943 101.334C98.9685 101.501 99.5438 101.765 99.9202 102.127C100.3 102.49 100.492 102.964 100.495 103.55C100.492 104.065 100.341 104.519 100.043 104.913C99.748 105.304 99.3378 105.609 98.8122 105.83C98.2867 106.05 97.683 106.16 97.0012 106.16C95.9997 106.16 95.1936 105.95 94.5828 105.531C93.972 105.109 93.608 104.521 93.4909 103.768L95.3712 103.587C95.4564 103.956 95.6375 104.235 95.9145 104.423C96.1915 104.612 96.5519 104.706 96.9958 104.706C97.4539 104.706 97.8215 104.612 98.0985 104.423C98.379 104.235 98.5193 104.002 98.5193 103.725C98.5193 103.491 98.4287 103.298 98.2476 103.145C98.07 102.992 97.7931 102.875 97.4166 102.793L96.021 102.5C95.2362 102.337 94.6556 102.062 94.2792 101.675C93.9028 101.284 93.7164 100.79 93.7199 100.194C93.7164 99.6896 93.8531 99.2528 94.1301 98.8835C94.4106 98.5107 94.7994 98.223 95.2966 98.0206C95.7973 97.8146 96.3744 97.7116 97.0278 97.7116C97.9866 97.7116 98.7412 97.9158 99.2916 98.3242C99.8456 98.7326 100.188 99.2848 100.32 99.9808Z" fill="#68B587"/>
<path d="M56.919 128.206V133H54.9908V124.818H56.8338V126.208H56.9297C57.1179 125.75 57.418 125.386 57.8299 125.116C58.2454 124.847 58.7585 124.712 59.3693 124.712C59.9339 124.712 60.4258 124.832 60.8448 125.074C61.2674 125.315 61.5941 125.665 61.8249 126.123C62.0593 126.581 62.1747 127.137 62.1712 127.79V133H60.2429V128.089C60.2429 127.542 60.1009 127.114 59.8168 126.805C59.5362 126.496 59.1474 126.342 58.6502 126.342C58.3129 126.342 58.0128 126.416 57.75 126.565C57.4908 126.711 57.2866 126.922 57.1374 127.199C56.9918 127.476 56.919 127.812 56.919 128.206ZM67.7536 133.16C66.9332 133.16 66.2248 132.989 65.6282 132.648C65.0352 132.304 64.5788 131.817 64.2592 131.189C63.9396 130.557 63.7798 129.813 63.7798 128.957C63.7798 128.115 63.9396 127.377 64.2592 126.741C64.5824 126.102 65.0334 125.605 65.6122 125.25C66.1911 124.891 66.8711 124.712 67.6523 124.712C68.1566 124.712 68.6325 124.793 69.0799 124.957C69.5309 125.116 69.9286 125.365 70.2731 125.702C70.6211 126.04 70.8945 126.469 71.0934 126.991C71.2923 127.51 71.3917 128.128 71.3917 128.845V129.436H64.6854V128.137H69.5433C69.5398 127.767 69.4599 127.439 69.3036 127.151C69.1474 126.86 68.929 126.631 68.6484 126.464C68.3714 126.297 68.0483 126.214 67.679 126.214C67.2848 126.214 66.9386 126.31 66.6403 126.501C66.342 126.69 66.1094 126.938 65.9425 127.247C65.7791 127.553 65.6957 127.888 65.6921 128.254V129.388C65.6921 129.864 65.7791 130.273 65.9531 130.614C66.1271 130.951 66.3704 131.21 66.6829 131.391C66.9954 131.569 67.3612 131.658 67.7802 131.658C68.0607 131.658 68.3146 131.619 68.5419 131.54C68.7692 131.459 68.9663 131.34 69.1332 131.184C69.3001 131.027 69.4261 130.834 69.5114 130.603L71.3118 130.805C71.1982 131.281 70.9815 131.697 70.6619 132.052C70.3459 132.403 69.9411 132.677 69.4474 132.872C68.9538 133.064 68.3892 133.16 67.7536 133.16ZM79.4896 126.981L77.7318 127.173C77.6821 126.995 77.5951 126.828 77.4708 126.672C77.3501 126.516 77.1867 126.39 76.9807 126.294C76.7748 126.198 76.5226 126.15 76.2243 126.15C75.8231 126.15 75.4857 126.237 75.2123 126.411C74.9424 126.585 74.8092 126.81 74.8128 127.087C74.8092 127.325 74.8962 127.519 75.0738 127.668C75.2549 127.817 75.5532 127.94 75.9687 128.036L77.3643 128.334C78.1384 128.501 78.7137 128.765 79.0901 129.127C79.4701 129.49 79.6618 129.964 79.6654 130.55C79.6618 131.065 79.5109 131.519 79.2126 131.913C78.9179 132.304 78.5077 132.609 77.9822 132.83C77.4566 133.05 76.8529 133.16 76.1711 133.16C75.1697 133.16 74.3635 132.95 73.7528 132.531C73.142 132.109 72.778 131.521 72.6608 130.768L74.5411 130.587C74.6263 130.956 74.8074 131.235 75.0844 131.423C75.3614 131.612 75.7219 131.706 76.1657 131.706C76.6238 131.706 76.9914 131.612 77.2684 131.423C77.5489 131.235 77.6892 131.002 77.6892 130.725C77.6892 130.491 77.5986 130.298 77.4175 130.145C77.24 129.992 76.963 129.875 76.5866 129.793L75.191 129.5C74.4062 129.337 73.8256 129.062 73.4491 128.675C73.0727 128.284 72.8863 127.79 72.8898 127.194C72.8863 126.69 73.023 126.253 73.3 125.884C73.5805 125.511 73.9694 125.223 74.4665 125.021C74.9672 124.815 75.5443 124.712 76.1977 124.712C77.1565 124.712 77.9111 124.916 78.4616 125.324C79.0155 125.733 79.3582 126.285 79.4896 126.981ZM85.341 124.818V126.31H80.6375V124.818H85.341ZM81.7987 122.858H83.727V130.539C83.727 130.798 83.7661 130.997 83.8442 131.136C83.9259 131.271 84.0324 131.363 84.1638 131.413C84.2952 131.462 84.4408 131.487 84.6006 131.487C84.7213 131.487 84.8314 131.478 84.9308 131.461C85.0338 131.443 85.1119 131.427 85.1652 131.413L85.4901 132.92C85.3872 132.956 85.2398 132.995 85.048 133.037C84.8598 133.08 84.629 133.105 84.3556 133.112C83.8726 133.126 83.4376 133.053 83.0505 132.893C82.6634 132.73 82.3563 132.478 82.129 132.137C81.9053 131.796 81.7952 131.37 81.7987 130.859V122.858ZM86.9537 133V124.818H88.8819V133H86.9537ZM87.9231 123.657C87.6177 123.657 87.3549 123.556 87.1348 123.353C86.9146 123.147 86.8045 122.901 86.8045 122.613C86.8045 122.322 86.9146 122.075 87.1348 121.873C87.3549 121.667 87.6177 121.564 87.9231 121.564C88.2321 121.564 88.4949 121.667 88.7115 121.873C88.9316 122.075 89.0417 122.322 89.0417 122.613C89.0417 122.901 88.9316 123.147 88.7115 123.353C88.4949 123.556 88.2321 123.657 87.9231 123.657ZM92.7931 128.206V133H90.8648V124.818H92.7078V126.208H92.8037C92.9919 125.75 93.292 125.386 93.7039 125.116C94.1194 124.847 94.6325 124.712 95.2433 124.712C95.808 124.712 96.2998 124.832 96.7188 125.074C97.1414 125.315 97.4681 125.665 97.699 126.123C97.9333 126.581 98.0487 127.137 98.0452 127.79V133H96.1169V128.089C96.1169 127.542 95.9749 127.114 95.6908 126.805C95.4102 126.496 95.0214 126.342 94.5242 126.342C94.1869 126.342 93.8868 126.416 93.624 126.565C93.3648 126.711 93.1606 126.922 93.0115 127.199C92.8659 127.476 92.7931 127.812 92.7931 128.206ZM103.564 136.239C102.871 136.239 102.276 136.145 101.779 135.956C101.282 135.772 100.883 135.523 100.581 135.211C100.279 134.898 100.069 134.552 99.9521 134.172L101.689 133.751C101.767 133.911 101.88 134.069 102.03 134.225C102.179 134.385 102.379 134.516 102.631 134.619C102.887 134.726 103.209 134.779 103.596 134.779C104.142 134.779 104.595 134.646 104.954 134.38C105.313 134.117 105.492 133.684 105.492 133.08V131.53H105.396C105.297 131.729 105.151 131.933 104.959 132.142C104.771 132.352 104.521 132.528 104.208 132.67C103.899 132.812 103.51 132.883 103.042 132.883C102.413 132.883 101.843 132.735 101.332 132.441C100.824 132.142 100.419 131.699 100.117 131.109C99.819 130.516 99.6698 129.774 99.6698 128.882C99.6698 127.984 99.819 127.226 100.117 126.608C100.419 125.987 100.826 125.516 101.337 125.196C101.848 124.873 102.418 124.712 103.047 124.712C103.526 124.712 103.921 124.793 104.229 124.957C104.542 125.116 104.791 125.31 104.975 125.537C105.16 125.761 105.3 125.972 105.396 126.171H105.503V124.818H107.404V133.133C107.404 133.833 107.237 134.412 106.903 134.87C106.57 135.328 106.113 135.67 105.535 135.898C104.956 136.125 104.299 136.239 103.564 136.239ZM103.58 131.37C103.988 131.37 104.336 131.271 104.624 131.072C104.911 130.873 105.13 130.587 105.279 130.214C105.428 129.841 105.503 129.394 105.503 128.872C105.503 128.357 105.428 127.906 105.279 127.519C105.133 127.132 104.917 126.832 104.629 126.619C104.345 126.402 103.995 126.294 103.58 126.294C103.15 126.294 102.791 126.406 102.504 126.629C102.216 126.853 101.999 127.16 101.854 127.551C101.708 127.938 101.635 128.378 101.635 128.872C101.635 129.373 101.708 129.811 101.854 130.188C102.003 130.56 102.221 130.852 102.509 131.061C102.8 131.267 103.157 131.37 103.58 131.37Z" fill="#68B587"/>
<path d="M57.0522 147.091V158H55.076V147.091H57.0522ZM66.9133 149.818V151.31H62.2098V149.818H66.9133ZM63.371 147.858H65.2993V155.539C65.2993 155.798 65.3383 155.997 65.4165 156.136C65.4981 156.271 65.6047 156.363 65.7361 156.413C65.8675 156.462 66.0131 156.487 66.1729 156.487C66.2936 156.487 66.4037 156.478 66.5031 156.461C66.6061 156.443 66.6842 156.427 66.7375 156.413L67.0624 157.92C66.9594 157.956 66.8121 157.995 66.6203 158.037C66.4321 158.08 66.2013 158.105 65.9278 158.112C65.4449 158.126 65.0099 158.053 64.6228 157.893C64.2357 157.73 63.9285 157.478 63.7013 157.137C63.4775 156.796 63.3675 156.37 63.371 155.859V147.858ZM70.63 153.206V158H68.7017V147.091H70.5874V151.208H70.6832C70.875 150.747 71.1715 150.383 71.5728 150.116C71.9776 149.847 72.4925 149.712 73.1175 149.712C73.6857 149.712 74.1811 149.831 74.6037 150.069C75.0263 150.306 75.353 150.654 75.5838 151.113C75.8182 151.571 75.9354 152.13 75.9354 152.79V158H74.0071V153.089C74.0071 152.538 73.8651 152.11 73.581 151.805C73.3004 151.496 72.9062 151.342 72.3984 151.342C72.0575 151.342 71.7521 151.416 71.4822 151.565C71.2159 151.711 71.0064 151.922 70.8537 152.199C70.7045 152.476 70.63 152.812 70.63 153.206ZM81.4698 158.16C80.6708 158.16 79.9783 157.984 79.3924 157.632C78.8065 157.281 78.3519 156.789 78.0288 156.157C77.7092 155.525 77.5494 154.786 77.5494 153.941C77.5494 153.096 77.7092 152.355 78.0288 151.72C78.3519 151.084 78.8065 150.591 79.3924 150.239C79.9783 149.887 80.6708 149.712 81.4698 149.712C82.2688 149.712 82.9613 149.887 83.5472 150.239C84.1332 150.591 84.5859 151.084 84.9055 151.72C85.2287 152.355 85.3903 153.096 85.3903 153.941C85.3903 154.786 85.2287 155.525 84.9055 156.157C84.5859 156.789 84.1332 157.281 83.5472 157.632C82.9613 157.984 82.2688 158.16 81.4698 158.16ZM81.4805 156.615C81.9137 156.615 82.2759 156.496 82.5671 156.258C82.8583 156.017 83.0749 155.694 83.217 155.289C83.3626 154.884 83.4354 154.433 83.4354 153.936C83.4354 153.435 83.3626 152.982 83.217 152.577C83.0749 152.169 82.8583 151.844 82.5671 151.603C82.2759 151.361 81.9137 151.24 81.4805 151.24C81.0366 151.24 80.6673 151.361 80.3725 151.603C80.0813 151.844 79.8629 152.169 79.7173 152.577C79.5753 152.982 79.5043 153.435 79.5043 153.936C79.5043 154.433 79.5753 154.884 79.7173 155.289C79.8629 155.694 80.0813 156.017 80.3725 156.258C80.6673 156.496 81.0366 156.615 81.4805 156.615ZM92.2417 154.559V149.818H94.17V158H92.3003V156.546H92.2151C92.0305 157.004 91.7268 157.379 91.3042 157.67C90.8852 157.961 90.3685 158.107 89.7542 158.107C89.218 158.107 88.7439 157.988 88.3319 157.75C87.9236 157.508 87.604 157.158 87.3731 156.7C87.1423 156.239 87.0269 155.681 87.0269 155.028V149.818H88.9552V154.729C88.9552 155.248 89.0972 155.66 89.3813 155.965C89.6654 156.271 90.0383 156.423 90.4999 156.423C90.784 156.423 91.0592 156.354 91.3256 156.216C91.5919 156.077 91.8103 155.871 91.9807 155.598C92.1547 155.321 92.2417 154.974 92.2417 154.559ZM99.7111 161.239C99.0186 161.239 98.4238 161.145 97.9267 160.956C97.4295 160.772 97.03 160.523 96.7282 160.211C96.4263 159.898 96.2168 159.552 96.0996 159.172L97.8361 158.751C97.9142 158.911 98.0279 159.069 98.177 159.225C98.3262 159.385 98.5268 159.516 98.7789 159.619C99.0346 159.726 99.356 159.779 99.7431 159.779C100.29 159.779 100.743 159.646 101.101 159.38C101.46 159.117 101.639 158.684 101.639 158.08V156.53H101.544C101.444 156.729 101.298 156.933 101.107 157.142C100.919 157.352 100.668 157.528 100.356 157.67C100.047 157.812 99.6578 157.883 99.1891 157.883C98.5605 157.883 97.9906 157.735 97.4792 157.441C96.9714 157.142 96.5666 156.699 96.2647 156.109C95.9664 155.516 95.8173 154.774 95.8173 153.882C95.8173 152.984 95.9664 152.226 96.2647 151.608C96.5666 150.987 96.9732 150.516 97.4846 150.196C97.9959 149.873 98.5659 149.712 99.1944 149.712C99.6738 149.712 100.068 149.793 100.377 149.957C100.689 150.116 100.938 150.31 101.123 150.537C101.307 150.761 101.448 150.972 101.544 151.171H101.65V149.818H103.552V158.133C103.552 158.833 103.385 159.412 103.051 159.87C102.717 160.328 102.261 160.67 101.682 160.898C101.103 161.125 100.446 161.239 99.7111 161.239ZM99.7271 156.37C100.135 156.37 100.483 156.271 100.771 156.072C101.059 155.873 101.277 155.587 101.426 155.214C101.575 154.841 101.65 154.394 101.65 153.872C101.65 153.357 101.575 152.906 101.426 152.519C101.281 152.132 101.064 151.832 100.776 151.619C100.492 151.402 100.143 151.294 99.7271 151.294C99.2974 151.294 98.9387 151.406 98.6511 151.629C98.3635 151.853 98.1468 152.16 98.0012 152.551C97.8556 152.938 97.7828 153.378 97.7828 153.872C97.7828 154.373 97.8556 154.811 98.0012 155.188C98.1504 155.56 98.3688 155.852 98.6564 156.061C98.9476 156.267 99.3045 156.37 99.7271 156.37ZM107.456 153.206V158H105.528V147.091H107.414V151.208H107.509C107.701 150.747 107.998 150.383 108.399 150.116C108.804 149.847 109.319 149.712 109.944 149.712C110.512 149.712 111.007 149.831 111.43 150.069C111.852 150.306 112.179 150.654 112.41 151.113C112.644 151.571 112.762 152.13 112.762 152.79V158H110.833V153.089C110.833 152.538 110.691 152.11 110.407 151.805C110.127 151.496 109.732 151.342 109.225 151.342C108.884 151.342 108.578 151.416 108.308 151.565C108.042 151.711 107.833 151.922 107.68 152.199C107.531 152.476 107.456 152.812 107.456 153.206ZM118.813 149.818V151.31H114.109V149.818H118.813ZM115.27 147.858H117.199V155.539C117.199 155.798 117.238 155.997 117.316 156.136C117.398 156.271 117.504 156.363 117.635 156.413C117.767 156.462 117.912 156.487 118.072 156.487C118.193 156.487 118.303 156.478 118.403 156.461C118.506 156.443 118.584 156.427 118.637 156.413L118.962 157.92C118.859 157.956 118.711 157.995 118.52 158.037C118.331 158.08 118.101 158.105 117.827 158.112C117.344 158.126 116.909 158.053 116.522 157.893C116.135 157.73 115.828 157.478 115.601 157.137C115.377 156.796 115.267 156.37 115.27 155.859V147.858ZM124.146 158V149.818H126.074V158H124.146ZM125.116 148.657C124.81 148.657 124.547 148.556 124.327 148.353C124.107 148.147 123.997 147.901 123.997 147.613C123.997 147.322 124.107 147.075 124.327 146.873C124.547 146.667 124.81 146.564 125.116 146.564C125.424 146.564 125.687 146.667 125.904 146.873C126.124 147.075 126.234 147.322 126.234 147.613C126.234 147.901 126.124 148.147 125.904 148.353C125.687 148.556 125.424 148.657 125.116 148.657ZM132.143 149.818V151.31H127.439V149.818H132.143ZM128.6 147.858H130.529V155.539C130.529 155.798 130.568 155.997 130.646 156.136C130.728 156.271 130.834 156.363 130.966 156.413C131.097 156.462 131.243 156.487 131.402 156.487C131.523 156.487 131.633 156.478 131.733 156.461C131.836 156.443 131.914 156.427 131.967 156.413L132.292 157.92C132.189 157.956 132.042 157.995 131.85 158.037C131.662 158.08 131.431 158.105 131.157 158.112C130.674 158.126 130.239 158.053 129.852 157.893C129.465 157.73 129.158 157.478 128.931 157.137C128.707 156.796 128.597 156.37 128.6 155.859V147.858ZM139.165 158L136.853 149.818H138.818L140.257 155.571H140.331L141.801 149.818H143.746L145.216 155.539H145.296L146.713 149.818H148.684L146.366 158H144.358L142.824 152.471H142.712L141.178 158H139.165ZM153.364 158.16C152.565 158.16 151.873 157.984 151.287 157.632C150.701 157.281 150.246 156.789 149.923 156.157C149.604 155.525 149.444 154.786 149.444 153.941C149.444 153.096 149.604 152.355 149.923 151.72C150.246 151.084 150.701 150.591 151.287 150.239C151.873 149.887 152.565 149.712 153.364 149.712C154.163 149.712 154.856 149.887 155.442 150.239C156.028 150.591 156.48 151.084 156.8 151.72C157.123 152.355 157.285 153.096 157.285 153.941C157.285 154.786 157.123 155.525 156.8 156.157C156.48 156.789 156.028 157.281 155.442 157.632C154.856 157.984 154.163 158.16 153.364 158.16ZM153.375 156.615C153.808 156.615 154.17 156.496 154.462 156.258C154.753 156.017 154.969 155.694 155.112 155.289C155.257 154.884 155.33 154.433 155.33 153.936C155.33 153.435 155.257 152.982 155.112 152.577C154.969 152.169 154.753 151.844 154.462 151.603C154.17 151.361 153.808 151.24 153.375 151.24C152.931 151.24 152.562 151.361 152.267 151.603C151.976 151.844 151.757 152.169 151.612 152.577C151.47 152.982 151.399 153.435 151.399 153.936C151.399 154.433 151.47 154.884 151.612 155.289C151.757 155.694 151.976 156.017 152.267 156.258C152.562 156.496 152.931 156.615 153.375 156.615ZM164.136 154.559V149.818H166.065V158H164.195V156.546H164.11C163.925 157.004 163.621 157.379 163.199 157.67C162.78 157.961 162.263 158.107 161.649 158.107C161.112 158.107 160.638 157.988 160.226 157.75C159.818 157.508 159.498 157.158 159.268 156.7C159.037 156.239 158.921 155.681 158.921 155.028V149.818H160.85V154.729C160.85 155.248 160.992 155.66 161.276 155.965C161.56 156.271 161.933 156.423 162.394 156.423C162.679 156.423 162.954 156.354 163.22 156.216C163.486 156.077 163.705 155.871 163.875 155.598C164.049 155.321 164.136 154.974 164.136 154.559ZM169.976 147.091V158H168.047V147.091H169.976ZM174.995 158.144C174.352 158.144 173.777 157.979 173.269 157.648C172.761 157.318 172.36 156.839 172.065 156.21C171.77 155.582 171.623 154.818 171.623 153.92C171.623 153.011 171.772 152.244 172.07 151.619C172.372 150.99 172.779 150.516 173.29 150.196C173.802 149.873 174.372 149.712 175 149.712C175.479 149.712 175.874 149.793 176.183 149.957C176.492 150.116 176.737 150.31 176.918 150.537C177.099 150.761 177.239 150.972 177.339 151.171H177.418V147.091H179.352V158H177.456V156.711H177.339C177.239 156.91 177.095 157.121 176.907 157.345C176.719 157.565 176.47 157.753 176.161 157.909C175.852 158.066 175.464 158.144 174.995 158.144ZM175.533 156.562C175.941 156.562 176.289 156.452 176.577 156.232C176.864 156.008 177.083 155.697 177.232 155.299C177.381 154.902 177.456 154.438 177.456 153.909C177.456 153.38 177.381 152.92 177.232 152.529C177.086 152.139 176.87 151.835 176.582 151.619C176.298 151.402 175.948 151.294 175.533 151.294C175.103 151.294 174.744 151.406 174.457 151.629C174.169 151.853 173.953 152.162 173.807 152.556C173.661 152.95 173.589 153.401 173.589 153.909C173.589 154.42 173.661 154.877 173.807 155.278C173.956 155.676 174.174 155.99 174.462 156.221C174.753 156.448 175.11 156.562 175.533 156.562ZM185.213 158V147.091H187.141V151.171H187.221C187.32 150.972 187.461 150.761 187.642 150.537C187.823 150.31 188.068 150.116 188.377 149.957C188.686 149.793 189.08 149.712 189.559 149.712C190.191 149.712 190.761 149.873 191.269 150.196C191.781 150.516 192.185 150.99 192.484 151.619C192.786 152.244 192.936 153.011 192.936 153.92C192.936 154.818 192.789 155.582 192.494 156.21C192.2 156.839 191.798 157.318 191.29 157.648C190.783 157.979 190.207 158.144 189.565 158.144C189.096 158.144 188.707 158.066 188.398 157.909C188.089 157.753 187.841 157.565 187.652 157.345C187.468 157.121 187.324 156.91 187.221 156.711H187.109V158H185.213ZM187.104 153.909C187.104 154.438 187.178 154.902 187.327 155.299C187.48 155.697 187.699 156.008 187.983 156.232C188.27 156.452 188.618 156.562 189.027 156.562C189.453 156.562 189.81 156.448 190.097 156.221C190.385 155.99 190.602 155.676 190.747 155.278C190.896 154.877 190.971 154.42 190.971 153.909C190.971 153.401 190.898 152.95 190.752 152.556C190.607 152.162 190.39 151.853 190.103 151.629C189.815 151.406 189.456 151.294 189.027 151.294C188.615 151.294 188.265 151.402 187.977 151.619C187.69 151.835 187.471 152.139 187.322 152.529C187.176 152.92 187.104 153.38 187.104 153.909ZM198.198 158.16C197.378 158.16 196.669 157.989 196.073 157.648C195.479 157.304 195.023 156.817 194.704 156.189C194.384 155.557 194.224 154.813 194.224 153.957C194.224 153.115 194.384 152.377 194.704 151.741C195.027 151.102 195.478 150.605 196.057 150.25C196.635 149.891 197.315 149.712 198.097 149.712C198.601 149.712 199.077 149.793 199.524 149.957C199.975 150.116 200.373 150.365 200.717 150.702C201.065 151.04 201.339 151.469 201.538 151.991C201.737 152.51 201.836 153.128 201.836 153.845V154.436H195.13V153.137H199.988C199.984 152.767 199.904 152.439 199.748 152.151C199.592 151.86 199.373 151.631 199.093 151.464C198.816 151.297 198.493 151.214 198.123 151.214C197.729 151.214 197.383 151.31 197.085 151.501C196.786 151.69 196.554 151.938 196.387 152.247C196.223 152.553 196.14 152.888 196.136 153.254V154.388C196.136 154.864 196.223 155.273 196.397 155.614C196.571 155.951 196.815 156.21 197.127 156.391C197.44 156.569 197.805 156.658 198.225 156.658C198.505 156.658 198.759 156.619 198.986 156.54C199.214 156.459 199.411 156.34 199.578 156.184C199.744 156.027 199.87 155.834 199.956 155.603L201.756 155.805C201.642 156.281 201.426 156.697 201.106 157.052C200.79 157.403 200.385 157.677 199.892 157.872C199.398 158.064 198.834 158.16 198.198 158.16ZM209.116 153.206V158H207.188V147.091H209.074V151.208H209.17C209.361 150.747 209.658 150.383 210.059 150.116C210.464 149.847 210.979 149.712 211.604 149.712C212.172 149.712 212.667 149.831 213.09 150.069C213.513 150.306 213.839 150.654 214.07 151.113C214.305 151.571 214.422 152.13 214.422 152.79V158H212.493V153.089C212.493 152.538 212.351 152.11 212.067 151.805C211.787 151.496 211.393 151.342 210.885 151.342C210.544 151.342 210.238 151.416 209.969 151.565C209.702 151.711 209.493 151.922 209.34 152.199C209.191 152.476 209.116 152.812 209.116 153.206ZM218.742 158.165C218.223 158.165 217.756 158.073 217.341 157.888C216.929 157.7 216.602 157.423 216.361 157.057C216.123 156.691 216.004 156.24 216.004 155.704C216.004 155.243 216.089 154.861 216.259 154.559C216.43 154.257 216.662 154.016 216.957 153.835C217.252 153.653 217.584 153.517 217.953 153.424C218.326 153.328 218.711 153.259 219.109 153.217C219.589 153.167 219.977 153.123 220.276 153.083C220.574 153.041 220.791 152.977 220.926 152.892C221.064 152.803 221.133 152.666 221.133 152.482V152.45C221.133 152.048 221.014 151.738 220.776 151.517C220.539 151.297 220.196 151.187 219.748 151.187C219.276 151.187 218.901 151.29 218.624 151.496C218.351 151.702 218.166 151.945 218.07 152.226L216.27 151.97C216.412 151.473 216.646 151.058 216.973 150.724C217.3 150.386 217.699 150.134 218.172 149.967C218.644 149.797 219.166 149.712 219.738 149.712C220.132 149.712 220.524 149.758 220.915 149.85C221.306 149.942 221.662 150.095 221.986 150.308C222.309 150.518 222.568 150.804 222.763 151.166C222.962 151.528 223.062 151.981 223.062 152.524V158H221.208V156.876H221.144C221.027 157.103 220.862 157.316 220.649 157.515C220.439 157.711 220.175 157.869 219.855 157.989C219.539 158.107 219.168 158.165 218.742 158.165ZM219.242 156.748C219.629 156.748 219.965 156.672 220.249 156.519C220.533 156.363 220.752 156.157 220.904 155.901C221.061 155.646 221.139 155.367 221.139 155.065V154.101C221.078 154.151 220.975 154.197 220.83 154.239C220.688 154.282 220.528 154.319 220.35 154.351C220.173 154.383 219.997 154.412 219.823 154.436C219.649 154.461 219.498 154.483 219.37 154.5C219.083 154.539 218.825 154.603 218.598 154.692C218.371 154.781 218.191 154.905 218.06 155.065C217.928 155.221 217.863 155.424 217.863 155.672C217.863 156.027 217.992 156.295 218.252 156.477C218.511 156.658 218.841 156.748 219.242 156.748ZM225.001 158V149.818H226.87V151.182H226.955C227.105 150.71 227.36 150.346 227.722 150.09C228.088 149.831 228.506 149.701 228.974 149.701C229.081 149.701 229.2 149.706 229.331 149.717C229.466 149.724 229.578 149.737 229.667 149.754V151.528C229.585 151.5 229.455 151.475 229.278 151.453C229.104 151.429 228.935 151.416 228.772 151.416C228.42 151.416 228.104 151.493 227.824 151.645C227.547 151.794 227.328 152.002 227.169 152.268C227.009 152.535 226.929 152.842 226.929 153.19V158H225.001ZM233.647 158.144C233.004 158.144 232.429 157.979 231.921 157.648C231.413 157.318 231.012 156.839 230.717 156.21C230.423 155.582 230.275 154.818 230.275 153.92C230.275 153.011 230.424 152.244 230.723 151.619C231.025 150.99 231.431 150.516 231.943 150.196C232.454 149.873 233.024 149.712 233.652 149.712C234.132 149.712 234.526 149.793 234.835 149.957C235.144 150.116 235.389 150.31 235.57 150.537C235.751 150.761 235.891 150.972 235.991 151.171H236.071V147.091H238.004V158H236.108V156.711H235.991C235.891 156.91 235.748 157.121 235.559 157.345C235.371 157.565 235.123 157.753 234.814 157.909C234.505 158.066 234.116 158.144 233.647 158.144ZM234.185 156.562C234.593 156.562 234.941 156.452 235.229 156.232C235.517 156.008 235.735 155.697 235.884 155.299C236.033 154.902 236.108 154.438 236.108 153.909C236.108 153.38 236.033 152.92 235.884 152.529C235.739 152.139 235.522 151.835 235.234 151.619C234.95 151.402 234.601 151.294 234.185 151.294C233.755 151.294 233.397 151.406 233.109 151.629C232.821 151.853 232.605 152.162 232.459 152.556C232.314 152.95 232.241 153.401 232.241 153.909C232.241 154.42 232.314 154.877 232.459 155.278C232.608 155.676 232.827 155.99 233.114 156.221C233.406 156.448 233.763 156.562 234.185 156.562ZM243.681 158.16C242.861 158.16 242.153 157.989 241.556 157.648C240.963 157.304 240.507 156.817 240.187 156.189C239.867 155.557 239.708 154.813 239.708 153.957C239.708 153.115 239.867 152.377 240.187 151.741C240.51 151.102 240.961 150.605 241.54 150.25C242.119 149.891 242.799 149.712 243.58 149.712C244.084 149.712 244.56 149.793 245.008 149.957C245.459 150.116 245.856 150.365 246.201 150.702C246.549 151.04 246.822 151.469 247.021 151.991C247.22 152.51 247.319 153.128 247.319 153.845V154.436H240.613V153.137H245.471C245.468 152.767 245.388 152.439 245.231 152.151C245.075 151.86 244.857 151.631 244.576 151.464C244.299 151.297 243.976 151.214 243.607 151.214C243.213 151.214 242.866 151.31 242.568 151.501C242.27 151.69 242.037 151.938 241.87 152.247C241.707 152.553 241.623 152.888 241.62 153.254V154.388C241.62 154.864 241.707 155.273 241.881 155.614C242.055 155.951 242.298 156.21 242.611 156.391C242.923 156.569 243.289 156.658 243.708 156.658C243.988 156.658 244.242 156.619 244.47 156.54C244.697 156.459 244.894 156.34 245.061 156.184C245.228 156.027 245.354 155.834 245.439 155.603L247.24 155.805C247.126 156.281 246.909 156.697 246.59 157.052C246.274 157.403 245.869 157.677 245.375 157.872C244.882 158.064 244.317 158.16 243.681 158.16ZM248.951 158V149.818H250.82V151.182H250.906C251.055 150.71 251.31 150.346 251.673 150.09C252.038 149.831 252.456 149.701 252.924 149.701C253.031 149.701 253.15 149.706 253.281 149.717C253.416 149.724 253.528 149.737 253.617 149.754V151.528C253.535 151.5 253.406 151.475 253.228 151.453C253.054 151.429 252.885 151.416 252.722 151.416C252.37 151.416 252.054 151.493 251.774 151.645C251.497 151.794 251.278 152.002 251.119 152.268C250.959 152.535 250.879 152.842 250.879 153.19V158H248.951ZM259.807 158.117C259.483 158.117 259.206 158.004 258.976 157.776C258.745 157.549 258.631 157.272 258.635 156.945C258.631 156.626 258.745 156.352 258.976 156.125C259.206 155.898 259.483 155.784 259.807 155.784C260.119 155.784 260.391 155.898 260.622 156.125C260.856 156.352 260.975 156.626 260.978 156.945C260.975 157.162 260.918 157.359 260.808 157.537C260.701 157.714 260.559 157.856 260.382 157.963C260.208 158.066 260.016 158.117 259.807 158.117ZM259.807 152.279C259.483 152.279 259.206 152.165 258.976 151.938C258.745 151.707 258.631 151.43 258.635 151.107C258.631 150.788 258.745 150.514 258.976 150.287C259.206 150.056 259.483 149.941 259.807 149.941C260.119 149.941 260.391 150.056 260.622 150.287C260.856 150.514 260.975 150.788 260.978 151.107C260.975 151.32 260.918 151.516 260.808 151.693C260.701 151.871 260.559 152.013 260.382 152.119C260.208 152.226 260.016 152.279 259.807 152.279ZM266.41 153.552C266.41 154.88 266.233 156.104 265.878 157.222C265.526 158.337 265.001 159.369 264.301 160.317H262.485C262.758 159.966 263.01 159.536 263.241 159.028C263.475 158.52 263.678 157.963 263.848 157.355C264.022 156.748 264.157 156.12 264.253 155.47C264.352 154.82 264.402 154.181 264.402 153.552C264.402 152.711 264.317 151.858 264.146 150.995C263.98 150.132 263.751 149.332 263.459 148.593C263.172 147.854 262.847 147.251 262.485 146.782H264.301C265.001 147.73 265.526 148.763 265.878 149.882C266.233 150.997 266.41 152.221 266.41 153.552Z" fill="#68B587"/>
<path d="M434.5 110C434.5 133.981 414.845 153.5 390.5 153.5C366.155 153.5 346.5 133.981 346.5 110C346.5 86.0195 366.155 66.5 390.5 66.5C414.845 66.5 434.5 86.0195 434.5 110Z" stroke="#2A3609" stroke-width="9"/>
<path d="M382.987 67.1389C389.522 66.0192 396.229 66.3747 402.605 68.1785C408.981 69.9823 414.859 73.187 419.803 77.55C424.746 81.9129 428.626 87.3211 431.157 93.369C433.688 99.4167 434.806 105.95 434.428 112.482C434.051 119.014 432.187 125.38 428.975 131.104C425.762 136.829 421.282 141.765 415.867 145.543C410.451 149.321 404.239 151.842 397.696 152.914C391.152 153.987 384.449 153.583 378.086 151.733" stroke="#91B302" stroke-width="9"/>
<path d="M371.619 119.239C370.483 119.239 369.466 119.026 368.568 118.599C367.67 118.168 366.957 117.577 366.429 116.827C365.906 116.077 365.628 115.219 365.594 114.253H368.662C368.719 114.969 369.028 115.554 369.591 116.009C370.153 116.457 370.83 116.682 371.619 116.682C372.239 116.682 372.79 116.54 373.273 116.256C373.756 115.972 374.136 115.577 374.415 115.071C374.693 114.565 374.83 113.989 374.824 113.341C374.83 112.682 374.69 112.097 374.406 111.585C374.122 111.074 373.733 110.673 373.239 110.384C372.744 110.088 372.176 109.94 371.534 109.94C371.011 109.935 370.497 110.031 369.991 110.23C369.486 110.429 369.085 110.69 368.79 111.014L365.935 110.545L366.847 101.545H376.972V104.188H369.463L368.96 108.815H369.062C369.386 108.435 369.844 108.119 370.435 107.869C371.026 107.614 371.673 107.486 372.378 107.486C373.435 107.486 374.378 107.736 375.207 108.236C376.037 108.73 376.69 109.412 377.168 110.281C377.645 111.151 377.884 112.145 377.884 113.264C377.884 114.418 377.616 115.446 377.082 116.349C376.554 117.247 375.818 117.955 374.875 118.472C373.938 118.983 372.852 119.239 371.619 119.239ZM387.19 119.332C385.787 119.332 384.582 118.977 383.577 118.267C382.577 117.551 381.807 116.52 381.267 115.173C380.733 113.821 380.466 112.193 380.466 110.29C380.472 108.386 380.741 106.767 381.276 105.432C381.815 104.091 382.585 103.068 383.585 102.364C384.591 101.659 385.793 101.307 387.19 101.307C388.588 101.307 389.79 101.659 390.795 102.364C391.801 103.068 392.571 104.091 393.105 105.432C393.645 106.773 393.915 108.392 393.915 110.29C393.915 112.199 393.645 113.83 393.105 115.182C392.571 116.528 391.801 117.557 390.795 118.267C389.795 118.977 388.594 119.332 387.19 119.332ZM387.19 116.665C388.281 116.665 389.142 116.128 389.773 115.054C390.409 113.974 390.727 112.386 390.727 110.29C390.727 108.903 390.582 107.739 390.293 106.795C390.003 105.852 389.594 105.142 389.065 104.665C388.537 104.182 387.912 103.94 387.19 103.94C386.105 103.94 385.247 104.48 384.616 105.56C383.986 106.634 383.668 108.21 383.662 110.29C383.656 111.682 383.795 112.852 384.08 113.801C384.369 114.75 384.778 115.466 385.307 115.949C385.835 116.426 386.463 116.665 387.19 116.665ZM406.079 115.727V114.807C406.079 114.131 406.221 113.509 406.505 112.94C406.795 112.372 407.215 111.915 407.766 111.568C408.317 111.222 408.985 111.048 409.769 111.048C410.576 111.048 411.252 111.222 411.798 111.568C412.343 111.909 412.755 112.364 413.033 112.932C413.317 113.5 413.46 114.125 413.46 114.807V115.727C413.46 116.403 413.317 117.026 413.033 117.594C412.749 118.162 412.332 118.619 411.781 118.966C411.235 119.313 410.565 119.486 409.769 119.486C408.974 119.486 408.3 119.313 407.749 118.966C407.198 118.619 406.781 118.162 406.496 117.594C406.218 117.026 406.079 116.403 406.079 115.727ZM408.303 114.807V115.727C408.303 116.176 408.411 116.588 408.627 116.963C408.843 117.338 409.224 117.526 409.769 117.526C410.32 117.526 410.698 117.341 410.903 116.972C411.113 116.597 411.218 116.182 411.218 115.727V114.807C411.218 114.352 411.119 113.938 410.92 113.562C410.721 113.182 410.337 112.991 409.769 112.991C409.235 112.991 408.857 113.182 408.636 113.562C408.414 113.938 408.303 114.352 408.303 114.807ZM397.207 105.739V104.818C397.207 104.136 397.352 103.511 397.641 102.943C397.931 102.375 398.352 101.92 398.903 101.58C399.454 101.233 400.121 101.06 400.906 101.06C401.707 101.06 402.38 101.233 402.925 101.58C403.477 101.92 403.891 102.375 404.17 102.943C404.448 103.511 404.587 104.136 404.587 104.818V105.739C404.587 106.42 404.445 107.045 404.161 107.614C403.883 108.176 403.468 108.628 402.917 108.969C402.366 109.31 401.695 109.48 400.906 109.48C400.104 109.48 399.428 109.31 398.877 108.969C398.332 108.628 397.917 108.173 397.633 107.605C397.349 107.037 397.207 106.415 397.207 105.739ZM399.448 104.818V105.739C399.448 106.193 399.553 106.608 399.763 106.983C399.979 107.352 400.36 107.537 400.906 107.537C401.451 107.537 401.826 107.352 402.031 106.983C402.241 106.608 402.346 106.193 402.346 105.739V104.818C402.346 104.364 402.246 103.949 402.048 103.574C401.849 103.193 401.468 103.003 400.906 103.003C400.366 103.003 399.988 103.193 399.772 103.574C399.556 103.955 399.448 104.369 399.448 104.818ZM398.178 119L410.178 101.545H412.309L400.309 119H398.178Z" fill="#68B587"/>
</svg>
